<?xml version="1.0" encoding="UTF-8" standalone="no"?>
<!-- Created with Inkscape (http://www.inkscape.org/) -->

<svg
   xmlns:dc="http://purl.org/dc/elements/1.1/"
   xmlns:cc="http://creativecommons.org/ns#"
   xmlns:rdf="http://www.w3.org/1999/02/22-rdf-syntax-ns#"
   xmlns:svg="http://www.w3.org/2000/svg"
   xmlns="http://www.w3.org/2000/svg"
   xmlns:sodipodi="http://sodipodi.sourceforge.net/DTD/sodipodi-0.dtd"
   xmlns:inkscape="http://www.inkscape.org/namespaces/inkscape"
   width="35.679096mm"
   height="3.539572mm"
   viewBox="0 0 35.679096 3.539572"
   version="1.1"
   id="svg1805"
   inkscape:version="0.92.3 (2405546, 2018-03-11)"
   sodipodi:docname="1D.svg">
  <defs
     id="defs1799" />
  <sodipodi:namedview
     id="base"
     pagecolor="#ffffff"
     bordercolor="#666666"
     borderopacity="1.0"
     inkscape:pageopacity="0.0"
     inkscape:pageshadow="2"
     inkscape:zoom="0.7"
     inkscape:cx="127.36136"
     inkscape:cy="-166.17067"
     inkscape:document-units="mm"
     inkscape:current-layer="layer1"
     showgrid="false"
     fit-margin-top="0"
     fit-margin-left="0"
     fit-margin-right="0"
     fit-margin-bottom="0"
     inkscape:window-width="994"
     inkscape:window-height="767"
     inkscape:window-x="914"
     inkscape:window-y="108"
     inkscape:window-maximized="0" />
  <metadata
     id="metadata1802">
    <rdf:RDF>
      <cc:Work
         rdf:about="">
        <dc:format>image/svg+xml</dc:format>
        <dc:type
           rdf:resource="http://purl.org/dc/dcmitype/StillImage" />
        <dc:title></dc:title>
      </cc:Work>
    </rdf:RDF>
  </metadata>
  <g
     inkscape:label="Layer 1"
     inkscape:groupmode="layer"
     id="layer1"
     transform="translate(-56.621762,-41.608189)">
    <g
       transform="matrix(0.47960169,0,0,0.47960169,19.121062,-30.773841)"
       id="layer1-6"
       inkscape:label="Layer 1"
       style="stroke-width:0.41701269;stroke-miterlimit:4;stroke-dasharray:none">
      <path
         sodipodi:nodetypes="ccsssssssscc"
         inkscape:connector-curvature="0"
         id="path4550-3"
         d="m 83.507535,154.82111 h 6.803572 c 0.506385,-4.21073 4.834594,-4.54482 4.834594,0.98573 0,3.0346 -1.960633,3.03671 -1.960633,-0.0408 0,-5.48975 4.830256,-5.50645 4.830256,-0.0278 0,3.10738 -1.937857,3.12408 -1.937857,0.0574 0,-5.51935 4.824853,-5.53605 4.824853,-0.0305 0,3.08048 -1.9472,3.09759 -1.9472,0.01 0,-5.49855 4.926,-5.49855 4.926,0.0202 0,3.06728 -1.94725,3.06728 -1.94725,-0.0236 0,-5.49515 4.17528,-5.16106 4.69413,-0.84985 l 7.89721,-0.006"
         style="display:inline;fill:none;stroke:#000000;stroke-width:0.41701269;stroke-linecap:butt;stroke-linejoin:miter;stroke-miterlimit:4;stroke-dasharray:none;stroke-opacity:1" />
    </g>
    <circle
       style="opacity:1;fill:#ff0000;fill-opacity:0.99470903;stroke:#000000;stroke-width:0.40000001;stroke-miterlimit:4;stroke-dasharray:none;stroke-dashoffset:0"
       id="path815"
       cx="58.291744"
       cy="43.278172"
       r="1.4699824" />
    <g
       transform="matrix(0.47960169,0,0,0.47960169,35.116564,-30.86649)"
       id="layer1-6-2"
       inkscape:label="Layer 1"
       style="stroke-width:0.41701272;stroke-miterlimit:4;stroke-dasharray:none">
      <path
         sodipodi:nodetypes="ccsssssssscc"
         inkscape:connector-curvature="0"
         id="path4550-3-9"
         d="m 83.507535,154.82111 h 6.803572 c 0.506385,-4.21073 4.834594,-4.54482 4.834594,0.98573 0,3.0346 -1.960633,3.03671 -1.960633,-0.0408 0,-5.48975 4.830256,-5.50645 4.830256,-0.0278 0,3.10738 -1.937857,3.12408 -1.937857,0.0574 0,-5.51935 4.824853,-5.53605 4.824853,-0.0305 0,3.08048 -1.9472,3.09759 -1.9472,0.01 0,-5.49855 4.926,-5.49855 4.926,0.0202 0,3.06728 -1.94725,3.06728 -1.94725,-0.0236 0,-5.49515 4.17528,-5.16106 4.69413,-0.84985 l 7.89721,-0.006"
         style="display:inline;fill:none;stroke:#000000;stroke-width:0.41701272;stroke-linecap:butt;stroke-linejoin:miter;stroke-miterlimit:4;stroke-dasharray:none;stroke-opacity:1" />
    </g>
    <circle
       style="opacity:1;fill:#ff0000;fill-opacity:0.99470903;stroke:#000000;stroke-width:0.40000001;stroke-miterlimit:4;stroke-dasharray:none;stroke-dashoffset:0"
       id="path815-3"
       cx="74.25959"
       cy="43.400345"
       r="1.4699824" />
    <circle
       style="opacity:1;fill:#ff0000;fill-opacity:0.99470903;stroke:#000000;stroke-width:0.40000001;stroke-miterlimit:4;stroke-dasharray:none;stroke-dashoffset:0"
       id="path815-3-6"
       cx="90.630875"
       cy="43.42802"
       r="1.4699824" />
  </g>
</svg>
