<?xml version="1.0" encoding="UTF-8" standalone="no"?>
<!-- Created with Inkscape (http://www.inkscape.org/) -->

<svg
   xmlns:dc="http://purl.org/dc/elements/1.1/"
   xmlns:cc="http://creativecommons.org/ns#"
   xmlns:rdf="http://www.w3.org/1999/02/22-rdf-syntax-ns#"
   xmlns:svg="http://www.w3.org/2000/svg"
   xmlns="http://www.w3.org/2000/svg"
   xmlns:sodipodi="http://sodipodi.sourceforge.net/DTD/sodipodi-0.dtd"
   xmlns:inkscape="http://www.inkscape.org/namespaces/inkscape"
   width="27.891291mm"
   height="24.876112mm"
   viewBox="0 0 27.89129 24.876112"
   version="1.1"
   id="svg1805"
   inkscape:version="0.92.3 (2405546, 2018-03-11)"
   sodipodi:docname="3D.svg">
  <defs
     id="defs1799" />
  <sodipodi:namedview
     id="base"
     pagecolor="#ffffff"
     bordercolor="#666666"
     borderopacity="1.0"
     inkscape:pageopacity="0.0"
     inkscape:pageshadow="2"
     inkscape:zoom="0.7"
     inkscape:cx="123.313"
     inkscape:cy="-139.47211"
     inkscape:document-units="mm"
     inkscape:current-layer="layer1"
     showgrid="false"
     fit-margin-top="0"
     fit-margin-left="0"
     fit-margin-right="0"
     fit-margin-bottom="0"
     inkscape:window-width="994"
     inkscape:window-height="767"
     inkscape:window-x="914"
     inkscape:window-y="108"
     inkscape:window-maximized="0" />
  <metadata
     id="metadata1802">
    <rdf:RDF>
      <cc:Work
         rdf:about="">
        <dc:format>image/svg+xml</dc:format>
        <dc:type
           rdf:resource="http://purl.org/dc/dcmitype/StillImage" />
        <dc:title></dc:title>
      </cc:Work>
    </rdf:RDF>
  </metadata>
  <g
     inkscape:label="Layer 1"
     inkscape:groupmode="layer"
     id="layer1"
     transform="translate(-57.692891,-27.335642)">
    <g
       transform="matrix(0.47960169,0,0,0.47960169,19.871066,-39.904506)"
       id="layer1-6-2-9-2"
       inkscape:label="Layer 1"
       style="stroke-width:0.41701272;stroke-miterlimit:4;stroke-dasharray:none">
      <path
         sodipodi:nodetypes="ccsssssssscc"
         inkscape:connector-curvature="0"
         id="path4550-3-9-3-3"
         d="m 83.507535,154.82111 h 6.803572 c 0.506385,-4.21073 4.834594,-4.54482 4.834594,0.98573 0,3.0346 -1.960633,3.03671 -1.960633,-0.0408 0,-5.48975 4.830256,-5.50645 4.830256,-0.0278 0,3.10738 -1.937857,3.12408 -1.937857,0.0574 0,-5.51935 4.824853,-5.53605 4.824853,-0.0305 0,3.08048 -1.9472,3.09759 -1.9472,0.01 0,-5.49855 4.926,-5.49855 4.926,0.0202 0,3.06728 -1.94725,3.06728 -1.94725,-0.0236 0,-5.49515 4.17528,-5.16106 4.69413,-0.84985 l 7.89721,-0.006"
         style="display:inline;fill:none;stroke:#000000;stroke-width:0.41701272;stroke-linecap:butt;stroke-linejoin:miter;stroke-miterlimit:4;stroke-dasharray:none;stroke-opacity:1" />
    </g>
    <g
       transform="matrix(0,0.47960169,-0.47960169,0,150.1785,-5.1360522)"
       id="layer1-6-2-6-7"
       inkscape:label="Layer 1"
       style="stroke-width:0.41701272;stroke-miterlimit:4;stroke-dasharray:none">
      <path
         sodipodi:nodetypes="ccsssssssscc"
         inkscape:connector-curvature="0"
         id="path4550-3-9-0-5"
         d="m 83.507535,154.82111 h 6.803572 c 0.506385,-4.21073 4.834594,-4.54482 4.834594,0.98573 0,3.0346 -1.960633,3.03671 -1.960633,-0.0408 0,-5.48975 4.830256,-5.50645 4.830256,-0.0278 0,3.10738 -1.937857,3.12408 -1.937857,0.0574 0,-5.51935 4.824853,-5.53605 4.824853,-0.0305 0,3.08048 -1.9472,3.09759 -1.9472,0.01 0,-5.49855 4.926,-5.49855 4.926,0.0202 0,3.06728 -1.94725,3.06728 -1.94725,-0.0236 0,-5.49515 4.17528,-5.16106 4.69413,-0.84985 l 7.89721,-0.006"
         style="display:inline;fill:none;stroke:#000000;stroke-width:0.41701272;stroke-linecap:butt;stroke-linejoin:miter;stroke-miterlimit:4;stroke-dasharray:none;stroke-opacity:1" />
    </g>
    <g
       transform="matrix(0,0.47960169,-0.47960169,0,133.69597,-4.8980252)"
       id="layer1-6-2-62-9"
       inkscape:label="Layer 1"
       style="stroke-width:0.41701272;stroke-miterlimit:4;stroke-dasharray:none">
      <path
         sodipodi:nodetypes="ccsssssssscc"
         inkscape:connector-curvature="0"
         id="path4550-3-9-6-2"
         d="m 83.507535,154.82111 h 6.803572 c 0.506385,-4.21073 4.834594,-4.54482 4.834594,0.98573 0,3.0346 -1.960633,3.03671 -1.960633,-0.0408 0,-5.48975 4.830256,-5.50645 4.830256,-0.0278 0,3.10738 -1.937857,3.12408 -1.937857,0.0574 0,-5.51935 4.824853,-5.53605 4.824853,-0.0305 0,3.08048 -1.9472,3.09759 -1.9472,0.01 0,-5.49855 4.926,-5.49855 4.926,0.0202 0,3.06728 -1.94725,3.06728 -1.94725,-0.0236 0,-5.49515 4.17528,-5.16106 4.69413,-0.84985 l 7.89721,-0.006"
         style="display:inline;fill:none;stroke:#000000;stroke-width:0.41701272;stroke-linecap:butt;stroke-linejoin:miter;stroke-miterlimit:4;stroke-dasharray:none;stroke-opacity:1" />
    </g>
    <g
       transform="matrix(0.47960169,0,0,0.47960169,19.965562,-23.746024)"
       id="layer1-6-2-1-2"
       inkscape:label="Layer 1"
       style="stroke-width:0.41701272;stroke-miterlimit:4;stroke-dasharray:none">
      <path
         sodipodi:nodetypes="ccsssssssscc"
         inkscape:connector-curvature="0"
         id="path4550-3-9-8-8"
         d="m 83.507535,154.82111 h 6.803572 c 0.506385,-4.21073 4.834594,-4.54482 4.834594,0.98573 0,3.0346 -1.960633,3.03671 -1.960633,-0.0408 0,-5.48975 4.830256,-5.50645 4.830256,-0.0278 0,3.10738 -1.937857,3.12408 -1.937857,0.0574 0,-5.51935 4.824853,-5.53605 4.824853,-0.0305 0,3.08048 -1.9472,3.09759 -1.9472,0.01 0,-5.49855 4.926,-5.49855 4.926,0.0202 0,3.06728 -1.94725,3.06728 -1.94725,-0.0236 0,-5.49515 4.17528,-5.16106 4.69413,-0.84985 l 7.89721,-0.006"
         style="display:inline;fill:none;stroke:#000000;stroke-width:0.41701272;stroke-linecap:butt;stroke-linejoin:miter;stroke-miterlimit:4;stroke-dasharray:none;stroke-opacity:1" />
    </g>
    <circle
       style="opacity:1;fill:#ff0000;fill-opacity:0.99470903;stroke:#000000;stroke-width:0.40000001;stroke-miterlimit:4;stroke-dasharray:none;stroke-dashoffset:0"
       id="path815-3-7-2"
       cx="59.457371"
       cy="50.514091"
       r="1.4699824" />
    <g
       transform="matrix(0.47960169,0,0,0.47960169,27.903051,-45.290666)"
       id="layer1-6-2-9-1"
       inkscape:label="Layer 1"
       style="stroke-width:0.41701272;stroke-miterlimit:4;stroke-dasharray:none">
      <path
         sodipodi:nodetypes="ccsssssssscc"
         inkscape:connector-curvature="0"
         id="path4550-3-9-3-2"
         d="m 83.507535,154.82111 h 6.803572 c 0.506385,-4.21073 4.834594,-4.54482 4.834594,0.98573 0,3.0346 -1.960633,3.03671 -1.960633,-0.0408 0,-5.48975 4.830256,-5.50645 4.830256,-0.0278 0,3.10738 -1.937857,3.12408 -1.937857,0.0574 0,-5.51935 4.824853,-5.53605 4.824853,-0.0305 0,3.08048 -1.9472,3.09759 -1.9472,0.01 0,-5.49855 4.926,-5.49855 4.926,0.0202 0,3.06728 -1.94725,3.06728 -1.94725,-0.0236 0,-5.49515 4.17528,-5.16106 4.69413,-0.84985 l 7.89721,-0.006"
         style="display:inline;fill:none;stroke:#000000;stroke-width:0.41701272;stroke-linecap:butt;stroke-linejoin:miter;stroke-miterlimit:4;stroke-dasharray:none;stroke-opacity:1" />
    </g>
    <g
       transform="matrix(0,0.47960169,-0.47960169,0,158.21049,-10.522212)"
       id="layer1-6-2-6-9"
       inkscape:label="Layer 1"
       style="stroke-width:0.41701272;stroke-miterlimit:4;stroke-dasharray:none">
      <path
         sodipodi:nodetypes="ccsssssssscc"
         inkscape:connector-curvature="0"
         id="path4550-3-9-0-3"
         d="m 83.507535,154.82111 h 6.803572 c 0.506385,-4.21073 4.834594,-4.54482 4.834594,0.98573 0,3.0346 -1.960633,3.03671 -1.960633,-0.0408 0,-5.48975 4.830256,-5.50645 4.830256,-0.0278 0,3.10738 -1.937857,3.12408 -1.937857,0.0574 0,-5.51935 4.824853,-5.53605 4.824853,-0.0305 0,3.08048 -1.9472,3.09759 -1.9472,0.01 0,-5.49855 4.926,-5.49855 4.926,0.0202 0,3.06728 -1.94725,3.06728 -1.94725,-0.0236 0,-5.49515 4.17528,-5.16106 4.69413,-0.84985 l 7.89721,-0.006"
         style="display:inline;fill:none;stroke:#000000;stroke-width:0.41701272;stroke-linecap:butt;stroke-linejoin:miter;stroke-miterlimit:4;stroke-dasharray:none;stroke-opacity:1" />
    </g>
    <g
       transform="matrix(0.24241033,-0.16377605,0.1696323,0.23404155,13.003218,11.336894)"
       id="layer1-6-2-9-1-8"
       inkscape:label="Layer 1"
       style="stroke-width:0.41701272;stroke-miterlimit:4;stroke-dasharray:none">
      <path
         sodipodi:nodetypes="ccsssssssscc"
         inkscape:connector-curvature="0"
         id="path4550-3-9-3-2-4"
         d="m 83.507535,154.82111 h 6.803572 c 0.506385,-4.21073 4.834594,-4.54482 4.834594,0.98573 0,3.0346 -1.960633,3.03671 -1.960633,-0.0408 0,-5.48975 4.830256,-5.50645 4.830256,-0.0278 0,3.10738 -1.937857,3.12408 -1.937857,0.0574 0,-5.51935 4.824853,-5.53605 4.824853,-0.0305 0,3.08048 -1.9472,3.09759 -1.9472,0.01 0,-5.49855 4.926,-5.49855 4.926,0.0202 0,3.06728 -1.94725,3.06728 -1.94725,-0.0236 0,-5.49515 4.17528,-5.16106 4.69413,-0.84985 l 7.89721,-0.006"
         style="display:inline;fill:none;stroke:#000000;stroke-width:0.41701272;stroke-linecap:butt;stroke-linejoin:miter;stroke-miterlimit:4;stroke-dasharray:none;stroke-opacity:1" />
    </g>
    <circle
       style="opacity:1;fill:#ff0000;fill-opacity:0.99470903;stroke:#000000;stroke-width:0.40000001;stroke-miterlimit:4;stroke-dasharray:none;stroke-dashoffset:0"
       id="path815-3-1-9"
       cx="67.394875"
       cy="29.158442"
       r="1.4699824" />
    <circle
       style="opacity:1;fill:#ff0000;fill-opacity:0.99470903;stroke:#000000;stroke-width:0.40000001;stroke-miterlimit:4;stroke-dasharray:none;stroke-dashoffset:0"
       id="path815-3-1-7"
       cx="59.362873"
       cy="34.544601"
       r="1.4699824" />
    <g
       transform="matrix(0.24241033,-0.16377605,0.1696323,0.23404155,29.538962,11.712536)"
       id="layer1-6-2-9-1-8-5"
       inkscape:label="Layer 1"
       style="stroke-width:0.41701272;stroke-miterlimit:4;stroke-dasharray:none">
      <path
         sodipodi:nodetypes="ccsssssssscc"
         inkscape:connector-curvature="0"
         id="path4550-3-9-3-2-4-0"
         d="m 83.507535,154.82111 h 6.803572 c 0.506385,-4.21073 4.834594,-4.54482 4.834594,0.98573 0,3.0346 -1.960633,3.03671 -1.960633,-0.0408 0,-5.48975 4.830256,-5.50645 4.830256,-0.0278 0,3.10738 -1.937857,3.12408 -1.937857,0.0574 0,-5.51935 4.824853,-5.53605 4.824853,-0.0305 0,3.08048 -1.9472,3.09759 -1.9472,0.01 0,-5.49855 4.926,-5.49855 4.926,0.0202 0,3.06728 -1.94725,3.06728 -1.94725,-0.0236 0,-5.49515 4.17528,-5.16106 4.69413,-0.84985 l 7.89721,-0.006"
         style="display:inline;fill:none;stroke:#000000;stroke-width:0.41701272;stroke-linecap:butt;stroke-linejoin:miter;stroke-miterlimit:4;stroke-dasharray:none;stroke-opacity:1" />
    </g>
    <circle
       style="opacity:1;fill:#ff0000;fill-opacity:0.99470903;stroke:#000000;stroke-width:0.40000001;stroke-miterlimit:4;stroke-dasharray:none;stroke-dashoffset:0"
       id="path815-3-6-2-9"
       cx="75.734154"
       cy="34.572281"
       r="1.4699824" />
    <circle
       style="opacity:1;fill:#ff0000;fill-opacity:0.99470903;stroke:#000000;stroke-width:0.40000001;stroke-miterlimit:4;stroke-dasharray:none;stroke-dashoffset:0"
       id="path815-3-6-2-7"
       cx="83.766151"
       cy="29.186121"
       r="1.4699824" />
    <g
       transform="matrix(0.24241033,-0.16377605,0.1696323,0.23404155,29.727962,27.871018)"
       id="layer1-6-2-9-1-8-3"
       inkscape:label="Layer 1"
       style="stroke-width:0.41701272;stroke-miterlimit:4;stroke-dasharray:none">
      <path
         sodipodi:nodetypes="ccsssssssscc"
         inkscape:connector-curvature="0"
         id="path4550-3-9-3-2-4-6"
         d="m 83.507535,154.82111 h 6.803572 c 0.506385,-4.21073 4.834594,-4.54482 4.834594,0.98573 0,3.0346 -1.960633,3.03671 -1.960633,-0.0408 0,-5.48975 4.830256,-5.50645 4.830256,-0.0278 0,3.10738 -1.937857,3.12408 -1.937857,0.0574 0,-5.51935 4.824853,-5.53605 4.824853,-0.0305 0,3.08048 -1.9472,3.09759 -1.9472,0.01 0,-5.49855 4.926,-5.49855 4.926,0.0202 0,3.06728 -1.94725,3.06728 -1.94725,-0.0236 0,-5.49515 4.17528,-5.16106 4.69413,-0.84985 l 7.89721,-0.006"
         style="display:inline;fill:none;stroke:#000000;stroke-width:0.41701272;stroke-linecap:butt;stroke-linejoin:miter;stroke-miterlimit:4;stroke-dasharray:none;stroke-opacity:1" />
    </g>
    <circle
       style="opacity:1;fill:#ff0000;fill-opacity:0.99470903;stroke:#000000;stroke-width:0.40000001;stroke-miterlimit:4;stroke-dasharray:none;stroke-dashoffset:0"
       id="path815-3-6-0-6"
       cx="83.860649"
       cy="45.155617"
       r="1.4699824" />
    <circle
       style="opacity:1;fill:#ff0000;fill-opacity:0.99470903;stroke:#000000;stroke-width:0.40000001;stroke-miterlimit:4;stroke-dasharray:none;stroke-dashoffset:0"
       id="path815-3-6-0-0"
       cx="75.828651"
       cy="50.541771"
       r="1.4699824" />
  </g>
</svg>
