<?xml version="1.0" encoding="UTF-8" standalone="no"?>
<!-- Created with Inkscape (http://www.inkscape.org/) -->

<svg
   xmlns:dc="http://purl.org/dc/elements/1.1/"
   xmlns:cc="http://creativecommons.org/ns#"
   xmlns:rdf="http://www.w3.org/1999/02/22-rdf-syntax-ns#"
   xmlns:svg="http://www.w3.org/2000/svg"
   xmlns="http://www.w3.org/2000/svg"
   xmlns:xlink="http://www.w3.org/1999/xlink"
   xmlns:sodipodi="http://sodipodi.sourceforge.net/DTD/sodipodi-0.dtd"
   xmlns:inkscape="http://www.inkscape.org/namespaces/inkscape"
   width="51.216553mm"
   height="97.408257mm"
   viewBox="0 0 51.216552 97.408256"
   version="1.1"
   id="svg8"
   inkscape:version="0.92.3 (2405546, 2018-03-11)"
   sodipodi:docname="kernel_continuous.svg">
  <sodipodi:namedview
     id="base"
     pagecolor="#ffffff"
     bordercolor="#666666"
     borderopacity="1.0"
     inkscape:pageopacity="0.0"
     inkscape:pageshadow="2"
     inkscape:zoom="1.4"
     inkscape:cx="-32.159578"
     inkscape:cy="201.35406"
     inkscape:document-units="mm"
     inkscape:current-layer="layer1"
     showgrid="false"
     inkscape:window-width="1497"
     inkscape:window-height="898"
     inkscape:window-x="423"
     inkscape:window-y="68"
     inkscape:window-maximized="0"
     fit-margin-top="0"
     fit-margin-left="0"
     fit-margin-right="0"
     fit-margin-bottom="0" />
  <defs
     id="defs2">
    <linearGradient
       inkscape:collect="always"
       id="linearGradient1120">
      <stop
         style="stop-color:#ff0000;stop-opacity:1;"
         offset="0"
         id="stop1116" />
      <stop
         style="stop-color:#ff0000;stop-opacity:0;"
         offset="1"
         id="stop1118" />
    </linearGradient>
    <marker
       inkscape:isstock="true"
       style="overflow:visible"
       id="TriangleInL"
       refX="0"
       refY="0"
       orient="auto"
       inkscape:stockid="TriangleInL">
      <path
         transform="scale(-0.8)"
         style="fill:#000000;fill-opacity:1;fill-rule:evenodd;stroke:#000000;stroke-width:1.00000003pt;stroke-opacity:1"
         d="M 5.77,0 -2.88,5 V -5 Z"
         id="path1218"
         inkscape:connector-curvature="0" />
    </marker>
    <marker
       inkscape:isstock="true"
       style="overflow:visible"
       id="TriangleOutL"
       refX="0"
       refY="0"
       orient="auto"
       inkscape:stockid="TriangleOutL">
      <path
         transform="scale(0.8)"
         style="fill:#000000;fill-opacity:1;fill-rule:evenodd;stroke:#000000;stroke-width:1.00000003pt;stroke-opacity:1"
         d="M 5.77,0 -2.88,5 V -5 Z"
         id="path1227"
         inkscape:connector-curvature="0" />
    </marker>
    <marker
       inkscape:isstock="true"
       style="overflow:visible"
       id="Arrow2Lend"
       refX="0"
       refY="0"
       orient="auto"
       inkscape:stockid="Arrow2Lend">
      <path
         transform="matrix(-1.1,0,0,-1.1,-1.1,0)"
         d="M 8.7185878,4.0337352 -2.2072895,0.01601326 8.7185884,-4.0017078 c -1.7454984,2.3720609 -1.7354408,5.6174519 -6e-7,8.035443 z"
         style="fill:#000000;fill-opacity:1;fill-rule:evenodd;stroke:#000000;stroke-width:0.625;stroke-linejoin:round;stroke-opacity:1"
         id="path1106"
         inkscape:connector-curvature="0" />
    </marker>
    <clipPath
       id="clipPath88"
       clipPathUnits="userSpaceOnUse">
      <path
         inkscape:connector-curvature="0"
         id="path86"
         d="M 2099.61,3720.03 C 1751.84,3717.02 1435.43,2572.45 1224.61,2233.5 892.5,1699.56 527.621,1364.99 207.621,1399.25 L 2116.09,1205.03 4076.09,988 c -394.29,37.15 -918.63,924.14 -1081.48,1297.03 -290.82,665.78 -489.92,1397.07 -878.52,1434.22 -5.54,0.54 -10.97,0.82 -16.48,0.78 z" />
    </clipPath>
    <linearGradient
       id="linearGradient100"
       spreadMethod="pad"
       gradientTransform="matrix(8,0,0,-8,-1083.9,5292.51)"
       gradientUnits="userSpaceOnUse"
       y2="367.31201"
       x2="645.5"
       y1="367.31201"
       x1="160.938">
      <stop
         id="stop90"
         offset="0"
         style="stop-opacity:1;stop-color:#ffffff" />
      <stop
         id="stop92"
         offset="0.25"
         style="stop-opacity:1;stop-color:#ffc4c4" />
      <stop
         id="stop94"
         offset="0.5"
         style="stop-opacity:1;stop-color:#ff0000" />
      <stop
         id="stop96"
         offset="0.75"
         style="stop-opacity:1;stop-color:#ffc4c4" />
      <stop
         id="stop98"
         offset="1"
         style="stop-opacity:1;stop-color:#ffffff" />
    </linearGradient>
    <clipPath
       id="clipPath70"
       clipPathUnits="userSpaceOnUse">
      <path
         inkscape:connector-curvature="0"
         id="path68"
         d="m 4084.1,988 c 34.38,70.66 52.5,144.37 52.5,220 0,276.99 -243.51,526.75 -633.79,703.08 m 0,0 c -268.55,117.15 -543.86,728.25 -543.86,728.25 0,0 -374.26,1018.55 -842.86,1080 V 1205.03 L 4084.1,988" />
    </clipPath>
    <radialGradient
       id="radialGradient76"
       spreadMethod="pad"
       gradientTransform="matrix(11.786,-12.9807,-7.99828,-7.26215,-432.198,11054.5)"
       gradientUnits="userSpaceOnUse"
       r="126.781"
       cy="291.71701"
       cx="444.138"
       fy="291.71701"
       fx="444.138">
      <stop
         id="stop72"
         offset="0"
         style="stop-opacity:1;stop-color:#ffffff" />
      <stop
         id="stop74"
         offset="1"
         style="stop-opacity:1;stop-color:#000000" />
    </radialGradient>
    <clipPath
       id="clipPath44"
       clipPathUnits="userSpaceOnUse">
      <path
         inkscape:connector-curvature="0"
         id="path42"
         d="m 199.609,1400.03 c -26.91,-63.95 -41.25,-129.96 -41.25,-197.78 0,-538.16 890.621,-974.488 1989.261,-974.488 946.99,0 1739.29,324.066 1940,758.238 z" />
    </clipPath>
    <radialGradient
       id="radialGradient52"
       spreadMethod="pad"
       gradientTransform="matrix(10.2011,0,0,-5.02487,-1925.61,6479.4)"
       gradientUnits="userSpaceOnUse"
       r="195.5"
       cy="1050.22"
       cx="399.28601"
       fy="1050.22"
       fx="399.28601">
      <stop
         id="stop46"
         offset="0"
         style="stop-opacity:1;stop-color:#ff0000" />
      <stop
         id="stop48"
         offset="0.5"
         style="stop-opacity:1;stop-color:#ffc4c4" />
      <stop
         id="stop50"
         offset="1"
         style="stop-opacity:1;stop-color:#ffffff" />
    </radialGradient>
    <clipPath
       id="clipPath24"
       clipPathUnits="userSpaceOnUse">
      <path
         inkscape:connector-curvature="0"
         id="path22"
         d="m 4136.72,1202.18 c 0,-538.168 -890.59,-974.418 -1989.18,-974.418 -1098.63,0 -1989.22,436.25 -1989.22,974.418 0,538.16 890.59,974.45 1989.22,974.45 1098.59,0 1989.18,-436.29 1989.18,-974.45 z" />
    </clipPath>
    <radialGradient
       id="radialGradient30"
       spreadMethod="pad"
       gradientTransform="matrix(13.3578,4.38436,1.56704,-4.77428,-4333.44,5046.26)"
       gradientUnits="userSpaceOnUse"
       r="195.5"
       cy="992.323"
       cx="270.15799"
       fy="992.323"
       fx="270.15799">
      <stop
         id="stop26"
         offset="0"
         style="stop-opacity:1;stop-color:#ffffff" />
      <stop
         id="stop28"
         offset="1"
         style="stop-opacity:1;stop-color:#000000" />
    </radialGradient>
    <radialGradient
       inkscape:collect="always"
       xlink:href="#linearGradient1120"
       id="radialGradient1124"
       cx="66.42614"
       cy="63.637306"
       fx="66.42614"
       fy="63.637306"
       r="24.848587"
       gradientUnits="userSpaceOnUse" />
  </defs>
  <metadata
     id="metadata5">
    <rdf:RDF>
      <cc:Work
         rdf:about="">
        <dc:format>image/svg+xml</dc:format>
        <dc:type
           rdf:resource="http://purl.org/dc/dcmitype/StillImage" />
        <dc:title></dc:title>
      </cc:Work>
    </rdf:RDF>
  </metadata>
  <g
     id="layer1"
     inkscape:groupmode="layer"
     inkscape:label="Layer 1"
     transform="translate(-40.598837,8.9223664)">
    <circle
       r="24.348587"
       cy="63.637306"
       cx="66.42614"
       id="path1077"
       style="opacity:1;fill:url(#radialGradient1124);fill-opacity:1;stroke:#0000ff;stroke-width:1;stroke-miterlimit:4;stroke-dasharray:3.00000008, 3.00000008;stroke-dashoffset:0" />
    <circle
       r="1.2284226"
       cy="63.599701"
       cx="66.334816"
       id="path1081"
       style="opacity:1;fill:#000000;fill-opacity:0.99470903;stroke:#000000;stroke-width:0.5;stroke-miterlimit:4;stroke-dasharray:none;stroke-dashoffset:0" />
    <path
       sodipodi:nodetypes="cc"
       inkscape:connector-curvature="0"
       id="path1083"
       d="M 69.623711,62.470989 87.798039,57.860588"
       style="fill:none;stroke:#000000;stroke-width:0.26458332px;stroke-linecap:butt;stroke-linejoin:miter;stroke-opacity:1;marker-start:url(#TriangleInL);marker-end:url(#TriangleOutL)" />
    <g
       id="g1899"
       transform="matrix(0.64118417,0,0,0.64118417,-140.79823,-15.999617)"
       style="fill:#000000">
      <g
         id="g1897"
         transform="matrix(0.3,0,0,-0.3,-52.5,222.75)"
         xml:space="preserve"
         stroke-miterlimit="10.433"
         font-style="normal"
         font-variant="normal"
         font-weight="normal"
         font-stretch="normal"
         font-size-adjust="none"
         letter-spacing="normal"
         word-spacing="normal"
         style="font-style:normal;font-variant:normal;font-weight:normal;font-stretch:normal;letter-spacing:normal;word-spacing:normal;text-anchor:start;fill:#000000;fill-opacity:1;fill-rule:evenodd;stroke:#000000;stroke-linecap:butt;stroke-linejoin:miter;stroke-miterlimit:10.43299961;stroke-dasharray:none;stroke-dashoffset:0;stroke-opacity:1"><path
           d="m 1229.8,340.36 v -0.15 -0.15 l -0.1,-0.14 v -0.13 -0.12 l -0.1,-0.12 v -0.11 -0.11 l -0.1,-0.1 v -0.09 l -0.1,-0.09 v -0.08 l -0.1,-0.07 v -0.07 l -0.1,-0.06 v -0.06 l -0.1,-0.06 -0.1,-0.05 v -0.04 l -0.1,-0.04 -0.1,-0.04 -0.1,-0.03 -0.1,-0.03 -0.2,-0.02 -0.1,-0.02 v -0.01 l -0.1,-0.01 -0.1,-0.01 h -0.1 v -0.01 l -0.1,-0.01 h -0.1 -0.1 l -0.1,-0.01 h -0.1 -0.1 v 0 h -0.1 -0.1 c -0.6,0 -1.2,0 -1.2,-0.94 0,-0.41 0.3,-0.61 0.7,-0.61 1.3,0 2.7,0.16 4.1,0.16 1.7,0 3.4,-0.16 5,-0.16 0.2,0 0.9,0 0.9,1 0,0.55 -0.5,0.55 -1.2,0.55 -2.5,0 -2.5,0.36 -2.5,0.79 0,0.61 2.1,8.72 2.4,9.97 0.7,-1.44 2.1,-3.19 4.6,-3.19 v 1.1 c -3.3,0 -4,4.14 -4,4.44 0,0.09 0,0.2 0.2,0.79 l 2.4,9.77 c 0.4,1.34 1.7,2.73 2.6,3.48 1.7,1.55 3.2,1.89 4,1.89 2,0 3.2,-1.73 3.2,-4.68 0,-2.94 -1.6,-8.66 -2.5,-10.57 -1.7,-3.48 -4.1,-5.12 -5.9,-5.12 v -1.1 c 5.8,0 12,7.27 12,14.6 0,4.69 -2.8,7.97 -6.6,7.97 -2.5,0 -4.9,-1.78 -6.5,-3.74 -0.5,2.69 -2.7,3.74 -4.5,3.74 -2.3,0 -3.3,-1.94 -3.7,-2.83 -0.9,-1.7 -1.5,-4.69 -1.5,-4.84 0,-0.5 0.5,-0.5 0.5,-0.5 0.5,0 0.6,0.06 0.9,1.15 0.8,3.53 1.8,5.92 3.6,5.92 0.9,0 1.6,-0.39 1.6,-2.28 0,-1.15 -0.2,-1.7 -0.4,-2.54 z"
           id="path1895"
           inkscape:connector-curvature="0"
           style="fill:#000000;stroke-width:0" /></g>    </g>
    <g
       transform="matrix(1.7716604,-0.47471497,0.47471497,1.7716604,-91.93312,74.955216)"
       id="g940">
      <g
         style="font-style:normal;font-variant:normal;font-weight:normal;font-stretch:normal;letter-spacing:normal;word-spacing:normal;text-anchor:start;fill:none;fill-opacity:1;fill-rule:evenodd;stroke:#000000;stroke-linecap:butt;stroke-linejoin:miter;stroke-miterlimit:10.43299961;stroke-dasharray:none;stroke-dashoffset:0;stroke-opacity:1"
         id="g938"
         transform="matrix(0.08664563,0,0,-0.08664563,-15.162985,45.666129)"
         xml:space="preserve"
         stroke-miterlimit="10.433"
         font-style="normal"
         font-variant="normal"
         font-weight="normal"
         font-stretch="normal"
         font-size-adjust="none"
         letter-spacing="normal"
         word-spacing="normal"><path
           style="fill:#000000;stroke-width:0"
           inkscape:connector-curvature="0"
           d="m 1240.1,380.47 v 0.01 0 0.01 0.01 0.01 0.01 0.02 0.02 0.02 0.02 0.02 0.02 0.03 0.02 l -0.1,0.02 v 0.03 0.02 0.03 0.02 0.03 l -0.1,0.02 v 0.01 0.01 0.01 0.01 0.01 0.01 l -0.1,0.01 v 0.01 0.01 0.01 0.01 0 l -0.1,0.01 v 0.01 0 0.01 h -0.1 v 0.01 0 0 l -0.1,0.01 v 0 0 0 c -1.2,0 -4.8,-0.41 -6.1,-0.5 -0.4,-0.05 -1,-0.09 -1,-1 0,-0.59 0.5,-0.59 1.2,-0.59 2.4,0 2.5,-0.35 2.5,-0.85 l -0.1,-1 -7.3,-28.7 c -0.2,-0.69 -0.2,-0.8 -0.2,-1.09 0,-1.15 1,-1.4 1.5,-1.4 0.8,0 1.6,0.6 1.8,1.3 l 1,3.78 1.1,4.49 c 0.3,1.09 0.6,2.18 0.8,3.34 0.1,0.3 0.5,1.94 0.6,2.24 0.1,0.45 1.7,3.25 3.4,4.59 1.1,0.8 2.6,1.73 4.7,1.73 2.2,0 2.7,-1.68 2.7,-3.48 0,-2.69 -1.9,-8.13 -3.1,-11.16 -0.4,-1.15 -0.6,-1.75 -0.6,-2.75 0,-2.33 1.7,-4.08 4.1,-4.08 4.7,0 6.5,7.27 6.5,7.68 0,0.5 -0.4,0.5 -0.6,0.5 -0.5,0 -0.5,-0.16 -0.7,-0.91 -0.8,-2.64 -2.4,-6.17 -5.1,-6.17 -0.9,0 -1.2,0.5 -1.2,1.64 0,1.25 0.4,2.45 0.9,3.55 0.8,2.14 3,8.06 3,10.95 0,3.23 -2,5.33 -5.7,5.33 -3.2,0 -5.5,-1.53 -7.4,-3.83 z"
           id="path936" /></g>    </g>
    <circle
       r="1.2284226"
       cy="76.538773"
       cx="55.002159"
       id="path1081-3"
       style="opacity:1;fill:#cccccc;fill-opacity:0.99470903;stroke:#000000;stroke-width:0.5;stroke-miterlimit:4;stroke-dasharray:none;stroke-dashoffset:0" />
    <g
       id="g949"
       transform="matrix(2.101249,0,0,2.101249,-142.66442,42.225977)">
      <g
         word-spacing="normal"
         letter-spacing="normal"
         font-size-adjust="none"
         font-stretch="normal"
         font-weight="normal"
         font-variant="normal"
         font-style="normal"
         stroke-miterlimit="10.433"
         xml:space="preserve"
         transform="matrix(0.08664563,0,0,-0.08664563,-15.162985,45.666129)"
         id="content"
         style="font-style:normal;font-variant:normal;font-weight:normal;font-stretch:normal;letter-spacing:normal;word-spacing:normal;text-anchor:start;fill:none;fill-opacity:1;fill-rule:evenodd;stroke:#000000;stroke-linecap:butt;stroke-linejoin:miter;stroke-miterlimit:10.43299961;stroke-dasharray:none;stroke-dashoffset:0;stroke-opacity:1"><path
           id="path946"
           d="m 1250.6,367.91 v 0.02 0.02 0.02 0.02 0.02 0.02 0.02 0.02 0.02 l -0.1,0.03 v 0.02 0.02 0.02 0.02 0.02 0.02 0.01 l -0.1,0.02 v 0.02 0.02 0.01 0.01 l -0.1,0.02 v 0.01 0.01 0.01 l -0.1,0.01 v 0.01 0 0.01 h -0.1 v 0 0 c -0.5,0 -2.5,-1.98 -3.4,-3.44 -1.1,2.69 -3,3.49 -4.6,3.49 v -1.1 c 3.2,0 3.9,-4.03 3.9,-4.37 0,-0.31 -2.7,-11.22 -2.9,-11.42 -0.7,-1.39 -3.5,-4.58 -6.3,-4.58 v 0 c -3,0 -3.2,3.84 -3.2,4.69 0,2.39 1.5,7.81 2.3,9.9 1.5,3.69 4.1,5.78 6.2,5.78 v 1.1 c -5.9,0 -12,-7.38 -12,-14.6 0,-4.87 2.9,-7.97 6.5,-7.97 2.2,0 4.1,1.19 5.9,2.99 -0.4,-1.74 -2.1,-8.47 -2.2,-8.92 -0.4,-1.39 -0.8,-1.6 -3.6,-1.64 -0.6,0 -1.1,0 -1.1,-1 0,-0.05 0,-0.55 0.6,-0.55 1.6,0 3.3,0.16 5,0.16 1.7,0 3.5,-0.16 5.1,-0.16 0.3,0 0.9,0 0.9,1 0,0.55 -0.5,0.55 -1.3,0.55 -2.4,0 -2.4,0.36 -2.4,0.79 0,0.36 0.1,0.66 0.2,1.1 z"
           inkscape:connector-curvature="0"
           style="fill:#000000;stroke-width:0" /></g>    </g>
    <g
       transform="matrix(0.01283682,0,0,-0.01283682,38.647658,39.406701)"
       id="g18">
      <g
         id="g20"
         clip-path="url(#clipPath24)">
        <path
           d="m 4136.72,1202.18 c 0,-538.168 -890.59,-974.418 -1989.18,-974.418 -1098.63,0 -1989.22,436.25 -1989.22,974.418 0,538.16 890.59,974.45 1989.22,974.45 1098.59,0 1989.18,-436.29 1989.18,-974.45"
           style="fill:url(#radialGradient30);fill-opacity:1;fill-rule:nonzero;stroke:none"
           id="path32"
           inkscape:connector-curvature="0" />
      </g>
    </g>
    <g
       id="g34"
       transform="matrix(0.01004832,0,0,0.01562536,38.647658,39.406701)">
      <path
         d="m 5284.69,-987.632 c 0,442.12 -1137.72,800.517 -2541.19,800.517 -1403.51,0 -2541.244,-358.397 -2541.244,-800.517 0,-442.128 1137.734,-800.558 2541.244,-800.558 1403.47,0 2541.19,358.43 2541.19,800.558 z"
         style="fill:none;stroke:#000000;stroke-width:13.03190041;stroke-linecap:butt;stroke-linejoin:miter;stroke-miterlimit:4;stroke-dasharray:none;stroke-opacity:1"
         id="path36"
         inkscape:connector-curvature="0" />
    </g>
    <g
       transform="matrix(0.01283682,0,0,-0.01283682,38.647658,39.406701)"
       id="g38">
      <g
         id="g40"
         clip-path="url(#clipPath44)">
        <path
           d="m 199.609,1400.03 c -26.91,-63.95 -41.25,-129.96 -41.25,-197.78 0,-538.16 890.621,-974.488 1989.261,-974.488 946.99,0 1739.29,324.066 1940,758.238"
           style="fill:url(#radialGradient52);fill-opacity:1;fill-rule:nonzero;stroke:none"
           id="path54"
           inkscape:connector-curvature="0" />
      </g>
    </g>
    <path
       d="m 41.210002,21.434782 c -0.345439,0.820912 -0.529518,1.668398 -0.529518,2.538865 0,6.908207 11.432732,12.509315 25.535767,12.509315 12.156329,0 22.326933,-4.159922 24.903408,-9.733406 z"
       style="fill:none;stroke:#000000;stroke-width:0.16329449;stroke-linecap:butt;stroke-linejoin:miter;stroke-miterlimit:4;stroke-dasharray:none;stroke-opacity:1"
       id="path56"
       inkscape:connector-curvature="0" />
    <path
       d="M 65.811505,23.93796 V -8.3375032 c 4.988383,0.476888 7.54522,9.864704 11.278419,18.4117082 2.090476,4.786333 8.8203,16.174382 13.881727,16.65123 z"
       style="fill:none;stroke:#000000;stroke-width:0.10269448;stroke-linecap:butt;stroke-linejoin:miter;stroke-miterlimit:4;stroke-dasharray:none;stroke-opacity:1"
       id="path62"
       inkscape:connector-curvature="0" />
    <g
       transform="matrix(0.01283682,0,0,-0.01283682,38.647658,39.406701)"
       id="g64">
      <g
         id="g66"
         clip-path="url(#clipPath70)">
        <path
           d="m 4084.1,988 c 34.38,70.66 52.5,144.37 52.5,220 0,276.99 -243.51,526.75 -633.79,703.08 m 0,0 c -268.55,117.15 -543.86,728.25 -543.86,728.25 0,0 -374.26,1018.55 -842.86,1080 V 1205.03 L 4084.1,988"
           style="fill:url(#radialGradient76);fill-opacity:1;fill-rule:nonzero;stroke:none"
           id="path78"
           inkscape:connector-curvature="0" />
      </g>
    </g>
    <path
       d="m 91.074473,26.724033 c 0.441329,-0.907152 0.673935,-1.853351 0.673935,-2.824068 0,-3.555799 -3.125892,-6.761922 -8.135841,-9.025436 m 0,0 C 80.16524,13.370698 76.63114,5.5262508 76.63114,5.5262508 c 0,0 -4.804305,-13.07506 -10.819635,-13.863754 V 23.93796 l 25.262968,2.786073"
       style="fill:none;stroke:#000000;stroke-width:0.10269448;stroke-linecap:butt;stroke-linejoin:miter;stroke-miterlimit:4;stroke-dasharray:none;stroke-opacity:1"
       id="path80"
       inkscape:connector-curvature="0" />
    <g
       transform="matrix(0.01283682,0,0,-0.01283682,38.647658,39.406701)"
       id="g82">
      <g
         id="g84"
         clip-path="url(#clipPath88)">
        <path
           d="M 2099.61,3720.03 C 1751.84,3717.02 1435.43,2572.45 1224.61,2233.5 892.5,1699.56 527.621,1364.99 207.621,1399.25 L 2116.09,1205.03 4076.09,988 c -394.29,37.15 -918.63,924.14 -1081.48,1297.03 -290.82,665.78 -489.92,1397.07 -878.52,1434.22 -5.54,0.54 -10.97,0.82 -16.48,0.78"
           style="fill:url(#linearGradient100);fill-opacity:1;fill-rule:nonzero;stroke:none"
           id="path102"
           inkscape:connector-curvature="0" />
      </g>
    </g>
    <path
       d="m 65.599953,-8.3466182 c -4.464257,0.03863 -8.525951,14.731267 -11.232208,19.0823032 -4.263233,6.854087 -8.947116,11.148897 -13.054895,10.709237 l 24.498655,2.493038 25.160146,2.786073 C 85.910224,26.247174 79.179375,14.86105 77.088899,10.074205 73.355698,1.5277138 70.799888,-7.8597172 65.811505,-8.3364762 c -0.07112,-0.0071 -0.14082,-0.01052 -0.211552,-0.01009 z"
       style="fill:none;stroke:#000000;stroke-width:0.10269448;stroke-linecap:butt;stroke-linejoin:miter;stroke-miterlimit:4;stroke-dasharray:none;stroke-opacity:1"
       id="path104"
       inkscape:connector-curvature="0" />
    <path
       d="M 65.811505,-8.3375032 C 61.26355,-8.7778052 57.117646,6.3139178 54.368772,10.734145 50.105513,17.588873 45.419577,21.884068 41.311798,21.443896 l 24.499707,2.494064 z"
       style="fill:none;stroke:#000000;stroke-width:0.10269448;stroke-linecap:butt;stroke-linejoin:miter;stroke-miterlimit:4;stroke-dasharray:none;stroke-opacity:1"
       id="path106"
       inkscape:connector-curvature="0" />
    <g
       transform="matrix(0.22470456,0,0,0.22470456,-112.10853,-8.3754962)"
       id="g268">
      <g
         style="font-style:normal;font-variant:normal;font-weight:normal;font-stretch:normal;letter-spacing:normal;word-spacing:normal;text-anchor:start;fill:none;fill-opacity:1;fill-rule:evenodd;stroke:#000000;stroke-linecap:butt;stroke-linejoin:miter;stroke-miterlimit:10.43299961;stroke-dasharray:none;stroke-dashoffset:0;stroke-opacity:1"
         word-spacing="normal"
         letter-spacing="normal"
         font-size-adjust="none"
         font-stretch="normal"
         font-weight="normal"
         font-variant="normal"
         font-style="normal"
         stroke-miterlimit="10.433"
         xml:space="preserve"
         transform="matrix(0.72380951,0,0,-0.72380951,-126.66666,414.99998)"
         id="content-6"><path
           style="fill:#000000;stroke-width:0"
           inkscape:connector-curvature="0"
           id="path265"
           d="m 1229.8,340.36 v -0.15 -0.15 l -0.1,-0.14 v -0.13 -0.12 l -0.1,-0.12 v -0.11 -0.11 l -0.1,-0.1 v -0.09 l -0.1,-0.09 v -0.08 l -0.1,-0.07 v -0.07 l -0.1,-0.06 v -0.06 l -0.1,-0.06 -0.1,-0.05 v -0.04 l -0.1,-0.04 -0.1,-0.04 -0.1,-0.03 -0.1,-0.03 -0.2,-0.02 -0.1,-0.02 v -0.01 l -0.1,-0.01 -0.1,-0.01 h -0.1 v -0.01 l -0.1,-0.01 h -0.1 -0.1 l -0.1,-0.01 h -0.1 -0.1 v 0 h -0.1 -0.1 c -0.6,0 -1.2,0 -1.2,-0.94 0,-0.41 0.3,-0.61 0.7,-0.61 1.3,0 2.7,0.16 4.1,0.16 1.7,0 3.4,-0.16 5,-0.16 0.2,0 0.9,0 0.9,1 0,0.55 -0.5,0.55 -1.2,0.55 -2.5,0 -2.5,0.36 -2.5,0.79 0,0.61 2.1,8.72 2.4,9.97 0.7,-1.44 2.1,-3.19 4.6,-3.19 v 1.1 c -3.3,0 -4,4.14 -4,4.44 0,0.09 0,0.2 0.2,0.79 l 2.4,9.77 c 0.4,1.34 1.7,2.73 2.6,3.48 1.7,1.55 3.2,1.89 4,1.89 2,0 3.2,-1.73 3.2,-4.68 0,-2.94 -1.6,-8.66 -2.5,-10.57 -1.7,-3.48 -4.1,-5.12 -5.9,-5.12 v -1.1 c 5.8,0 12,7.27 12,14.6 0,4.69 -2.8,7.97 -6.6,7.97 -2.5,0 -4.9,-1.78 -6.5,-3.74 -0.5,2.69 -2.7,3.74 -4.5,3.74 -2.3,0 -3.3,-1.94 -3.7,-2.83 -0.9,-1.7 -1.5,-4.69 -1.5,-4.84 0,-0.5 0.5,-0.5 0.5,-0.5 0.5,0 0.6,0.06 0.9,1.15 0.8,3.53 1.8,5.92 3.6,5.92 0.9,0 1.6,-0.39 1.6,-2.28 0,-1.15 -0.2,-1.7 -0.4,-2.54 z" /></g>    </g>
    <g
       id="g834"
       transform="matrix(0.14638309,0,0,0.14638309,-34.45496,-29.006403)">
      <g
         word-spacing="normal"
         letter-spacing="normal"
         font-size-adjust="none"
         font-stretch="normal"
         font-weight="normal"
         font-variant="normal"
         font-style="normal"
         stroke-miterlimit="10.433"
         xml:space="preserve"
         transform="matrix(0.72380951,0,0,-0.72380951,-126.66666,414.99998)"
         id="g832"
         style="font-style:normal;font-variant:normal;font-weight:normal;font-stretch:normal;letter-spacing:normal;word-spacing:normal;text-anchor:start;fill:none;fill-opacity:1;fill-rule:evenodd;stroke:#000000;stroke-linecap:butt;stroke-linejoin:miter;stroke-miterlimit:10.43299961;stroke-dasharray:none;stroke-dashoffset:0;stroke-opacity:1"><path
           id="path822"
           d="m 1217.5,374.69 0.2,0.41 0.3,0.39 0.2,0.38 0.2,0.37 0.2,0.18 0.1,0.17 0.1,0.17 0.2,0.17 0.1,0.16 0.2,0.15 0.1,0.15 0.2,0.15 0.1,0.13 0.2,0.14 0.2,0.12 0.2,0.12 0.1,0.12 0.2,0.1 0.2,0.1 0.2,0.1 0.3,0.08 0.2,0.08 0.2,0.07 0.3,0.06 0.2,0.06 0.3,0.04 0.3,0.04 0.3,0.03 c 0.4,0.04 0.9,0.04 0.9,1 0,0.18 -0.2,0.54 -0.6,0.54 -1.2,0 -2.6,-0.15 -3.8,-0.15 -1.7,0 -3.6,0.15 -5.2,0.15 -0.3,0 -0.9,0 -0.9,-0.95 0,-0.55 0.4,-0.59 0.7,-0.59 1.2,-0.05 2.9,-0.46 2.9,-1.94 0,-0.55 -0.2,-0.95 -0.6,-1.66 l -13.5,-23.45 -1.8,24.7 c -0.1,1 -0.1,2.3 3.5,2.35 0.8,0 1.3,0 1.3,1 0,0.5 -0.5,0.54 -0.7,0.54 -2,0 -4.1,-0.15 -6.1,-0.15 -1.1,0 -4.1,0.15 -5.2,0.15 -0.3,0 -1,0 -1,-1 0,-0.54 0.5,-0.54 1.2,-0.54 2.2,0 2.6,-0.3 2.7,-1.25 l 0.3,-3.83 -12.6,-21.97 -1.9,25.25 c 0,0.59 0,1.75 3.7,1.8 0.5,0 1.1,0 1.1,1 0,0.54 -0.6,0.54 -0.7,0.54 -2,0 -4.1,-0.15 -6.1,-0.15 -1.8,0 -3.6,0.15 -5.3,0.15 -0.2,0 -0.9,0 -0.9,-0.95 0,-0.59 0.5,-0.59 1.3,-0.59 2.5,0 2.5,-0.46 2.6,-1.85 l 2.3,-30.44 c 0,-0.9 0.1,-1.29 0.8,-1.29 0.6,0 0.7,0.29 1.2,1.04 l 14.6,25.41 1.9,-25.16 c 0,-1.04 0.1,-1.29 0.8,-1.29 0.6,0 0.9,0.5 1.1,0.94 z"
           inkscape:connector-curvature="0"
           style="fill:#000000;stroke-width:0" /><path
           id="path824"
           d="m 1229.8,362.02 v 0 0.01 0 0.01 0 0.01 0 0.01 0.01 0 0.02 0.02 0.02 0.02 0.02 0.02 0.02 0.02 0.03 0.04 0.05 0.02 l 0.1,0.03 v 0.02 0.02 0.02 0.02 0.01 0.02 0.01 0 0.01 0.01 0 0.01 0 0.01 0 0 0 0.01 c 0,0.18 -0.1,0.5 -0.6,0.5 -0.7,0 -3.5,-0.28 -4.4,-0.36 -0.3,-0.03 -0.8,-0.07 -0.8,-0.8 0,-0.48 0.5,-0.48 0.9,-0.48 1.7,0 1.7,-0.25 1.7,-0.54 0,-0.23 -0.1,-0.45 -0.2,-0.76 l -4.9,-19.72 c -0.2,-0.62 -0.2,-0.69 -0.2,-0.77 0,-0.51 0.5,-1.1 1.2,-1.1 0.4,0 1.1,0.17 1.5,0.9 0.1,0.2 0.4,1.45 0.6,2.19 l 0.8,3.11 c 0.1,0.51 0.4,1.84 0.5,2.36 0.4,1.33 0.4,1.36 1.1,2.48 1.1,1.71 2.8,3.69 5.5,3.69 2,0 2.1,-1.61 2.1,-2.44 0,-2.09 -1.5,-5.95 -2.1,-7.42 -0.3,-0.98 -0.5,-1.3 -0.5,-1.89 0,-1.84 1.6,-2.98 3.3,-2.98 3.5,0 5,4.79 5,5.32 0,0.46 -0.4,0.46 -0.5,0.46 -0.5,0 -0.5,-0.21 -0.7,-0.6 -0.8,-2.78 -2.3,-4.22 -3.7,-4.22 -0.7,0 -0.8,0.49 -0.8,1.22 0,0.8 0.1,1.25 0.8,2.83 0.4,1.08 1.8,4.77 1.8,6.72 0,0.56 0,2.03 -1.3,3.03 -0.6,0.45 -1.6,0.94 -3.2,0.94 -2.6,0 -4.4,-1.39 -5.7,-2.89 z"
           inkscape:connector-curvature="0"
           style="fill:#000000;stroke-width:0" /><path
           id="path826"
           d="m 1261.1,334.49 v 0.02 0.03 0.01 0.02 0.01 0.02 0.02 0.01 0.02 0.02 0.03 0.02 l -0.1,0.02 v 0.03 0.03 0.03 0.04 l -0.1,0.03 v 0.02 0.02 0.02 0.02 l -0.1,0.02 v 0.03 0.02 0.02 l -0.1,0.03 v 0.03 0.02 0.03 l -0.1,0.03 v 0.03 0.03 0.03 l -0.1,0.03 v 0.03 0.04 l -0.1,0.03 v 0.04 0.04 l -0.1,0.03 v 0.04 c -6.2,6.28 -7.8,15.69 -7.8,23.31 0,8.68 1.9,17.35 8,23.57 0.6,0.61 0.6,0.7 0.6,0.86 0,0.34 -0.2,0.48 -0.5,0.48 -0.5,0 -4.9,-3.37 -7.9,-9.7 -2.5,-5.49 -3.1,-11.02 -3.1,-15.21 0,-3.89 0.5,-9.9 3.3,-15.54 2.9,-6.13 7.2,-9.36 7.7,-9.36 0.3,0 0.5,0.14 0.5,0.5 z"
           inkscape:connector-curvature="0"
           style="fill:#000000;stroke-width:0" /><path
           id="path828"
           d="m 1266.2,340.36 v -0.15 l -0.1,-0.15 v -0.14 -0.13 l -0.1,-0.12 v -0.12 -0.11 l -0.1,-0.11 v -0.1 l -0.1,-0.09 v -0.09 -0.08 l -0.1,-0.07 -0.1,-0.07 v -0.06 l -0.1,-0.06 v -0.06 l -0.1,-0.05 -0.1,-0.04 -0.1,-0.04 -0.1,-0.04 -0.1,-0.03 -0.1,-0.03 -0.1,-0.02 -0.1,-0.02 -0.1,-0.01 -0.1,-0.01 v -0.01 h -0.1 l -0.1,-0.01 -0.1,-0.01 v 0 h -0.1 l -0.1,-0.01 h -0.1 -0.1 -0.1 -0.1 -0.1 c -0.6,0 -1.1,0 -1.1,-0.94 0,-0.41 0.2,-0.61 0.6,-0.61 1.4,0 2.8,0.16 4.2,0.16 1.6,0 3.3,-0.16 4.9,-0.16 0.3,0 0.9,0 0.9,1 0,0.55 -0.5,0.55 -1.2,0.55 -2.5,0 -2.5,0.36 -2.5,0.79 0,0.61 2.1,8.72 2.5,9.97 0.6,-1.44 2,-3.19 4.6,-3.19 l -0.1,1.1 c -3.3,0 -3.9,4.14 -3.9,4.44 0,0.09 0,0.2 0.1,0.79 l 2.5,9.77 c 0.3,1.34 1.7,2.73 2.6,3.48 1.7,1.55 3.2,1.89 4,1.89 2,0 3.2,-1.73 3.2,-4.68 0,-2.94 -1.7,-8.66 -2.6,-10.57 -1.6,-3.48 -4,-5.12 -5.9,-5.12 l 0.1,-1.1 c 5.7,0 12,7.27 12,14.6 0,4.69 -2.9,7.97 -6.7,7.97 -2.5,0 -4.8,-1.78 -6.5,-3.74 -0.5,2.69 -2.6,3.74 -4.5,3.74 -2.3,0 -3.2,-1.94 -3.6,-2.83 -1,-1.7 -1.6,-4.69 -1.6,-4.84 0,-0.5 0.5,-0.5 0.6,-0.5 0.5,0 0.5,0.06 0.8,1.15 0.9,3.53 1.9,5.92 3.7,5.92 0.8,0 1.5,-0.39 1.5,-2.28 0,-1.15 -0.1,-1.7 -0.3,-2.54 z"
           inkscape:connector-curvature="0"
           style="fill:#000000;stroke-width:0" /><path
           id="path830"
           d="m 1303.4,358.89 v 0.38 0.38 0.39 0.41 0.84 l -0.1,0.88 -0.1,0.92 -0.1,0.95 -0.1,0.98 -0.2,1 -0.2,1.02 -0.2,1.04 -0.3,1.05 -0.3,1.06 -0.3,1.06 -0.4,1.07 -0.2,0.53 -0.3,0.53 -0.2,0.53 -0.3,0.53 c -2.9,6.13 -7.2,9.36 -7.7,9.36 -0.3,0 -0.5,-0.19 -0.5,-0.48 0,-0.16 0,-0.25 0.9,-1.16 4.9,-4.92 7.8,-12.84 7.8,-23.27 0,-8.51 -1.9,-17.28 -8.1,-23.56 -0.6,-0.59 -0.6,-0.7 -0.6,-0.84 0,-0.3 0.2,-0.5 0.5,-0.5 0.5,0 4.9,3.39 7.9,9.72 2.5,5.47 3.1,11 3.1,15.18 z"
           inkscape:connector-curvature="0"
           style="fill:#000000;stroke-width:0" /></g>    </g>
    <circle
       r="1.0967762"
       cy="23.961502"
       cx="65.815132"
       id="path1261"
       style="opacity:1;fill:#000000;fill-opacity:0.99470903;stroke:#000000;stroke-width:0.28882825;stroke-miterlimit:4;stroke-dasharray:none;stroke-dashoffset:0" />
    <g
       id="g1003"
       transform="matrix(0.16901209,0,0,0.16901209,-77.346467,-5.7736142)">
      <g
         word-spacing="normal"
         letter-spacing="normal"
         font-size-adjust="none"
         font-stretch="normal"
         font-weight="normal"
         font-variant="normal"
         font-style="normal"
         stroke-miterlimit="10.433"
         xml:space="preserve"
         transform="matrix(0.72380951,0,0,-0.72380951,-126.66666,414.99998)"
         id="g1001"
         style="font-style:normal;font-variant:normal;font-weight:normal;font-stretch:normal;letter-spacing:normal;word-spacing:normal;text-anchor:start;fill:none;fill-opacity:1;fill-rule:evenodd;stroke:#000000;stroke-linecap:butt;stroke-linejoin:miter;stroke-miterlimit:10.43299961;stroke-dasharray:none;stroke-dashoffset:0;stroke-opacity:1"><path
           id="path999"
           d="m 1240.1,380.47 v 0.01 0 0.01 0.01 0.01 0.01 0.02 0.02 0.02 0.02 0.02 0.02 0.03 0.02 l -0.1,0.02 v 0.03 0.02 0.03 0.02 0.03 l -0.1,0.02 v 0.01 0.01 0.01 0.01 0.01 0.01 l -0.1,0.01 v 0.01 0.01 0.01 0.01 0 l -0.1,0.01 v 0.01 0 0.01 h -0.1 v 0.01 0 0 l -0.1,0.01 v 0 0 0 c -1.2,0 -4.8,-0.41 -6.1,-0.5 -0.4,-0.05 -1,-0.09 -1,-1 0,-0.59 0.5,-0.59 1.2,-0.59 2.4,0 2.5,-0.35 2.5,-0.85 l -0.1,-1 -7.3,-28.7 c -0.2,-0.69 -0.2,-0.8 -0.2,-1.09 0,-1.15 1,-1.4 1.5,-1.4 0.8,0 1.6,0.6 1.8,1.3 l 1,3.78 1.1,4.49 c 0.3,1.09 0.6,2.18 0.8,3.34 0.1,0.3 0.5,1.94 0.6,2.24 0.1,0.45 1.7,3.25 3.4,4.59 1.1,0.8 2.6,1.73 4.7,1.73 2.2,0 2.7,-1.68 2.7,-3.48 0,-2.69 -1.9,-8.13 -3.1,-11.16 -0.4,-1.15 -0.6,-1.75 -0.6,-2.75 0,-2.33 1.7,-4.08 4.1,-4.08 4.7,0 6.5,7.27 6.5,7.68 0,0.5 -0.4,0.5 -0.6,0.5 -0.5,0 -0.5,-0.16 -0.7,-0.91 -0.8,-2.64 -2.4,-6.17 -5.1,-6.17 -0.9,0 -1.2,0.5 -1.2,1.64 0,1.25 0.4,2.45 0.9,3.55 0.8,2.14 3,8.06 3,10.95 0,3.23 -2,5.33 -5.7,5.33 -3.2,0 -5.5,-1.53 -7.4,-3.83 z"
           inkscape:connector-curvature="0"
           style="fill:#000000;stroke-width:0" /></g>    </g>
    <path
       style="fill:none;stroke:#000000;stroke-width:0.60000002;stroke-linecap:butt;stroke-linejoin:miter;stroke-miterlimit:4;stroke-dasharray:1.8, 1.8;stroke-dashoffset:0;stroke-opacity:1"
       d="m 90.815402,64.632518 0.15625,-37.907083"
       id="path1099"
       inkscape:connector-curvature="0" />
    <path
       style="fill:none;stroke:#000000;stroke-width:0.60000002;stroke-linecap:butt;stroke-linejoin:miter;stroke-miterlimit:4;stroke-dasharray:1.8, 1.8;stroke-dashoffset:0;stroke-opacity:1"
       d="m 41.505877,65.065227 0.15625,-37.907083"
       id="path1099-7"
       inkscape:connector-curvature="0" />
  </g>
</svg>
