<svg xmlns:rdf="http://www.w3.org/1999/02/22-rdf-syntax-ns#" xmlns="http://www.w3.org/2000/svg" xmlns:ns0="http://www.iki.fi/pav/software/textext/" height="46.962mm" width="143.1mm" version="1.1" xmlns:cc="http://creativecommons.org/ns#" viewBox="0 0 507.03353 166.40023" xmlns:dc="http://purl.org/dc/elements/1.1/">
 <defs>
  <marker id="marker10401" refY="0" refX="0" overflow="visible" orient="auto">
   <path stroke-linejoin="round" d="m8.7186 4.0337-10.926-4.0177 10.926-4.0177c-1.7455 2.3721-1.7354 5.6175-6e-7 8.0354z" fill-rule="evenodd" transform="scale(-.6)" stroke="#000" stroke-width=".625"/>
  </marker>
  <marker id="marker10333" refY="0" refX="0" orient="auto" overflow="visible">
   <path stroke-linejoin="round" d="m8.7186 4.0337-10.926-4.0177 10.926-4.0177c-1.7455 2.3721-1.7354 5.6175-6e-7 8.0354z" fill-rule="evenodd" transform="scale(.6)" stroke="#000" stroke-width=".625"/>
  </marker>
  <marker id="Arrow2Mstart" refY="0" refX="0" orient="auto" overflow="visible">
   <path stroke-linejoin="round" d="m8.7186 4.0337-10.926-4.0177 10.926-4.0177c-1.7455 2.3721-1.7354 5.6175-6e-7 8.0354z" fill-rule="evenodd" transform="scale(.6)" stroke="#000" stroke-width=".625"/>
  </marker>
  <marker id="marker5994" refY="0" refX="0" overflow="visible" orient="auto">
   <path stroke-linejoin="round" d="m8.7186 4.0337-10.926-4.0177 10.926-4.0177c-1.7455 2.3721-1.7354 5.6175-6e-7 8.0354z" fill-rule="evenodd" transform="matrix(-.3 0 0 -.3 .69 0)" stroke="#f00" stroke-width=".625" fill="#f00"/>
  </marker>
  <marker id="marker5912" refY="0" refX="0" orient="auto" overflow="visible">
   <path stroke-linejoin="round" d="m8.7186 4.0337-10.926-4.0177 10.926-4.0177c-1.7455 2.3721-1.7354 5.6175-6e-7 8.0354z" fill-rule="evenodd" transform="matrix(-.3 0 0 -.3 .69 0)" stroke="#f00" stroke-width=".625" fill="#f00"/>
  </marker>
  <marker id="marker5836" refY="0" refX="0" overflow="visible" orient="auto">
   <path stroke-linejoin="round" d="m8.7186 4.0337-10.926-4.0177 10.926-4.0177c-1.7455 2.3721-1.7354 5.6175-6e-7 8.0354z" fill-rule="evenodd" transform="matrix(-.3 0 0 -.3 .69 0)" stroke="#f00" stroke-width=".625" fill="#f00"/>
  </marker>
  <marker id="marker5766" refY="0" refX="0" orient="auto" overflow="visible">
   <path stroke-linejoin="round" d="m8.7186 4.0337-10.926-4.0177 10.926-4.0177c-1.7455 2.3721-1.7354 5.6175-6e-7 8.0354z" fill-rule="evenodd" transform="matrix(-.3 0 0 -.3 .69 0)" stroke="#f00" stroke-width=".625" fill="#f00"/>
  </marker>
  <marker id="marker5702" refY="0" refX="0" overflow="visible" orient="auto">
   <path stroke-linejoin="round" d="m8.7186 4.0337-10.926-4.0177 10.926-4.0177c-1.7455 2.3721-1.7354 5.6175-6e-7 8.0354z" fill-rule="evenodd" transform="matrix(-.3 0 0 -.3 .69 0)" stroke="#f00" stroke-width=".625" fill="#f00"/>
  </marker>
  <marker id="marker5644" refY="0" refX="0" orient="auto" overflow="visible">
   <path stroke-linejoin="round" d="m8.7186 4.0337-10.926-4.0177 10.926-4.0177c-1.7455 2.3721-1.7354 5.6175-6e-7 8.0354z" fill-rule="evenodd" transform="matrix(-.3 0 0 -.3 .69 0)" stroke="#f00" stroke-width=".625" fill="#f00"/>
  </marker>
  <marker id="marker5592" refY="0" refX="0" overflow="visible" orient="auto">
   <path stroke-linejoin="round" d="m8.7186 4.0337-10.926-4.0177 10.926-4.0177c-1.7455 2.3721-1.7354 5.6175-6e-7 8.0354z" fill-rule="evenodd" transform="matrix(-.3 0 0 -.3 .69 0)" stroke="#f00" stroke-width=".625" fill="#f00"/>
  </marker>
  <marker id="Arrow2Send" refY="0" refX="0" orient="auto" overflow="visible">
   <path stroke-linejoin="round" d="m8.7186 4.0337-10.926-4.0177 10.926-4.0177c-1.7455 2.3721-1.7354 5.6175-6e-7 8.0354z" fill-rule="evenodd" transform="matrix(-.3 0 0 -.3 .69 0)" stroke="#f00" stroke-width=".625" fill="#f00"/>
  </marker>
  <marker id="marker5514" refY="0" refX="0" orient="auto" overflow="visible">
   <path stroke-linejoin="round" d="m8.7186 4.0337-10.926-4.0177 10.926-4.0177c-1.7455 2.3721-1.7354 5.6175-6e-7 8.0354z" fill-rule="evenodd" transform="scale(-.6)" stroke="#000" stroke-width=".625"/>
  </marker>
  <marker id="marker5514-2" refY="0" refX="0" orient="auto" overflow="visible">
   <path stroke-linejoin="round" d="m8.7186 4.0337-10.926-4.0177 10.926-4.0177c-1.7455 2.3721-1.7354 5.6175-6e-7 8.0354z" fill-rule="evenodd" transform="scale(-.6)" stroke="#0000fc" stroke-width=".625" fill="#0000fc"/>
  </marker>
 </defs>
 <g fill="none">
  <path marker-end="url(#marker10401)" d="m159.97 53.368v55.725" marker-start="url(#marker10333)" stroke="#000" stroke-width="0.973"/>
  <g stroke-linejoin="round" stroke="#00a8ff" stroke-miterlimit="10" stroke-width=".625">
   <path d="m84.715 57.252-0.2085-0.104-0.104-0.104-0.2085-0.1045-0.104-0.104-0.2085-0.104-0.104-0.1045-0.2085-0.104-0.104-0.104-0.104-0.1045-0.2085-0.104-0.104-0.104-0.2085-0.1045h-0.2085l-0.104-0.104-0.2085-0.104-0.104-0.1045-0.2085-0.104-0.104-0.104-0.2085-0.1045-0.104-0.104h-0.2085l-0.104-0.104-0.2085-0.1045-0.208-0.104-0.1045-0.104h-0.208l-0.1045-0.1045-0.208-0.104-0.2085-0.104-0.104-0.1045h-0.2085l-0.104-0.104-0.2085-0.104h-0.2085l-0.104-0.1045-0.2085-0.104-0.208-0.104h-0.1045l-0.208-0.1045h-0.2085l-0.104-0.104-0.2085-0.104h-0.104l-0.2085-0.1045-0.2085-0.104h-0.104l-0.2085-0.104h-0.208l-0.2085-0.1045h-0.104l-0.2085-0.104h-0.2085l-0.104-0.104h-0.2085l-0.208-0.1045h-0.1045l-0.208-0.104h-0.2085l-0.2085-0.104h-0.104l-0.2085-0.1045h-0.208l-0.1045-0.104h-0.4165l-0.2085-0.104h-0.3125l-0.208-0.1045h-0.3125l-0.2085-0.104h-0.521l-0.208-0.104h-0.521l-0.2085-0.1045h-0.729l-0.2085-0.104h-1.25l-0.208-0.104h-1.146"/>
   <path d="m95.444 71.732-0.104-0.1045-0.104-0.208v-0.2085l-0.1045-0.104v-0.2085l-0.104-0.2085-0.104-0.104v-0.2085l-0.1045-0.208-0.104-0.1045v-0.208l-0.104-0.2085-0.1045-0.104v-0.2085l-0.104-0.2085-0.104-0.104-0.1045-0.2085v-0.104l-0.104-0.2085-0.104-0.208-0.1045-0.1045v-0.208l-0.104-0.1045-0.104-0.208-0.1045-0.1045-0.104-0.208-0.104-0.2085v-0.104l-0.1045-0.2085-0.104-0.104-0.104-0.2085-0.1045-0.104-0.104-0.2085-0.104-0.104-0.1045-0.2085-0.104-0.104v-0.2085l-0.104-0.104-0.1045-0.2085-0.104-0.104-0.104-0.2085-0.1045-0.104-0.104-0.2085-0.104-0.104-0.1045-0.2085-0.104-0.104-0.104-0.2085-0.1045-0.104-0.104-0.2085-0.104-0.104-0.2085-0.1045-0.104-0.208-0.1045-0.1045-0.104-0.208-0.104-0.1045-0.1045-0.104-0.104-0.2085-0.104-0.104-0.1045-0.2085-0.208-0.104-0.1045-0.104-0.104-0.2085-0.104-0.104-0.1045-0.1045-0.104-0.208-0.2085-0.1045-0.104-0.104-0.104-0.2085-0.1045-0.104-0.104-0.104-0.2085-0.1045-0.104-0.208-0.104-0.1045-0.1045-0.104-0.208-0.104-0.1045-0.2085-0.104-0.104-0.104-0.1045-0.2085-0.104-0.104-0.104-0.1045-0.2085-0.208-0.104-0.1045-0.1045-0.104-0.104-0.2085-0.104-0.104-0.2085-0.104-0.104-0.2085-0.1045-0.104-0.104-0.2085-0.104-0.104-0.1045-0.1045-0.104-0.208-0.104-0.1045-0.1045-0.208-0.208-0.1045-0.1045-0.104-0.104-0.2085-0.104-0.104-0.1045"/>
   <path d="m91.902 97.565 0.104-0.104 0.1045-0.2085 0.104-0.104 0.104-0.2085 0.1045-0.104 0.104-0.2085 0.104-0.104 0.1045-0.2085 0.104-0.104 0.104-0.2085 0.1045-0.104v-0.2085l0.104-0.104 0.104-0.2085 0.1045-0.208 0.104-0.1045 0.104-0.208 0.1045-0.1045v-0.208l0.104-0.1045 0.104-0.208 0.1045-0.2085 0.104-0.104v-0.2085l0.104-0.104 0.1045-0.2085 0.104-0.2085v-0.104l0.104-0.2085 0.1045-0.208v-0.1045l0.104-0.208 0.104-0.1045v-0.208l0.1045-0.2085 0.104-0.104v-0.2085l0.104-0.2085 0.1045-0.104v-0.2085l0.104-0.208v-0.1045l0.104-0.208v-0.2085l0.1045-0.104v-0.2085l0.104-0.2085 0.104-0.208v-0.1045l0.1045-0.208v-0.3125l0.104-0.2085v-0.2085l0.104-0.208v-0.1045l0.1045-0.208v-0.3125l0.104-0.2085v-0.2085l0.104-0.208v-0.3125l0.1045-0.2085v-0.3125l0.104-0.2085v-0.5205l0.104-0.2085v-0.521l0.1045-0.208v-0.9375l0.104-0.2085v-4.375l-0.104-0.2085v-0.9375l-0.1045-0.208v-0.521l-0.104-0.2085v-0.5205l-0.104-0.2085v-0.3125l-0.1045-0.2085v-0.3125l-0.104-0.208v-0.417l-0.104-0.104v-0.2085l-0.1045-0.208v-0.3125l-0.104-0.2085v-0.2085l-0.104-0.104v-0.2085l-0.1045-0.208v-0.2085l-0.104-0.104v-0.2085l-0.104-0.2085v-0.104l-0.1045-0.2085v-0.208"/>
   <path d="m77.736 108.71 0.208-0.104h0.2085l0.104-0.1045h0.2085l0.2085-0.104 0.104-0.104 0.2085-0.1045h0.208l0.1045-0.104 0.208-0.104h0.1045l0.208-0.1045 0.2085-0.104 0.104-0.104h0.2085l0.104-0.1045 0.2085-0.104 0.2085-0.104 0.104-0.1045h0.2085l0.104-0.104 0.2085-0.104 0.104-0.1045 0.2085-0.104 0.208-0.104h0.1045l0.208-0.1045 0.1045-0.104 0.208-0.104 0.1045-0.1045 0.208-0.104 0.1045-0.104 0.208-0.1045 0.1045-0.104 0.208-0.104 0.1045-0.1045 0.208-0.104 0.1045-0.104 0.208-0.1045 0.1045-0.104 0.208-0.104 0.1045-0.1045 0.104-0.104 0.2085-0.104 0.104-0.1045 0.2085-0.104 0.104-0.104 0.2085-0.1045 0.104-0.104 0.104-0.104 0.2085-0.1045 0.104-0.104 0.2085-0.2085 0.104-0.104 0.1045-0.104 0.208-0.1045 0.1045-0.104 0.104-0.104 0.2085-0.2085 0.104-0.104 0.104-0.1045 0.2085-0.104 0.104-0.104 0.1045-0.2085 0.104-0.104 0.2085-0.1045 0.104-0.104 0.104-0.104 0.1045-0.2085 0.208-0.104 0.1045-0.1045 0.104-0.208 0.104-0.1045 0.2085-0.104 0.104-0.104 0.1045-0.2085 0.104-0.104 0.104-0.1045 0.2085-0.208 0.104-0.1045 0.1045-0.104 0.104-0.2085 0.104-0.104 0.1045-0.104 0.104-0.2085 0.2085-0.104 0.104-0.2085 0.104-0.104 0.1045-0.1045 0.104-0.208 0.104-0.1045 0.1045-0.208 0.104-0.1045 0.104-0.208 0.1045-0.1045 0.104-0.104 0.104-0.2085 0.1045-0.104 0.104-0.2085"/>
   <path d="m59.819 109.54h0.1045l0.208 0.104h0.3125l0.2085 0.104h0.2085l0.208 0.1045h0.3125l0.2085 0.104h0.2085l0.104 0.104h0.625l0.104 0.1045h0.417l0.208 0.104h0.521l0.2085 0.104h0.729l0.104 0.1045h1.5625l0.1045 0.104h2.083l0.2085-0.104h1.4585l0.208-0.1045h0.7295l0.104-0.104h0.625l0.104-0.104h0.417l0.208-0.1045h0.521l0.2085-0.104h0.104l0.2085-0.104h0.4165l0.104-0.1045h0.2085l0.2085-0.104h0.3125l0.208-0.104h0.2085l0.104-0.1045h0.2085l0.2085-0.104h0.208l0.1045-0.104h0.208l0.2085-0.1045h0.104l0.2085-0.104 0.2085-0.104h0.104l0.2085-0.1045h0.208l0.1045-0.104"/>
   <path d="m44.715 99.648 0.104 0.2085 0.1045 0.104 0.104 0.104 0.104 0.2085 0.2085 0.104 0.104 0.1045 0.1045 0.208 0.104 0.1045 0.104 0.104 0.1045 0.2085 0.208 0.104 0.1045 0.104 0.104 0.1045 0.104 0.208 0.2085 0.1045 0.104 0.104 0.1045 0.2085 0.104 0.104 0.2085 0.104 0.104 0.1045 0.104 0.104 0.1045 0.2085 0.208 0.104 0.1045 0.104 0.104 0.1045 0.2085 0.104 0.104 0.2085 0.104 0.104 0.2085 0.104 0.104 0.1045 0.1045 0.104 0.208 0.104 0.1045 0.2085 0.208 0.104 0.1045 0.1045 0.104 0.104 0.2085 0.104 0.104 0.1045 0.2085 0.104 0.104 0.104 0.104 0.1045 0.2085 0.104 0.104 0.104 0.2085 0.1045 0.104 0.104 0.2085 0.104 0.104 0.1045 0.2085 0.104 0.104 0.104 0.2085 0.1045 0.104 0.104 0.2085 0.104 0.104 0.1045 0.2085 0.104 0.104 0.104 0.2085 0.1045 0.104 0.104 0.2085 0.104 0.104 0.1045h0.2085l0.104 0.104 0.2085 0.104 0.104 0.1045 0.2085 0.104 0.2085 0.104h0.104l0.2085 0.1045 0.104 0.104 0.2085 0.104 0.104 0.1045h0.2085l0.208 0.104 0.1045 0.104 0.208 0.1045h0.2085l0.104 0.104 0.2085 0.104h0.104l0.2085 0.1045 0.2085 0.104 0.104 0.104h0.2085l0.208 0.1045h0.1045l0.208 0.104 0.2085 0.104h0.104l0.2085 0.1045h0.2085l0.104 0.104 0.2085 0.104h0.208l0.1045 0.1045h0.208l0.2085 0.104h0.2085l0.104 0.104h0.2085l0.208 0.1045"/>
   <path d="m38.881 74.752-0.104 0.2085v0.4165l-0.104 0.1045v0.4165l-0.1045 0.104v0.417l-0.104 0.208v0.521l-0.104 0.2085v0.729l-0.1045 0.2085v0.833l-0.104 0.2085v3.5415l0.104 0.2085v1.0415l0.1045 0.2085v0.729l0.104 0.2085v0.3125l0.104 0.2085v0.5205l0.1045 0.2085v0.4165l0.104 0.1045v0.4165l0.104 0.2085v0.104l0.1045 0.2085v0.208l0.104 0.1045v0.4165l0.104 0.2085v0.104l0.1045 0.2085v0.208l0.104 0.1045v0.208l0.104 0.2085v0.2085l0.1045 0.104v0.2085l0.104 0.208 0.104 0.1045v0.208l0.1045 0.2085v0.104l0.104 0.2085 0.104 0.2085v0.104l0.1045 0.2085 0.104 0.208v0.1045l0.104 0.208 0.1045 0.1045v0.208l0.104 0.2085 0.104 0.104 0.1045 0.2085v0.2085l0.104 0.104 0.104 0.2085 0.1045 0.104v0.2085l0.104 0.208 0.104 0.1045 0.1045 0.208 0.104 0.1045v0.208l0.104 0.1045 0.1045 0.208 0.104 0.2085 0.104 0.104 0.1045 0.2085 0.104 0.104 0.104 0.2085v0.104l0.1045 0.2085 0.104 0.104 0.104 0.2085 0.1045 0.104 0.104 0.2085 0.104 0.104 0.1045 0.2085 0.104 0.104 0.104 0.2085 0.1045 0.104 0.104 0.2085 0.104 0.104 0.1045 0.1045 0.104 0.208 0.104 0.1045 0.1045 0.208 0.104 0.1045 0.104 0.208 0.2085 0.1045 0.104 0.104 0.1045 0.2085 0.104 0.104"/>
   <path d="m48.048 59.127-0.1045 0.1045-0.104 0.104-0.2085 0.2085-0.104 0.104-0.104 0.104-0.1045 0.1045-0.208 0.104-0.1045 0.2085-0.104 0.104-0.2085 0.104-0.104 0.1045-0.104 0.208-0.1045 0.1045-0.104 0.104-0.2085 0.104-0.104 0.2085-0.104 0.104-0.1045 0.1045-0.104 0.208-0.2085 0.1045-0.104 0.104-0.104 0.2085-0.1045 0.104-0.104 0.104-0.104 0.2085-0.2085 0.104-0.104 0.2085-0.1045 0.104-0.104 0.1045-0.104 0.208-0.1045 0.1045-0.104 0.208-0.104 0.1045-0.1045 0.104-0.104 0.2085-0.104 0.104-0.1045 0.2085-0.104 0.104-0.104 0.2085-0.1045 0.104-0.104 0.2085-0.104 0.104-0.1045 0.2085-0.104 0.104-0.104 0.2085-0.1045 0.104-0.104 0.2085-0.104 0.104-0.1045 0.2085-0.104 0.104-0.104 0.2085-0.1045 0.104-0.104 0.2085v0.104l-0.104 0.2085-0.1045 0.104-0.104 0.2085-0.104 0.208-0.1045 0.1045v0.208l-0.104 0.1045-0.104 0.208-0.1045 0.1045-0.104 0.208v0.2085l-0.104 0.104-0.1045 0.2085-0.104 0.104v0.2085l-0.104 0.2085-0.1045 0.104v0.2085l-0.104 0.208-0.104 0.1045v0.208l-0.1045 0.2085-0.104 0.104v0.2085l-0.104 0.2085v0.104l-0.1045 0.2085-0.104 0.208v0.1045l-0.104 0.208v0.2085l-0.1045 0.104v0.2085l-0.104 0.2085v0.104l-0.104 0.2085v0.208l-0.1045 0.2085v0.104l-0.104 0.2085v0.2085l-0.104 0.104v0.2085l-0.1045 0.208v0.3125"/>
   <path d="m64.611 51.94h-0.521l-0.2085 0.1045h-0.625l-0.104 0.104h-0.625l-0.104 0.104h-0.417l-0.208 0.1045h-0.3125l-0.2085 0.104h-0.3125l-0.2085 0.104h-0.208l-0.1045 0.1045h-0.208l-0.2085 0.104h-0.2085l-0.104 0.104h-0.2085l-0.208 0.1045h-0.1045l-0.208 0.104h-0.2085l-0.104 0.104h-0.2085l-0.2085 0.1045h-0.104l-0.2085 0.104h-0.208l-0.2085 0.104-0.104 0.1045h-0.2085l-0.2085 0.104-0.104 0.104h-0.2085l-0.104 0.1045h-0.2085l-0.208 0.104-0.1045 0.104-0.208 0.1045h-0.2085l-0.104 0.104-0.2085 0.104h-0.104l-0.2085 0.1045-0.2085 0.104-0.104 0.104-0.2085 0.1045h-0.104l-0.2085 0.104-0.208 0.104-0.1045 0.1045-0.208 0.104h-0.1045l-0.208 0.104-0.1045 0.1045-0.208 0.104-0.2085 0.104-0.104 0.1045-0.2085 0.104-0.104 0.104h-0.2085l-0.104 0.1045-0.2085 0.104-0.104 0.104-0.2085 0.1045-0.104 0.104-0.2085 0.104-0.104 0.1045-0.2085 0.104-0.104 0.104-0.2085 0.1045-0.104 0.104-0.1045 0.104-0.208 0.1045-0.1045 0.104-0.208 0.104-0.1045 0.1045-0.208 0.208-0.1045 0.1045-0.104 0.104-0.2085 0.104-0.104 0.1045-0.104 0.104-0.2085 0.104-0.104 0.1045-0.2085 0.104-0.104 0.2085-0.1045 0.104-0.208 0.104"/>
   <path d="m67.527 51.732h-1.0415l-0.2085 0.104h-1.354l-0.1045 0.104h-0.208"/>
   <path d="m139.4 60.794-0.20875 0.104-0.10375 0.104-0.10375 0.1045-0.105 0.208-0.10375 0.1045-0.20875 0.104-0.10375 0.2085-0.10375 0.104-0.105 0.104-0.10375 0.2085-0.10375 0.104-0.105 0.1045-0.2075 0.208-0.105 0.1045-0.10375 0.208-0.10375 0.1045-0.105 0.104-0.10375 0.2085-0.10375 0.104-0.105 0.2085-0.10375 0.104-0.10375 0.104-0.105 0.2085-0.10375 0.104-0.10375 0.2085-0.105 0.104-0.10375 0.2085-0.10375 0.104-0.105 0.2085-0.10375 0.104-0.10375 0.2085-0.105 0.104-0.10375 0.2085-0.10375 0.104-0.105 0.2085-0.10375 0.104-0.10375 0.2085-0.105 0.104-0.10375 0.2085-0.10375 0.104-0.105 0.2085v0.104l-0.10375 0.2085-0.10375 0.2085-0.105 0.104-0.10375 0.2085-0.10375 0.104v0.2085l-0.105 0.104-0.10375 0.2085-0.10375 0.208v0.1045l-0.105 0.208-0.10375 0.1045-0.10375 0.208v0.2085l-0.105 0.104-0.10375 0.2085-0.10375 0.2085v0.104l-0.105 0.2085-0.10375 0.208v0.1045l-0.10375 0.208v0.1045l-0.105 0.208-0.10375 0.2085v0.104l-0.10375 0.2085v0.2085l-0.105 0.208-0.10375 0.1045v0.208l-0.10375 0.2085v0.104l-0.105 0.2085v0.2085l-0.10375 0.104v0.2085l-0.10375 0.208v0.3125l-0.105 0.2085v0.2085l-0.10375 0.104v0.2085l-0.10375 0.208v0.3125l-0.105 0.2085v0.4165l-0.10375 0.1045v0.4165l-0.10375 0.2085v0.5205l-0.105 0.2085v0.521l-0.10375 0.208v0.8335l-0.10375 0.2085v2.2915"/>
   <path d="m155.24 52.252h-0.20875l-0.10375 0.1045h-0.4175l-0.2075 0.104h-0.3125l-0.20875 0.104h-0.20875l-0.10375 0.1045h-0.20875l-0.2075 0.104h-0.3125l-0.20875 0.104h-0.20875l-0.10375 0.1045h-0.20875l-0.2075 0.104h-0.105l-0.2075 0.104-0.20875 0.1045h-0.10375l-0.20875 0.104h-0.20875l-0.10375 0.104h-0.20875l-0.2075 0.1045-0.105 0.104h-0.2075l-0.20875 0.104-0.10375 0.1045h-0.20875l-0.20875 0.104-0.10375 0.104h-0.20875l-0.2075 0.1045-0.105 0.104-0.2075 0.104h-0.105l-0.2075 0.1045-0.20875 0.104-0.10375 0.104h-0.20875l-0.10375 0.1045-0.20875 0.104-0.20875 0.104-0.10375 0.1045h-0.20875l-0.10375 0.104-0.20875 0.104-0.10375 0.1045-0.20875 0.104-0.10375 0.104-0.20875 0.1045h-0.2075l-0.105 0.104-0.2075 0.104-0.105 0.1045-0.2075 0.104-0.105 0.104-0.2075 0.1045-0.105 0.104-0.2075 0.104-0.105 0.1045-0.2075 0.104-0.105 0.104-0.10375 0.1045-0.20875 0.104-0.10375 0.104-0.20875 0.1045-0.10375 0.104-0.20875 0.104-0.10375 0.1045-0.20875 0.104-0.10375 0.104-0.10375 0.1045-0.20875 0.208-0.10375 0.1045-0.105 0.104-0.2075 0.104-0.105 0.1045-0.2075 0.104-0.105 0.104-0.10375 0.1045-0.20875 0.208-0.10375 0.1045-0.10375 0.104-0.20875 0.104-0.10375 0.1045-0.105 0.208-0.10375 0.1045-0.20875 0.104-0.10375 0.104-0.10375 0.2085-0.20875 0.104-0.10375 0.1045-0.105 0.104-0.10375 0.2085"/>
   <path d="m173.15 54.544h-0.20875l-0.2075-0.1045-0.105-0.104-0.2075-0.104h-0.20875l-0.10375-0.1045-0.20875-0.104h-0.10375l-0.20875-0.104-0.20875-0.1045h-0.10375l-0.20875-0.104-0.2075-0.104h-0.105l-0.2075-0.1045h-0.20875l-0.10375-0.104-0.20875-0.104h-0.20875l-0.10375-0.1045h-0.20875l-0.2075-0.104h-0.20875l-0.10375-0.104h-0.20875l-0.20875-0.1045h-0.10375l-0.20875-0.104h-0.2075l-0.105-0.104h-0.2075l-0.20875-0.1045h-0.3125l-0.20875-0.104h-0.2075l-0.20875-0.104h-0.3125l-0.20875-0.1045h-0.3125l-0.2075-0.104h-0.52125l-0.20875-0.104h-0.52l-0.20875-0.1045h-0.72875l-0.20875-0.104h-1.4588l-0.2075-0.104h-1.98l-0.2075 0.104h-1.355l-0.10375 0.104h-0.9375l-0.20875 0.1045h-0.52l-0.20875 0.104h-0.3125l-0.20875 0.104h-0.2075"/>
   <path d="m186.28 66.94-0.10375-0.208-0.105-0.1045-0.10375-0.208-0.10375-0.2085-0.105-0.104-0.10375-0.2085-0.10375-0.104-0.105-0.2085-0.10375-0.104v-0.2085l-0.10375-0.104-0.105-0.2085-0.10375-0.104-0.10375-0.2085-0.105-0.104-0.10375-0.1045-0.10375-0.208-0.105-0.1045-0.10375-0.208-0.10375-0.1045-0.20875-0.208-0.10375-0.1045-0.105-0.208-0.10375-0.1045-0.10375-0.104-0.105-0.2085-0.10375-0.104-0.10375-0.104-0.105-0.2085-0.10375-0.104-0.20875-0.2085-0.10375-0.104-0.10375-0.1045-0.105-0.208-0.10375-0.1045-0.10375-0.104-0.20875-0.2085-0.10375-0.104-0.105-0.104-0.10375-0.1045-0.10375-0.208-0.20875-0.1045-0.10375-0.104-0.105-0.2085-0.10375-0.104-0.20875-0.104-0.10375-0.1045-0.10375-0.208-0.20875-0.1045-0.10375-0.104-0.105-0.104-0.10375-0.1045-0.20875-0.208-0.10375-0.1045-0.10375-0.104-0.20875-0.104-0.10375-0.1045-0.105-0.104-0.2075-0.2085-0.105-0.104-0.2075-0.104-0.105-0.1045-0.10375-0.104-0.20875-0.104-0.10375-0.1045-0.20875-0.104-0.10375-0.104-0.10375-0.1045-0.20875-0.104-0.10375-0.104-0.20875-0.2085-0.10375-0.104-0.20875-0.1045-0.10375-0.104-0.20875-0.104-0.10375-0.1045-0.105-0.104h-0.2075l-0.105-0.104-0.2075-0.1045-0.105-0.104-0.2075-0.104-0.105-0.1045-0.2075-0.104-0.20875-0.104-0.10375-0.1045-0.20875-0.104-0.10375-0.104-0.20875-0.1045h-0.10375l-0.20875-0.104-0.10375-0.104-0.20875-0.1045-0.20875-0.104h-0.10375l-0.20875-0.104-0.10375-0.1045-0.20875-0.104-0.10375-0.104"/>
   <path d="m187.53 92.773 0.10375-0.2085 0.105-0.104v-0.2085l0.10375-0.208 0.10375-0.1045v-0.208l0.105-0.2085v-0.104l0.10375-0.2085 0.10375-0.2085v-0.104l0.105-0.2085v-0.208l0.10375-0.1045v-0.208l0.10375-0.2085 0.105-0.104v-0.2085l0.10375-0.2085v-0.208l0.10375-0.1045v-0.4165l0.105-0.104v-0.2085l0.10375-0.2085v-0.208l0.10375-0.1045v-0.4165l0.105-0.104v-0.2085l0.10375-0.2085v-0.3125l0.10375-0.208v-0.521l0.105-0.2085v-0.5205l0.10375-0.2085v-0.625l0.10375-0.104v-1.146l0.105-0.2085v-3.4375l-0.105-0.208v-1.146l-0.10375-0.104v-0.625l-0.10375-0.2085v-0.521l-0.105-0.208v-0.521l-0.10375-0.2085v-0.3125l-0.10375-0.208v-0.2085l-0.105-0.104v-0.417l-0.10375-0.104v-0.2085l-0.10375-0.208v-0.2085l-0.105-0.104v-0.417l-0.10375-0.104v-0.2085l-0.10375-0.208v-0.2085l-0.105-0.104-0.10375-0.2085v-0.2085l-0.10375-0.104v-0.2085l-0.105-0.208v-0.1045l-0.10375-0.208-0.10375-0.2085v-0.104l-0.105-0.2085v-0.2085l-0.10375-0.104-0.10375-0.2085v-0.208l-0.105-0.1045-0.10375-0.208-0.10375-0.1045v-0.208l-0.105-0.2085-0.10375-0.104v-0.2085l-0.10375-0.2085-0.105-0.104-0.10375-0.2085-0.10375-0.104v-0.2085l-0.105-0.208-0.10375-0.1045-0.10375-0.208-0.105-0.1045-0.10375-0.208v-0.1045"/>
   <path d="m175.76 106.31 0.105-0.104 0.2075-0.104 0.105-0.1045 0.2075-0.104 0.105-0.104h0.2075l0.105-0.1045 0.10375-0.104 0.20875-0.104 0.10375-0.1045 0.20875-0.104 0.10375-0.104 0.20875-0.2085 0.10375-0.104 0.20875-0.1045 0.10375-0.104 0.10375-0.104 0.20875-0.1045 0.10375-0.104 0.20875-0.104 0.10375-0.1045 0.105-0.104 0.2075-0.104 0.105-0.1045 0.2075-0.208 0.105-0.1045 0.10375-0.104 0.20875-0.104 0.10375-0.1045 0.10375-0.104 0.20875-0.2085 0.10375-0.104 0.105-0.104 0.10375-0.1045 0.20875-0.104 0.10375-0.2085 0.10375-0.104 0.20875-0.104 0.10375-0.1045 0.105-0.208 0.10375-0.1045 0.20875-0.104 0.10375-0.2085 0.10375-0.104 0.105-0.104 0.10375-0.1045 0.20875-0.208 0.10375-0.1045 0.10375-0.104 0.105-0.2085 0.10375-0.104 0.10375-0.104 0.20875-0.2085 0.10375-0.104 0.105-0.2085 0.10375-0.104 0.10375-0.1045 0.105-0.208 0.10375-0.1045 0.10375-0.104 0.105-0.2085 0.10375-0.104 0.20875-0.2085 0.10375-0.104 0.10375-0.2085 0.105-0.104 0.10375-0.2085 0.10375-0.104 0.105-0.104 0.10375-0.2085 0.10375-0.104 0.105-0.2085 0.10375-0.104v-0.2085l0.10375-0.104 0.105-0.2085 0.10375-0.104 0.10375-0.2085 0.105-0.104 0.10375-0.2085 0.10375-0.2085 0.105-0.104 0.10375-0.2085v-0.104l0.10375-0.2085 0.105-0.104 0.10375-0.2085 0.10375-0.104 0.105-0.2085v-0.208l0.10375-0.1045 0.10375-0.208 0.105-0.1045 0.10375-0.208v-0.2085l0.10375-0.104 0.105-0.2085v-0.2085l0.10375-0.104"/>
   <path d="m158.15 110.48h1.1462l0.2075 0.104h1.98l0.2075-0.104h1.4588l0.20875-0.1045h0.72875l0.20875-0.104h0.52l0.20875-0.104h0.52125l0.2075-0.1045h0.3125l0.20875-0.104h0.3125l0.20875-0.104h0.2075l0.20875-0.1045h0.3125l0.20875-0.104h0.2075l0.105-0.104h0.2075l0.20875-0.1045h0.10375l0.20875-0.104h0.20875l0.10375-0.104h0.20875l0.2075-0.1045h0.20875l0.10375-0.104h0.20875l0.20875-0.104 0.10375-0.1045h0.20875l0.2075-0.104h0.105l0.2075-0.104 0.20875-0.1045h0.10375l0.20875-0.104 0.20875-0.104h0.10375l0.20875-0.1045 0.10375-0.104h0.20875l0.2075-0.104 0.105-0.1045 0.2075-0.104h0.20875l0.10375-0.104 0.20875-0.1045 0.10375-0.104 0.20875-0.104h0.10375l0.20875-0.1045 0.20875-0.104 0.10375-0.104 0.20875-0.1045h0.10375l0.20875-0.104 0.10375-0.104 0.20875-0.1045 0.10375-0.104 0.20875-0.104 0.2075-0.1045"/>
   <path d="m141.49 103.61 0.2075 0.104 0.105 0.104 0.2075 0.1045 0.105 0.104 0.10375 0.104 0.20875 0.2085 0.10375 0.104 0.10375 0.1045 0.20875 0.104 0.10375 0.104 0.20875 0.1045 0.10375 0.104 0.20875 0.104 0.10375 0.1045 0.20875 0.104 0.10375 0.104 0.105 0.1045 0.2075 0.104 0.105 0.104 0.2075 0.1045 0.105 0.104 0.2075 0.104 0.105 0.1045 0.2075 0.104 0.105 0.104 0.2075 0.1045 0.105 0.104h0.2075l0.20875 0.104 0.10375 0.1045 0.20875 0.104 0.10375 0.104 0.20875 0.1045 0.10375 0.104h0.20875l0.10375 0.104 0.20875 0.1045 0.20875 0.104 0.10375 0.104h0.20875l0.10375 0.1045 0.20875 0.104 0.2075 0.104h0.105l0.2075 0.1045 0.105 0.104 0.2075 0.104h0.20875l0.10375 0.1045 0.20875 0.104h0.20875l0.10375 0.104 0.20875 0.1045h0.2075l0.105 0.104 0.2075 0.104h0.20875l0.10375 0.1045h0.20875l0.20875 0.104h0.10375l0.20875 0.104 0.2075 0.1045h0.105l0.2075 0.104h0.20875l0.10375 0.104h0.20875l0.20875 0.1045h0.3125l0.2075 0.104h0.20875l0.10375 0.104h0.20875l0.20875 0.1045h0.3125l0.2075 0.104h0.4175l0.10375 0.104h0.41625l0.20875 0.1045h0.3125l0.20875 0.104h0.52l0.20875 0.104h0.9375l0.10375 0.1045h0.20875"/>
   <path d="m132.01 88.086v0.2085l0.105 0.208v0.3125l0.10375 0.2085v0.2085l0.10375 0.104v0.2085l0.105 0.208v0.1045l0.10375 0.208v0.2085l0.10375 0.104 0.105 0.2085v0.2085l0.10375 0.208v0.1045l0.10375 0.208 0.105 0.2085v0.104l0.10375 0.2085v0.104l0.10375 0.2085 0.105 0.2085v0.104l0.10375 0.2085 0.10375 0.208 0.105 0.1045v0.208l0.10375 0.2085 0.10375 0.104 0.105 0.2085v0.104l0.10375 0.2085 0.10375 0.2085 0.105 0.104v0.2085l0.10375 0.104 0.10375 0.2085 0.105 0.104 0.10375 0.2085 0.10375 0.208v0.1045l0.105 0.208 0.10375 0.1045 0.10375 0.208 0.105 0.1045 0.10375 0.208 0.10375 0.1045 0.105 0.208 0.10375 0.1045 0.10375 0.208 0.105 0.1045 0.10375 0.208 0.10375 0.1045 0.105 0.208 0.10375 0.1045 0.10375 0.208 0.105 0.1045 0.10375 0.208 0.10375 0.1045 0.105 0.208 0.10375 0.1045 0.10375 0.104 0.105 0.2085 0.10375 0.104 0.10375 0.2085 0.105 0.104 0.10375 0.104 0.10375 0.2085 0.105 0.104 0.2075 0.2085 0.105 0.104 0.10375 0.1045 0.10375 0.208 0.105 0.1045 0.10375 0.104 0.10375 0.2085 0.20875 0.104 0.10375 0.104 0.105 0.2085 0.10375 0.104 0.10375 0.1045 0.20875 0.104 0.10375 0.2085 0.105 0.104 0.10375 0.104 0.20875 0.1045 0.10375 0.208 0.10375 0.1045 0.20875 0.104 0.10375 0.104 0.105 0.2085 0.10375 0.104 0.20875 0.1045 0.10375 0.104 0.10375 0.104 0.20875 0.2085 0.10375 0.104 0.105 0.1045"/>
   <path d="m131.17 81.211v2.1875l0.10375 0.2085v0.833l0.10375 0.2085v0.521l0.105 0.208v0.521l0.10375 0.2085v0.4165l0.10375 0.104v0.417l0.105 0.208v0.3125l0.10375 0.2085v0.2085l0.10375 0.104"/>
   <path d="m236.38 105.06 0.105 0.1045 0.2075 0.104 0.105 0.104 0.2075 0.1045 0.105 0.104 0.2075 0.104 0.105 0.1045 0.2075 0.104 0.105 0.104 0.2075 0.1045 0.105 0.104 0.2075 0.104h0.105l0.2075 0.1045 0.105 0.104 0.2075 0.104 0.105 0.1045 0.2075 0.104 0.105 0.104 0.2075 0.1045h0.20875l0.10375 0.104 0.20875 0.104 0.10375 0.1045 0.20875 0.104h0.10375l0.20875 0.104 0.20875 0.1045 0.10375 0.104 0.20875 0.104h0.10375l0.20875 0.1045 0.2075 0.104h0.105l0.2075 0.104 0.20875 0.1045 0.10375 0.104h0.20875l0.20875 0.104h0.10375l0.20875 0.1045 0.10375 0.104h0.20875l0.2075 0.104 0.105 0.1045h0.2075l0.20875 0.104h0.20875l0.10375 0.104h0.20875l0.2075 0.1045h0.105l0.2075 0.104h0.20875l0.10375 0.104h0.20875l0.20875 0.1045h0.2075l0.105 0.104h0.2075l0.20875 0.104h0.10375l0.20875 0.1045h0.41625l0.105 0.104h0.41625l0.20875 0.104h0.3125l0.2075 0.1045h0.52125l0.20875 0.104h0.52l0.20875 0.104h0.72875l0.20875 0.1045h1.25l0.20875 0.104h1.145"/>
   <path d="m225.65 90.586 0.10375 0.104v0.2085l0.105 0.2085v0.104l0.10375 0.2085 0.10375 0.208v0.1045l0.105 0.208 0.10375 0.2085v0.104l0.10375 0.2085 0.105 0.2085v0.104l0.10375 0.2085 0.10375 0.208 0.105 0.1045v0.208l0.10375 0.1045 0.10375 0.208 0.105 0.2085v0.104l0.10375 0.2085 0.10375 0.104 0.105 0.2085 0.10375 0.104v0.2085l0.10375 0.2085 0.105 0.104 0.10375 0.2085 0.10375 0.104 0.105 0.2085 0.10375 0.104v0.2085l0.10375 0.104 0.105 0.2085 0.10375 0.104 0.10375 0.2085 0.105 0.104 0.10375 0.2085 0.10375 0.104 0.105 0.2085 0.10375 0.104 0.10375 0.2085 0.105 0.104 0.10375 0.2085 0.10375 0.104 0.105 0.2085 0.10375 0.104 0.10375 0.2085 0.105 0.104 0.10375 0.104 0.10375 0.2085 0.105 0.104 0.10375 0.2085 0.20875 0.104 0.10375 0.1045 0.10375 0.208 0.105 0.1045 0.10375 0.208 0.10375 0.1045 0.105 0.104 0.10375 0.2085 0.20875 0.104 0.10375 0.104 0.10375 0.2085 0.105 0.104 0.10375 0.1045 0.20875 0.208 0.10375 0.1045 0.10375 0.104 0.105 0.104 0.2075 0.2085 0.105 0.104 0.10375 0.1045 0.10375 0.104 0.20875 0.2085 0.10375 0.104 0.105 0.104 0.10375 0.1045 0.20875 0.104 0.10375 0.2085 0.10375 0.104 0.20875 0.104 0.10375 0.1045 0.105 0.104 0.2075 0.2085 0.105 0.104 0.10375 0.104 0.20875 0.1045 0.10375 0.104 0.20875 0.104 0.10375 0.1045 0.10375 0.104 0.20875 0.104 0.10375 0.2085 0.20875 0.104 0.10375 0.1045 0.105 0.104 0.2075 0.104"/>
   <path d="m228.88 65.169-0.10375 0.208-0.10375 0.1045-0.105 0.208-0.10375 0.1045-0.10375 0.208-0.105 0.1045-0.10375 0.208-0.10375 0.1045-0.105 0.208-0.10375 0.1045-0.10375 0.208v0.2085l-0.105 0.104-0.10375 0.2085-0.10375 0.104-0.105 0.2085v0.104l-0.10375 0.2085-0.10375 0.2085-0.105 0.104-0.10375 0.2085v0.104l-0.10375 0.2085-0.105 0.208-0.10375 0.1045v0.208l-0.10375 0.2085-0.105 0.104v0.2085l-0.10375 0.104-0.10375 0.2085v0.2085l-0.105 0.104-0.10375 0.2085v0.208l-0.10375 0.1045v0.208l-0.105 0.2085-0.10375 0.104v0.2085l-0.10375 0.2085v0.104l-0.105 0.2085v0.208l-0.10375 0.2085v0.104l-0.10375 0.2085v0.2085l-0.105 0.104v0.2085l-0.10375 0.208v0.2085l-0.10375 0.104v0.417l-0.105 0.104v0.2085l-0.10375 0.208v0.3125l-0.10375 0.2085v0.4165l-0.105 0.1045v0.625l-0.10375 0.104v0.625l-0.10375 0.104v0.7295l-0.105 0.208v1.4585l-0.10375 0.2085v2.083l0.10375 0.1045v1.354l0.105 0.2085v0.833l0.10375 0.2085v0.521l0.10375 0.208v0.417l0.105 0.208v0.3125l0.10375 0.2085v0.3125l0.10375 0.2085v0.3125l0.105 0.208v0.2085l0.10375 0.2085v0.104l0.10375 0.2085v0.3125l0.105 0.208v0.2085l0.10375 0.2085v0.104l0.10375 0.2085v0.208l0.105 0.1045 0.10375 0.208v0.2085"/>
   <path d="m242.74 53.815h-0.105l-0.2075 0.1045-0.20875 0.104-0.10375 0.104h-0.20875l-0.10375 0.1045-0.20875 0.104h-0.20875l-0.10375 0.104-0.20875 0.1045-0.2075 0.104h-0.105l-0.2075 0.104-0.105 0.1045-0.2075 0.104-0.20875 0.104h-0.10375l-0.20875 0.1045-0.10375 0.104-0.20875 0.104-0.10375 0.1045-0.20875 0.104h-0.10375l-0.20875 0.104-0.20875 0.1045-0.10375 0.104-0.20875 0.104-0.10375 0.1045-0.20875 0.104-0.10375 0.104-0.20875 0.1045-0.10375 0.104-0.20875 0.104-0.10375 0.1045-0.20875 0.104-0.10375 0.104-0.10375 0.1045-0.20875 0.104-0.10375 0.104-0.20875 0.1045-0.10375 0.104-0.20875 0.104-0.10375 0.1045-0.20875 0.104-0.10375 0.104-0.105 0.1045-0.2075 0.104-0.105 0.104-0.10375 0.1045-0.20875 0.208-0.10375 0.1045-0.20875 0.104-0.10375 0.104-0.10375 0.1045-0.20875 0.104-0.10375 0.2085-0.105 0.104-0.2075 0.104-0.105 0.1045-0.10375 0.104-0.10375 0.2085-0.20875 0.104-0.10375 0.104-0.105 0.1045-0.2075 0.104-0.105 0.2085-0.10375 0.104-0.10375 0.104-0.20875 0.2085-0.10375 0.104-0.105 0.1045-0.10375 0.104-0.10375 0.2085-0.20875 0.104-0.10375 0.104-0.105 0.2085-0.10375 0.104-0.10375 0.1045-0.105 0.208-0.2075 0.1045-0.105 0.104-0.10375 0.2085-0.10375 0.104-0.105 0.2085-0.10375 0.104-0.10375 0.104-0.105 0.2085-0.10375 0.104-0.10375 0.2085-0.105 0.104-0.10375 0.2085-0.20875 0.104-0.10375 0.1045-0.10375 0.208-0.105 0.1045-0.10375 0.208-0.10375 0.1045-0.105 0.208v0.1045"/>
   <path d="m260.76 52.669h-0.2075l-0.20875-0.1045h-0.10375l-0.20875-0.104h-0.3125l-0.20875-0.104h-0.2075l-0.20875-0.1045h-0.52125l-0.2075-0.104h-0.3125l-0.20875-0.104h-0.52125l-0.2075-0.1045h-0.73l-0.2075-0.104h-1.4588l-0.20875-0.104h-1.9788l-0.20875 0.104h-1.4575l-0.20875 0.104h-0.72875l-0.20875 0.1045h-0.52125l-0.2075 0.104h-0.3125l-0.20875 0.104h-0.52125l-0.2075 0.1045h-0.20875l-0.20875 0.104h-0.3125l-0.2075 0.104h-0.105l-0.2075 0.1045h-0.4175l-0.10375 0.104h-0.20875l-0.2075 0.104h-0.105l-0.2075 0.1045h-0.20875l-0.20875 0.104h-0.10375l-0.20875 0.104h-0.2075l-0.105 0.1045-0.2075 0.104h-0.20875l-0.10375 0.104h-0.20875l-0.20875 0.1045-0.10375 0.104h-0.20875l-0.2075 0.104"/>
   <path d="m275.96 62.252-0.10375-0.208-0.105-0.1045-0.10375-0.104-0.10375-0.2085-0.105-0.104-0.2075-0.104-0.105-0.2085-0.10375-0.104-0.10375-0.1045-0.105-0.104-0.2075-0.2085-0.105-0.104-0.10375-0.104-0.10375-0.2085-0.20875-0.104-0.10375-0.1045-0.105-0.104-0.2075-0.104-0.105-0.2085-0.10375-0.104-0.10375-0.1045-0.20875-0.104-0.10375-0.104-0.105-0.2085-0.2075-0.104-0.105-0.1045-0.10375-0.104-0.20875-0.104-0.10375-0.1045-0.20875-0.208-0.10375-0.1045-0.10375-0.104-0.20875-0.104-0.10375-0.1045-0.105-0.104-0.2075-0.104-0.105-0.1045-0.2075-0.104-0.105-0.104-0.2075-0.1045-0.105-0.104-0.2075-0.104-0.105-0.1045-0.10375-0.104-0.20875-0.104-0.10375-0.1045-0.20875-0.104-0.10375-0.104-0.20875-0.1045-0.10375-0.104-0.20875-0.104-0.10375-0.1045-0.20875-0.104-0.10375-0.104-0.20875-0.1045-0.2075-0.104h-0.105l-0.2075-0.104-0.105-0.1045-0.2075-0.104-0.105-0.104-0.2075-0.1045h-0.105l-0.2075-0.104-0.20875-0.104-0.10375-0.1045-0.20875-0.104h-0.10375l-0.20875-0.104-0.20875-0.1045-0.10375-0.104h-0.20875l-0.2075-0.104-0.105-0.1045h-0.2075l-0.105-0.104-0.2075-0.104-0.20875-0.1045h-0.10375l-0.20875-0.104h-0.20875l-0.10375-0.104-0.20875-0.1045h-0.2075l-0.105-0.104h-0.2075l-0.20875-0.104-0.10375-0.1045h-0.20875l-0.20875-0.104h-0.10375l-0.20875-0.104h-0.2075l-0.20875-0.1045h-0.10375l-0.20875-0.104h-0.20875l-0.10375-0.104h-0.20875"/>
   <path d="m282.42 86.315 0.10375-0.208v-0.417l0.10375-0.208v-0.521l0.105-0.2085v-0.833l0.10375-0.2085v-1.354l0.10375-0.1045v-2.083l-0.10375-0.2085v-1.4585l-0.10375-0.208v-0.7295l-0.105-0.104v-0.625l-0.10375-0.104v-0.625l-0.10375-0.1045v-0.4165l-0.105-0.2085v-0.3125l-0.10375-0.208v-0.2085l-0.10375-0.104v-0.417l-0.105-0.104v-0.2085l-0.10375-0.208v-0.2085l-0.10375-0.104v-0.2085l-0.105-0.2085v-0.104l-0.10375-0.2085v-0.208l-0.10375-0.2085v-0.104l-0.105-0.2085v-0.2085l-0.10375-0.104-0.10375-0.2085v-0.208l-0.105-0.1045v-0.208l-0.10375-0.2085-0.10375-0.104v-0.2085l-0.105-0.2085-0.10375-0.104v-0.2085l-0.10375-0.104-0.105-0.2085v-0.208l-0.10375-0.1045-0.10375-0.208-0.105-0.2085v-0.104l-0.10375-0.2085-0.10375-0.104-0.105-0.2085-0.10375-0.2085v-0.104l-0.10375-0.2085-0.105-0.104-0.10375-0.2085-0.10375-0.104v-0.2085l-0.105-0.208-0.10375-0.1045-0.10375-0.208-0.105-0.1045-0.10375-0.208-0.10375-0.1045-0.105-0.208-0.10375-0.1045-0.10375-0.208-0.105-0.1045-0.10375-0.208v-0.1045l-0.10375-0.208-0.105-0.1045-0.10375-0.208-0.10375-0.1045-0.105-0.208-0.10375-0.1045-0.20875-0.104-0.10375-0.2085-0.10375-0.104-0.105-0.2085-0.10375-0.104-0.10375-0.2085-0.105-0.104-0.10375-0.104-0.10375-0.2085-0.105-0.104-0.10375-0.2085-0.10375-0.104-0.20875-0.1045"/>
   <path d="m273.57 102.67 0.105-0.1045 0.10375-0.104 0.10375-0.104 0.20875-0.2085 0.10375-0.104 0.105-0.1045 0.10375-0.104 0.20875-0.2085 0.10375-0.104 0.10375-0.104 0.105-0.1045 0.2075-0.208 0.105-0.1045 0.10375-0.104 0.10375-0.2085 0.105-0.104 0.2075-0.104 0.105-0.2085 0.10375-0.104 0.10375-0.1045 0.105-0.208 0.10375-0.1045 0.10375-0.208 0.105-0.1045 0.2075-0.104 0.105-0.2085 0.10375-0.104 0.10375-0.2085 0.105-0.104 0.10375-0.104 0.10375-0.2085 0.105-0.104 0.10375-0.2085 0.10375-0.104 0.105-0.2085 0.10375-0.104 0.10375-0.2085 0.105-0.104 0.10375-0.2085 0.10375-0.104 0.105-0.2085 0.10375-0.104 0.10375-0.2085 0.105-0.104 0.10375-0.2085 0.10375-0.104v-0.2085l0.105-0.104 0.10375-0.2085 0.10375-0.104 0.105-0.2085 0.10375-0.104 0.10375-0.2085v-0.2085l0.105-0.104 0.10375-0.2085 0.10375-0.104 0.105-0.2085v-0.104l0.10375-0.2085 0.10375-0.208 0.105-0.1045v-0.208l0.10375-0.1045 0.10375-0.208 0.105-0.2085v-0.104l0.10375-0.2085 0.10375-0.2085v-0.104l0.105-0.2085 0.10375-0.208v-0.1045l0.10375-0.208 0.105-0.2085v-0.104l0.10375-0.2085v-0.2085l0.10375-0.104v-0.2085l0.105-0.208 0.10375-0.1045v-0.208l0.10375-0.2085v-0.104l0.105-0.2085v-0.2085l0.10375-0.208v-0.3125l0.10375-0.2085v-0.104l0.105-0.2085v-0.2085l0.10375-0.208v-0.3125l0.10375-0.2085v-0.3125l0.105-0.2085v-0.3125"/>
   <path d="m257.21 110.27h0.52125l0.2075-0.104h0.52125l0.20875-0.1045h0.3125l0.2075-0.104h0.4175l0.10375-0.104h0.41625l0.20875-0.1045h0.10375l0.20875-0.104h0.20875l0.10375-0.104h0.20875l0.2075-0.1045h0.20875l0.10375-0.104h0.20875l0.20875-0.104h0.10375l0.20875-0.1045h0.2075l0.105-0.104h0.2075l0.20875-0.104h0.20875l0.10375-0.1045 0.20875-0.104h0.2075l0.105-0.104 0.2075-0.1045h0.105l0.2075-0.104h0.20875l0.10375-0.104 0.20875-0.1045 0.20875-0.104h0.10375l0.20875-0.104 0.2075-0.1045h0.105l0.2075-0.104 0.105-0.104 0.2075-0.1045 0.20875-0.104h0.10375l0.20875-0.104 0.10375-0.1045 0.20875-0.104 0.10375-0.104h0.20875l0.20875-0.1045 0.10375-0.104 0.20875-0.104 0.10375-0.1045 0.20875-0.104 0.10375-0.104 0.20875-0.1045h0.10375l0.20875-0.104 0.10375-0.104 0.20875-0.1045 0.10375-0.104 0.20875-0.104 0.10375-0.1045 0.20875-0.104 0.10375-0.104 0.20875-0.1045 0.10375-0.104 0.20875-0.104 0.10375-0.1045 0.20875-0.104 0.10375-0.104 0.10375-0.1045 0.20875-0.104 0.10375-0.2085 0.20875-0.104 0.10375-0.104 0.105-0.1045 0.2075-0.104 0.105-0.104 0.2075-0.1045 0.105-0.104 0.10375-0.104 0.20875-0.2085 0.10375-0.104 0.10375-0.1045 0.20875-0.104 0.10375-0.104 0.105-0.2085 0.2075-0.104"/>
   <path d="m253.57 110.59h1.0425l0.2075-0.104h1.25l0.20875-0.1045h0.72875l0.20875-0.104"/>
   <path d="m367.63 101.52 0.20875-0.104 0.10375-0.1045 0.105-0.104 0.10375-0.2085 0.10375-0.104 0.20875-0.104 0.10375-0.2085 0.105-0.104 0.10375-0.1045 0.10375-0.208 0.105-0.1045 0.10375-0.104 0.20875-0.2085 0.10375-0.104 0.10375-0.2085 0.105-0.104 0.10375-0.104 0.10375-0.2085 0.105-0.104 0.10375-0.2085 0.10375-0.104 0.105-0.1045 0.10375-0.208 0.10375-0.1045 0.105-0.208 0.10375-0.1045 0.10375-0.208 0.105-0.1045 0.10375-0.208 0.10375-0.1045 0.105-0.208 0.10375-0.1045 0.10375-0.208 0.105-0.1045 0.10375-0.208 0.10375-0.1045 0.105-0.208 0.10375-0.1045 0.10375-0.208 0.105-0.1045 0.10375-0.208v-0.1045l0.10375-0.208 0.105-0.2085 0.10375-0.104 0.10375-0.2085 0.105-0.104v-0.2085l0.10375-0.104 0.10375-0.2085 0.105-0.2085v-0.104l0.10375-0.2085 0.10375-0.104 0.105-0.2085v-0.208l0.10375-0.1045 0.10375-0.208 0.105-0.2085v-0.104l0.10375-0.2085 0.10375-0.2085v-0.104l0.105-0.2085v-0.104l0.10375-0.2085 0.10375-0.208v-0.1045l0.105-0.208v-0.2085l0.10375-0.2085 0.10375-0.104v-0.2085l0.105-0.208v-0.1045l0.10375-0.208v-0.2085l0.10375-0.104v-0.2085l0.105-0.2085v-0.3125l0.10375-0.208v-0.2085l0.10375-0.104v-0.2085l0.105-0.2085v-0.3125l0.10375-0.208v-0.417l0.10375-0.104v-0.4165l0.105-0.2085v-0.521l0.10375-0.208v-0.521l0.10375-0.2085v-0.833l0.105-0.2085v-2.1875"/>
   <path d="m351.8 110.06h0.2075l0.105-0.104h0.41625l0.20875-0.104h0.3125l0.2075-0.1045h0.20875l0.10375-0.104h0.20875l0.20875-0.104h0.3125l0.2075-0.1045h0.20875l0.10375-0.104h0.20875l0.20875-0.104h0.10375l0.20875-0.1045 0.2075-0.104h0.105l0.2075-0.104h0.20875l0.10375-0.1045h0.20875l0.20875-0.104 0.10375-0.104h0.20875l0.2075-0.1045 0.105-0.104h0.2075l0.20875-0.104 0.10375-0.1045h0.20875l0.20875-0.104 0.10375-0.104 0.20875-0.1045h0.10375l0.20875-0.104 0.2075-0.104 0.105-0.1045h0.2075l0.105-0.104 0.2075-0.104 0.20875-0.1045 0.10375-0.104h0.20875l0.10375-0.104 0.20875-0.1045 0.10375-0.104 0.20875-0.104 0.10375-0.1045 0.20875-0.104h0.20875l0.10375-0.104 0.20875-0.1045 0.10375-0.104 0.20875-0.104 0.10375-0.1045 0.20875-0.104 0.10375-0.104 0.20875-0.1045 0.10375-0.104 0.20875-0.104 0.10375-0.1045 0.10375-0.104 0.20875-0.104 0.10375-0.1045 0.20875-0.104 0.10375-0.104 0.20875-0.1045 0.10375-0.104 0.20875-0.104 0.10375-0.1045 0.105-0.104 0.2075-0.2085 0.105-0.104 0.10375-0.104 0.20875-0.1045 0.10375-0.104 0.20875-0.104 0.10375-0.1045 0.10375-0.104 0.20875-0.2085 0.10375-0.104 0.105-0.104 0.2075-0.1045 0.105-0.104 0.10375-0.2085 0.10375-0.104 0.20875-0.104 0.10375-0.1045 0.105-0.208 0.2075-0.1045 0.105-0.104 0.10375-0.104 0.10375-0.2085"/>
   <path d="m333.88 107.77h0.20875l0.20875 0.104 0.10375 0.1045 0.20875 0.104h0.2075l0.105 0.104 0.2075 0.1045h0.105l0.2075 0.104 0.20875 0.104h0.10375l0.20875 0.1045 0.20875 0.104h0.10375l0.20875 0.104h0.2075l0.105 0.1045 0.2075 0.104h0.20875l0.10375 0.104h0.20875l0.20875 0.1045h0.2075l0.105 0.104h0.2075l0.20875 0.104h0.10375l0.20875 0.1045h0.20875l0.10375 0.104h0.20875l0.2075 0.104h0.3125l0.20875 0.1045h0.20875l0.2075 0.104h0.3125l0.20875 0.104h0.3125l0.20875 0.1045h0.52l0.20875 0.104h0.52125l0.2075 0.104h0.73l0.2075 0.1045h1.4588l0.20875 0.104h1.9788l0.20875-0.104h1.3538l0.10375-0.1045h0.9375l0.20875-0.104h0.52125l0.2075-0.104h0.3125l0.20875-0.1045h0.20875"/>
   <path d="m320.76 95.377 0.105 0.2085 0.10375 0.104 0.10375 0.2085 0.105 0.2085 0.10375 0.104 0.10375 0.2085 0.105 0.104 0.10375 0.2085 0.10375 0.104v0.2085l0.105 0.104 0.10375 0.2085 0.10375 0.104 0.105 0.2085 0.10375 0.104 0.10375 0.104 0.105 0.2085 0.10375 0.104 0.10375 0.2085 0.105 0.104 0.2075 0.2085 0.105 0.104 0.10375 0.2085 0.10375 0.104 0.105 0.1045 0.10375 0.208 0.10375 0.1045 0.105 0.104 0.10375 0.2085 0.10375 0.104 0.20875 0.2085 0.10375 0.104 0.105 0.104 0.10375 0.2085 0.10375 0.104 0.105 0.1045 0.2075 0.208 0.105 0.1045 0.10375 0.104 0.10375 0.104 0.105 0.2085 0.2075 0.104 0.105 0.1045 0.10375 0.208 0.10375 0.1045 0.20875 0.104 0.10375 0.104 0.105 0.2085 0.2075 0.104 0.105 0.1045 0.10375 0.104 0.10375 0.104 0.20875 0.2085 0.10375 0.104 0.105 0.1045 0.2075 0.104 0.105 0.104 0.10375 0.1045 0.20875 0.208 0.10375 0.1045 0.20875 0.104 0.10375 0.104 0.10375 0.1045 0.20875 0.104 0.10375 0.104 0.20875 0.1045 0.10375 0.104 0.105 0.104 0.2075 0.1045 0.105 0.104 0.2075 0.2085 0.105 0.104 0.2075 0.104 0.105 0.1045 0.2075 0.104 0.105 0.104 0.10375 0.1045h0.20875l0.10375 0.104 0.20875 0.104 0.10375 0.1045 0.20875 0.104 0.10375 0.104 0.20875 0.1045 0.2075 0.104 0.105 0.104 0.2075 0.1045 0.105 0.104 0.2075 0.104h0.105l0.2075 0.1045 0.105 0.104 0.2075 0.104 0.20875 0.1045h0.10375l0.20875 0.104 0.10375 0.104 0.20875 0.1045 0.10375 0.104"/>
   <path d="m319.51 69.544-0.10375 0.208-0.10375 0.1045v0.208l-0.105 0.2085-0.10375 0.104v0.2085l-0.10375 0.2085v0.104l-0.105 0.2085-0.10375 0.208v0.1045l-0.10375 0.208v0.2085l-0.105 0.104v0.2085l-0.10375 0.2085-0.10375 0.104v0.2085l-0.105 0.208v0.2085l-0.10375 0.104v0.417l-0.10375 0.104v0.2085l-0.105 0.208v0.2085l-0.10375 0.104v0.417l-0.10375 0.104v0.2085l-0.105 0.208v0.3125l-0.10375 0.2085v0.521l-0.10375 0.208v0.521l-0.105 0.2085v0.625l-0.10375 0.104v1.146l-0.10375 0.208v3.4375l0.10375 0.2085v1.146l0.10375 0.104v0.625l0.105 0.2085v0.5205l0.10375 0.2085v0.521l0.10375 0.208v0.3125l0.105 0.2085v0.2085l0.10375 0.104v0.4165l0.10375 0.1045v0.208l0.105 0.2085v0.2085l0.10375 0.104v0.4165l0.10375 0.1045v0.208l0.105 0.2085v0.2085l0.10375 0.104 0.10375 0.2085v0.208l0.105 0.1045v0.208l0.10375 0.2085v0.104l0.10375 0.2085 0.105 0.2085v0.104l0.10375 0.2085v0.208l0.10375 0.1045 0.105 0.208v0.2085l0.10375 0.104 0.10375 0.2085 0.105 0.104v0.2085l0.10375 0.2085 0.10375 0.104v0.2085l0.105 0.208 0.10375 0.1045 0.10375 0.208 0.105 0.1045v0.208l0.10375 0.2085 0.10375 0.104 0.105 0.2085 0.10375 0.104 0.10375 0.2085v0.104"/>
   <path d="m331.28 56.002-0.10375 0.1045-0.20875 0.104-0.10375 0.104-0.20875 0.1045-0.10375 0.104h-0.20875l-0.10375 0.104-0.105 0.1045-0.2075 0.104-0.105 0.104-0.2075 0.1045-0.105 0.104-0.2075 0.2085-0.105 0.104-0.2075 0.104-0.105 0.1045-0.10375 0.104-0.20875 0.104-0.10375 0.1045-0.20875 0.104-0.10375 0.104-0.10375 0.1045-0.20875 0.104-0.10375 0.104-0.20875 0.2085-0.10375 0.104-0.105 0.1045-0.2075 0.104-0.105 0.104-0.10375 0.1045-0.20875 0.208-0.10375 0.1045-0.10375 0.104-0.105 0.104-0.2075 0.1045-0.105 0.208-0.10375 0.1045-0.20875 0.104-0.10375 0.104-0.10375 0.2085-0.105 0.104-0.2075 0.1045-0.105 0.208-0.10375 0.1045-0.10375 0.104-0.105 0.104-0.2075 0.2085-0.105 0.104-0.10375 0.1045-0.10375 0.208-0.105 0.1045-0.10375 0.104-0.20875 0.2085-0.10375 0.104-0.10375 0.2085-0.105 0.104-0.10375 0.104-0.10375 0.2085-0.105 0.104-0.10375 0.1045-0.10375 0.208-0.105 0.1045-0.2075 0.208-0.105 0.1045-0.10375 0.208-0.10375 0.1045-0.105 0.208-0.10375 0.1045-0.10375 0.104-0.105 0.2085-0.10375 0.104-0.10375 0.2085-0.105 0.104v0.2085l-0.10375 0.104-0.10375 0.2085-0.105 0.104-0.10375 0.2085-0.10375 0.104-0.105 0.2085-0.10375 0.208-0.10375 0.1045-0.105 0.208v0.1045l-0.10375 0.208-0.10375 0.1045-0.105 0.208-0.10375 0.1045-0.10375 0.208v0.2085l-0.105 0.104-0.10375 0.2085-0.10375 0.104-0.105 0.2085v0.2085l-0.10375 0.104-0.10375 0.2085v0.208l-0.105 0.1045"/>
   <path d="m348.88 51.836h-1.145l-0.20875-0.104h-1.9788l-0.20875 0.104h-1.4588l-0.2075 0.104h-0.73l-0.2075 0.1045h-0.52125l-0.20875 0.104h-0.52l-0.20875 0.104h-0.3125l-0.20875 0.1045h-0.3125l-0.2075 0.104h-0.20875l-0.20875 0.104h-0.3125l-0.2075 0.1045h-0.20875l-0.10375 0.104h-0.20875l-0.20875 0.104h-0.10375l-0.20875 0.1045h-0.2075l-0.105 0.104h-0.2075l-0.20875 0.104h-0.20875l-0.10375 0.1045h-0.20875l-0.2075 0.104-0.105 0.104h-0.2075l-0.20875 0.1045h-0.10375l-0.20875 0.104-0.20875 0.104h-0.10375l-0.20875 0.1045-0.2075 0.104h-0.105l-0.2075 0.104-0.105 0.1045h-0.2075l-0.20875 0.104-0.10375 0.104-0.20875 0.1045h-0.20875l-0.10375 0.104-0.20875 0.104-0.10375 0.1045-0.20875 0.104h-0.10375l-0.20875 0.104-0.2075 0.1045-0.105 0.104-0.2075 0.104h-0.105l-0.2075 0.1045-0.105 0.104-0.2075 0.104-0.105 0.1045-0.2075 0.104-0.20875 0.104"/>
   <path d="m365.55 58.711-0.20875-0.104-0.10375-0.1045-0.20875-0.104-0.10375-0.104-0.105-0.1045-0.2075-0.208-0.105-0.1045-0.10375-0.104-0.20875-0.104-0.10375-0.1045-0.20875-0.104-0.10375-0.104-0.20875-0.1045-0.10375-0.104-0.20875-0.104-0.10375-0.1045-0.10375-0.104-0.20875-0.104-0.10375-0.1045-0.20875-0.104-0.10375-0.104-0.20875-0.1045-0.10375-0.104-0.20875-0.104-0.10375-0.1045-0.20875-0.104-0.10375-0.104h-0.20875l-0.20875-0.1045-0.10375-0.104-0.20875-0.104-0.10375-0.1045-0.20875-0.104-0.10375-0.104h-0.20875l-0.10375-0.1045-0.20875-0.104-0.2075-0.104-0.105-0.1045h-0.2075l-0.105-0.104-0.2075-0.104-0.20875-0.1045h-0.10375l-0.20875-0.104-0.10375-0.104-0.20875-0.1045h-0.20875l-0.10375-0.104-0.20875-0.104h-0.2075l-0.105-0.1045-0.2075-0.104h-0.20875l-0.10375-0.104-0.20875-0.1045h-0.20875l-0.10375-0.104h-0.20875l-0.2075-0.104h-0.105l-0.2075-0.1045-0.20875-0.104h-0.10375l-0.20875-0.104h-0.20875l-0.10375-0.1045h-0.20875l-0.2075-0.104h-0.3125l-0.20875-0.104h-0.20875l-0.10375-0.1045h-0.20875l-0.2075-0.104h-0.3125l-0.20875-0.104h-0.41625l-0.105-0.1045h-0.41625l-0.20875-0.104h-0.3125l-0.2075-0.104h-0.52125l-0.20875-0.1045h-0.9375l-0.10375-0.104h-0.20875"/>
   <path d="m375.03 74.232v-0.2085l-0.10375-0.2085v-0.3125l-0.105-0.208v-0.2085l-0.10375-0.104v-0.2085l-0.10375-0.2085v-0.104l-0.105-0.2085v-0.208l-0.10375-0.1045-0.10375-0.208v-0.2085l-0.105-0.2085v-0.104l-0.10375-0.2085-0.10375-0.208v-0.1045l-0.105-0.208v-0.1045l-0.10375-0.208-0.10375-0.2085v-0.104l-0.105-0.2085-0.10375-0.2085-0.10375-0.104v-0.2085l-0.105-0.208-0.10375-0.1045-0.10375-0.208v-0.1045l-0.105-0.208-0.10375-0.2085-0.10375-0.104v-0.2085l-0.105-0.104-0.10375-0.2085-0.10375-0.104-0.105-0.2085-0.10375-0.2085v-0.104l-0.10375-0.2085-0.105-0.104-0.10375-0.2085-0.10375-0.104-0.105-0.2085-0.10375-0.104-0.10375-0.2085-0.105-0.104-0.10375-0.2085-0.10375-0.104-0.105-0.2085-0.10375-0.104-0.10375-0.2085-0.105-0.104-0.10375-0.2085-0.10375-0.104-0.105-0.2085-0.10375-0.104-0.10375-0.2085-0.105-0.104-0.10375-0.104-0.10375-0.2085-0.105-0.104-0.10375-0.2085-0.10375-0.104-0.105-0.1045-0.10375-0.208-0.10375-0.1045-0.20875-0.208-0.10375-0.1045-0.105-0.104-0.10375-0.2085-0.10375-0.104-0.105-0.104-0.10375-0.2085-0.20875-0.104-0.10375-0.1045-0.10375-0.208-0.105-0.1045-0.10375-0.104-0.20875-0.104-0.10375-0.2085-0.10375-0.104-0.105-0.1045-0.2075-0.104-0.105-0.2085-0.10375-0.104-0.20875-0.104-0.10375-0.1045-0.10375-0.208-0.105-0.1045-0.2075-0.104-0.105-0.104-0.10375-0.1045-0.20875-0.208-0.10375-0.1045-0.10375-0.104"/>
   <path d="m375.86 81.211v-2.2915l-0.105-0.2085v-0.8335l-0.10375-0.208v-0.521l-0.10375-0.2085v-0.5205l-0.105-0.2085v-0.4165l-0.10375-0.1045v-0.4165l-0.10375-0.2085v-0.3125l-0.105-0.208v-0.2085l-0.10375-0.104"/>
   <path d="m456.59 57.252-0.10375-0.104-0.105-0.104-0.2075-0.1045-0.105-0.104-0.2075-0.104-0.105-0.1045-0.2075-0.104-0.105-0.104-0.2075-0.1045-0.105-0.104-0.2075-0.104-0.105-0.1045h-0.2075l-0.105-0.104-0.2075-0.104-0.105-0.1045-0.2075-0.104-0.20875-0.104-0.10375-0.1045-0.20875-0.104h-0.10375l-0.20875-0.104-0.10375-0.1045-0.20875-0.104-0.20875-0.104h-0.10375l-0.20875-0.1045-0.10375-0.104-0.20875-0.104-0.2075-0.1045h-0.105l-0.2075-0.104-0.105-0.104h-0.2075l-0.20875-0.1045-0.10375-0.104-0.20875-0.104h-0.20875l-0.10375-0.1045h-0.20875l-0.10375-0.104-0.20875-0.104h-0.2075l-0.105-0.1045-0.2075-0.104h-0.20875l-0.20875-0.104h-0.10375l-0.20875-0.1045h-0.2075l-0.105-0.104h-0.2075l-0.20875-0.104h-0.10375l-0.20875-0.1045h-0.20875l-0.10375-0.104h-0.20875l-0.2075-0.104h-0.20875l-0.10375-0.1045h-0.20875l-0.20875-0.104h-0.3125l-0.2075-0.104h-0.3125l-0.20875-0.1045h-0.41625l-0.105-0.104h-0.625l-0.10375-0.104h-0.625l-0.20875-0.1045h-0.72875l-0.10375-0.104h-1.355l-0.2075-0.104h-1.0425"/>
   <path d="m467.32 71.732v-0.1045l-0.10375-0.208-0.10375-0.2085v-0.104l-0.105-0.2085v-0.2085l-0.10375-0.104-0.10375-0.2085v-0.208l-0.105-0.1045-0.10375-0.208v-0.2085l-0.10375-0.104-0.105-0.2085v-0.2085l-0.10375-0.104-0.10375-0.2085-0.105-0.104v-0.2085l-0.10375-0.208-0.10375-0.1045-0.105-0.208-0.10375-0.1045v-0.208l-0.10375-0.1045-0.105-0.208-0.10375-0.2085-0.10375-0.104-0.105-0.2085v-0.104l-0.10375-0.2085-0.10375-0.104-0.105-0.2085-0.10375-0.104-0.10375-0.2085-0.105-0.104-0.10375-0.2085-0.10375-0.104-0.105-0.2085-0.10375-0.104-0.10375-0.2085-0.105-0.104-0.10375-0.2085-0.10375-0.104-0.105-0.2085-0.10375-0.104-0.10375-0.2085-0.105-0.104-0.10375-0.2085-0.10375-0.104-0.105-0.1045-0.10375-0.208-0.10375-0.1045-0.105-0.208-0.10375-0.1045-0.10375-0.104-0.105-0.2085-0.2075-0.104-0.105-0.2085-0.10375-0.104-0.10375-0.104-0.105-0.2085-0.10375-0.104-0.20875-0.1045-0.10375-0.208-0.10375-0.1045-0.105-0.104-0.10375-0.2085-0.20875-0.104-0.10375-0.104-0.10375-0.1045-0.105-0.208-0.10375-0.1045-0.20875-0.104-0.10375-0.104-0.10375-0.2085-0.20875-0.104-0.10375-0.1045-0.105-0.104-0.10375-0.104-0.20875-0.2085-0.10375-0.104-0.10375-0.1045-0.20875-0.104-0.10375-0.104-0.105-0.2085-0.2075-0.104-0.105-0.1045-0.2075-0.104-0.105-0.104-0.10375-0.1045-0.20875-0.104-0.10375-0.104-0.10375-0.1045-0.20875-0.208-0.10375-0.1045-0.20875-0.104-0.10375-0.104-0.20875-0.1045"/>
   <path d="m464.09 97.252 0.10375-0.104 0.105-0.2085 0.10375-0.104 0.10375-0.2085 0.105-0.104 0.10375-0.2085v-0.104l0.10375-0.2085 0.105-0.104 0.10375-0.2085 0.10375-0.104 0.105-0.2085 0.10375-0.208 0.10375-0.1045v-0.208l0.105-0.1045 0.10375-0.208 0.10375-0.1045 0.105-0.208v-0.2085l0.10375-0.104 0.10375-0.2085 0.105-0.104v-0.2085l0.10375-0.2085 0.10375-0.104 0.105-0.2085v-0.208l0.10375-0.1045 0.10375-0.208v-0.1045l0.105-0.208 0.10375-0.2085v-0.104l0.10375-0.2085 0.105-0.2085v-0.104l0.10375-0.2085v-0.208l0.10375-0.1045 0.105-0.208v-0.2085l0.10375-0.104v-0.2085l0.10375-0.2085v-0.208l0.105-0.1045v-0.208l0.10375-0.2085v-0.104l0.10375-0.2085v-0.4165l0.105-0.1045v-0.208l0.10375-0.2085v-0.104l0.10375-0.2085v-0.4165l0.105-0.1045v-0.4165l0.10375-0.2085v-0.5205l0.10375-0.2085v-0.3125l0.105-0.2085v-0.729l0.10375-0.2085v-1.0415l0.10375-0.2085v-3.5415l-0.10375-0.2085v-0.833l-0.10375-0.2085v-0.729l-0.105-0.2085v-0.521l-0.10375-0.208v-0.417l-0.10375-0.104v-0.4165l-0.105-0.1045v-0.4165l-0.10375-0.2085v-0.3125l-0.10375-0.208v-0.2085l-0.105-0.104v-0.2085l-0.10375-0.2085v-0.104l-0.10375-0.2085v-0.208l-0.105-0.2085v-0.104l-0.10375-0.2085v-0.2085l-0.10375-0.104v-0.2085l-0.105-0.208"/>
   <path d="m450.03 108.61 0.20875-0.1045h0.2075l0.105-0.104 0.2075-0.104 0.20875-0.1045h0.10375l0.20875-0.104 0.10375-0.104h0.20875l0.20875-0.1045 0.10375-0.104 0.20875-0.104h0.2075l0.105-0.1045 0.2075-0.104 0.105-0.104 0.2075-0.1045h0.105l0.2075-0.104 0.20875-0.104 0.10375-0.1045 0.20875-0.104 0.10375-0.104h0.20875l0.10375-0.1045 0.20875-0.104 0.10375-0.104 0.20875-0.1045 0.10375-0.104 0.20875-0.104 0.10375-0.1045 0.20875-0.104 0.10375-0.104 0.20875-0.1045 0.10375-0.104 0.20875-0.104 0.10375-0.1045 0.20875-0.104 0.10375-0.104 0.20875-0.1045 0.10375-0.104 0.20875-0.104 0.10375-0.1045 0.105-0.104 0.2075-0.104 0.105-0.1045 0.2075-0.104 0.105-0.104 0.10375-0.1045 0.20875-0.104 0.10375-0.2085 0.20875-0.104 0.10375-0.104 0.10375-0.1045 0.20875-0.104 0.10375-0.104 0.105-0.2085 0.2075-0.104 0.105-0.1045 0.10375-0.104 0.20875-0.104 0.10375-0.2085 0.10375-0.104 0.105-0.1045 0.2075-0.104 0.105-0.104 0.10375-0.2085 0.10375-0.104 0.20875-0.1045 0.10375-0.208 0.105-0.1045 0.10375-0.104 0.20875-0.104 0.10375-0.2085 0.10375-0.104 0.105-0.1045 0.10375-0.208 0.10375-0.1045 0.20875-0.104 0.10375-0.2085 0.105-0.104 0.10375-0.104 0.10375-0.2085 0.105-0.104 0.10375-0.2085 0.10375-0.104 0.20875-0.1045 0.10375-0.208 0.105-0.1045 0.10375-0.208 0.10375-0.1045 0.105-0.208 0.10375-0.1045 0.10375-0.104 0.105-0.2085 0.10375-0.104 0.10375-0.2085 0.105-0.104 0.10375-0.2085"/>
   <path d="m432.11 109.65h0.3125l0.2075 0.104h0.20875l0.10375 0.1045h0.4175l0.2075 0.104h0.105l0.2075 0.104h0.52125l0.20875 0.1045h0.41625l0.10375 0.104h0.625l0.105 0.104h0.72875l0.20875 0.1045h1.4575l0.20875 0.104h2.0838l0.10375-0.104h1.5625l0.10375-0.1045h0.73l0.2075-0.104h0.52125l0.20875-0.104h0.41625l0.10375-0.1045h0.625l0.105-0.104h0.2075l0.20875-0.104h0.3125l0.20875-0.1045h0.2075l0.20875-0.104h0.3125l0.20875-0.104h0.10375l0.20875-0.1045h0.2075l0.105-0.104h0.2075l0.20875-0.104h0.20875l0.10375-0.1045h0.20875l0.2075-0.104 0.105-0.104h0.2075l0.20875-0.1045h0.10375l0.20875-0.104 0.20875-0.104h0.10375"/>
   <path d="m416.9 99.961 0.10375 0.104 0.105 0.2085 0.10375 0.104 0.10375 0.1045 0.20875 0.208 0.10375 0.1045 0.105 0.104 0.10375 0.2085 0.10375 0.104 0.20875 0.104 0.10375 0.1045 0.105 0.208 0.10375 0.1045 0.20875 0.104 0.10375 0.2085 0.10375 0.104 0.105 0.104 0.2075 0.1045 0.105 0.104 0.10375 0.2085 0.10375 0.104 0.20875 0.104 0.10375 0.1045 0.105 0.104 0.2075 0.2085 0.105 0.104 0.10375 0.104 0.20875 0.1045 0.10375 0.104 0.10375 0.104 0.20875 0.2085 0.10375 0.104 0.20875 0.1045 0.10375 0.104 0.105 0.104 0.2075 0.1045 0.105 0.104 0.2075 0.104 0.105 0.1045 0.2075 0.104 0.105 0.104 0.10375 0.1045 0.20875 0.104 0.10375 0.104 0.20875 0.1045 0.10375 0.104 0.20875 0.104 0.10375 0.1045 0.20875 0.104 0.10375 0.104 0.20875 0.1045 0.10375 0.104 0.20875 0.104 0.10375 0.1045 0.20875 0.104 0.10375 0.104 0.20875 0.1045h0.10375l0.20875 0.104 0.2075 0.104 0.105 0.1045 0.2075 0.104 0.105 0.104h0.2075l0.105 0.1045 0.2075 0.104 0.20875 0.104 0.10375 0.1045h0.20875l0.10375 0.104 0.20875 0.104 0.20875 0.1045h0.10375l0.20875 0.104 0.10375 0.104h0.20875l0.2075 0.1045 0.105 0.104 0.2075 0.104h0.20875l0.10375 0.1045h0.20875l0.20875 0.104 0.10375 0.104h0.20875l0.2075 0.1045h0.105l0.2075 0.104 0.20875 0.104h0.10375l0.20875 0.1045h0.20875l0.10375 0.104h0.20875l0.2075 0.104h0.20875l0.10375 0.1045h0.20875l0.20875 0.104"/>
   <path d="m410.76 74.752v0.417l-0.10375 0.208v0.3125l-0.10375 0.2085v0.3125l-0.105 0.2085v0.5205l-0.10375 0.2085v0.521l-0.10375 0.208v0.9375l-0.105 0.2085v4.375l0.105 0.2085v0.9375l0.10375 0.208v0.521l0.10375 0.2085v0.5205l0.105 0.2085v0.3125l0.10375 0.2085v0.3125l0.10375 0.208v0.2085l0.105 0.2085v0.3125l0.10375 0.208v0.1045l0.10375 0.208v0.2085l0.105 0.2085v0.3125l0.10375 0.208v0.1045l0.10375 0.208 0.105 0.2085v0.2085l0.10375 0.104v0.2085l0.10375 0.208v0.1045l0.105 0.208v0.2085l0.10375 0.104 0.10375 0.2085v0.2085l0.105 0.104 0.10375 0.2085v0.208l0.10375 0.1045 0.105 0.208v0.1045l0.10375 0.208 0.10375 0.2085v0.104l0.105 0.2085 0.10375 0.2085 0.10375 0.104v0.2085l0.105 0.104 0.10375 0.2085 0.10375 0.208 0.105 0.1045v0.208l0.10375 0.1045 0.10375 0.208 0.105 0.1045 0.10375 0.208 0.10375 0.2085 0.105 0.104v0.2085l0.10375 0.104 0.10375 0.2085 0.105 0.104 0.10375 0.2085 0.10375 0.104 0.105 0.2085 0.10375 0.104 0.10375 0.2085 0.105 0.104 0.10375 0.2085 0.10375 0.104 0.105 0.2085 0.10375 0.104 0.10375 0.2085 0.105 0.104 0.10375 0.1045 0.10375 0.208 0.105 0.1045 0.10375 0.208 0.10375 0.1045 0.105 0.208 0.10375 0.1045 0.10375 0.104 0.105 0.2085 0.2075 0.104 0.105 0.2085 0.10375 0.104"/>
   <path d="m420.03 59.127-0.10375 0.1045-0.20875 0.104-0.10375 0.2085-0.105 0.104-0.2075 0.104-0.105 0.1045-0.10375 0.104-0.10375 0.2085-0.20875 0.104-0.10375 0.104-0.105 0.1045-0.10375 0.208-0.20875 0.1045-0.10375 0.104-0.10375 0.104-0.105 0.2085-0.10375 0.104-0.20875 0.1045-0.10375 0.208-0.10375 0.1045-0.105 0.104-0.10375 0.2085-0.10375 0.104-0.20875 0.104-0.10375 0.2085-0.105 0.104-0.10375 0.2085-0.10375 0.104-0.105 0.1045-0.10375 0.208-0.10375 0.1045-0.105 0.208-0.2075 0.1045-0.105 0.104-0.10375 0.2085-0.10375 0.104-0.105 0.2085-0.10375 0.104-0.10375 0.2085-0.105 0.104-0.10375 0.2085-0.10375 0.104-0.105 0.2085-0.10375 0.104-0.10375 0.2085-0.105 0.104v0.2085l-0.10375 0.104-0.10375 0.2085-0.105 0.104-0.10375 0.2085-0.10375 0.104-0.105 0.2085-0.10375 0.104-0.10375 0.2085v0.104l-0.105 0.2085-0.10375 0.208-0.10375 0.1045-0.105 0.208-0.10375 0.1045v0.208l-0.10375 0.1045-0.105 0.208-0.10375 0.2085v0.104l-0.10375 0.2085-0.105 0.104-0.10375 0.2085v0.2085l-0.10375 0.104-0.105 0.2085v0.208l-0.10375 0.1045-0.10375 0.208v0.2085l-0.105 0.104-0.10375 0.2085v0.2085l-0.10375 0.104v0.2085l-0.105 0.208-0.10375 0.1045v0.208l-0.10375 0.2085v0.104l-0.105 0.2085v0.2085l-0.10375 0.104v0.2085l-0.10375 0.208v0.2085l-0.105 0.104v0.2085l-0.10375 0.2085v0.3125l-0.10375 0.208v0.2085l-0.105 0.104"/>
   <path d="m436.49 51.94h-0.52125l-0.20875 0.1045h-0.52l-0.20875 0.104h-0.52125l-0.2075 0.104h-0.3125l-0.20875 0.1045h-0.3125l-0.20875 0.104h-0.41625l-0.10375 0.104h-0.20875l-0.20875 0.1045h-0.10375l-0.20875 0.104h-0.2075l-0.20875 0.104h-0.10375l-0.20875 0.1045h-0.20875l-0.10375 0.104h-0.20875l-0.2075 0.104h-0.105l-0.2075 0.1045h-0.20875l-0.20875 0.104h-0.10375l-0.20875 0.104-0.2075 0.1045h-0.105l-0.2075 0.104-0.105 0.104h-0.2075l-0.20875 0.1045h-0.10375l-0.20875 0.104-0.20875 0.104-0.10375 0.1045h-0.20875l-0.2075 0.104-0.105 0.104h-0.2075l-0.105 0.1045-0.2075 0.104-0.20875 0.104-0.10375 0.1045h-0.20875l-0.10375 0.104-0.20875 0.104-0.20875 0.1045-0.10375 0.104h-0.20875l-0.10375 0.104-0.20875 0.1045-0.10375 0.104-0.20875 0.104-0.10375 0.1045-0.20875 0.104-0.10375 0.104h-0.20875l-0.2075 0.1045-0.105 0.104-0.2075 0.104-0.105 0.1045-0.10375 0.104-0.20875 0.104-0.10375 0.1045-0.20875 0.104-0.10375 0.104-0.20875 0.1045-0.10375 0.104-0.20875 0.104-0.10375 0.1045-0.20875 0.104-0.10375 0.104-0.10375 0.1045-0.20875 0.208-0.10375 0.1045-0.20875 0.104-0.10375 0.104-0.105 0.1045-0.2075 0.104-0.105 0.104-0.2075 0.1045-0.105 0.104-0.10375 0.2085-0.20875 0.104-0.10375 0.104"/>
   <path d="m439.51 51.732h-1.145l-0.20875 0.104h-1.25l-0.20875 0.104h-0.2075"/>
  </g>
  <g stroke-linejoin="round" stroke="#000" stroke-miterlimit="10" stroke-width=".625">
   <path d="m478.57 81.211h24.48"/>
   <path d="m459.71 81.211h18.854"/>
   <path d="m444.61 81.211h15.104"/>
   <path d="m430.55 81.211h14.062"/>
   <path d="m414.61 81.211h15.938"/>
   <path d="m394.4 81.211h20.209"/>
   <path d="m368.26 81.211h26.146"/>
   <path d="m335.86 81.211h32.395"/>
   <path d="m298.15 81.211h37.709"/>
   <path d="m257.53 81.211h40.625"/>
   <path d="m216.49 81.211h41.041"/>
   <path d="m178.05 81.211h38.438"/>
   <path d="m144.61 81.211h33.438"/>
   <path d="m117.21 81.211h27.396"/>
   <path d="m95.861 81.211h21.354"/>
   <path d="m79.298 81.211h16.562"/>
   <path d="m65.131 81.211h14.167"/>
   <path d="m50.444 81.211h14.688"/>
   <path d="m32.423 81.211h18.02"/>
   <path d="m9.0898 81.211h23.334"/>
   <path d="m3.9858 81.211h5.104"/>
  </g>
  <g stroke-linejoin="round" stroke="#00f" stroke-miterlimit="10" stroke-width="1.25">
   <path d="m478.57 67.982 0.20875 0.104 0.20875 0.104 0.2075 0.1045 0.3125 0.104 0.20875 0.104 0.20875 0.2085 0.2075 0.104 0.20875 0.1045 0.20875 0.104 0.2075 0.2085 0.20875 0.104 0.3125 0.104 0.20875 0.1045 0.2075 0.104 0.20875 0.2085 0.20875 0.104 0.2075 0.104 0.3125 0.1045 0.20875 0.208 0.20875 0.1045 0.2075 0.104 0.20875 0.104 0.3125 0.2085 0.20875 0.104 0.2075 0.1045 0.20875 0.104 0.20875 0.2085 0.3125 0.104 0.2075 0.104 0.20875 0.1045 0.20875 0.208 0.3125 0.1045 0.2075 0.104 0.20875 0.104 0.3125 0.2085 0.20875 0.104 0.2075 0.1045 0.20875 0.104 0.3125 0.2085 0.20875 0.104 0.2075 0.104 0.3125 0.2085 0.20875 0.104 0.20875 0.1045 0.3125 0.104 0.2075 0.2085 0.20875 0.104 0.3125 0.104 0.20875 0.2085 0.3125 0.104 0.2075 0.1045 0.20875 0.104 0.3125 0.2085 0.20875 0.104 0.2075 0.104 0.3125 0.2085 0.20875 0.104 0.3125 0.1045 0.20875 0.208 0.3125 0.1045 0.2075 0.104 0.20875 0.2085 0.3125 0.104 0.20875 0.104 0.3125 0.1045 0.2075 0.208 0.3125 0.1045 0.20875 0.104 0.3125 0.2085 0.20875 0.104 0.3125 0.104 0.2075 0.2085 0.3125 0.104 0.20875 0.1045 0.3125 0.208 0.20875 0.1045 0.3125 0.104 0.2075 0.2085 0.3125 0.104 0.3125 0.104 0.20875 0.2085 0.3125 0.104 0.20875 0.1045 0.3125 0.208 0.2075 0.1045 0.3125 0.104 0.3125 0.2085 0.20875 0.104 0.3125 0.104 0.20875 0.2085 0.3125 0.104 0.3125 0.1045 0.2075 0.208 0.3125 0.1045 0.3125 0.104 0.20875 0.2085 0.3125 0.104 0.3125 0.104 0.20875 0.2085"/>
   <path d="m459.71 57.565h0.20875l0.10375 0.1045 0.20875 0.104 0.2075 0.104 0.105 0.1045 0.2075 0.104h0.105l0.2075 0.104 0.20875 0.1045 0.10375 0.104 0.20875 0.104 0.20875 0.1045h0.10375l0.20875 0.104 0.2075 0.104 0.105 0.1045 0.2075 0.104 0.20875 0.104 0.10375 0.1045 0.20875 0.104h0.20875l0.10375 0.104 0.20875 0.1045 0.2075 0.104 0.20875 0.104 0.10375 0.1045 0.20875 0.104 0.20875 0.104 0.10375 0.1045 0.20875 0.104 0.2075 0.104 0.20875 0.1045h0.10375l0.20875 0.104 0.20875 0.104 0.2075 0.1045 0.105 0.104 0.2075 0.104 0.20875 0.1045 0.20875 0.104 0.10375 0.104 0.20875 0.1045 0.2075 0.104 0.20875 0.104 0.20875 0.1045 0.10375 0.104 0.20875 0.104 0.2075 0.1045 0.20875 0.104 0.20875 0.104 0.2075 0.1045 0.105 0.104 0.2075 0.104 0.20875 0.1045 0.20875 0.104 0.2075 0.104 0.20875 0.1045 0.10375 0.104 0.20875 0.2085 0.20875 0.104 0.2075 0.104 0.20875 0.1045 0.20875 0.104 0.2075 0.104 0.20875 0.1045 0.20875 0.104 0.10375 0.104 0.20875 0.1045 0.2075 0.104 0.20875 0.104 0.20875 0.1045 0.2075 0.208 0.20875 0.1045 0.20875 0.104 0.2075 0.104 0.20875 0.1045 0.20875 0.104 0.2075 0.104 0.20875 0.1045 0.20875 0.104 0.2075 0.2085 0.20875 0.104 0.20875 0.104 0.2075 0.1045 0.20875 0.104 0.20875 0.104 0.2075 0.1045 0.20875 0.208 0.20875 0.1045 0.2075 0.104 0.20875 0.104 0.20875 0.1045 0.2075 0.104 0.20875 0.2085 0.20875 0.104 0.2075 0.104 0.20875 0.1045 0.20875 0.104 0.2075 0.2085"/>
   <path d="m444.61 52.148 0.10375 0.104h0.41625l0.20875 0.1045h0.41625l0.105 0.104h0.3125l0.10375 0.104h0.52125l0.10375 0.1045h0.3125l0.10375 0.104h0.3125l0.105 0.104h0.2075l0.105 0.1045h0.3125l0.10375 0.104h0.20875l0.10375 0.104h0.3125l0.10375 0.1045h0.20875l0.10375 0.104h0.3125l0.105 0.104h0.2075l0.105 0.1045h0.2075l0.105 0.104h0.2075l0.105 0.104h0.10375l0.20875 0.1045h0.10375l0.20875 0.104h0.10375l0.20875 0.104h0.10375l0.20875 0.1045h0.10375l0.20875 0.104h0.10375l0.20875 0.104 0.10375 0.1045h0.10375l0.20875 0.104h0.10375l0.20875 0.104h0.10375l0.20875 0.1045 0.10375 0.104h0.20875l0.10375 0.104h0.20875l0.10375 0.1045 0.20875 0.104h0.10375l0.20875 0.104 0.10375 0.1045h0.20875l0.10375 0.104 0.20875 0.104h0.10375l0.20875 0.1045 0.20875 0.104h0.10375l0.20875 0.104 0.10375 0.1045h0.20875l0.10375 0.104 0.20875 0.104h0.10375l0.20875 0.1045 0.10375 0.104 0.20875 0.104h0.2075l0.105 0.1045 0.2075 0.104 0.105 0.104h0.2075l0.105 0.1045 0.2075 0.104 0.20875 0.104h0.10375l0.20875 0.1045 0.10375 0.104 0.20875 0.104"/>
   <path d="m430.55 53.086 0.10375-0.104h0.20875l0.10375-0.1045h0.3125l0.10375-0.104h0.3125l0.105-0.104h0.3125l0.2075-0.1045h0.20875l0.20875-0.104h0.41625l0.10375-0.104h0.4175l0.2075-0.1045h0.4175l0.10375-0.104h0.41625l0.20875-0.104h0.72875l0.105-0.1045h0.8325l0.105-0.104h1.4575l0.105-0.104h2.1875l0.10375 0.104h1.5625l0.10375 0.104h0.83375l0.20875 0.1045h0.52l0.105 0.104h0.625"/>
   <path d="m414.61 59.961 0.2075-0.104 0.20875-0.1045 0.10375-0.104 0.20875-0.104 0.20875-0.1045 0.10375-0.104 0.20875-0.104 0.2075-0.1045 0.20875-0.104h0.10375l0.20875-0.104 0.20875-0.1045 0.10375-0.104 0.20875-0.104 0.2075-0.1045 0.105-0.104h0.2075l0.105-0.104 0.2075-0.1045 0.20875-0.104 0.10375-0.104 0.20875-0.1045h0.20875l0.10375-0.104 0.20875-0.104 0.2075-0.1045 0.105-0.104h0.2075l0.105-0.104 0.2075-0.1045 0.20875-0.104h0.10375l0.20875-0.104 0.10375-0.1045 0.20875-0.104h0.10375l0.20875-0.104 0.20875-0.1045 0.10375-0.104h0.20875l0.10375-0.104 0.20875-0.1045 0.10375-0.104h0.20875l0.2075-0.104 0.105-0.1045h0.2075l0.105-0.104 0.2075-0.104h0.105l0.2075-0.1045 0.105-0.104h0.2075l0.105-0.104 0.2075-0.1045h0.105l0.2075-0.104 0.105-0.104h0.2075l0.105-0.1045h0.2075l0.105-0.104 0.2075-0.104h0.105l0.2075-0.1045h0.105l0.2075-0.104 0.105-0.104h0.2075l0.105-0.1045h0.2075l0.105-0.104h0.2075l0.105-0.104h0.2075l0.105-0.1045h0.10375l0.20875-0.104h0.10375l0.20875-0.104h0.10375l0.20875-0.1045h0.10375l0.20875-0.104h0.10375l0.10375-0.104h0.20875l0.10375-0.1045h0.20875l0.10375-0.104h0.20875l0.10375-0.104h0.3125l0.105-0.1045h0.2075l0.105-0.104h0.3125"/>
   <path d="m394.4 71.315 0.20875-0.104 0.2075-0.104 0.3125-0.2085 0.20875-0.104 0.20875-0.1045 0.2075-0.104 0.20875-0.2085 0.3125-0.104 0.20875-0.104 0.2075-0.1045 0.20875-0.208 0.20875-0.1045 0.2075-0.104 0.3125-0.104 0.20875-0.1045 0.20875-0.208 0.2075-0.1045 0.20875-0.104 0.20875-0.104 0.2075-0.2085 0.3125-0.104 0.20875-0.1045 0.20875-0.104 0.2075-0.104 0.20875-0.2085 0.20875-0.104 0.2075-0.1045 0.20875-0.104 0.20875-0.104 0.2075-0.1045 0.20875-0.208 0.20875-0.1045 0.3125-0.104 0.2075-0.104 0.20875-0.1045 0.20875-0.104 0.2075-0.2085 0.20875-0.104 0.20875-0.104 0.2075-0.1045 0.20875-0.104 0.20875-0.104 0.2075-0.2085 0.20875-0.104 0.20875-0.1045 0.2075-0.104 0.20875-0.104 0.20875-0.1045 0.2075-0.104 0.105-0.104 0.2075-0.2085 0.20875-0.104 0.20875-0.1045 0.2075-0.104 0.20875-0.104 0.20875-0.1045 0.2075-0.104 0.20875-0.104 0.20875-0.1045 0.2075-0.104 0.20875-0.104 0.20875-0.2085 0.10375-0.104 0.20875-0.1045 0.2075-0.104 0.20875-0.104 0.20875-0.1045 0.2075-0.104 0.20875-0.104 0.20875-0.1045 0.10375-0.104 0.20875-0.104 0.2075-0.1045 0.20875-0.104 0.20875-0.104 0.2075-0.1045 0.105-0.104 0.2075-0.104 0.20875-0.1045 0.20875-0.104 0.2075-0.104 0.105-0.1045 0.2075-0.104 0.20875-0.104 0.20875-0.1045 0.2075-0.104 0.105-0.104 0.2075-0.1045 0.20875-0.104 0.20875-0.104 0.10375-0.1045 0.20875-0.104 0.2075-0.104 0.20875-0.1045 0.10375-0.104 0.20875-0.104 0.20875-0.1045 0.2075-0.104h0.105"/>
   <path d="m368.26 84.857 0.3125-0.1045 0.20875-0.208 0.3125-0.1045 0.3125-0.104 0.3125-0.2085 0.3125-0.104 0.20875-0.104 0.3125-0.2085 0.3125-0.104 0.3125-0.1045 0.3125-0.208 0.2075-0.1045 0.3125-0.104 0.3125-0.2085 0.3125-0.104 0.20875-0.104 0.3125-0.2085 0.3125-0.104 0.3125-0.1045 0.20875-0.208 0.3125-0.1045 0.3125-0.104 0.3125-0.2085 0.2075-0.104 0.3125-0.104 0.3125-0.2085 0.20875-0.104 0.3125-0.1045 0.3125-0.208 0.20875-0.1045 0.3125-0.104 0.3125-0.2085 0.2075-0.104 0.3125-0.104 0.20875-0.2085 0.3125-0.104 0.3125-0.1045 0.20875-0.208 0.3125-0.1045 0.3125-0.104 0.2075-0.2085 0.3125-0.104 0.20875-0.104 0.3125-0.2085 0.20875-0.104 0.3125-0.1045 0.3125-0.208 0.2075-0.1045 0.3125-0.104 0.20875-0.104 0.3125-0.2085 0.20875-0.104 0.3125-0.1045 0.2075-0.208 0.3125-0.1045 0.20875-0.104 0.3125-0.2085 0.20875-0.104 0.3125-0.104 0.2075-0.2085 0.3125-0.104 0.20875-0.1045 0.3125-0.208 0.20875-0.1045 0.2075-0.104 0.3125-0.2085 0.20875-0.104 0.3125-0.104 0.20875-0.1045 0.3125-0.208 0.2075-0.1045 0.20875-0.104 0.3125-0.2085 0.20875-0.104 0.3125-0.104 0.2075-0.2085 0.20875-0.104 0.3125-0.1045 0.20875-0.104 0.2075-0.2085 0.3125-0.104 0.20875-0.104 0.20875-0.2085 0.3125-0.104 0.2075-0.1045 0.20875-0.104 0.3125-0.2085 0.20875-0.104 0.2075-0.104 0.3125-0.2085 0.20875-0.104 0.20875-0.1045 0.2075-0.104 0.3125-0.2085 0.20875-0.104 0.20875-0.104 0.2075-0.1045 0.3125-0.208 0.20875-0.1045"/>
   <path d="m335.86 97.565 0.3125-0.104 0.3125-0.104 0.41625-0.1045 0.3125-0.104 0.41625-0.104 0.3125-0.2085 0.3125-0.104 0.4175-0.1045 0.3125-0.104 0.41625-0.104 0.3125-0.1045 0.3125-0.104 0.41625-0.2085 0.3125-0.104 0.3125-0.104 0.4175-0.1045 0.3125-0.104 0.3125-0.104 0.41625-0.1045 0.3125-0.208 0.3125-0.1045 0.41625-0.104 0.3125-0.104 0.3125-0.1045 0.3125-0.208 0.4175-0.1045 0.3125-0.104 0.3125-0.104 0.41625-0.1045 0.3125-0.104 0.3125-0.2085 0.3125-0.104 0.41625-0.104 0.3125-0.1045 0.3125-0.208 0.3125-0.1045 0.4175-0.104 0.3125-0.104 0.3125-0.1045 0.3125-0.208 0.3125-0.1045 0.41625-0.104 0.3125-0.104 0.3125-0.2085 0.3125-0.104 0.3125-0.1045 0.3125-0.104 0.41625-0.104 0.3125-0.2085 0.3125-0.104 0.3125-0.1045 0.3125-0.104 0.3125-0.2085 0.3125-0.104 0.4175-0.104 0.3125-0.1045 0.3125-0.208 0.3125-0.1045 0.3125-0.104 0.3125-0.2085 0.3125-0.104 0.3125-0.104 0.3125-0.1045 0.3125-0.208 0.3125-0.1045 0.3125-0.104 0.3125-0.104 0.3125-0.2085 0.41625-0.104 0.3125-0.1045 0.3125-0.208 0.3125-0.1045 0.3125-0.104 0.3125-0.104 0.3125-0.2085 0.3125-0.104 0.3125-0.1045 0.3125-0.208 0.3125-0.1045 0.20875-0.104 0.3125-0.2085 0.3125-0.104 0.3125-0.104 0.3125-0.1045 0.3125-0.208 0.3125-0.1045 0.3125-0.104 0.3125-0.2085 0.3125-0.104 0.3125-0.104 0.3125-0.2085 0.3125-0.104 0.3125-0.1045 0.2075-0.208 0.3125-0.1045 0.3125-0.104 0.3125-0.104 0.3125-0.2085 0.3125-0.104"/>
   <path d="m298.15 106.84 0.41625-0.104 0.4175-0.1045h0.41625l0.41625-0.104 0.4175-0.104h0.3125l0.41625-0.1045 0.41625-0.104 0.4175-0.104h0.41625l0.3125-0.1045 0.41625-0.104h0.4175l0.41625-0.104 0.41625-0.1045 0.3125-0.104h0.4175l0.41625-0.104 0.41625-0.1045 0.3125-0.104h0.4175l0.41625-0.104 0.41625-0.1045 0.4175-0.104h0.3125l0.41625-0.104 0.41625-0.1045 0.4175-0.104 0.3125-0.104h0.41625l0.41625-0.1045 0.4175-0.104 0.3125-0.104 0.41625-0.1045h0.41625l0.3125-0.104 0.4175-0.104 0.41625-0.1045 0.41625-0.104 0.3125-0.104 0.4175-0.1045h0.41625l0.3125-0.104 0.41625-0.104 0.4175-0.1045 0.3125-0.104 0.41625-0.104 0.41625-0.1045 0.3125-0.104h0.4175l0.41625-0.104 0.3125-0.1045 0.41625-0.104 0.4175-0.104 0.3125-0.1045 0.41625-0.104 0.3125-0.104 0.41625-0.1045 0.4175-0.104 0.3125-0.104 0.41625-0.1045 0.41625-0.104 0.3125-0.104 0.4175-0.1045 0.3125-0.104 0.41625-0.104 0.3125-0.1045h0.41625l0.4175-0.104 0.3125-0.104 0.41625-0.1045 0.3125-0.104 0.41625-0.104 0.3125-0.1045 0.4175-0.104 0.41625-0.104 0.3125-0.2085 0.41625-0.104 0.3125-0.1045 0.4175-0.104 0.3125-0.104 0.41625-0.1045 0.3125-0.104 0.41625-0.104 0.3125-0.1045 0.4175-0.104 0.3125-0.104 0.41625-0.1045 0.3125-0.104 0.41625-0.104 0.3125-0.1045 0.3125-0.104 0.4175-0.104 0.3125-0.1045 0.41625-0.208 0.3125-0.1045 0.41625-0.104 0.3125-0.104 0.4175-0.1045"/>
   <path d="m257.53 110.48h4.1662l0.4175-0.1045h2.5l0.41625-0.104h1.6662l0.4175-0.104h1.6662l0.41625-0.1045h1.25l0.4175-0.104h1.25l0.3125-0.104h0.8325l0.4175-0.1045h0.8325l0.4175-0.104h0.8325l0.4175-0.104h0.8325l0.4175-0.1045h0.8325l0.4175-0.104h0.8325l0.4175-0.104h0.41625l0.41625-0.1045h0.83375l0.41625-0.104h0.4175l0.3125-0.104h0.41625l0.41625-0.1045h0.4175l0.41625-0.104h0.83375l0.41625-0.104h0.41625l0.4175-0.1045h0.41625l0.41625-0.104h0.4175l0.3125-0.104h0.41625l0.41625-0.1045h0.4175l0.41625-0.104 0.41625-0.104h0.4175l0.41625-0.1045h0.41625l0.4175-0.104h0.3125l0.41625-0.104h0.41625l0.4175-0.1045 0.41625-0.104h0.41625l0.4175-0.104h0.41625l0.3125-0.1045 0.41625-0.104h0.4175l0.41625-0.104h0.41625l0.4175-0.1045 0.41625-0.104h0.3125"/>
   <path d="m216.49 107.98h0.41625l0.41625 0.104 0.4175 0.104h0.41625l0.41625 0.1045h0.4175l0.3125 0.104h0.41625l0.41625 0.104h0.4175l0.41625 0.1045h0.41625l0.4175 0.104h0.8325l0.4175 0.104h0.41625l0.41625 0.1045h0.4175l0.3125 0.104h0.41625l0.41625 0.104h0.83375l0.41625 0.1045h0.4175l0.41625 0.104h0.83375l0.41625 0.104h0.83375l0.41625 0.1045h0.83375l0.41625 0.104h0.83375l0.41625 0.104h0.83375l0.41625 0.1045h0.83375l0.3125 0.104h1.25l0.41625 0.104h1.25l0.41625 0.1045h1.6675l0.41625 0.104h1.6662l0.4175 0.104h2.5l0.41625 0.1045h4.5838l0.41625 0.104h6.3538l0.4175-0.104h0.41625"/>
   <path d="m178.05 99.648 0.41625 0.104 0.3125 0.1045 0.41625 0.104 0.3125 0.2085 0.4175 0.104 0.41625 0.104 0.3125 0.1045 0.41625 0.104 0.3125 0.104 0.4175 0.1045 0.3125 0.104 0.41625 0.104h0.41625l0.3125 0.1045 0.4175 0.104 0.3125 0.104 0.41625 0.1045 0.3125 0.104 0.41625 0.104 0.4175 0.1045 0.3125 0.104 0.41625 0.104 0.41625 0.1045 0.3125 0.104 0.4175 0.104 0.3125 0.1045 0.41625 0.104 0.41625 0.104 0.3125 0.1045 0.4175 0.104h0.41625l0.3125 0.104 0.41625 0.1045 0.4175 0.104 0.3125 0.104 0.41625 0.1045 0.41625 0.104 0.3125 0.104h0.4175l0.41625 0.1045 0.3125 0.104 0.41625 0.104 0.4175 0.1045 0.41625 0.104 0.3125 0.104h0.41625l0.4175 0.1045 0.3125 0.104 0.41625 0.104 0.41625 0.1045h0.4175l0.3125 0.104 0.41625 0.104 0.41625 0.1045 0.4175 0.104h0.3125l0.41625 0.104 0.41625 0.1045 0.4175 0.104h0.41625l0.3125 0.104 0.41625 0.1045 0.4175 0.104h0.41625l0.3125 0.104 0.41625 0.1045 0.4175 0.104h0.41625l0.41625 0.104 0.3125 0.1045h0.4175l0.41625 0.104 0.41625 0.104 0.4175 0.1045h0.3125l0.41625 0.104 0.41625 0.104h0.4175l0.41625 0.1045 0.41625 0.104h0.3125l0.4175 0.104 0.41625 0.1045h0.41625l0.4175 0.104h0.41625l0.41625 0.104 0.3125 0.1045h0.4175l0.41625 0.104h0.41625l0.4175 0.104 0.41625 0.1045h0.41625l0.4175 0.104h0.3125l0.41625 0.104h0.41625l0.4175 0.1045"/>
   <path d="m144.61 87.461 0.2075 0.104 0.3125 0.1045 0.3125 0.208 0.3125 0.1045 0.3125 0.104 0.3125 0.2085 0.3125 0.104 0.3125 0.104 0.3125 0.1045 0.3125 0.208 0.3125 0.1045 0.4175 0.104 0.3125 0.2085 0.3125 0.104 0.3125 0.104 0.3125 0.1045 0.3125 0.208 0.3125 0.1045 0.3125 0.104 0.3125 0.104 0.3125 0.2085 0.3125 0.104 0.3125 0.1045 0.3125 0.208 0.3125 0.1045 0.41625 0.104 0.3125 0.104 0.3125 0.2085 0.3125 0.104 0.3125 0.1045 0.3125 0.104 0.3125 0.2085 0.41625 0.104 0.3125 0.104 0.3125 0.1045 0.3125 0.104 0.3125 0.2085 0.3125 0.104 0.4175 0.104 0.3125 0.1045 0.3125 0.208 0.3125 0.1045 0.3125 0.104 0.41625 0.104 0.3125 0.1045 0.3125 0.208 0.3125 0.1045 0.41625 0.104 0.3125 0.104 0.3125 0.2085 0.3125 0.104 0.4175 0.1045 0.3125 0.104 0.3125 0.104 0.41625 0.1045 0.3125 0.208 0.3125 0.1045 0.3125 0.104 0.41625 0.104 0.3125 0.1045 0.3125 0.208 0.4175 0.1045 0.3125 0.104 0.3125 0.104 0.41625 0.1045 0.3125 0.104 0.3125 0.104 0.41625 0.2085 0.3125 0.104 0.3125 0.1045 0.4175 0.104 0.3125 0.104 0.41625 0.1045 0.3125 0.104 0.3125 0.2085 0.41625 0.104 0.3125 0.104 0.4175 0.1045 0.3125 0.104 0.3125 0.104 0.41625 0.1045 0.3125 0.104 0.41625 0.104 0.3125 0.1045 0.4175 0.208 0.3125 0.1045 0.41625 0.104 0.3125 0.104 0.3125 0.1045 0.41625 0.104 0.3125 0.104 0.4175 0.1045 0.3125 0.104 0.41625 0.104 0.3125 0.1045 0.41625 0.104 0.3125 0.104 0.4175 0.1045 0.3125 0.104"/>
   <path d="m117.21 73.815 0.2085 0.2085 0.208 0.104 0.3125 0.1045 0.2085 0.104 0.2085 0.2085 0.3125 0.104 0.208 0.104 0.3125 0.2085 0.2085 0.104 0.2085 0.1045 0.3125 0.208 0.208 0.1045 0.3125 0.104 0.2085 0.104 0.3125 0.2085 0.2085 0.104 0.208 0.1045 0.3125 0.208 0.2085 0.1045 0.3125 0.104 0.2085 0.2085 0.3125 0.104 0.208 0.104 0.3125 0.2085 0.2085 0.104 0.3125 0.1045 0.2085 0.208 0.3125 0.1045 0.208 0.104 0.3125 0.2085 0.2085 0.104 0.3125 0.104 0.2085 0.1045 0.3125 0.208 0.3125 0.1045 0.208 0.104 0.3125 0.2085 0.2085 0.104 0.3125 0.104 0.2085 0.2085 0.3125 0.104 0.3125 0.1045 0.208 0.208 0.31225 0.1045 0.3125 0.104 0.20875 0.2085 0.3125 0.104 0.20875 0.104 0.3125 0.2085 0.3125 0.104 0.2075 0.1045 0.3125 0.208 0.3125 0.1045 0.20875 0.104 0.3125 0.2085 0.3125 0.104 0.20875 0.104 0.3125 0.2085 0.3125 0.104 0.3125 0.1045 0.2075 0.208 0.3125 0.1045 0.3125 0.104 0.3125 0.2085 0.20875 0.104 0.3125 0.104 0.3125 0.2085 0.3125 0.104 0.20875 0.1045 0.3125 0.208 0.3125 0.1045 0.3125 0.104 0.3125 0.2085 0.2075 0.104 0.3125 0.104 0.3125 0.2085 0.3125 0.104 0.3125 0.1045 0.20875 0.208 0.3125 0.1045 0.3125 0.104 0.3125 0.2085 0.3125 0.104 0.3125 0.104 0.3125 0.1045 0.20875 0.208 0.3125 0.1045 0.3125 0.104 0.3125 0.2085 0.3125 0.104 0.3125 0.104 0.3125 0.2085 0.3125 0.104 0.3125 0.1045 0.3125 0.208 0.3125 0.1045 0.3125 0.104 0.3125 0.104 0.3125 0.2085"/>
   <path d="m95.861 61.836 0.208 0.104 0.2085 0.1045 0.2085 0.104 0.104 0.104 0.2085 0.1045 0.208 0.104 0.2085 0.104 0.2085 0.1045 0.208 0.104 0.1045 0.104 0.208 0.1045 0.2085 0.104 0.2085 0.104 0.208 0.1045 0.2085 0.104 0.2085 0.104 0.208 0.1045 0.1045 0.104 0.208 0.2085 0.2085 0.104 0.2085 0.104 0.208 0.1045 0.2085 0.104 0.2085 0.104 0.208 0.1045 0.2085 0.104 0.2085 0.104 0.208 0.1045 0.2085 0.104 0.2085 0.2085 0.104 0.104 0.2085 0.104 0.208 0.1045 0.2085 0.104 0.2085 0.104 0.208 0.1045 0.2085 0.104 0.2085 0.2085 0.208 0.104 0.2085 0.104 0.2085 0.1045 0.208 0.104 0.2085 0.104 0.2085 0.2085 0.208 0.104 0.2085 0.1045 0.2085 0.104 0.3125 0.104 0.208 0.1045 0.2085 0.208 0.2085 0.1045 0.208 0.104 0.2085 0.104 0.2085 0.1045 0.208 0.104 0.2085 0.2085 0.2085 0.104 0.208 0.104 0.2085 0.1045 0.3125 0.104 0.2085 0.2085 0.208 0.104 0.2085 0.104 0.2085 0.1045 0.208 0.208 0.2085 0.1045 0.3125 0.104 0.2085 0.104 0.208 0.1045 0.2085 0.208 0.2085 0.1045 0.208 0.104 0.3125 0.104 0.2085 0.2085 0.2085 0.104 0.208 0.1045 0.2085 0.104 0.3125 0.2085 0.2085 0.104 0.208 0.104 0.2085 0.1045 0.3125 0.208 0.2085 0.1045 0.208 0.104 0.2085 0.104 0.3125 0.2085 0.2085 0.104 0.208 0.1045 0.2085 0.104 0.3125 0.2085 0.2085 0.104 0.208 0.104 0.3125 0.2085 0.2085 0.104 0.2085 0.1045 0.3125 0.104 0.208 0.2085 0.2085 0.104 0.3125 0.104"/>
   <path d="m79.298 53.919 0.208 0.104h0.1045l0.208 0.104h0.1045l0.104 0.1045h0.2085l0.104 0.104h0.2085l0.104 0.104h0.2085l0.104 0.1045h0.2085l0.104 0.104 0.2085 0.104h0.104l0.2085 0.1045h0.104l0.2085 0.104 0.104 0.104h0.2085l0.104 0.1045h0.2085l0.104 0.104 0.2085 0.104h0.104l0.2085 0.1045 0.104 0.104h0.2085l0.104 0.104 0.2085 0.1045h0.104l0.2085 0.104 0.104 0.104h0.2085l0.104 0.1045 0.2085 0.104h0.208l0.1045 0.104 0.208 0.1045 0.1045 0.104h0.208l0.1045 0.104 0.208 0.1045 0.2085 0.104h0.104l0.2085 0.104 0.104 0.1045 0.2085 0.104h0.104l0.2085 0.104 0.2085 0.1045 0.104 0.104h0.2085l0.104 0.104 0.2085 0.1045 0.208 0.104 0.1045 0.104h0.208l0.2085 0.1045 0.104 0.104 0.2085 0.104 0.2085 0.1045 0.104 0.104h0.2085l0.104 0.104 0.2085 0.1045 0.208 0.104 0.1045 0.104 0.208 0.1045 0.2085 0.104h0.104l0.2085 0.104 0.2085 0.1045 0.208 0.104 0.1045 0.104 0.208 0.1045 0.2085 0.104 0.104 0.104 0.2085 0.1045 0.2085 0.104h0.104l0.2085 0.104 0.208 0.1045 0.2085 0.104 0.104 0.104 0.2085 0.1045 0.2085 0.104 0.208 0.104 0.1045 0.1045 0.208 0.104 0.2085 0.104 0.2085 0.1045 0.104 0.104 0.2085 0.104 0.208 0.1045 0.2085 0.104 0.2085 0.104 0.104 0.1045 0.2085 0.104"/>
   <path d="m65.131 51.836h1.25l0.1045-0.104h2.1875l0.104 0.104h1.4585l0.104 0.104h0.8335l0.104 0.1045h0.729l0.2085 0.104h0.4165l0.1045 0.104h0.4165l0.2085 0.1045h0.4165l0.104 0.104h0.417l0.208 0.104h0.2085l0.2085 0.1045h0.3125l0.104 0.104h0.3125l0.104 0.104h0.3125l0.1045 0.1045h0.208l0.1045 0.104h0.3125l0.104 0.104h0.2085l0.104 0.1045h0.3125l0.104 0.104h0.2085l0.104 0.104h0.2085l0.104 0.1045h0.2085l0.104 0.104h0.1045l0.208 0.104h0.1045l0.208 0.1045h0.1045"/>
   <path d="m50.444 56.107 0.1045-0.1045 0.208-0.104h0.1045l0.208-0.104 0.2085-0.1045h0.104l0.2085-0.104 0.104-0.104h0.2085l0.104-0.1045 0.2085-0.104h0.104l0.2085-0.104 0.104-0.1045h0.2085l0.104-0.104h0.2085l0.104-0.104 0.2085-0.1045h0.104l0.2085-0.104h0.104l0.2085-0.104h0.104l0.1045-0.1045 0.208-0.104h0.1045l0.208-0.104h0.1045l0.208-0.1045h0.1045l0.208-0.104h0.1045l0.208-0.104h0.1045l0.208-0.1045h0.1045l0.104-0.104h0.2085l0.104-0.104h0.2085l0.104-0.1045h0.2085l0.104-0.104h0.3125l0.104-0.104h0.2085l0.104-0.1045h0.3125l0.1045-0.104h0.208l0.1045-0.104h0.3125l0.104-0.1045h0.2085l0.104-0.104h0.3125l0.104-0.104h0.3125l0.1045-0.1045h0.5205l0.1045-0.104h0.3125l0.104-0.104h0.4165l0.2085-0.1045h0.4165l0.1045-0.104h0.625l0.104-0.104h0.521l0.208-0.1045h0.8335l0.104-0.104h0.3125"/>
   <path d="m32.423 65.586 0.208-0.104 0.2085-0.1045 0.2085-0.104 0.208-0.104 0.2085-0.1045 0.2085-0.104 0.208-0.104 0.2085-0.1045 0.2085-0.208 0.208-0.1045 0.2085-0.104 0.2085-0.104 0.208-0.1045 0.1045-0.104 0.208-0.104 0.2085-0.1045 0.2085-0.104 0.208-0.104 0.2085-0.1045 0.2085-0.104 0.208-0.104 0.2085-0.2085 0.104-0.104 0.2085-0.1045 0.2085-0.104 0.208-0.104 0.2085-0.1045 0.2085-0.104 0.104-0.104 0.2085-0.1045 0.208-0.104 0.2085-0.104 0.2085-0.1045 0.208-0.104 0.1045-0.104 0.208-0.1045 0.2085-0.104 0.2085-0.104 0.208-0.1045 0.1045-0.104 0.208-0.104 0.2085-0.1045 0.2085-0.104 0.104-0.104 0.2085-0.1045 0.208-0.104 0.2085-0.104h0.104l0.2085-0.1045 0.2085-0.104 0.208-0.104 0.1045-0.1045 0.208-0.104 0.2085-0.104 0.104-0.1045 0.2085-0.104 0.2085-0.104 0.208-0.1045 0.1045-0.104h0.208l0.2085-0.104 0.104-0.1045 0.2085-0.104 0.2085-0.104 0.104-0.1045 0.2085-0.104 0.208-0.104h0.1045l0.208-0.1045 0.2085-0.104 0.104-0.104 0.2085-0.1045 0.2085-0.104h0.104l0.2085-0.104 0.104-0.1045 0.2085-0.104 0.208-0.104 0.1045-0.1045h0.208l0.2085-0.104 0.104-0.104 0.2085-0.1045h0.104l0.2085-0.104 0.2085-0.104 0.104-0.1045h0.2085l0.104-0.104 0.2085-0.104 0.104-0.1045h0.2085l0.208-0.104 0.1045-0.104 0.208-0.1045h0.1045l0.208-0.104 0.1045-0.104h0.208"/>
   <path d="m9.0898 78.502 0.3125-0.104 0.3125-0.104 0.2085-0.2085 0.3125-0.104 0.208-0.1045 0.3125-0.208 0.2085-0.1045 0.3125-0.104 0.2085-0.2085 0.3125-0.104 0.208-0.104 0.3125-0.2085 0.2085-0.104 0.3125-0.1045 0.2085-0.208 0.3125-0.1045 0.208-0.104 0.3125-0.104 0.2085-0.2085 0.2085-0.104 0.3125-0.1045 0.208-0.208 0.3125-0.1045 0.2085-0.104 0.3125-0.2085 0.2085-0.104 0.208-0.104 0.3125-0.2085 0.2085-0.104 0.2085-0.1045 0.3125-0.104 0.208-0.2085 0.3125-0.104 0.2085-0.104 0.2085-0.2085 0.3125-0.104 0.208-0.1045 0.2085-0.104 0.3125-0.2085 0.2085-0.104 0.208-0.104 0.3125-0.2085 0.2085-0.104 0.2085-0.1045 0.208-0.104 0.3125-0.2085 0.2085-0.104 0.2085-0.104 0.3125-0.1045 0.208-0.208 0.2085-0.1045 0.2085-0.104 0.3125-0.104 0.208-0.2085 0.2085-0.104 0.2085-0.1045 0.208-0.104 0.3125-0.2085 0.2085-0.104 0.2085-0.104 0.208-0.1045 0.2085-0.208 0.3125-0.1045 0.2085-0.104 0.208-0.104 0.2085-0.2085 0.2085-0.104 0.208-0.1045 0.3125-0.104 0.2085-0.104 0.2085-0.2085 0.208-0.104 0.2085-0.1045 0.2085-0.104 0.208-0.2085 0.2085-0.104 0.3125-0.104 0.2085-0.1045 0.208-0.104 0.2085-0.104 0.2085-0.2085 0.208-0.104 0.2085-0.1045 0.2085-0.104 0.208-0.104 0.2085-0.2085 0.2085-0.104 0.208-0.1045 0.2085-0.104 0.2085-0.104 0.208-0.1045 0.2085-0.208 0.2085-0.1045 0.208-0.104 0.2085-0.104 0.2085-0.1045 0.208-0.104 0.2085-0.104 0.2085-0.2085"/>
   <path d="m3.9858 81.211 0.208-0.2085 0.3125-0.104 0.3125-0.104 0.2085-0.2085 0.3125-0.104 0.3125-0.1045 0.2085-0.208 0.3125-0.1045 0.3125-0.104 0.208-0.2085 0.3125-0.104 0.2085-0.104 0.3125-0.2085 0.3125-0.104 0.2085-0.1045 0.3125-0.208 0.208-0.1045 0.3125-0.104 0.2085-0.2085"/>
  </g>
  <path stroke-linejoin="round" marker-end="url(#Arrow2Send)" d="m67.527 51.732h23.646" stroke="#f00" stroke-miterlimit="10" stroke-width="1.25"/>
 </g>
 <path d="m69.402 51.732c0 1.0351-0.83988 1.875-1.875 1.875s-1.875-0.83987-1.875-1.875 0.83987-1.875 1.875-1.875 1.875 0.83988 1.875 1.875"/>
 <path stroke-linejoin="round" d="m69.402 51.732c0 1.0351-0.83988 1.875-1.875 1.875s-1.875-0.83987-1.875-1.875 0.83987-1.875 1.875-1.875 1.875 0.83988 1.875 1.875" stroke="#000" stroke-miterlimit="10" stroke-width=".625" fill="none"/>
 <path stroke-linejoin="round" marker-end="url(#marker5592)" d="m93.256 60.377 16.771-16.77" stroke="#f00" stroke-miterlimit="10" stroke-width="1.25" fill="none"/>
 <path d="m95.131 60.377c0 1.0351-0.83988 1.875-1.875 1.875s-1.875-0.83987-1.875-1.875 0.83987-1.875 1.875-1.875 1.875 0.83988 1.875 1.875"/>
 <path stroke-linejoin="round" d="m95.131 60.377c0 1.0351-0.83988 1.875-1.875 1.875s-1.875-0.83987-1.875-1.875 0.83987-1.875 1.875-1.875 1.875 0.83988 1.875 1.875" stroke="#000" stroke-miterlimit="10" stroke-width=".625" fill="none"/>
 <path stroke-linejoin="round" marker-end="url(#marker5644)" d="m131.17 81.211v-23.75" stroke="#f00" stroke-miterlimit="10" stroke-width="1.25" fill="none"/>
 <path d="m133.05 81.211c0 1.0351-0.84 1.875-1.875 1.875s-1.875-0.83987-1.875-1.875 0.84-1.875 1.875-1.875 1.875 0.83988 1.875 1.875"/>
 <path stroke-linejoin="round" d="m133.05 81.211c0 1.0351-0.84 1.875-1.875 1.875s-1.875-0.83987-1.875-1.875 0.84-1.875 1.875-1.875 1.875 0.83988 1.875 1.875" stroke="#000" stroke-miterlimit="10" stroke-width=".625" fill="none"/>
 <path stroke-linejoin="round" marker-end="url(#marker5702)" d="m186.28 101.94-16.77-16.771" stroke="#f00" stroke-miterlimit="10" stroke-width="1.25" fill="none"/>
 <path d="m188.15 101.94c0 1.0351-0.84 1.875-1.875 1.875s-1.875-0.83987-1.875-1.875 0.84-1.875 1.875-1.875 1.875 0.83988 1.875 1.875"/>
 <path stroke-linejoin="round" d="m188.15 101.94c0 1.0351-0.84 1.875-1.875 1.875s-1.875-0.83987-1.875-1.875 0.84-1.875 1.875-1.875 1.875 0.83988 1.875 1.875" stroke="#000" stroke-miterlimit="10" stroke-width=".625" fill="none"/>
 <path stroke-linejoin="round" marker-end="url(#marker5766)" d="m253.57 110.59h-23.75" stroke="#f00" stroke-miterlimit="10" stroke-width="1.25" fill="none"/>
 <path d="m255.44 110.59c0 1.0352-0.84 1.875-1.875 1.875s-1.875-0.83985-1.875-1.875 0.84-1.875 1.875-1.875 1.875 0.83984 1.875 1.875"/>
 <path stroke-linejoin="round" d="m255.44 110.59c0 1.0352-0.84 1.875-1.875 1.875s-1.875-0.83985-1.875-1.875 0.84-1.875 1.875-1.875 1.875 0.83984 1.875 1.875" stroke="#000" stroke-miterlimit="10" stroke-width=".625" fill="none"/>
 <path stroke-linejoin="round" marker-end="url(#marker5836)" d="m320.76 101.94-16.666 16.771" stroke="#f00" stroke-miterlimit="10" stroke-width="1.25" fill="none"/>
 <path d="m322.63 101.94c0 1.0351-0.84 1.875-1.875 1.875s-1.875-0.83987-1.875-1.875 0.84-1.875 1.875-1.875 1.875 0.83988 1.875 1.875"/>
 <path stroke-linejoin="round" d="m322.63 101.94c0 1.0351-0.84 1.875-1.875 1.875s-1.875-0.83987-1.875-1.875 0.84-1.875 1.875-1.875 1.875 0.83988 1.875 1.875" stroke="#000" stroke-miterlimit="10" stroke-width=".625" fill="none"/>
 <path stroke-linejoin="round" marker-end="url(#marker5912)" d="m375.86 81.211v23.646" stroke="#f00" stroke-miterlimit="10" stroke-width="1.25" fill="none"/>
 <path d="m377.74 81.211c0 1.0351-0.84 1.875-1.875 1.875s-1.875-0.83987-1.875-1.875 0.84-1.875 1.875-1.875 1.875 0.83988 1.875 1.875"/>
 <path stroke-linejoin="round" d="m377.74 81.211c0 1.0351-0.84 1.875-1.875 1.875s-1.875-0.83987-1.875-1.875 0.84-1.875 1.875-1.875 1.875 0.83988 1.875 1.875" stroke="#000" stroke-miterlimit="10" stroke-width=".625" fill="none"/>
 <path stroke-linejoin="round" marker-end="url(#marker5994)" d="m413.78 60.377 16.771 16.771" stroke="#f00" stroke-miterlimit="10" stroke-width="1.25" fill="none"/>
 <path d="m415.65 60.377c0 1.0351-0.84 1.875-1.875 1.875s-1.875-0.83987-1.875-1.875 0.84-1.875 1.875-1.875 1.875 0.83988 1.875 1.875"/>
 <path stroke-linejoin="round" d="m415.65 60.377c0 1.0351-0.84 1.875-1.875 1.875s-1.875-0.83987-1.875-1.875 0.84-1.875 1.875-1.875 1.875 0.83988 1.875 1.875" stroke="#000" stroke-miterlimit="10" stroke-width=".625" fill="none"/>
 <path stroke-linejoin="round" marker-end="url(#marker5994)" d="m439.51 51.732h23.646" stroke="#f00" stroke-miterlimit="10" stroke-width="1.25" fill="none"/>
 <path d="m441.38 51.732c0 1.0351-0.84 1.875-1.875 1.875s-1.875-0.83987-1.875-1.875 0.84-1.875 1.875-1.875 1.875 0.83988 1.875 1.875"/>
 <g fill="none">
  <g stroke="#000">
   <path stroke-linejoin="round" d="m441.38 51.732c0 1.0351-0.84 1.875-1.875 1.875s-1.875-0.83987-1.875-1.875 0.84-1.875 1.875-1.875 1.875 0.83988 1.875 1.875" stroke-miterlimit="10" stroke-width=".625"/>
   <g>
    <path marker-end="url(#marker5514)" d="m69.184 126.31h369.28" marker-start="url(#Arrow2Mstart)" stroke-width=".99634px"/>
    <g xml:space="preserve" transform="matrix(2.2915 0 0 -2.2915 -264.51 1242)" stroke-miterlimit="10.433"><path stroke-width="0" fill="#000" d="m226.98 480.14 0.04-0.1 0.04-0.1 0.08-0.21 0.08-0.22 0.08-0.22 0.07-0.22 0.08-0.22 0.08-0.21 0.03-0.1 0.04-0.11 0.03-0.1 0.04-0.09 0.03-0.1 0.04-0.09 0.03-0.08 0.03-0.09 0.03-0.08 0.03-0.07 0.02-0.07 0.03-0.06 0.02-0.06 0.02-0.05 0.03-0.05 0.02-0.04 0.01-0.03 0.02-0.03c0.16-0.21 0.26-0.21 0.53-0.21h0.21c0.1 0.01 0.11 0.07 0.11 0.1s-0.02 0.04-0.05 0.08c-0.09 0.11-0.15 0.26-0.22 0.46l-2.03 5.65c-0.21 0.58-0.75 0.71-1.22 0.71-0.05 0-0.18 0-0.18-0.11 0-0.08 0.08-0.1 0.09-0.1 0.33-0.06 0.4-0.12 0.65-0.79l0.96-2.71-2.74-2.72c-0.12-0.12-0.18-0.18-0.18-0.31 0-0.16 0.14-0.28 0.3-0.28s0.25 0.1 0.33 0.2z"/></g>
    <g xml:space="preserve" transform="matrix(2.049 0 0 -2.049 -296.93 1053.8)" stroke-miterlimit="10.433"><path stroke-width="0" fill="#000" d="m231.02 483.26 0.01 0.03 0.01 0.03 0.01 0.03v0.03l0.01 0.02 0.01 0.03 0.01 0.02 0.01 0.03 0.01 0.02 0.01 0.02 0.01 0.02 0.02 0.02 0.01 0.01 0.02 0.02 0.01 0.01 0.02 0.02 0.02 0.01 0.03 0.01 0.02 0.01 0.03 0.01 0.03 0.01 0.03 0.01h0.02 0.02l0.02 0.01h0.01 0.02l0.03 0.01h0.02 0.02 0.02 0.03l0.02 0.01h0.03 0.03 0.02 0.03 0.03 0.03 0.03 0.04 0.03c0.26 0 0.34 0 0.34 0.2 0 0.11-0.11 0.11-0.14 0.11-0.28 0-1-0.03-1.28-0.03s-0.99 0.03-1.28 0.03c-0.08 0-0.19 0-0.19-0.2 0-0.11 0.09-0.11 0.28-0.11 0.02 0 0.21 0 0.38-0.02 0.18-0.02 0.27-0.03 0.27-0.16 0-0.04-0.01-0.06-0.04-0.19l-0.6-2.42h-3.03l0.58 2.34c0.09 0.35 0.12 0.45 0.84 0.45 0.26 0 0.34 0 0.34 0.2 0 0.11-0.11 0.11-0.14 0.11-0.28 0-1-0.03-1.28-0.03s-0.99 0.03-1.28 0.03c-0.08 0-0.19 0-0.19-0.2 0-0.11 0.09-0.11 0.28-0.11 0.02 0 0.21 0 0.38-0.02 0.18-0.02 0.27-0.03 0.27-0.16 0-0.04-0.01-0.07-0.04-0.19l-1.34-5.33c-0.09-0.39-0.11-0.47-0.9-0.47-0.18 0-0.27 0-0.27-0.2 0-0.11 0.12-0.11 0.14-0.11 0.28 0 0.98 0.04 1.26 0.04 0.21 0 0.43-0.01 0.64-0.01 0.22 0 0.44-0.03 0.65-0.03 0.08 0 0.2 0 0.2 0.2 0 0.11-0.09 0.11-0.28 0.11-0.37 0-0.65 0-0.65 0.18 0 0.06 0.02 0.11 0.03 0.17l0.68 2.72h3.03c-0.42-1.65-0.65-2.59-0.69-2.74-0.09-0.32-0.28-0.33-0.9-0.33-0.15 0-0.24 0-0.24-0.2 0-0.11 0.12-0.11 0.14-0.11 0.28 0 0.99 0.04 1.26 0.04 0.21 0 0.43-0.01 0.64-0.01 0.22 0 0.44-0.03 0.65-0.03 0.08 0 0.2 0 0.2 0.2 0 0.11-0.09 0.11-0.28 0.11-0.37 0-0.65 0-0.65 0.18 0 0.06 0.02 0.11 0.03 0.17z"/></g>
   </g>
  </g>
  <path marker-end="url(#marker5514-2)" d="m217.12 33.321h74.039" stroke="#0000fc" stroke-width="0.996"/>
  <g xml:space="preserve" stroke="#000" transform="matrix(2.049 0 0 -2.049 -211.54 1004.6)" stroke-miterlimit="10.433"><path stroke-width="0" fill="#000" d="m227.37 481.01h-0.03-0.03-0.03-0.02-0.03l-0.03-0.01h-0.01-0.02-0.01l-0.01-0.01h-0.02-0.01l-0.01-0.01h-0.02l-0.01-0.01-0.01-0.01h-0.02l-0.01-0.01-0.01-0.01h-0.02l-0.01-0.01-0.01-0.01-0.02-0.01-0.01-0.01-0.01-0.02-0.02-0.01c-0.16-0.15-0.17-0.32-0.17-0.39 0-0.24 0.17-0.34 0.36-0.34 0.29 0 0.56 0.23 0.56 0.63 0 0.49-0.47 0.86-1.17 0.86-1.35 0-2.67-1.43-2.67-2.83 0-0.89 0.58-1.67 1.61-1.67 1.42 0 2.26 1.05 2.26 1.17 0 0.06-0.06 0.13-0.12 0.13-0.05 0-0.07-0.02-0.13-0.1-0.78-0.99-1.87-0.99-1.99-0.99-0.62 0-0.89 0.49-0.89 1.09 0 0.4 0.19 1.37 0.53 1.98 0.31 0.57 0.86 1 1.41 1 0.33 0 0.71-0.13 0.85-0.4z"/></g>
 </g>
</svg>