<?xml version="1.0" encoding="UTF-8" standalone="no"?>
<!-- Created with Inkscape (http://www.inkscape.org/) -->

<svg
   xmlns:dc="http://purl.org/dc/elements/1.1/"
   xmlns:cc="http://creativecommons.org/ns#"
   xmlns:rdf="http://www.w3.org/1999/02/22-rdf-syntax-ns#"
   xmlns:svg="http://www.w3.org/2000/svg"
   xmlns="http://www.w3.org/2000/svg"
   xmlns:xlink="http://www.w3.org/1999/xlink"
   xmlns:sodipodi="http://sodipodi.sourceforge.net/DTD/sodipodi-0.dtd"
   xmlns:inkscape="http://www.inkscape.org/namespaces/inkscape"
   width="154.32541mm"
   height="80.007401mm"
   viewBox="0 0 154.32541 80.007401"
   version="1.1"
   id="svg8"
   sodipodi:docname="implicit_surface.svg"
   inkscape:version="0.92.3 (2405546, 2018-03-11)"
   inkscape:export-filename="/home/damien/Dropbox/drive/teaching/2019_2020/2020_X3A_animation/2020_X3A_animation/src/05_deformation/03_deformation_methods/02_spatial_deformation/06_implicit_surface/assets/implicit_surface.png"
   inkscape:export-xdpi="246.99216"
   inkscape:export-ydpi="246.99216">
  <sodipodi:namedview
     id="base"
     pagecolor="#ffffff"
     bordercolor="#666666"
     borderopacity="1.0"
     inkscape:pageopacity="0.0"
     inkscape:pageshadow="2"
     inkscape:zoom="2.8"
     inkscape:cx="181.34798"
     inkscape:cy="122.90082"
     inkscape:document-units="mm"
     inkscape:current-layer="layer1"
     showgrid="false"
     inkscape:window-width="2560"
     inkscape:window-height="1379"
     inkscape:window-x="0"
     inkscape:window-y="0"
     inkscape:window-maximized="1"
     inkscape:snap-global="false"
     fit-margin-top="0"
     fit-margin-left="0"
     fit-margin-right="0"
     fit-margin-bottom="0" />
  <defs
     id="defs2">
    <marker
       inkscape:stockid="Arrow2Lend"
       orient="auto"
       refY="0"
       refX="0"
       id="Arrow2Lend"
       style="overflow:visible"
       inkscape:isstock="true">
      <path
         id="path1484"
         style="fill:#000000;fill-opacity:1;fill-rule:evenodd;stroke:#000000;stroke-width:0.625;stroke-linejoin:round;stroke-opacity:1"
         d="M 8.7185878,4.0337352 -2.2072895,0.01601326 8.7185884,-4.0017078 c -1.7454984,2.3720609 -1.7354408,5.6174519 -6e-7,8.035443 z"
         transform="matrix(-1.1,0,0,-1.1,-1.1,0)"
         inkscape:connector-curvature="0" />
    </marker>
    <linearGradient
       id="linearGradient1167"
       inkscape:collect="always">
      <stop
         id="stop1163"
         offset="0"
         style="stop-color:#fdffff;stop-opacity:1" />
      <stop
         id="stop1165"
         offset="1"
         style="stop-color:#d3d3ff;stop-opacity:1" />
    </linearGradient>
    <filter
       style="color-interpolation-filters:sRGB"
       inkscape:label="Drop Shadow"
       id="filter1153">
      <feFlood
         flood-opacity="0.498039"
         flood-color="rgb(255,0,0)"
         result="flood"
         id="feFlood1143" />
      <feComposite
         in="flood"
         in2="SourceGraphic"
         operator="in"
         result="composite1"
         id="feComposite1145" />
      <feGaussianBlur
         in="composite1"
         stdDeviation="2.5"
         result="blur"
         id="feGaussianBlur1147" />
      <feOffset
         dx="2.77556e-17"
         dy="2.77556e-17"
         result="offset"
         id="feOffset1149" />
      <feComposite
         in="SourceGraphic"
         in2="offset"
         operator="over"
         result="composite2"
         id="feComposite1151" />
    </filter>
    <radialGradient
       inkscape:collect="always"
       xlink:href="#linearGradient1167"
       id="radialGradient1161"
       cx="109.31324"
       cy="32.670437"
       fx="109.31324"
       fy="32.670437"
       r="27.10113"
       gradientUnits="userSpaceOnUse"
       gradientTransform="translate(-62.541069,9.621703)" />
    <radialGradient
       inkscape:collect="always"
       xlink:href="#linearGradient1167"
       id="radialGradient1161-3"
       cx="109.31324"
       cy="32.670437"
       fx="109.31324"
       fy="32.670437"
       r="27.10113"
       gradientUnits="userSpaceOnUse"
       gradientTransform="translate(13.497106,8.5526229)" />
    <filter
       style="color-interpolation-filters:sRGB"
       inkscape:label="Drop Shadow"
       id="filter1153-2">
      <feFlood
         flood-opacity="0.498039"
         flood-color="rgb(255,0,0)"
         result="flood"
         id="feFlood1143-9" />
      <feComposite
         in="flood"
         in2="SourceGraphic"
         operator="in"
         result="composite1"
         id="feComposite1145-1" />
      <feGaussianBlur
         in="composite1"
         stdDeviation="2.5"
         result="blur"
         id="feGaussianBlur1147-2" />
      <feOffset
         dx="2.77556e-17"
         dy="2.77556e-17"
         result="offset"
         id="feOffset1149-7" />
      <feComposite
         in="SourceGraphic"
         in2="offset"
         operator="over"
         result="composite2"
         id="feComposite1151-0" />
    </filter>
    <marker
       inkscape:stockid="Arrow2Lend"
       orient="auto"
       refY="0"
       refX="0"
       id="Arrow2Lend-2"
       style="overflow:visible"
       inkscape:isstock="true">
      <path
         inkscape:connector-curvature="0"
         id="path1484-0"
         style="fill:#000000;fill-opacity:1;fill-rule:evenodd;stroke:#000000;stroke-width:0.625;stroke-linejoin:round;stroke-opacity:1"
         d="M 8.7185878,4.0337352 -2.2072895,0.01601326 8.7185884,-4.0017078 c -1.7454984,2.3720609 -1.7354408,5.6174519 -6e-7,8.035443 z"
         transform="matrix(-1.1,0,0,-1.1,-1.1,0)" />
    </marker>
  </defs>
  <metadata
     id="metadata5">
    <rdf:RDF>
      <cc:Work
         rdf:about="">
        <dc:format>image/svg+xml</dc:format>
        <dc:type
           rdf:resource="http://purl.org/dc/dcmitype/StillImage" />
        <dc:title />
      </cc:Work>
    </rdf:RDF>
  </metadata>
  <g
     inkscape:label="Layer 1"
     inkscape:groupmode="layer"
     id="layer1"
     transform="translate(-19.277037,-0.85072289)">
    <circle
       style="opacity:1;fill:url(#radialGradient1161);fill-opacity:1;fill-rule:nonzero;stroke:#000000;stroke-width:0.60000002;stroke-miterlimit:4;stroke-dasharray:none;stroke-dashoffset:0;filter:url(#filter1153)"
       id="path961"
       cx="46.772171"
       cy="42.292141"
       r="22.584274" />
    <ellipse
       style="opacity:1;fill:url(#radialGradient1161-3);fill-opacity:1;fill-rule:nonzero;stroke:#000000;stroke-width:0.60000002;stroke-miterlimit:4;stroke-dasharray:none;stroke-dashoffset:0;filter:url(#filter1153-2)"
       id="path961-9"
       cx="122.81035"
       cy="41.223061"
       rx="16.30344"
       ry="27.528761"
       transform="rotate(49.292566,131.67188,52.953809)" />
    <rect
       style="opacity:1;fill:none;fill-opacity:1;fill-rule:nonzero;stroke:#666666;stroke-width:0.2;stroke-miterlimit:4;stroke-dasharray:none;stroke-dashoffset:0"
       id="rect1243-3"
       width="14.365736"
       height="14.365737"
       x="19.377037"
       y="13.560667" />
    <rect
       style="opacity:1;fill:none;fill-opacity:1;fill-rule:nonzero;stroke:#666666;stroke-width:0.2;stroke-miterlimit:4;stroke-dasharray:none;stroke-dashoffset:0"
       id="rect1243-3-6"
       width="14.365736"
       height="14.365737"
       x="33.742775"
       y="13.560667" />
    <rect
       style="opacity:1;fill:none;fill-opacity:1;fill-rule:nonzero;stroke:#666666;stroke-width:0.2;stroke-miterlimit:4;stroke-dasharray:none;stroke-dashoffset:0"
       id="rect1243-3-0"
       width="14.365736"
       height="14.365737"
       x="48.108513"
       y="13.560667" />
    <rect
       style="opacity:1;fill:none;fill-opacity:1;fill-rule:nonzero;stroke:#666666;stroke-width:0.2;stroke-miterlimit:4;stroke-dasharray:none;stroke-dashoffset:0"
       id="rect1243-3-62"
       width="14.365736"
       height="14.365737"
       x="62.474251"
       y="13.560667" />
    <rect
       style="opacity:1;fill:none;fill-opacity:1;fill-rule:nonzero;stroke:#666666;stroke-width:0.2;stroke-miterlimit:4;stroke-dasharray:none;stroke-dashoffset:0"
       id="rect1243-3-61"
       width="14.365736"
       height="14.365737"
       x="19.377037"
       y="27.926403" />
    <rect
       style="opacity:1;fill:none;fill-opacity:1;fill-rule:nonzero;stroke:#666666;stroke-width:0.2;stroke-miterlimit:4;stroke-dasharray:none;stroke-dashoffset:0"
       id="rect1243-3-6-8"
       width="14.365736"
       height="14.365737"
       x="33.742775"
       y="27.926403" />
    <rect
       style="opacity:1;fill:none;fill-opacity:1;fill-rule:nonzero;stroke:#666666;stroke-width:0.2;stroke-miterlimit:4;stroke-dasharray:none;stroke-dashoffset:0"
       id="rect1243-3-0-7"
       width="14.365736"
       height="14.365737"
       x="48.108513"
       y="27.926403" />
    <rect
       style="opacity:1;fill:none;fill-opacity:1;fill-rule:nonzero;stroke:#666666;stroke-width:0.2;stroke-miterlimit:4;stroke-dasharray:none;stroke-dashoffset:0"
       id="rect1243-3-62-9"
       width="14.365736"
       height="14.365737"
       x="62.474251"
       y="27.926403" />
    <rect
       style="opacity:1;fill:none;fill-opacity:1;fill-rule:nonzero;stroke:#666666;stroke-width:0.2;stroke-miterlimit:4;stroke-dasharray:none;stroke-dashoffset:0"
       id="rect1243-3-2"
       width="14.365736"
       height="14.365737"
       x="19.377041"
       y="42.292141" />
    <rect
       style="opacity:1;fill:none;fill-opacity:1;fill-rule:nonzero;stroke:#666666;stroke-width:0.2;stroke-miterlimit:4;stroke-dasharray:none;stroke-dashoffset:0"
       id="rect1243-3-6-0"
       width="14.365736"
       height="14.365737"
       x="33.742779"
       y="42.292141" />
    <rect
       style="opacity:1;fill:none;fill-opacity:1;fill-rule:nonzero;stroke:#666666;stroke-width:0.2;stroke-miterlimit:4;stroke-dasharray:none;stroke-dashoffset:0"
       id="rect1243-3-0-2"
       width="14.365736"
       height="14.365737"
       x="48.108517"
       y="42.292141" />
    <rect
       style="opacity:1;fill:none;fill-opacity:1;fill-rule:nonzero;stroke:#666666;stroke-width:0.2;stroke-miterlimit:4;stroke-dasharray:none;stroke-dashoffset:0"
       id="rect1243-3-62-3"
       width="14.365736"
       height="14.365737"
       x="62.474251"
       y="42.292141" />
    <rect
       style="opacity:1;fill:none;fill-opacity:1;fill-rule:nonzero;stroke:#666666;stroke-width:0.2;stroke-miterlimit:4;stroke-dasharray:none;stroke-dashoffset:0"
       id="rect1243-3-7"
       width="14.365736"
       height="14.365737"
       x="19.377039"
       y="56.657879" />
    <rect
       style="opacity:1;fill:none;fill-opacity:1;fill-rule:nonzero;stroke:#666666;stroke-width:0.2;stroke-miterlimit:4;stroke-dasharray:none;stroke-dashoffset:0"
       id="rect1243-3-6-5"
       width="14.365736"
       height="14.365737"
       x="33.742775"
       y="56.657879" />
    <rect
       style="opacity:1;fill:none;fill-opacity:1;fill-rule:nonzero;stroke:#666666;stroke-width:0.2;stroke-miterlimit:4;stroke-dasharray:none;stroke-dashoffset:0"
       id="rect1243-3-0-9"
       width="14.365736"
       height="14.365737"
       x="48.108513"
       y="56.657879" />
    <rect
       style="opacity:1;fill:none;fill-opacity:1;fill-rule:nonzero;stroke:#666666;stroke-width:0.2;stroke-miterlimit:4;stroke-dasharray:none;stroke-dashoffset:0"
       id="rect1243-3-62-2"
       width="14.365736"
       height="14.365737"
       x="62.474251"
       y="56.657879" />
    <rect
       style="opacity:1;fill:none;fill-opacity:1;fill-rule:nonzero;stroke:#666666;stroke-width:0.2;stroke-miterlimit:4;stroke-dasharray:none;stroke-dashoffset:0"
       id="rect1243-3-28"
       width="11.061262"
       height="16.560606"
       x="95.997131"
       y="-107.6653"
       transform="rotate(48.672961)" />
    <rect
       style="opacity:1;fill:none;fill-opacity:1;fill-rule:nonzero;stroke:#666666;stroke-width:0.2;stroke-miterlimit:4;stroke-dasharray:none;stroke-dashoffset:0"
       id="rect1243-3-6-9"
       width="11.061262"
       height="16.560606"
       x="107.05839"
       y="-107.6653"
       transform="rotate(48.672961)" />
    <rect
       style="opacity:1;fill:none;fill-opacity:1;fill-rule:nonzero;stroke:#666666;stroke-width:0.2;stroke-miterlimit:4;stroke-dasharray:none;stroke-dashoffset:0"
       id="rect1243-3-0-73"
       width="11.061262"
       height="16.560606"
       x="118.11964"
       y="-107.6653"
       transform="rotate(48.672961)" />
    <rect
       style="opacity:1;fill:none;fill-opacity:1;fill-rule:nonzero;stroke:#666666;stroke-width:0.2;stroke-miterlimit:4;stroke-dasharray:none;stroke-dashoffset:0"
       id="rect1243-3-62-6"
       width="11.061262"
       height="16.560606"
       x="129.18091"
       y="-107.6653"
       transform="rotate(48.672961)" />
    <rect
       style="opacity:1;fill:none;fill-opacity:1;fill-rule:nonzero;stroke:#666666;stroke-width:0.2;stroke-miterlimit:4;stroke-dasharray:none;stroke-dashoffset:0"
       id="rect1243-3-61-1"
       width="11.061262"
       height="16.560606"
       x="95.997131"
       y="-91.104683"
       transform="rotate(48.672961)" />
    <rect
       style="opacity:1;fill:none;fill-opacity:1;fill-rule:nonzero;stroke:#666666;stroke-width:0.2;stroke-miterlimit:4;stroke-dasharray:none;stroke-dashoffset:0"
       id="rect1243-3-6-8-2"
       width="11.061262"
       height="16.560606"
       x="107.05839"
       y="-91.104683"
       transform="rotate(48.672961)" />
    <rect
       style="opacity:1;fill:none;fill-opacity:1;fill-rule:nonzero;stroke:#666666;stroke-width:0.2;stroke-miterlimit:4;stroke-dasharray:none;stroke-dashoffset:0"
       id="rect1243-3-0-7-9"
       width="11.061262"
       height="16.560606"
       x="118.11964"
       y="-91.104683"
       transform="rotate(48.672961)" />
    <rect
       style="opacity:1;fill:none;fill-opacity:1;fill-rule:nonzero;stroke:#666666;stroke-width:0.2;stroke-miterlimit:4;stroke-dasharray:none;stroke-dashoffset:0"
       id="rect1243-3-62-9-3"
       width="11.061262"
       height="16.560606"
       x="129.18091"
       y="-91.104683"
       transform="rotate(48.672961)" />
    <rect
       style="opacity:1;fill:none;fill-opacity:1;fill-rule:nonzero;stroke:#666666;stroke-width:0.2;stroke-miterlimit:4;stroke-dasharray:none;stroke-dashoffset:0"
       id="rect1243-3-2-1"
       width="11.061262"
       height="16.560606"
       x="95.997131"
       y="-74.544075"
       transform="rotate(48.672961)" />
    <rect
       style="opacity:1;fill:none;fill-opacity:1;fill-rule:nonzero;stroke:#666666;stroke-width:0.2;stroke-miterlimit:4;stroke-dasharray:none;stroke-dashoffset:0"
       id="rect1243-3-6-0-9"
       width="11.061262"
       height="16.560606"
       x="107.05839"
       y="-74.544075"
       transform="rotate(48.672961)" />
    <rect
       style="opacity:1;fill:none;fill-opacity:1;fill-rule:nonzero;stroke:#666666;stroke-width:0.2;stroke-miterlimit:4;stroke-dasharray:none;stroke-dashoffset:0"
       id="rect1243-3-0-2-4"
       width="11.061262"
       height="16.560606"
       x="118.11964"
       y="-74.544075"
       transform="rotate(48.672961)" />
    <rect
       style="opacity:1;fill:none;fill-opacity:1;fill-rule:nonzero;stroke:#666666;stroke-width:0.2;stroke-miterlimit:4;stroke-dasharray:none;stroke-dashoffset:0"
       id="rect1243-3-62-3-7"
       width="11.061262"
       height="16.560606"
       x="129.18091"
       y="-74.544075"
       transform="rotate(48.672961)" />
    <rect
       style="opacity:1;fill:none;fill-opacity:1;fill-rule:nonzero;stroke:#666666;stroke-width:0.2;stroke-miterlimit:4;stroke-dasharray:none;stroke-dashoffset:0"
       id="rect1243-3-7-8"
       width="11.061262"
       height="16.560606"
       x="95.997131"
       y="-57.983475"
       transform="rotate(48.672961)" />
    <rect
       style="opacity:1;fill:none;fill-opacity:1;fill-rule:nonzero;stroke:#666666;stroke-width:0.2;stroke-miterlimit:4;stroke-dasharray:none;stroke-dashoffset:0"
       id="rect1243-3-6-5-4"
       width="11.061262"
       height="16.560606"
       x="107.05839"
       y="-57.983475"
       transform="rotate(48.672961)" />
    <rect
       style="opacity:1;fill:none;fill-opacity:1;fill-rule:nonzero;stroke:#666666;stroke-width:0.2;stroke-miterlimit:4;stroke-dasharray:none;stroke-dashoffset:0"
       id="rect1243-3-0-9-5"
       width="11.061262"
       height="16.560606"
       x="118.11964"
       y="-57.983475"
       transform="rotate(48.672961)" />
    <rect
       style="opacity:1;fill:none;fill-opacity:1;fill-rule:nonzero;stroke:#666666;stroke-width:0.2;stroke-miterlimit:4;stroke-dasharray:none;stroke-dashoffset:0"
       id="rect1243-3-62-2-0"
       width="11.061262"
       height="16.560606"
       x="129.18091"
       y="-57.983475"
       transform="rotate(48.672961)" />
    <text
       xml:space="preserve"
       style="font-style:normal;font-variant:normal;font-weight:normal;font-stretch:normal;font-size:10.58333302px;line-height:1.25;font-family:serif;-inkscape-font-specification:serif;letter-spacing:0px;word-spacing:0px;fill:#000000;fill-opacity:1;stroke:none;stroke-width:0.26458332"
       x="148.86913"
       y="55.05426"
       id="text1397"><tspan
         sodipodi:role="line"
         id="tspan1395"
         x="148.86913"
         y="55.05426"
         style="font-style:normal;font-variant:normal;font-weight:normal;font-stretch:normal;font-family:serif;-inkscape-font-specification:serif;stroke-width:0.26458332">S'</tspan></text>
    <text
       xml:space="preserve"
       style="font-style:normal;font-variant:normal;font-weight:normal;font-stretch:normal;font-size:10.58333302px;line-height:1.25;font-family:serif;-inkscape-font-specification:serif;letter-spacing:0px;word-spacing:0px;fill:#000000;fill-opacity:1;stroke:none;stroke-width:0.26458332"
       x="68.764114"
       y="51.957726"
       id="text1397-3"><tspan
         sodipodi:role="line"
         id="tspan1395-6"
         x="68.764114"
         y="51.957726"
         style="font-style:normal;font-variant:normal;font-weight:normal;font-stretch:normal;font-family:serif;-inkscape-font-specification:serif;stroke-width:0.26458332">S</tspan></text>
    <circle
       style="opacity:1;fill:#ff0000;fill-opacity:1;fill-rule:nonzero;stroke:#000000;stroke-width:0.25;stroke-miterlimit:4;stroke-dasharray:none;stroke-dashoffset:0"
       id="path1417"
       cx="111.45139"
       cy="50.443859"
       r="1.0022607" />
    <circle
       style="opacity:1;fill:#ff0000;fill-opacity:1;fill-rule:nonzero;stroke:#000000;stroke-width:0.25;stroke-miterlimit:4;stroke-dasharray:none;stroke-dashoffset:0"
       id="path1417-3"
       cx="39.088173"
       cy="63.673702"
       r="1.0022607" />
    <path
       style="fill:none;stroke:#000000;stroke-width:0.5;stroke-linecap:butt;stroke-linejoin:miter;stroke-miterlimit:4;stroke-dasharray:none;stroke-opacity:1;marker-end:url(#Arrow2Lend)"
       d="m 72.296407,28.260489 c 14.03165,-9.354433 27.249307,-4.824403 36.175523,0.460946"
       id="path1461"
       inkscape:connector-curvature="0"
       sodipodi:nodetypes="cc" />
    <path
       style="fill:none;stroke:#000000;stroke-width:0.5;stroke-linecap:butt;stroke-linejoin:miter;stroke-miterlimit:4;stroke-dasharray:none;stroke-opacity:1;marker-end:url(#Arrow2Lend-2)"
       d="M 108.45313,62.661186 C 94.421481,72.015619 81.203827,67.485589 72.277607,62.20024"
       id="path1461-6"
       inkscape:connector-curvature="0"
       sodipodi:nodetypes="cc" />
    <g
       transform="matrix(0.46571777,0,0,0.46571777,-119.13085,14.114319)"
       id="g3095">
      <g
         style="font-style:normal;font-variant:normal;font-weight:normal;font-stretch:normal;letter-spacing:normal;word-spacing:normal;text-anchor:start;fill:none;fill-opacity:1;fill-rule:evenodd;stroke:#000000;stroke-linecap:butt;stroke-linejoin:miter;stroke-miterlimit:10.43299961;stroke-dasharray:none;stroke-dashoffset:0;stroke-opacity:1"
         id="content"
         transform="matrix(0.3,0,0,-0.3,-52.5,222.75)"
         xml:space="preserve"
         stroke-miterlimit="10.433"
         font-style="normal"
         font-variant="normal"
         font-weight="normal"
         font-stretch="normal"
         font-size-adjust="none"
         letter-spacing="normal"
         word-spacing="normal"><path
           style="fill:#000000;stroke-width:0"
           inkscape:connector-curvature="0"
           d="m 1184.9,366.36 h 4.3 c 1,0 1.5,0 1.5,1 0,0.55 -0.5,0.55 -1.3,0.55 h -4.2 l 1.1,5.69 c 0.2,1.04 0.9,4.58 1.2,5.17 0.4,0.95 1.3,1.7 2.3,1.7 0.2,0 1.5,0 2.4,-0.9 -2.1,-0.19 -2.6,-1.94 -2.6,-2.69 0,-1.14 0.8,-1.74 1.8,-1.74 1.3,0 2.7,1.1 2.7,2.99 0,2.3 -2.3,3.44 -4.3,3.44 -1.7,0 -4.8,-0.89 -6.3,-5.83 -0.3,-1.05 -0.5,-1.55 -1.7,-7.83 h -3.4 c -1,0 -1.5,0 -1.5,-0.94 0,-0.61 0.5,-0.61 1.4,-0.61 h 3.3 l -3.8,-19.67 c -0.9,-4.83 -1.7,-9.37 -4.3,-9.37 -0.2,0 -1.4,0 -2.4,0.9 2.3,0.14 2.8,1.94 2.8,2.69 0,1.14 -0.9,1.75 -1.9,1.75 -1.3,0 -2.7,-1.09 -2.7,-3 0,-2.23 2.2,-3.44 4.2,-3.44 2.7,0 4.7,2.94 5.6,4.85 1.6,3.14 2.8,9.15 2.8,9.51 z"
           id="path3082" /><path
           style="fill:#000000;stroke-width:0"
           inkscape:connector-curvature="0"
           d="m 1222.3,374.84 h 0.1 v 0 h 0.1 0.2 v 0 l 0.1,0.01 v 0 l 0.1,0.01 v 0.01 l 0.1,0.01 0.1,0.01 v 0.02 l 0.1,0.01 v 0.02 l 0.1,0.02 v 0.03 l 0.1,0.02 v 0.03 l 0.1,0.03 v 0.04 0.04 l 0.1,0.02 v 0.02 0.02 0.03 0.02 0.03 0.03 l 0.1,0.02 v 0.03 0.03 0.03 0.03 0.04 0.03 0.04 0.03 0.04 0.04 c 0,0.86 -0.8,0.86 -1.4,0.86 h -20.7 c -0.6,0 -1.4,0 -1.4,-0.83 0,-0.87 0.8,-0.87 1.4,-0.87 z"
           id="path3084" /><path
           style="fill:#000000;stroke-width:0"
           inkscape:connector-curvature="0"
           d="m 1239.2,389.12 -0.1,0.04 v 0.04 0.05 0.04 0.03 0.04 0.04 0.03 0.04 0.03 0.03 0.03 0.03 0.03 0.03 0.02 0.03 0.02 0.05 0.04 0.04 0.03 l -0.1,0.03 v 0.03 0.03 0.02 l -0.1,0.02 v 0.02 0.01 l -0.1,0.01 v 0.02 0 h -0.1 v 0.01 0 0.01 h -0.1 v 0 0 h -0.1 v 0.01 0 h -0.1 v 0 0 h -0.1 v 0 h -0.1 v 0 h -0.1 v 0 c -2.2,-2.2 -5.4,-2.23 -6.8,-2.23 v -1.25 c 0.8,0 3.1,0 5,0.97 v -17.77 c 0,-1.16 0,-1.61 -3.5,-1.61 h -1.3 v -1.25 c 0.7,0.03 4.9,0.14 6.2,0.14 1.1,0 5.5,-0.11 6.3,-0.14 v 1.25 h -1.4 c -3.4,0 -3.4,0.45 -3.4,1.61 z"
           id="path3086" /><path
           style="fill:#000000;stroke-width:0"
           inkscape:connector-curvature="0"
           d="m 1266.3,334.49 v 0.02 0.03 0.01 0.02 0.01 0.02 0.02 0.01 0.02 l -0.1,0.02 v 0.03 0.02 0.02 0.03 0.03 l -0.1,0.03 v 0.04 0.03 0.02 l -0.1,0.02 v 0.02 0.02 0.02 0.03 0.02 l -0.1,0.02 v 0.03 0.03 0.02 l -0.1,0.03 v 0.03 0.03 0.03 l -0.1,0.03 v 0.03 0.03 l -0.1,0.04 v 0.03 0.04 l -0.1,0.04 v 0.03 l -0.1,0.04 c -6.2,6.28 -7.8,15.69 -7.8,23.31 0,8.68 1.9,17.35 8,23.57 0.7,0.61 0.7,0.7 0.7,0.86 0,0.34 -0.2,0.48 -0.5,0.48 -0.5,0 -5,-3.37 -7.9,-9.7 -2.6,-5.49 -3.2,-11.02 -3.2,-15.21 0,-3.89 0.6,-9.9 3.3,-15.54 3,-6.13 7.3,-9.36 7.8,-9.36 0.3,0 0.5,0.14 0.5,0.5 z"
           id="path3088" /><path
           style="fill:#000000;stroke-width:0"
           inkscape:connector-curvature="0"
           d="m 1271.3,340.36 v -0.15 -0.15 l -0.1,-0.14 v -0.13 -0.12 l -0.1,-0.12 v -0.11 -0.11 l -0.1,-0.1 v -0.09 -0.09 l -0.1,-0.08 v -0.07 l -0.1,-0.07 v -0.06 l -0.1,-0.06 -0.1,-0.06 -0.1,-0.05 v -0.04 l -0.1,-0.04 -0.1,-0.04 -0.1,-0.03 -0.1,-0.03 -0.1,-0.02 -0.2,-0.02 v -0.01 l -0.1,-0.01 -0.1,-0.01 h -0.1 v -0.01 l -0.1,-0.01 h -0.1 -0.1 l -0.1,-0.01 v 0 h -0.1 -0.1 -0.1 -0.1 c -0.6,0 -1.2,0 -1.2,-0.94 0,-0.41 0.3,-0.61 0.7,-0.61 1.3,0 2.8,0.16 4.1,0.16 1.7,0 3.4,-0.16 5,-0.16 0.2,0 0.9,0 0.9,1 0,0.55 -0.5,0.55 -1.2,0.55 -2.5,0 -2.5,0.36 -2.5,0.79 0,0.61 2.1,8.72 2.4,9.97 0.7,-1.44 2.1,-3.19 4.6,-3.19 v 1.1 c -3.3,0 -4,4.14 -4,4.44 0,0.09 0,0.2 0.2,0.79 l 2.4,9.77 c 0.4,1.34 1.7,2.73 2.6,3.48 1.8,1.55 3.2,1.89 4.1,1.89 1.9,0 3.1,-1.73 3.1,-4.68 0,-2.94 -1.6,-8.66 -2.5,-10.57 -1.7,-3.48 -4.1,-5.12 -5.9,-5.12 v -1.1 c 5.8,0 12,7.27 12,14.6 0,4.69 -2.8,7.97 -6.6,7.97 -2.5,0 -4.9,-1.78 -6.5,-3.74 -0.5,2.69 -2.7,3.74 -4.5,3.74 -2.3,0 -3.2,-1.94 -3.7,-2.83 -0.9,-1.7 -1.5,-4.69 -1.5,-4.84 0,-0.5 0.5,-0.5 0.6,-0.5 0.5,0 0.5,0.06 0.8,1.15 0.9,3.53 1.8,5.92 3.6,5.92 0.9,0 1.6,-0.39 1.6,-2.28 0,-1.15 -0.2,-1.7 -0.4,-2.54 z"
           id="path3090" /><path
           style="fill:#000000;stroke-width:0"
           inkscape:connector-curvature="0"
           d="m 1308.6,358.89 v 0.38 0.38 0.39 0.41 l -0.1,0.84 v 0.88 l -0.1,0.92 -0.1,0.95 -0.2,0.98 -0.1,1 -0.2,1.02 -0.3,1.04 -0.2,1.05 -0.3,1.06 -0.4,1.06 -0.4,1.07 -0.2,0.53 -0.2,0.53 -0.2,0.53 -0.3,0.53 c -3,6.13 -7.3,9.36 -7.8,9.36 -0.3,0 -0.5,-0.19 -0.5,-0.48 0,-0.16 0,-0.25 1,-1.16 4.9,-4.92 7.7,-12.84 7.7,-23.27 0,-8.51 -1.8,-17.28 -8,-23.56 -0.7,-0.59 -0.7,-0.7 -0.7,-0.84 0,-0.3 0.2,-0.5 0.5,-0.5 0.5,0 5,3.39 8,9.72 2.5,5.47 3.1,11 3.1,15.18 z"
           id="path3092" /></g>    </g>
    <g
       transform="matrix(0.58881613,0,0,0.58881613,-80.717181,-15.1127)"
       id="g3481">
      <g
         style="font-style:normal;font-variant:normal;font-weight:normal;font-stretch:normal;letter-spacing:normal;word-spacing:normal;text-anchor:start;fill:none;fill-opacity:1;fill-rule:evenodd;stroke:#000000;stroke-linecap:butt;stroke-linejoin:miter;stroke-miterlimit:10.43299961;stroke-dasharray:none;stroke-dashoffset:0;stroke-opacity:1"
         id="g3479"
         transform="matrix(0.3,0,0,-0.3,-52.5,222.75)"
         xml:space="preserve"
         stroke-miterlimit="10.433"
         font-style="normal"
         font-variant="normal"
         font-weight="normal"
         font-stretch="normal"
         font-size-adjust="none"
         letter-spacing="normal"
         word-spacing="normal"><path
           style="fill:#000000;stroke-width:0"
           inkscape:connector-curvature="0"
           d="m 1229.8,340.36 v -0.15 -0.15 l -0.1,-0.14 v -0.13 -0.12 l -0.1,-0.12 v -0.11 -0.11 l -0.1,-0.1 v -0.09 l -0.1,-0.09 v -0.08 l -0.1,-0.07 v -0.07 l -0.1,-0.06 v -0.06 l -0.1,-0.06 -0.1,-0.05 v -0.04 l -0.1,-0.04 -0.1,-0.04 -0.1,-0.03 -0.1,-0.03 -0.2,-0.02 -0.1,-0.02 v -0.01 l -0.1,-0.01 -0.1,-0.01 h -0.1 v -0.01 l -0.1,-0.01 h -0.1 -0.1 l -0.1,-0.01 h -0.1 -0.1 v 0 h -0.1 -0.1 c -0.6,0 -1.2,0 -1.2,-0.94 0,-0.41 0.3,-0.61 0.7,-0.61 1.3,0 2.7,0.16 4.1,0.16 1.7,0 3.4,-0.16 5,-0.16 0.2,0 0.9,0 0.9,1 0,0.55 -0.5,0.55 -1.2,0.55 -2.5,0 -2.5,0.36 -2.5,0.79 0,0.61 2.1,8.72 2.4,9.97 0.7,-1.44 2.1,-3.19 4.6,-3.19 v 1.1 c -3.3,0 -4,4.14 -4,4.44 0,0.09 0,0.2 0.2,0.79 l 2.4,9.77 c 0.4,1.34 1.7,2.73 2.6,3.48 1.7,1.55 3.2,1.89 4,1.89 2,0 3.2,-1.73 3.2,-4.68 0,-2.94 -1.6,-8.66 -2.5,-10.57 -1.7,-3.48 -4.1,-5.12 -5.9,-5.12 v -1.1 c 5.8,0 12,7.27 12,14.6 0,4.69 -2.8,7.97 -6.6,7.97 -2.5,0 -4.9,-1.78 -6.5,-3.74 -0.5,2.69 -2.7,3.74 -4.5,3.74 -2.3,0 -3.3,-1.94 -3.7,-2.83 -0.9,-1.7 -1.5,-4.69 -1.5,-4.84 0,-0.5 0.5,-0.5 0.5,-0.5 0.5,0 0.6,0.06 0.9,1.15 0.8,3.53 1.8,5.92 3.6,5.92 0.9,0 1.6,-0.39 1.6,-2.28 0,-1.15 -0.2,-1.7 -0.4,-2.54 z"
           id="path3477" /></g>    </g>
    <g
       transform="matrix(0.80321522,0,0,0.80321522,-165.56112,-77.310237)"
       id="g3695">
      <g
         style="font-style:normal;font-variant:normal;font-weight:normal;font-stretch:normal;letter-spacing:normal;word-spacing:normal;text-anchor:start;fill:none;fill-opacity:1;fill-rule:evenodd;stroke:#000000;stroke-linecap:butt;stroke-linejoin:miter;stroke-miterlimit:10.43299961;stroke-dasharray:none;stroke-dashoffset:0;stroke-opacity:1"
         word-spacing="normal"
         letter-spacing="normal"
         font-size-adjust="none"
         font-stretch="normal"
         font-weight="normal"
         font-variant="normal"
         font-style="normal"
         stroke-miterlimit="10.433"
         xml:space="preserve"
         transform="matrix(0.3,0,0,-0.3,-52.5,222.75)"
         id="g3693"><path
           style="fill:#000000;stroke-width:0"
           inkscape:connector-curvature="0"
           id="path3691"
           d="m 1243.5,366.36 h 4.3 c 1,0 1.5,0 1.5,1 0,0.55 -0.5,0.55 -1.4,0.55 h -4.1 l 1,5.69 c 0.2,1.04 0.9,4.58 1.2,5.17 0.5,0.95 1.3,1.7 2.4,1.7 0.2,0 1.5,0 2.4,-0.9 -2.2,-0.19 -2.7,-1.94 -2.7,-2.69 0,-1.14 0.9,-1.74 1.9,-1.74 1.3,0 2.7,1.1 2.7,2.99 0,2.3 -2.3,3.44 -4.3,3.44 -1.7,0 -4.9,-0.89 -6.4,-5.83 -0.2,-1.05 -0.4,-1.55 -1.6,-7.83 h -3.4 c -1,0 -1.5,0 -1.5,-0.94 0,-0.61 0.4,-0.61 1.4,-0.61 h 3.3 l -3.8,-19.67 c -0.9,-4.83 -1.7,-9.37 -4.3,-9.37 -0.2,0 -1.5,0 -2.4,0.9 2.3,0.14 2.7,1.94 2.7,2.69 0,1.14 -0.9,1.75 -1.8,1.75 -1.3,0 -2.8,-1.09 -2.8,-3 0,-2.23 2.2,-3.44 4.3,-3.44 2.7,0 4.7,2.94 5.6,4.85 1.6,3.14 2.7,9.15 2.8,9.51 z" /></g>    </g>
    <g
       transform="matrix(0.72717476,0,0,0.72717476,-139.84625,-7.7728438)"
       id="g3883">
      <g
         style="font-style:normal;font-variant:normal;font-weight:normal;font-stretch:normal;letter-spacing:normal;word-spacing:normal;text-anchor:start;fill:none;fill-opacity:1;fill-rule:evenodd;stroke:#000000;stroke-linecap:butt;stroke-linejoin:miter;stroke-miterlimit:10.43299961;stroke-dasharray:none;stroke-dashoffset:0;stroke-opacity:1"
         id="g3881"
         transform="matrix(0.3,0,0,-0.3,-52.5,222.75)"
         xml:space="preserve"
         stroke-miterlimit="10.433"
         font-style="normal"
         font-variant="normal"
         font-weight="normal"
         font-stretch="normal"
         font-size-adjust="none"
         letter-spacing="normal"
         word-spacing="normal"><path
           style="fill:#000000;stroke-width:0"
           inkscape:connector-curvature="0"
           d="m 1216.8,366.36 h 4.3 c 1,0 1.5,0 1.5,1 0,0.55 -0.5,0.55 -1.3,0.55 h -4.2 l 1.1,5.69 c 0.2,1.04 0.9,4.58 1.2,5.17 0.4,0.95 1.3,1.7 2.3,1.7 0.2,0 1.5,0 2.5,-0.9 -2.2,-0.19 -2.7,-1.94 -2.7,-2.69 0,-1.14 0.9,-1.74 1.8,-1.74 1.3,0 2.8,1.1 2.8,2.99 0,2.3 -2.3,3.44 -4.4,3.44 -1.7,0 -4.8,-0.89 -6.3,-5.83 -0.3,-1.05 -0.5,-1.55 -1.6,-7.83 h -3.5 c -0.9,0 -1.5,0 -1.5,-0.94 0,-0.61 0.5,-0.61 1.4,-0.61 h 3.3 l -3.7,-19.67 c -0.9,-4.83 -1.8,-9.37 -4.4,-9.37 -0.2,0 -1.4,0 -2.4,0.9 2.3,0.14 2.8,1.94 2.8,2.69 0,1.14 -0.9,1.75 -1.9,1.75 -1.3,0 -2.7,-1.09 -2.7,-3 0,-2.23 2.2,-3.44 4.2,-3.44 2.8,0 4.8,2.94 5.7,4.85 1.6,3.14 2.7,9.15 2.8,9.51 z"
           id="path3875" /><path
           style="fill:#000000;stroke-width:0"
           inkscape:connector-curvature="0"
           d="m 1254.2,374.84 h 0.1 v 0 h 0.2 0.1 v 0 l 0.1,0.01 h 0.1 v 0.01 l 0.1,0.01 v 0.01 l 0.1,0.01 v 0.02 l 0.1,0.01 v 0.02 l 0.1,0.02 v 0.03 l 0.1,0.02 v 0.03 l 0.1,0.03 v 0.04 l 0.1,0.04 v 0.02 0.02 0.02 0.03 0.02 0.03 l 0.1,0.03 v 0.02 0.03 0.03 0.03 0.03 0.04 0.03 0.04 0.03 0.04 0.04 c 0,0.86 -0.8,0.86 -1.4,0.86 h -20.7 c -0.6,0 -1.4,0 -1.4,-0.83 0,-0.87 0.8,-0.87 1.4,-0.87 z"
           id="path3877" /><path
           style="fill:#000000;stroke-width:0"
           inkscape:connector-curvature="0"
           d="m 1271.1,389.12 v 0.04 0.04 0.05 0.04 0.03 0.04 0.04 0.03 0.04 0.03 0.03 0.03 0.03 0.03 l -0.1,0.03 v 0.02 0.03 0.02 0.05 0.04 0.04 0.03 0.03 l -0.1,0.03 v 0.03 0.02 0.02 l -0.1,0.02 v 0.01 l -0.1,0.01 v 0.02 0 0 l -0.1,0.01 v 0 0.01 h -0.1 v 0 0 0 l -0.1,0.01 v 0 h -0.1 v 0 0 h -0.1 v 0 0 h -0.1 v 0 h -0.1 c -2.2,-2.2 -5.4,-2.23 -6.8,-2.23 v -1.25 c 0.8,0 3.1,0 5,0.97 v -17.77 c 0,-1.16 0,-1.61 -3.4,-1.61 h -1.4 v -1.25 c 0.7,0.03 4.9,0.14 6.3,0.14 1,0 5.4,-0.11 6.2,-0.14 v 1.25 h -1.3 c -3.5,0 -3.5,0.45 -3.5,1.61 z"
           id="path3879" /></g>    </g>
    <g
       id="g4102"
       transform="matrix(0.46161336,0,0,0.46161336,-84.270144,-35.354991)">
      <g
         word-spacing="normal"
         letter-spacing="normal"
         font-size-adjust="none"
         font-stretch="normal"
         font-weight="normal"
         font-variant="normal"
         font-style="normal"
         stroke-miterlimit="10.433"
         xml:space="preserve"
         transform="matrix(0.3,0,0,-0.3,-52.5,222.75)"
         id="g4100"
         style="font-style:normal;font-variant:normal;font-weight:normal;font-stretch:normal;letter-spacing:normal;word-spacing:normal;text-anchor:start;fill:none;fill-opacity:1;fill-rule:evenodd;stroke:#000000;stroke-linecap:butt;stroke-linejoin:miter;stroke-miterlimit:10.43299961;stroke-dasharray:none;stroke-dashoffset:0;stroke-opacity:1"><path
           id="path4092"
           d="m 1205.1,365.22 v 0.06 0.05 0.06 l 0.1,0.05 v 0.1 0.06 0.05 0.05 0.06 0.05 0.06 0.06 0.06 0.03 0.03 0.03 0.03 c 0,0.86 -0.5,1.36 -1.4,1.36 -0.5,0 -1.8,-0.36 -2,-2.15 -0.9,1.84 -2.7,3.14 -4.7,3.14 l 0.1,-1.1 c 3.3,0 4,-4.03 4,-4.28 0,-0.25 -0.1,-0.54 -0.2,-0.75 l -2.4,-9.51 c -0.3,-1.3 -1.4,-2.53 -2.5,-3.49 -1,-0.89 -2.6,-1.79 -4,-1.79 -2.5,0 -3.3,2.59 -3.3,4.57 0,2.41 1.5,8.28 2.8,10.82 1.3,2.45 3.5,4.43 5.6,4.43 l -0.1,1.1 c -5.7,0 -11.8,-6.97 -11.8,-14.14 0,-4.94 3,-7.88 6.6,-7.88 2.9,0 5.3,2.35 5.8,2.89 v -0.04 c -1,-4.44 -1.6,-6.49 -1.6,-6.58 -0.2,-0.46 -1.9,-5.39 -7.2,-5.39 -0.9,0 -2.6,0.06 -4,0.5 1.5,0.45 2.1,1.75 2.1,2.59 0,0.8 -0.6,1.75 -1.9,1.75 -1.1,0 -2.7,-0.91 -2.7,-2.89 0,-2.05 1.8,-3.05 6.6,-3.05 6.2,0 9.8,3.89 10.6,6.88 z"
           inkscape:connector-curvature="0"
           style="fill:#000000;stroke-width:0" /><path
           id="path4094"
           d="m 1255.3,362.74 h 0.2 0.1 0.2 l 0.1,0.01 v 0 l 0.1,0.01 0.1,0.01 v 0.01 l 0.1,0.01 0.1,0.01 v 0.02 l 0.1,0.02 0.1,0.02 v 0.03 l 0.1,0.02 v 0.03 l 0.1,0.04 0.1,0.04 v 0.04 0.04 l 0.1,0.05 v 0.03 0.03 0.03 0.03 l 0.1,0.03 v 0.03 0.03 0.04 0.03 0.04 0.04 0.04 0.04 0.04 0.05 0.04 c 0,1 -0.9,1 -1.6,1 h -29.8 c -0.8,0 -1.7,0 -1.7,-1 0,-0.98 0.9,-0.98 1.7,-0.98 z"
           inkscape:connector-curvature="0"
           style="fill:#000000;stroke-width:0" /><path
           id="path4096"
           d="m 1255.4,353.07 h 0.1 v 0 h 0.2 0.1 l 0.1,0.01 v 0 l 0.1,0.01 0.1,0.01 0.1,0.01 v 0.01 l 0.1,0.01 0.1,0.02 v 0.02 l 0.1,0.02 v 0.03 l 0.1,0.02 0.1,0.04 v 0.03 l 0.1,0.04 v 0.04 0.05 l 0.1,0.02 v 0.03 0.02 0.03 0.03 0.03 l 0.1,0.03 v 0.04 0.03 0.04 0.03 0.04 0.04 0.04 0.04 0.05 0.04 0.05 c 0,1 -0.9,1 -1.7,1 h -29.7 c -0.8,0 -1.7,0 -1.7,-1 0,-1 0.9,-1 1.7,-1 z"
           inkscape:connector-curvature="0"
           style="fill:#000000;stroke-width:0" /><path
           id="path4098"
           d="m 1296.6,362.38 v 0.75 0.74 0.75 l -0.1,0.74 v 0.75 l -0.1,0.74 v 0.74 l -0.1,0.73 -0.2,0.74 -0.1,0.72 -0.2,0.73 -0.1,0.71 -0.3,0.72 -0.2,0.7 -0.3,0.7 -0.1,0.35 -0.2,0.35 c -2.3,4.79 -6.4,5.59 -8.5,5.59 -3,0 -6.6,-1.3 -8.6,-5.94 -1.6,-3.44 -1.9,-7.33 -1.9,-11.31 0,-3.74 0.2,-8.22 2.3,-12 2.1,-4.03 5.7,-5.03 8.2,-5.03 v 1.09 c -2,0 -4.9,1.25 -5.8,6.03 -0.5,2.99 -0.5,7.57 -0.5,10.52 0,3.19 0,6.47 0.4,9.15 0.9,5.94 4.6,6.38 5.9,6.38 1.6,0 4.9,-0.89 5.9,-5.83 0.5,-2.78 0.5,-6.58 0.5,-9.7 0,-3.75 0,-7.13 -0.6,-10.31 -0.7,-4.74 -3.6,-6.24 -5.8,-6.24 v 0 -1.09 c 2.7,0 6.5,1.04 8.7,5.78 1.5,3.44 1.8,7.31 1.8,11.25 z"
           inkscape:connector-curvature="0"
           style="fill:#000000;stroke-width:0" /></g>    </g>
  </g>
</svg>
