<?xml version="1.0" encoding="UTF-8" standalone="no"?>
<!-- Created with Inkscape (http://www.inkscape.org/) -->

<svg
   xmlns:dc="http://purl.org/dc/elements/1.1/"
   xmlns:cc="http://creativecommons.org/ns#"
   xmlns:rdf="http://www.w3.org/1999/02/22-rdf-syntax-ns#"
   xmlns:svg="http://www.w3.org/2000/svg"
   xmlns="http://www.w3.org/2000/svg"
   xmlns:sodipodi="http://sodipodi.sourceforge.net/DTD/sodipodi-0.dtd"
   xmlns:inkscape="http://www.inkscape.org/namespaces/inkscape"
   width="175.87383mm"
   height="133.25278mm"
   viewBox="0 0 175.87383 133.25278"
   version="1.1"
   id="svg8"
   inkscape:version="0.92.3 (2405546, 2018-03-11)"
   sodipodi:docname="mean_2D.svg">
  <sodipodi:namedview
     id="base"
     pagecolor="#ffffff"
     bordercolor="#666666"
     borderopacity="1.0"
     inkscape:pageopacity="0.0"
     inkscape:pageshadow="2"
     inkscape:zoom="0.7"
     inkscape:cx="440.48717"
     inkscape:cy="233.70279"
     inkscape:document-units="mm"
     inkscape:current-layer="layer1"
     showgrid="false"
     inkscape:window-width="943"
     inkscape:window-height="647"
     inkscape:window-x="903"
     inkscape:window-y="162"
     inkscape:window-maximized="0"
     fit-margin-top="0"
     fit-margin-left="0"
     fit-margin-right="0"
     fit-margin-bottom="0" />
  <defs
     id="defs2" />
  <metadata
     id="metadata5">
    <rdf:RDF>
      <cc:Work
         rdf:about="">
        <dc:format>image/svg+xml</dc:format>
        <dc:type
           rdf:resource="http://purl.org/dc/dcmitype/StillImage" />
        <dc:title></dc:title>
      </cc:Work>
    </rdf:RDF>
  </metadata>
  <g
     transform="translate(60.675417,-299.32915)"
     inkscape:label="Layer 1"
     inkscape:groupmode="layer"
     id="layer1">
    <path
       style="fill:#f9f9f9;stroke:#000000;stroke-width:1.5;stroke-linecap:butt;stroke-linejoin:miter;stroke-miterlimit:4;stroke-dasharray:none;stroke-opacity:1"
       d="m -57.198077,364.20306 78.888323,47.33299 72.12649,-48.45996 -26.48395,-54.65834 -87.904137,15.77766 -27.047431,13.52372 z"
       id="path815-9-2"
       inkscape:connector-curvature="0" />
    <path
       style="fill:none;stroke:#ff0000;stroke-width:1;stroke-linecap:butt;stroke-linejoin:miter;stroke-miterlimit:4;stroke-dasharray:none;stroke-opacity:1"
       d="m 45.402185,349.72476 c 2.12047,-7.66067 -1.994433,-15.3925 -3.244144,-17.98565"
       id="path1748-4"
       inkscape:connector-curvature="0"
       sodipodi:nodetypes="cc" />
    <circle
       style="opacity:1;fill:#ffffff;fill-opacity:1;stroke:#000000;stroke-width:1.5;stroke-miterlimit:4;stroke-dasharray:none;stroke-dashoffset:0"
       id="path817-5-1-9"
       cx="-19.675714"
       cy="323.65036"
       r="3.5860157" />
    <circle
       style="opacity:1;fill:#ffffff;fill-opacity:1;stroke:#000000;stroke-width:1.5;stroke-miterlimit:4;stroke-dasharray:none;stroke-dashoffset:0"
       id="path817-35-2-3"
       cx="-46.134041"
       cy="336.87952"
       r="3.5860157" />
    <circle
       style="opacity:1;fill:#ffffff;fill-opacity:1;stroke:#000000;stroke-width:1.5;stroke-miterlimit:4;stroke-dasharray:none;stroke-dashoffset:0"
       id="path817-62-7-1"
       cx="-56.339401"
       cy="364.84976"
       r="3.5860157" />
    <path
       style="fill:none;stroke:#000000;stroke-width:1;stroke-linecap:butt;stroke-linejoin:miter;stroke-miterlimit:4;stroke-dasharray:none;stroke-opacity:1"
       d="m 27.454086,345.137 -5.76384,66.39905"
       id="path873-0-9"
       inkscape:connector-curvature="0" />
    <path
       sodipodi:nodetypes="cc"
       style="fill:none;stroke:#000000;stroke-width:1;stroke-linecap:butt;stroke-linejoin:miter;stroke-miterlimit:4;stroke-dasharray:none;stroke-opacity:1"
       d="m 27.454086,345.137 39.8787,-36.71925"
       id="path875-3-4"
       inkscape:connector-curvature="0" />
    <g
       transform="translate(-287.38938,310.86293)"
       id="g901-1-4">
      <g
         style="font-style:normal;font-variant:normal;font-weight:normal;font-stretch:normal;letter-spacing:normal;word-spacing:normal;text-anchor:start;fill:none;fill-opacity:1;fill-rule:evenodd;stroke:#000000;stroke-linecap:butt;stroke-linejoin:miter;stroke-miterlimit:10.43299961;stroke-dasharray:none;stroke-dashoffset:0;stroke-opacity:1"
         id="content-8-5"
         transform="matrix(0.3,0,0,-0.3,-52.5,222.75)"
         xml:space="preserve"
         stroke-miterlimit="10.433"
         font-style="normal"
         font-variant="normal"
         font-weight="normal"
         font-stretch="normal"
         font-size-adjust="none"
         letter-spacing="normal"
         word-spacing="normal"><path
           style="fill:#000000;stroke-width:0"
           inkscape:connector-curvature="0"
           d="m 1196,340.36 v -0.15 l -0.1,-0.15 v -0.14 -0.13 l -0.1,-0.12 v -0.12 -0.11 l -0.1,-0.11 v -0.1 l -0.1,-0.09 v -0.09 -0.08 l -0.1,-0.07 v -0.07 l -0.1,-0.06 -0.1,-0.06 v -0.06 l -0.1,-0.05 -0.1,-0.04 -0.1,-0.04 -0.1,-0.04 -0.1,-0.03 -0.1,-0.03 -0.1,-0.02 -0.1,-0.02 -0.1,-0.01 -0.1,-0.01 v -0.01 h -0.1 l -0.1,-0.01 -0.1,-0.01 v 0 h -0.1 l -0.1,-0.01 h -0.1 -0.1 -0.1 -0.1 -0.1 c -0.6,0 -1.1,0 -1.1,-0.94 0,-0.41 0.2,-0.61 0.6,-0.61 1.4,0 2.8,0.16 4.2,0.16 1.6,0 3.3,-0.16 4.9,-0.16 0.3,0 0.9,0 0.9,1 0,0.55 -0.5,0.55 -1.2,0.55 -2.5,0 -2.5,0.36 -2.5,0.79 0,0.61 2.1,8.72 2.5,9.97 0.6,-1.44 2,-3.19 4.6,-3.19 l -0.1,1.1 c -3.3,0 -3.9,4.14 -3.9,4.44 0,0.09 0,0.2 0.1,0.79 l 2.5,9.77 c 0.3,1.34 1.7,2.73 2.6,3.48 1.7,1.55 3.2,1.89 4,1.89 2,0 3.2,-1.73 3.2,-4.68 0,-2.94 -1.7,-8.66 -2.6,-10.57 -1.6,-3.48 -4,-5.12 -5.9,-5.12 l 0.1,-1.1 c 5.7,0 12,7.27 12,14.6 0,4.69 -2.9,7.97 -6.7,7.97 -2.4,0 -4.8,-1.78 -6.5,-3.74 -0.5,2.69 -2.6,3.74 -4.5,3.74 -2.3,0 -3.2,-1.94 -3.6,-2.83 -1,-1.7 -1.6,-4.69 -1.6,-4.84 0,-0.5 0.5,-0.5 0.6,-0.5 0.5,0 0.5,0.06 0.9,1.15 0.8,3.53 1.8,5.92 3.6,5.92 0.8,0 1.5,-0.39 1.5,-2.28 0,-1.15 -0.1,-1.7 -0.3,-2.54 z"
           id="path890-7-0" /><path
           style="fill:#000000;stroke-width:0"
           inkscape:connector-curvature="0"
           d="m 1230.1,360.66 v 0.05 0.06 0.05 0.05 0.06 0.06 0.05 0.06 l -0.1,0.05 v 0.06 0.06 0.05 l -0.1,0.05 v 0.06 l -0.1,0.05 v 0.05 0.05 l -0.1,0.04 v 0.05 l -0.1,0.04 v 0.04 l -0.1,0.04 -0.1,0.04 v 0.03 l -0.1,0.03 -0.1,0.02 -0.1,0.02 v 0.02 l -0.1,0.02 -0.1,0.01 -0.1,0.01 h -0.1 c -0.9,0 -1.9,-0.91 -1.9,-1.92 0,-0.6 0.4,-1.33 1.4,-1.33 1,0 1.9,0.98 1.9,1.92 z"
           id="path892-9-3" /><path
           style="fill:#000000;stroke-width:0"
           inkscape:connector-curvature="0"
           d="m 1223,342.96 v -0.09 -0.08 l -0.1,-0.17 v -0.08 -0.09 l -0.1,-0.09 v -0.08 -0.09 -0.1 -0.09 l -0.1,-0.1 v -0.04 -0.05 -0.06 -0.05 -0.05 -0.05 -0.06 -0.05 c 0,-1.64 1.4,-2.95 3.3,-2.95 3.5,0 5,4.79 5,5.32 0,0.46 -0.4,0.46 -0.5,0.46 -0.5,0 -0.6,-0.21 -0.7,-0.6 -0.8,-2.78 -2.3,-4.22 -3.7,-4.22 -0.7,0 -0.9,0.46 -0.9,1.22 0,0.8 0.3,1.47 0.6,2.24 0.4,0.93 0.7,1.87 1.1,2.78 0.3,0.84 1.6,4.01 1.7,4.44 0.1,0.34 0.2,0.76 0.2,1.11 0,1.64 -1.4,2.95 -3.3,2.95 -3.4,0 -5,-4.74 -5,-5.33 0,-0.45 0.5,-0.45 0.6,-0.45 0.5,0 0.5,0.17 0.6,0.56 0.9,3 2.4,4.25 3.7,4.25 0.6,0 0.9,-0.28 0.9,-1.22 0,-0.8 -0.2,-1.33 -1.1,-3.48 z"
           id="path894-2-6" /><path
           style="fill:#000000;stroke-width:0"
           inkscape:connector-curvature="0"
           d="m 1258.8,346.75 h 0.1 v 0 l 0.1,0.01 h 0.1 0.1 l 0.1,0.01 v 0 l 0.1,0.01 v 0.01 l 0.1,0.01 v 0.01 l 0.1,0.01 0.1,0.02 v 0.02 l 0.1,0.02 v 0.02 l 0.1,0.03 v 0.03 0.03 l 0.1,0.04 v 0.04 0.02 l 0.1,0.02 v 0.02 0.03 0.02 0.03 0.02 0.03 0.03 l 0.1,0.03 v 0.03 0.03 0.04 0.03 0.03 0.04 0.04 0.04 c 0,0.86 -0.8,0.86 -1.4,0.86 H 1238 c -0.5,0 -1.4,0 -1.4,-0.83 0,-0.88 0.8,-0.88 1.4,-0.88 z"
           id="path896-0-1" /><path
           style="fill:#000000;stroke-width:0"
           inkscape:connector-curvature="0"
           d="m 1275.6,361.04 v 0.04 0.04 0.04 0.04 0.04 0.04 0.04 0.03 0.03 0.04 0.03 0.03 0.03 0.03 0.02 0.03 0.03 0.02 0.05 0.04 0.04 l -0.1,0.03 v 0.03 0.03 0.02 l -0.1,0.03 v 0.02 0.01 l -0.1,0.02 v 0.01 0.01 l -0.1,0.01 v 0 0.01 0 h -0.1 v 0.01 0 h -0.1 v 0 0 l -0.1,0.01 v 0 0 h -0.1 v 0 0 h -0.1 v 0 h -0.1 v 0 c -2.3,-2.2 -5.4,-2.23 -6.8,-2.23 v -1.25 c 0.8,0 3.1,0 5,0.96 v -17.76 c 0,-1.16 0,-1.61 -3.5,-1.61 h -1.3 v -1.25 c 0.6,0.03 4.9,0.14 6.2,0.14 1.1,0 5.5,-0.11 6.2,-0.14 v 1.25 h -1.3 c -3.5,0 -3.5,0.45 -3.5,1.61 z"
           id="path898-2-0" /></g>    </g>
    <g
       transform="translate(-226.98648,187.11715)"
       id="g957-3-6">
      <g
         style="font-style:normal;font-variant:normal;font-weight:normal;font-stretch:normal;letter-spacing:normal;word-spacing:normal;text-anchor:start;fill:none;fill-opacity:1;fill-rule:evenodd;stroke:#000000;stroke-linecap:butt;stroke-linejoin:miter;stroke-miterlimit:10.43299961;stroke-dasharray:none;stroke-dashoffset:0;stroke-opacity:1"
         word-spacing="normal"
         letter-spacing="normal"
         font-size-adjust="none"
         font-stretch="normal"
         font-weight="normal"
         font-variant="normal"
         font-style="normal"
         stroke-miterlimit="10.433"
         xml:space="preserve"
         transform="matrix(0.3,0,0,-0.3,-52.5,222.75)"
         id="g955-7-3"><path
           style="fill:#000000;stroke-width:0"
           inkscape:connector-curvature="0"
           id="path945-5-2"
           d="m 1196.4,340.36 -0.1,-0.15 v -0.15 -0.14 l -0.1,-0.13 v -0.12 -0.12 l -0.1,-0.11 v -0.11 l -0.1,-0.1 v -0.09 -0.09 l -0.1,-0.08 v -0.07 l -0.1,-0.07 v -0.06 l -0.1,-0.06 -0.1,-0.06 -0.1,-0.05 v -0.04 l -0.1,-0.04 -0.1,-0.04 -0.1,-0.03 -0.1,-0.03 -0.1,-0.02 -0.2,-0.02 v -0.01 l -0.1,-0.01 -0.1,-0.01 v 0 l -0.1,-0.01 -0.1,-0.01 h -0.1 -0.1 l -0.1,-0.01 v 0 h -0.1 -0.1 -0.1 -0.1 c -0.6,0 -1.2,0 -1.2,-0.94 0,-0.41 0.3,-0.61 0.7,-0.61 1.3,0 2.8,0.16 4.2,0.16 1.6,0 3.3,-0.16 4.9,-0.16 0.2,0 0.9,0 0.9,1 0,0.55 -0.5,0.55 -1.2,0.55 -2.5,0 -2.5,0.36 -2.5,0.79 0,0.61 2.1,8.72 2.4,9.97 0.7,-1.44 2.1,-3.19 4.6,-3.19 v 1.1 c -3.3,0 -4,4.14 -4,4.44 0,0.09 0,0.2 0.2,0.79 l 2.4,9.77 c 0.4,1.34 1.7,2.73 2.6,3.48 1.8,1.55 3.2,1.89 4.1,1.89 2,0 3.1,-1.73 3.1,-4.68 0,-2.94 -1.6,-8.66 -2.5,-10.57 -1.7,-3.48 -4.1,-5.12 -5.9,-5.12 v -1.1 c 5.8,0 12,7.27 12,14.6 0,4.69 -2.8,7.97 -6.6,7.97 -2.5,0 -4.9,-1.78 -6.5,-3.74 -0.5,2.69 -2.6,3.74 -4.5,3.74 -2.3,0 -3.2,-1.94 -3.7,-2.83 -0.9,-1.7 -1.5,-4.69 -1.5,-4.84 0,-0.5 0.5,-0.5 0.6,-0.5 0.5,0 0.5,0.06 0.8,1.15 0.9,3.53 1.8,5.92 3.7,5.92 0.8,0 1.5,-0.39 1.5,-2.28 0,-1.15 -0.2,-1.7 -0.4,-2.54 z" /><path
           style="fill:#000000;stroke-width:0"
           inkscape:connector-curvature="0"
           id="path947-9-0"
           d="m 1230.5,360.66 v 0.05 0.06 0.05 0.05 0.06 0.06 l -0.1,0.05 v 0.06 0.05 0.06 l -0.1,0.06 v 0.05 0.05 l -0.1,0.06 v 0.05 0.05 l -0.1,0.05 v 0.04 l -0.1,0.05 v 0.04 l -0.1,0.04 v 0.04 l -0.1,0.04 -0.1,0.03 v 0.03 l -0.1,0.02 -0.1,0.02 -0.1,0.02 v 0.02 l -0.1,0.01 -0.1,0.01 h -0.1 c -0.9,0 -2,-0.91 -2,-1.92 0,-0.6 0.5,-1.33 1.4,-1.33 1,0 2,0.98 2,1.92 z" /><path
           style="fill:#000000;stroke-width:0"
           inkscape:connector-curvature="0"
           id="path949-2-6"
           d="m 1223.4,342.96 v -0.09 l -0.1,-0.08 v -0.17 -0.08 l -0.1,-0.09 v -0.09 -0.08 -0.09 l -0.1,-0.1 v -0.09 -0.1 -0.04 -0.05 -0.06 -0.05 -0.05 -0.05 -0.06 -0.05 c 0,-1.64 1.4,-2.95 3.3,-2.95 3.5,0 5,4.79 5,5.32 0,0.46 -0.5,0.46 -0.6,0.46 -0.4,0 -0.5,-0.21 -0.6,-0.6 -0.8,-2.78 -2.4,-4.22 -3.7,-4.22 -0.7,0 -0.9,0.46 -0.9,1.22 0,0.8 0.3,1.47 0.6,2.24 0.3,0.93 0.7,1.87 1.1,2.78 0.3,0.84 1.6,4.01 1.7,4.44 0.1,0.34 0.2,0.76 0.2,1.11 0,1.64 -1.4,2.95 -3.3,2.95 -3.5,0 -5.1,-4.74 -5.1,-5.33 0,-0.45 0.5,-0.45 0.6,-0.45 0.5,0 0.5,0.17 0.7,0.56 0.9,3 2.4,4.25 3.7,4.25 0.5,0 0.9,-0.28 0.9,-1.22 0,-0.8 -0.3,-1.33 -1.1,-3.48 z" /><path
           style="fill:#000000;stroke-width:0"
           inkscape:connector-curvature="0"
           id="path951-2-1"
           d="m 1249.4,346.75 h 10.6 c 0.5,0 1.3,0 1.3,0.85 0,0.86 -0.8,0.86 -1.3,0.86 h -10.6 v 10.7 c 0,0.45 0,1.28 -0.9,1.28 -0.8,0 -0.8,-0.8 -0.8,-1.28 v -10.7 H 1237 c -0.5,0 -1.3,0 -1.3,-0.83 0,-0.88 0.8,-0.88 1.3,-0.88 h 10.7 v -10.7 c 0,-0.45 0,-1.28 0.8,-1.28 0.9,0 0.9,0.8 0.9,1.28 z" /><path
           style="fill:#000000;stroke-width:0"
           inkscape:connector-curvature="0"
           id="path953-8-5"
           d="m 1275.5,361.04 v 0.04 0.04 0.04 0.04 0.04 0.04 0.04 0.03 0.03 0.04 0.03 0.03 0.03 0.03 0.02 0.03 0.03 0.02 0.05 0.04 l -0.1,0.04 v 0.03 0.03 0.03 0.02 l -0.1,0.03 v 0.02 0.01 l -0.1,0.02 v 0.01 l -0.1,0.01 v 0.01 0 0.01 h -0.1 v 0 0.01 0 h -0.1 v 0 0 l -0.1,0.01 v 0 0 h -0.1 v 0 h -0.1 v 0 0 h -0.1 v 0 c -2.3,-2.2 -5.4,-2.23 -6.9,-2.23 v -1.25 c 0.9,0 3.2,0 5.1,0.96 v -17.76 c 0,-1.16 0,-1.61 -3.5,-1.61 h -1.3 v -1.25 c 0.6,0.03 4.9,0.14 6.2,0.14 1.1,0 5.5,-0.11 6.2,-0.14 v 1.25 h -1.3 c -3.5,0 -3.5,0.45 -3.5,1.61 z" /></g>    </g>
    <g
       transform="translate(-209.28159,249.05912)"
       id="g1023-9-5">
      <g
         style="font-style:normal;font-variant:normal;font-weight:normal;font-stretch:normal;letter-spacing:normal;word-spacing:normal;text-anchor:start;fill:none;fill-opacity:1;fill-rule:evenodd;stroke:#000000;stroke-linecap:butt;stroke-linejoin:miter;stroke-miterlimit:10.43299961;stroke-dasharray:none;stroke-dashoffset:0;stroke-opacity:1"
         id="g1021-7-4"
         transform="matrix(0.3,0,0,-0.3,-52.5,222.75)"
         xml:space="preserve"
         stroke-miterlimit="10.433"
         font-style="normal"
         font-variant="normal"
         font-weight="normal"
         font-stretch="normal"
         font-size-adjust="none"
         letter-spacing="normal"
         word-spacing="normal"><path
           style="fill:#000000;stroke-width:0"
           inkscape:connector-curvature="0"
           d="m 1221.6,340.36 -0.1,-0.15 v -0.15 l -0.1,-0.14 v -0.13 -0.12 l -0.1,-0.12 v -0.11 -0.11 l -0.1,-0.1 v -0.09 -0.09 l -0.1,-0.08 v -0.07 l -0.1,-0.07 v -0.06 l -0.1,-0.06 -0.1,-0.06 -0.1,-0.05 v -0.04 l -0.1,-0.04 -0.1,-0.04 -0.1,-0.03 -0.1,-0.03 -0.1,-0.02 -0.2,-0.02 v -0.01 l -0.1,-0.01 -0.1,-0.01 v 0 l -0.1,-0.01 -0.1,-0.01 h -0.1 -0.1 l -0.1,-0.01 v 0 h -0.1 -0.1 -0.1 -0.1 c -0.6,0 -1.2,0 -1.2,-0.94 0,-0.41 0.3,-0.61 0.7,-0.61 1.3,0 2.8,0.16 4.2,0.16 1.6,0 3.3,-0.16 4.9,-0.16 0.2,0 0.9,0 0.9,1 0,0.55 -0.5,0.55 -1.2,0.55 -2.5,0 -2.5,0.36 -2.5,0.79 0,0.61 2.1,8.72 2.5,9.97 0.6,-1.44 2,-3.19 4.5,-3.19 v 1.1 c -3.3,0 -4,4.14 -4,4.44 0,0.09 0,0.2 0.2,0.79 l 2.4,9.77 c 0.4,1.34 1.7,2.73 2.6,3.48 1.8,1.55 3.2,1.89 4.1,1.89 1.9,0 3.2,-1.73 3.2,-4.68 0,-2.94 -1.7,-8.66 -2.6,-10.57 -1.7,-3.48 -4.1,-5.12 -5.9,-5.12 v -1.1 c 5.8,0 12,7.27 12,14.6 0,4.69 -2.8,7.97 -6.6,7.97 -2.5,0 -4.9,-1.78 -6.5,-3.74 -0.5,2.69 -2.7,3.74 -4.5,3.74 -2.3,0 -3.3,-1.94 -3.7,-2.83 -0.9,-1.7 -1.5,-4.69 -1.5,-4.84 0,-0.5 0.5,-0.5 0.6,-0.5 0.5,0 0.5,0.06 0.8,1.15 0.9,3.53 1.9,5.92 3.6,5.92 0.9,0 1.6,-0.39 1.6,-2.28 0,-1.15 -0.2,-1.7 -0.3,-2.54 z"
           id="path1015-3-7" /><path
           style="fill:#000000;stroke-width:0"
           inkscape:connector-curvature="0"
           d="m 1255.7,360.66 v 0.05 0.06 0.05 0.05 0.06 0.06 l -0.1,0.05 v 0.06 0.05 0.06 l -0.1,0.06 v 0.05 0.05 l -0.1,0.06 v 0.05 0.05 l -0.1,0.05 v 0.04 l -0.1,0.05 v 0.04 l -0.1,0.04 v 0.04 l -0.1,0.04 -0.1,0.03 v 0.03 l -0.1,0.02 -0.1,0.02 -0.1,0.02 v 0.02 l -0.1,0.01 -0.1,0.01 h -0.1 c -1,0 -2,-0.91 -2,-1.92 0,-0.6 0.5,-1.33 1.4,-1.33 1,0 2,0.98 2,1.92 z"
           id="path1017-6-6" /><path
           style="fill:#000000;stroke-width:0"
           inkscape:connector-curvature="0"
           d="m 1248.6,342.96 v -0.09 l -0.1,-0.08 v -0.17 -0.08 l -0.1,-0.09 v -0.09 -0.08 -0.09 l -0.1,-0.1 v -0.09 -0.1 -0.04 -0.05 -0.06 -0.05 -0.05 -0.05 -0.06 -0.05 c 0,-1.64 1.4,-2.95 3.3,-2.95 3.5,0 5,4.79 5,5.32 0,0.46 -0.4,0.46 -0.6,0.46 -0.4,0 -0.5,-0.21 -0.6,-0.6 -0.8,-2.78 -2.4,-4.22 -3.7,-4.22 -0.7,0 -0.9,0.46 -0.9,1.22 0,0.8 0.3,1.47 0.6,2.24 0.3,0.93 0.7,1.87 1.1,2.78 0.3,0.84 1.6,4.01 1.7,4.44 0.1,0.34 0.2,0.76 0.2,1.11 0,1.64 -1.4,2.95 -3.3,2.95 -3.5,0 -5.1,-4.74 -5.1,-5.33 0,-0.45 0.5,-0.45 0.6,-0.45 0.5,0 0.6,0.17 0.7,0.56 0.9,3 2.4,4.25 3.7,4.25 0.5,0 0.8,-0.28 0.8,-1.22 0,-0.8 -0.1,-1.33 -1,-3.48 z"
           id="path1019-1-5" /></g>    </g>
    <circle
       style="opacity:1;fill:#ffffff;fill-opacity:1;stroke:#000000;stroke-width:1.5;stroke-miterlimit:4;stroke-dasharray:none;stroke-dashoffset:0"
       id="path817-3-9-9"
       cx="21.901678"
       cy="411.71884"
       r="3.5860157" />
    <circle
       style="opacity:1;fill:#ffffff;fill-opacity:1;stroke:#000000;stroke-width:1.5;stroke-miterlimit:4;stroke-dasharray:none;stroke-dashoffset:0"
       id="path817-7-6-3"
       cx="67.069824"
       cy="309.28726"
       r="3.5860157" />
    <path
       style="fill:none;stroke:#000080;stroke-width:1;stroke-linecap:butt;stroke-linejoin:miter;stroke-miterlimit:4;stroke-dasharray:none;stroke-opacity:1"
       d="m 26.268531,359.76628 c 7.778752,-1.63502 12.75677,-8.84146 14.486208,-11.1426"
       id="path1748"
       inkscape:connector-curvature="0"
       sodipodi:nodetypes="cc" />
    <path
       style="fill:none;stroke:#000000;stroke-width:1;stroke-linecap:butt;stroke-linejoin:miter;stroke-miterlimit:4;stroke-dasharray:none;stroke-opacity:1"
       d="m 27.454084,345.13699 66.362651,17.9391"
       id="path1746"
       inkscape:connector-curvature="0" />
    <circle
       style="opacity:1;fill:#ff0000;fill-opacity:1;stroke:#000000;stroke-width:0.94524515;stroke-miterlimit:4;stroke-dasharray:none;stroke-dashoffset:0"
       id="path817-626-8"
       cx="27.856512"
       cy="344.85315"
       r="2.2597759" />
    <circle
       style="opacity:1;fill:#ffffff;fill-opacity:1;stroke:#000000;stroke-width:1.5;stroke-miterlimit:4;stroke-dasharray:none;stroke-dashoffset:0"
       id="path817-6-0-7"
       cx="94.095123"
       cy="362.95987"
       r="3.5860157" />
    <g
       id="g2132"
       transform="translate(-274.52036,248.72077)"
       style="fill:#000080">
      <g
         word-spacing="normal"
         letter-spacing="normal"
         font-size-adjust="none"
         font-stretch="normal"
         font-weight="normal"
         font-variant="normal"
         font-style="normal"
         stroke-miterlimit="10.433"
         xml:space="preserve"
         transform="matrix(0.3,0,0,-0.3,-52.5,222.75)"
         id="g2130"
         style="font-style:normal;font-variant:normal;font-weight:normal;font-stretch:normal;letter-spacing:normal;word-spacing:normal;text-anchor:start;fill:#000080;fill-opacity:1;fill-rule:evenodd;stroke:#000000;stroke-linecap:butt;stroke-linejoin:miter;stroke-miterlimit:10.43299961;stroke-dasharray:none;stroke-dashoffset:0;stroke-opacity:1"><path
           id="path2120"
           d="m 1214.2,358.21 v 0.36 l -0.1,0.35 v 0.35 0.34 l -0.1,0.66 v 0.62 l -0.2,0.6 -0.1,0.56 -0.1,0.54 -0.2,0.51 -0.2,0.49 -0.2,0.46 -0.3,0.43 -0.2,0.4 -0.3,0.38 -0.2,0.36 -0.3,0.33 -0.3,0.31 -0.3,0.29 -0.3,0.26 -0.4,0.24 -0.3,0.22 -0.4,0.2 -0.3,0.18 -0.4,0.16 -0.3,0.14 -0.4,0.13 -0.3,0.1 -0.4,0.09 -0.3,0.07 -0.4,0.05 -0.4,0.04 -0.3,0.02 -0.4,0.01 v -1.1 c 4.9,0 4.9,-6.53 4.9,-10.4 0,-1.85 0,-4.74 0.1,-5.58 v 0 c -4.4,-3.84 -8.2,-4.39 -10.2,-4.39 -3,0 -4.5,2.25 -4.5,5.44 0,2.43 1.3,7.81 2.9,10.36 2.3,3.64 5.1,4.57 6.8,4.57 v 1.1 c -6.8,0 -13.4,-7.13 -13.4,-14.14 0,-4.64 3,-8.43 8.1,-8.43 3.2,0 6.7,1.15 10.5,4.19 0.7,-2.64 2.3,-4.19 4.6,-4.19 2.6,0 4.1,2.74 4.1,3.54 0,0.36 -0.3,0.5 -0.5,0.5 -0.4,0 -0.5,-0.14 -0.7,-0.5 -0.9,-2.44 -2.7,-2.44 -2.8,-2.44 -1.5,0 -1.5,3.89 -1.5,5.08 0,1.04 0,1.15 0.5,1.75 4.6,5.87 5.7,11.65 5.7,11.7 0,0.11 -0.1,0.5 -0.6,0.5 -0.5,0 -0.5,-0.14 -0.8,-1.05 -0.8,-3.14 -2.5,-6.92 -4.8,-9.86 z"
           inkscape:connector-curvature="0"
           style="fill:#000080;stroke-width:0" /><path
           id="path2122"
           d="m 1233.6,360.66 v 0.05 0.06 0.05 0.05 0.06 0.06 0.05 l -0.1,0.06 v 0.05 0.06 0.06 l -0.1,0.05 v 0.05 0.06 l -0.1,0.05 v 0.05 l -0.1,0.05 v 0.04 l -0.1,0.05 v 0.04 l -0.1,0.04 v 0.04 l -0.1,0.04 -0.1,0.03 v 0.03 l -0.1,0.02 -0.1,0.02 v 0.02 l -0.1,0.02 -0.1,0.01 -0.1,0.01 h -0.1 c -0.9,0 -1.9,-0.91 -1.9,-1.92 0,-0.6 0.4,-1.33 1.4,-1.33 1,0 1.9,0.98 1.9,1.92 z"
           inkscape:connector-curvature="0"
           style="fill:#000080;stroke-width:0" /><path
           id="path2124"
           d="m 1226.5,342.96 v -0.17 l -0.1,-0.17 v -0.08 -0.09 l -0.1,-0.09 v -0.08 -0.09 -0.1 l -0.1,-0.09 v -0.1 -0.09 -0.06 -0.05 -0.05 -0.05 -0.06 -0.05 c 0,-1.64 1.4,-2.95 3.3,-2.95 3.5,0 5,4.79 5,5.32 0,0.46 -0.4,0.46 -0.5,0.46 -0.5,0 -0.6,-0.21 -0.7,-0.6 -0.8,-2.78 -2.3,-4.22 -3.7,-4.22 -0.7,0 -0.9,0.46 -0.9,1.22 0,0.8 0.3,1.47 0.6,2.24 0.3,0.93 0.7,1.87 1.1,2.78 0.3,0.84 1.6,4.01 1.7,4.44 0.1,0.34 0.2,0.76 0.2,1.11 0,1.64 -1.4,2.95 -3.3,2.95 -3.4,0 -5,-4.74 -5,-5.33 0,-0.45 0.4,-0.45 0.6,-0.45 0.4,0 0.5,0.17 0.6,0.56 0.9,3 2.4,4.25 3.7,4.25 0.6,0 0.9,-0.28 0.9,-1.22 0,-0.8 -0.2,-1.33 -1.1,-3.48 z"
           inkscape:connector-curvature="0"
           style="fill:#000080;stroke-width:0" /><path
           id="path2126"
           d="m 1262.3,346.75 v 0 h 0.1 v 0 l 0.1,0.01 h 0.1 0.1 v 0.01 h 0.1 l 0.1,0.01 v 0.01 l 0.1,0.01 v 0.01 l 0.1,0.01 v 0.02 l 0.1,0.02 v 0.02 l 0.1,0.02 v 0.03 l 0.1,0.03 v 0.03 l 0.1,0.04 v 0.04 0.02 0.02 0.02 l 0.1,0.03 v 0.02 0.03 0.02 0.03 0.03 0.03 0.03 0.03 l 0.1,0.04 v 0.03 0.03 0.04 0.04 0.04 c 0,0.86 -0.8,0.86 -1.4,0.86 h -20.8 c -0.6,0 -1.4,0 -1.4,-0.83 0,-0.88 0.8,-0.88 1.4,-0.88 z"
           inkscape:connector-curvature="0"
           style="fill:#000080;stroke-width:0" /><path
           id="path2128"
           d="m 1279.1,361.04 v 0.04 0.04 0.04 0.04 0.04 0.04 0.04 0.03 0.03 0.04 0.03 0.03 0.03 0.03 0.02 0.03 0.03 0.02 0.05 0.04 l -0.1,0.04 v 0.03 0.03 0.03 0.02 l -0.1,0.03 v 0.02 0.01 l -0.1,0.02 v 0.01 l -0.1,0.01 v 0.01 0 0.01 h -0.1 v 0 0.01 0 h -0.1 v 0 0 l -0.1,0.01 v 0 0 h -0.1 v 0 h -0.1 v 0 0 h -0.1 v 0 c -2.3,-2.2 -5.4,-2.23 -6.9,-2.23 v -1.25 c 0.9,0 3.2,0 5.1,0.96 v -17.76 c 0,-1.16 0,-1.61 -3.5,-1.61 h -1.3 v -1.25 c 0.6,0.03 4.9,0.14 6.2,0.14 1.1,0 5.5,-0.11 6.2,-0.14 v 1.25 h -1.3 c -3.5,0 -3.5,0.45 -3.5,1.61 z"
           inkscape:connector-curvature="0"
           style="fill:#000080;stroke-width:0" /></g>    </g>
    <g
       transform="translate(-299.03848,225.68152)"
       id="g2386">
      <g
         style="font-style:normal;font-variant:normal;font-weight:normal;font-stretch:normal;letter-spacing:normal;word-spacing:normal;text-anchor:start;fill:none;fill-opacity:1;fill-rule:evenodd;stroke:#000000;stroke-linecap:butt;stroke-linejoin:miter;stroke-miterlimit:10.43299961;stroke-dasharray:none;stroke-dashoffset:0;stroke-opacity:1"
         id="g2384"
         transform="matrix(0.3,0,0,-0.3,-52.5,222.75)"
         xml:space="preserve"
         stroke-miterlimit="10.433"
         font-style="normal"
         font-variant="normal"
         font-weight="normal"
         font-stretch="normal"
         font-size-adjust="none"
         letter-spacing="normal"
         word-spacing="normal"><path
           style="fill:#000000;stroke-width:0"
           inkscape:connector-curvature="0"
           d="m 1229.8,340.36 v -0.15 -0.15 l -0.1,-0.14 v -0.13 -0.12 l -0.1,-0.12 v -0.11 -0.11 l -0.1,-0.1 v -0.09 l -0.1,-0.09 v -0.08 l -0.1,-0.07 v -0.07 l -0.1,-0.06 v -0.06 l -0.1,-0.06 -0.1,-0.05 v -0.04 l -0.1,-0.04 -0.1,-0.04 -0.1,-0.03 -0.1,-0.03 -0.2,-0.02 -0.1,-0.02 v -0.01 l -0.1,-0.01 -0.1,-0.01 h -0.1 v -0.01 l -0.1,-0.01 h -0.1 -0.1 l -0.1,-0.01 h -0.1 -0.1 v 0 h -0.1 -0.1 c -0.6,0 -1.2,0 -1.2,-0.94 0,-0.41 0.3,-0.61 0.7,-0.61 1.3,0 2.7,0.16 4.1,0.16 1.7,0 3.4,-0.16 5,-0.16 0.2,0 0.9,0 0.9,1 0,0.55 -0.5,0.55 -1.2,0.55 -2.5,0 -2.5,0.36 -2.5,0.79 0,0.61 2.1,8.72 2.4,9.97 0.7,-1.44 2.1,-3.19 4.6,-3.19 v 1.1 c -3.3,0 -4,4.14 -4,4.44 0,0.09 0,0.2 0.2,0.79 l 2.4,9.77 c 0.4,1.34 1.7,2.73 2.6,3.48 1.7,1.55 3.2,1.89 4,1.89 2,0 3.2,-1.73 3.2,-4.68 0,-2.94 -1.6,-8.66 -2.5,-10.57 -1.7,-3.48 -4.1,-5.12 -5.9,-5.12 v -1.1 c 5.8,0 12,7.27 12,14.6 0,4.69 -2.8,7.97 -6.6,7.97 -2.5,0 -4.9,-1.78 -6.5,-3.74 -0.5,2.69 -2.7,3.74 -4.5,3.74 -2.3,0 -3.3,-1.94 -3.7,-2.83 -0.9,-1.7 -1.5,-4.69 -1.5,-4.84 0,-0.5 0.5,-0.5 0.5,-0.5 0.5,0 0.6,0.06 0.9,1.15 0.8,3.53 1.8,5.92 3.6,5.92 0.9,0 1.6,-0.39 1.6,-2.28 0,-1.15 -0.2,-1.7 -0.4,-2.54 z"
           id="path2382" /></g>    </g>
    <g
       id="g998"
       transform="matrix(1.1341366,0,0,1.1341366,-258.40796,86.471765)"
       style="fill:#ff0000">
      <g
         word-spacing="normal"
         letter-spacing="normal"
         font-size-adjust="none"
         font-stretch="normal"
         font-weight="normal"
         font-variant="normal"
         font-style="normal"
         stroke-miterlimit="10.433"
         xml:space="preserve"
         transform="matrix(0.26030516,0,0,-0.26030516,-45.553402,315.24655)"
         id="content"
         style="font-style:normal;font-variant:normal;font-weight:normal;font-stretch:normal;letter-spacing:normal;word-spacing:normal;text-anchor:start;fill:#ff0000;fill-opacity:1;fill-rule:evenodd;stroke:#000000;stroke-linecap:butt;stroke-linejoin:miter;stroke-miterlimit:10.43299961;stroke-dasharray:none;stroke-dashoffset:0;stroke-opacity:1"><path
           id="path991"
           d="m 1239.6,358.21 v 0.36 0.35 0.35 0.34 l -0.1,0.66 -0.1,0.62 -0.1,0.6 -0.1,0.56 -0.2,0.54 -0.2,0.51 -0.2,0.49 -0.2,0.46 -0.2,0.43 -0.3,0.4 -0.2,0.38 -0.3,0.36 -0.3,0.33 -0.3,0.31 -0.3,0.29 -0.3,0.26 -0.3,0.24 -0.4,0.22 -0.3,0.2 -0.4,0.18 -0.3,0.16 -0.4,0.14 -0.3,0.13 -0.4,0.1 -0.3,0.09 -0.4,0.07 -0.4,0.05 -0.3,0.04 -0.4,0.02 -0.3,0.01 -0.1,-1.1 c 5,0 5,-6.53 5,-10.4 0,-1.85 0,-4.74 0.1,-5.58 v 0 c -4.4,-3.84 -8.3,-4.39 -10.2,-4.39 -3,0 -4.5,2.25 -4.5,5.44 0,2.43 1.3,7.81 2.9,10.36 2.3,3.64 5,4.57 6.7,4.57 l 0.1,1.1 c -6.8,0 -13.4,-7.13 -13.4,-14.14 0,-4.64 3,-8.43 8,-8.43 3.2,0 6.8,1.15 10.6,4.19 0.6,-2.64 2.3,-4.19 4.5,-4.19 2.6,0 4.2,2.74 4.2,3.54 0,0.36 -0.3,0.5 -0.6,0.5 -0.4,0 -0.5,-0.14 -0.7,-0.5 -0.9,-2.44 -2.7,-2.44 -2.7,-2.44 -1.6,0 -1.6,3.89 -1.6,5.08 0,1.04 0,1.15 0.5,1.75 4.7,5.87 5.7,11.65 5.7,11.7 0,0.11 0,0.5 -0.6,0.5 -0.5,0 -0.5,-0.14 -0.7,-1.05 -0.9,-3.14 -2.6,-6.92 -4.9,-9.86 z"
           inkscape:connector-curvature="0"
           style="fill:#ff0000;stroke-width:0" /><path
           id="path993"
           d="m 1259.1,360.66 v 0.05 0.06 l -0.1,0.05 v 0.05 0.06 0.06 0.05 0.06 0.05 l -0.1,0.06 v 0.06 0.05 l -0.1,0.05 v 0.06 0.05 l -0.1,0.05 v 0.05 l -0.1,0.04 v 0.05 l -0.1,0.04 v 0.04 l -0.1,0.04 v 0.04 l -0.1,0.03 -0.1,0.03 -0.1,0.02 v 0.02 l -0.1,0.02 -0.1,0.02 -0.1,0.01 -0.1,0.01 v 0 c -1,0 -2,-0.91 -2,-1.92 0,-0.6 0.5,-1.33 1.4,-1.33 1,0 2,0.98 2,1.92 z"
           inkscape:connector-curvature="0"
           style="fill:#ff0000;stroke-width:0" /><path
           id="path995"
           d="m 1251.9,342.96 v -0.17 l -0.1,-0.17 v -0.08 -0.09 -0.09 l -0.1,-0.08 v -0.09 -0.1 -0.09 -0.1 -0.09 -0.06 l -0.1,-0.05 v -0.05 -0.05 -0.06 -0.05 c 0,-1.64 1.4,-2.95 3.3,-2.95 3.5,0 5.1,4.79 5.1,5.32 0,0.46 -0.5,0.46 -0.6,0.46 -0.5,0 -0.5,-0.21 -0.7,-0.6 -0.8,-2.78 -2.3,-4.22 -3.7,-4.22 -0.7,0 -0.8,0.46 -0.8,1.22 0,0.8 0.2,1.47 0.5,2.24 0.4,0.93 0.8,1.87 1.1,2.78 0.4,0.84 1.6,4.01 1.8,4.44 0.1,0.34 0.2,0.76 0.2,1.11 0,1.64 -1.4,2.95 -3.4,2.95 -3.4,0 -5,-4.74 -5,-5.33 0,-0.45 0.5,-0.45 0.6,-0.45 0.5,0 0.5,0.17 0.6,0.56 0.9,3 2.5,4.25 3.7,4.25 0.6,0 0.9,-0.28 0.9,-1.22 0,-0.8 -0.2,-1.33 -1.1,-3.48 z"
           inkscape:connector-curvature="0"
           style="fill:#ff0000;stroke-width:0" /></g>    </g>
  </g>
</svg>
