<?xml version="1.0" encoding="UTF-8" standalone="no"?>
<!-- Created with Inkscape (http://www.inkscape.org/) -->

<svg
   xmlns:dc="http://purl.org/dc/elements/1.1/"
   xmlns:cc="http://creativecommons.org/ns#"
   xmlns:rdf="http://www.w3.org/1999/02/22-rdf-syntax-ns#"
   xmlns:svg="http://www.w3.org/2000/svg"
   xmlns="http://www.w3.org/2000/svg"
   xmlns:sodipodi="http://sodipodi.sourceforge.net/DTD/sodipodi-0.dtd"
   xmlns:inkscape="http://www.inkscape.org/namespaces/inkscape"
   width="126.83045mm"
   height="125.4677mm"
   viewBox="0 0 126.83045 125.4677"
   version="1.1"
   id="svg8"
   sodipodi:docname="example_matrix.svg"
   inkscape:version="0.92.3 (2405546, 2018-03-11)">
  <sodipodi:namedview
     id="base"
     pagecolor="#ffffff"
     bordercolor="#666666"
     borderopacity="1.0"
     inkscape:pageopacity="0.0"
     inkscape:pageshadow="2"
     inkscape:zoom="0.98994949"
     inkscape:cx="256.14046"
     inkscape:cy="283.53722"
     inkscape:document-units="mm"
     inkscape:current-layer="layer1"
     showgrid="false"
     inkscape:window-width="1302"
     inkscape:window-height="900"
     inkscape:window-x="91"
     inkscape:window-y="44"
     inkscape:window-maximized="0"
     fit-margin-top="0"
     fit-margin-left="0"
     fit-margin-right="0"
     fit-margin-bottom="0" />
  <defs
     id="defs2">
    <marker
       inkscape:stockid="TriangleOutM"
       orient="auto"
       refY="0"
       refX="0"
       id="TriangleOutM"
       style="overflow:visible"
       inkscape:isstock="true">
      <path
         id="path1372"
         d="M 5.77,0 -2.88,5 V -5 Z"
         style="fill:#0000ff;fill-opacity:1;fill-rule:evenodd;stroke:#0000ff;stroke-width:1.00000003pt;stroke-opacity:1"
         transform="scale(0.4)"
         inkscape:connector-curvature="0" />
    </marker>
    <marker
       inkscape:stockid="TriangleOutM"
       orient="auto"
       refY="0"
       refX="0"
       id="TriangleOutM-9"
       style="overflow:visible"
       inkscape:isstock="true">
      <path
         inkscape:connector-curvature="0"
         id="path1372-1"
         d="M 5.77,0 -2.88,5 V -5 Z"
         style="fill:#0000ff;fill-opacity:1;fill-rule:evenodd;stroke:#0000ff;stroke-width:1.00000003pt;stroke-opacity:1"
         transform="scale(0.4)" />
    </marker>
  </defs>
  <metadata
     id="metadata5">
    <rdf:RDF>
      <cc:Work
         rdf:about="">
        <dc:format>image/svg+xml</dc:format>
        <dc:type
           rdf:resource="http://purl.org/dc/dcmitype/StillImage" />
        <dc:title />
      </cc:Work>
    </rdf:RDF>
  </metadata>
  <g
     inkscape:label="Layer 1"
     inkscape:groupmode="layer"
     id="layer1"
     transform="translate(-15.228678,-4.0163198)">
    <path
       style="fill:#f2f2f2;stroke:#000000;stroke-width:1;stroke-linecap:butt;stroke-linejoin:miter;stroke-miterlimit:4;stroke-dasharray:none;stroke-opacity:1"
       d="M 28.72619,69.458332 55.562497,24.479165 122.65327,17.108631 120.95238,66.623512 92.415173,113.11459 69.35863,68.891367 Z"
       id="path856"
       inkscape:connector-curvature="0"
       sodipodi:nodetypes="ccccccc" />
    <path
       style="fill:none;stroke:#000000;stroke-width:1;stroke-linecap:butt;stroke-linejoin:miter;stroke-miterlimit:4;stroke-dasharray:none;stroke-opacity:1"
       d="M 28.72619,69.458332 69.35863,68.891367 55.562497,24.479165"
       id="path858"
       inkscape:connector-curvature="0"
       sodipodi:nodetypes="ccc" />
    <circle
       style="opacity:1;fill:#e6e6e6;fill-opacity:1;stroke:#000000;stroke-width:1;stroke-miterlimit:4;stroke-dasharray:none;stroke-dashoffset:0"
       id="path815-5"
       cx="28.537199"
       cy="69.458336"
       r="3.2072344" />
    <path
       style="fill:none;stroke:#000000;stroke-width:1;stroke-linecap:butt;stroke-linejoin:miter;stroke-miterlimit:4;stroke-dasharray:none;stroke-opacity:1"
       d="m 69.35863,68.891367 51.59375,-2.456843"
       id="path860"
       inkscape:connector-curvature="0"
       sodipodi:nodetypes="cc" />
    <circle
       style="opacity:1;fill:#e6e6e6;fill-opacity:1;stroke:#000000;stroke-width:1;stroke-miterlimit:4;stroke-dasharray:none;stroke-dashoffset:0"
       id="path815-35"
       cx="122.65325"
       cy="16.541664"
       r="3.2072344" />
    <circle
       style="opacity:1;fill:#e6e6e6;fill-opacity:1;stroke:#000000;stroke-width:1;stroke-miterlimit:4;stroke-dasharray:none;stroke-dashoffset:0"
       id="path815"
       cx="69.357124"
       cy="68.759689"
       r="3.2072344" />
    <g
       id="g882"
       transform="matrix(1.1533089,0,0,1.1533089,-290.10593,-76.356373)">
      <g
         id="content"
         transform="matrix(0.3,0,0,-0.3,-52.5,222.75)"
         xml:space="preserve"
         stroke-miterlimit="10.433"
         font-style="normal"
         font-variant="normal"
         font-weight="normal"
         font-stretch="normal"
         font-size-adjust="none"
         letter-spacing="normal"
         word-spacing="normal"
         style="font-style:normal;font-variant:normal;font-weight:normal;font-stretch:normal;letter-spacing:normal;word-spacing:normal;text-anchor:start;fill:none;fill-opacity:1;fill-rule:evenodd;stroke:#000000;stroke-linecap:butt;stroke-linejoin:miter;stroke-miterlimit:10.43299961;stroke-dasharray:none;stroke-dashoffset:0;stroke-opacity:1"><path
           d="m 1218.7,340.36 -0.1,-0.15 v -0.15 -0.14 l -0.1,-0.13 v -0.12 -0.12 l -0.1,-0.11 v -0.11 -0.1 l -0.1,-0.09 v -0.09 l -0.1,-0.08 v -0.07 l -0.1,-0.07 v -0.06 l -0.1,-0.06 -0.1,-0.06 v -0.05 l -0.1,-0.04 -0.1,-0.04 -0.1,-0.04 -0.1,-0.03 -0.1,-0.03 -0.1,-0.02 -0.1,-0.02 -0.1,-0.01 -0.1,-0.01 v -0.01 h -0.1 l -0.1,-0.01 -0.1,-0.01 h -0.1 v 0 l -0.1,-0.01 h -0.1 -0.1 -0.1 -0.1 -0.1 c -0.6,0 -1.2,0 -1.2,-0.94 0,-0.41 0.3,-0.61 0.7,-0.61 1.3,0 2.8,0.16 4.2,0.16 1.6,0 3.3,-0.16 4.9,-0.16 0.3,0 0.9,0 0.9,1 0,0.55 -0.5,0.55 -1.2,0.55 -2.5,0 -2.5,0.36 -2.5,0.79 0,0.61 2.1,8.72 2.5,9.97 0.6,-1.44 2,-3.19 4.5,-3.19 v 1.1 c -3.3,0 -3.9,4.14 -3.9,4.44 0,0.09 0,0.2 0.1,0.79 l 2.5,9.77 c 0.3,1.34 1.6,2.73 2.5,3.48 1.8,1.55 3.2,1.89 4.1,1.89 2,0 3.2,-1.73 3.2,-4.68 0,-2.94 -1.7,-8.66 -2.6,-10.57 -1.7,-3.48 -4.1,-5.12 -5.9,-5.12 v -1.1 c 5.8,0 12,7.27 12,14.6 0,4.69 -2.8,7.97 -6.6,7.97 -2.5,0 -4.9,-1.78 -6.5,-3.74 -0.5,2.69 -2.6,3.74 -4.5,3.74 -2.3,0 -3.2,-1.94 -3.7,-2.83 -0.9,-1.7 -1.5,-4.69 -1.5,-4.84 0,-0.5 0.5,-0.5 0.6,-0.5 0.5,0 0.5,0.06 0.8,1.15 0.9,3.53 1.9,5.92 3.7,5.92 0.8,0 1.5,-0.39 1.5,-2.28 0,-1.15 -0.1,-1.7 -0.3,-2.54 z"
           id="path877"
           inkscape:connector-curvature="0"
           style="fill:#000000;stroke-width:0" /><path
           d="m 1259.5,349.99 v 0.71 0.68 l -0.1,0.66 v 0.64 l -0.1,0.62 v 0.59 l -0.1,0.58 -0.1,0.56 -0.2,0.55 -0.1,0.52 -0.2,0.52 -0.2,0.5 -0.2,0.49 -0.2,0.48 -0.3,0.47 -0.1,0.23 -0.2,0.23 c -1,1.61 -3.2,3 -6,3 -8.1,0 -8.1,-9.52 -8.1,-12.03 0,-2.5 0,-11.81 8.1,-11.81 v 0.98 c -1.6,0 -3.7,0.94 -4.4,3.8 -0.5,2.04 -0.5,4.9 -0.5,7.48 0,2.55 0,5.2 0.5,7.11 0.8,2.75 3,3.49 4.4,3.49 1.9,0 3.7,-1.15 4.3,-3.18 0.6,-1.87 0.6,-4.39 0.6,-7.42 0,-2.58 0,-5.15 -0.4,-7.34 -0.7,-3.17 -3.1,-3.94 -4.5,-3.94 v 0 -0.98 c 8.1,0 8.1,9.31 8.1,11.81 z"
           id="path879"
           inkscape:connector-curvature="0"
           style="fill:#000000;stroke-width:0" /></g>    </g>
    <g
       id="g926"
       transform="matrix(1.1533089,0,0,1.1533089,-263.45861,-18.337028)">
      <g
         word-spacing="normal"
         letter-spacing="normal"
         font-size-adjust="none"
         font-stretch="normal"
         font-weight="normal"
         font-variant="normal"
         font-style="normal"
         stroke-miterlimit="10.433"
         xml:space="preserve"
         transform="matrix(0.3,0,0,-0.3,-52.5,222.75)"
         id="g924"
         style="font-style:normal;font-variant:normal;font-weight:normal;font-stretch:normal;letter-spacing:normal;word-spacing:normal;text-anchor:start;fill:none;fill-opacity:1;fill-rule:evenodd;stroke:#000000;stroke-linecap:butt;stroke-linejoin:miter;stroke-miterlimit:10.43299961;stroke-dasharray:none;stroke-dashoffset:0;stroke-opacity:1"><path
           id="path920"
           d="m 1218.7,340.36 -0.1,-0.15 v -0.15 -0.14 l -0.1,-0.13 v -0.12 -0.12 l -0.1,-0.11 v -0.11 -0.1 l -0.1,-0.09 v -0.09 l -0.1,-0.08 v -0.07 l -0.1,-0.07 v -0.06 l -0.1,-0.06 -0.1,-0.06 v -0.05 l -0.1,-0.04 -0.1,-0.04 -0.1,-0.04 -0.1,-0.03 -0.1,-0.03 -0.1,-0.02 -0.1,-0.02 -0.1,-0.01 -0.1,-0.01 v -0.01 h -0.1 l -0.1,-0.01 -0.1,-0.01 h -0.1 v 0 l -0.1,-0.01 h -0.1 -0.1 -0.1 -0.1 -0.1 c -0.6,0 -1.2,0 -1.2,-0.94 0,-0.41 0.3,-0.61 0.7,-0.61 1.3,0 2.8,0.16 4.2,0.16 1.6,0 3.3,-0.16 4.9,-0.16 0.3,0 0.9,0 0.9,1 0,0.55 -0.5,0.55 -1.2,0.55 -2.5,0 -2.5,0.36 -2.5,0.79 0,0.61 2.1,8.72 2.5,9.97 0.6,-1.44 2,-3.19 4.5,-3.19 v 1.1 c -3.3,0 -3.9,4.14 -3.9,4.44 0,0.09 0,0.2 0.1,0.79 l 2.5,9.77 c 0.3,1.34 1.6,2.73 2.5,3.48 1.8,1.55 3.2,1.89 4.1,1.89 2,0 3.2,-1.73 3.2,-4.68 0,-2.94 -1.7,-8.66 -2.6,-10.57 -1.7,-3.48 -4.1,-5.12 -5.9,-5.12 v -1.1 c 5.8,0 12,7.27 12,14.6 0,4.69 -2.8,7.97 -6.6,7.97 -2.5,0 -4.9,-1.78 -6.5,-3.74 -0.5,2.69 -2.6,3.74 -4.5,3.74 -2.3,0 -3.2,-1.94 -3.7,-2.83 -0.9,-1.7 -1.5,-4.69 -1.5,-4.84 0,-0.5 0.5,-0.5 0.6,-0.5 0.5,0 0.5,0.06 0.8,1.15 0.9,3.53 1.9,5.92 3.7,5.92 0.8,0 1.5,-0.39 1.5,-2.28 0,-1.15 -0.1,-1.7 -0.3,-2.54 z"
           inkscape:connector-curvature="0"
           style="fill:#000000;stroke-width:0" /><path
           id="path922"
           d="m 1253.2,361.04 v 0.04 0.04 0.04 0.04 0.04 0.04 0.04 0.03 0.03 0.04 0.03 0.03 0.03 0.03 0.02 0.03 0.03 0.02 l -0.1,0.05 v 0.04 0.04 0.03 0.03 0.03 l -0.1,0.02 v 0.03 0.02 l -0.1,0.01 v 0.02 0.01 l -0.1,0.01 v 0.01 0 l -0.1,0.01 v 0 0 0.01 h -0.1 v 0 0 h -0.1 v 0.01 0 h -0.1 v 0 0 h -0.1 v 0 h -0.1 v 0 h -0.1 c -2.2,-2.2 -5.3,-2.23 -6.8,-2.23 v -1.25 c 0.9,0 3.2,0 5.1,0.96 v -17.76 c 0,-1.16 0,-1.61 -3.5,-1.61 h -1.3 v -1.25 c 0.6,0.03 4.9,0.14 6.2,0.14 1,0 5.4,-0.11 6.2,-0.14 v 1.25 h -1.3 c -3.5,0 -3.5,0.45 -3.5,1.61 z"
           inkscape:connector-curvature="0"
           style="fill:#000000;stroke-width:0" /></g>    </g>
    <g
       id="g978"
       transform="matrix(1.1533089,0,0,1.1533089,-344.5345,-55.189707)">
      <g
         id="g976"
         transform="matrix(0.3,0,0,-0.3,-52.5,222.75)"
         xml:space="preserve"
         stroke-miterlimit="10.433"
         font-style="normal"
         font-variant="normal"
         font-weight="normal"
         font-stretch="normal"
         font-size-adjust="none"
         letter-spacing="normal"
         word-spacing="normal"
         style="font-style:normal;font-variant:normal;font-weight:normal;font-stretch:normal;letter-spacing:normal;word-spacing:normal;text-anchor:start;fill:none;fill-opacity:1;fill-rule:evenodd;stroke:#000000;stroke-linecap:butt;stroke-linejoin:miter;stroke-miterlimit:10.43299961;stroke-dasharray:none;stroke-dashoffset:0;stroke-opacity:1"><path
           d="m 1218.7,340.36 -0.1,-0.15 v -0.15 -0.14 l -0.1,-0.13 v -0.12 -0.12 l -0.1,-0.11 v -0.11 -0.1 l -0.1,-0.09 v -0.09 l -0.1,-0.08 v -0.07 l -0.1,-0.07 v -0.06 l -0.1,-0.06 -0.1,-0.06 v -0.05 l -0.1,-0.04 -0.1,-0.04 -0.1,-0.04 -0.1,-0.03 -0.1,-0.03 -0.1,-0.02 -0.1,-0.02 -0.1,-0.01 -0.1,-0.01 v -0.01 h -0.1 l -0.1,-0.01 -0.1,-0.01 h -0.1 v 0 l -0.1,-0.01 h -0.1 -0.1 -0.1 -0.1 -0.1 c -0.6,0 -1.2,0 -1.2,-0.94 0,-0.41 0.3,-0.61 0.7,-0.61 1.3,0 2.8,0.16 4.2,0.16 1.6,0 3.3,-0.16 4.9,-0.16 0.3,0 0.9,0 0.9,1 0,0.55 -0.5,0.55 -1.2,0.55 -2.5,0 -2.5,0.36 -2.5,0.79 0,0.61 2.1,8.72 2.5,9.97 0.6,-1.44 2,-3.19 4.5,-3.19 v 1.1 c -3.3,0 -3.9,4.14 -3.9,4.44 0,0.09 0,0.2 0.1,0.79 l 2.5,9.77 c 0.3,1.34 1.6,2.73 2.5,3.48 1.8,1.55 3.2,1.89 4.1,1.89 2,0 3.2,-1.73 3.2,-4.68 0,-2.94 -1.7,-8.66 -2.6,-10.57 -1.7,-3.48 -4.1,-5.12 -5.9,-5.12 v -1.1 c 5.8,0 12,7.27 12,14.6 0,4.69 -2.8,7.97 -6.6,7.97 -2.5,0 -4.9,-1.78 -6.5,-3.74 -0.5,2.69 -2.6,3.74 -4.5,3.74 -2.3,0 -3.2,-1.94 -3.7,-2.83 -0.9,-1.7 -1.5,-4.69 -1.5,-4.84 0,-0.5 0.5,-0.5 0.6,-0.5 0.5,0 0.5,0.06 0.8,1.15 0.9,3.53 1.9,5.92 3.7,5.92 0.8,0 1.5,-0.39 1.5,-2.28 0,-1.15 -0.1,-1.7 -0.3,-2.54 z"
           id="path972"
           inkscape:connector-curvature="0"
           style="fill:#000000;stroke-width:0" /><path
           d="m 1259.1,345.22 h -1.2 c -0.1,-0.76 -0.4,-2.83 -0.9,-3.17 -0.2,-0.2 -2.9,-0.2 -3.4,-0.2 h -6.4 c 3.6,3.23 4.8,4.2 6.9,5.84 2.6,2.06 5,4.22 5,7.53 0,4.22 -3.7,6.8 -8.1,6.8 -4.4,0 -7.3,-3.03 -7.3,-6.23 0,-1.79 1.5,-1.96 1.9,-1.96 0.8,0 1.8,0.6 1.8,1.85 0,0.62 -0.2,1.84 -2.1,1.84 1.1,2.47 3.5,3.23 5.1,3.23 3.5,0 5.3,-2.7 5.3,-5.53 0,-3.03 -2.1,-5.43 -3.2,-6.68 l -8.4,-8.3 c -0.4,-0.31 -0.4,-0.39 -0.4,-1.36 h 14.4 z"
           id="path974"
           inkscape:connector-curvature="0"
           style="fill:#000000;stroke-width:0" /></g>    </g>
    <g
       id="g1038"
       transform="matrix(1.1533089,0,0,1.1533089,-237.56724,-57.83554)">
      <g
         word-spacing="normal"
         letter-spacing="normal"
         font-size-adjust="none"
         font-stretch="normal"
         font-weight="normal"
         font-variant="normal"
         font-style="normal"
         stroke-miterlimit="10.433"
         xml:space="preserve"
         transform="matrix(0.3,0,0,-0.3,-52.5,222.75)"
         id="g1036"
         style="font-style:normal;font-variant:normal;font-weight:normal;font-stretch:normal;letter-spacing:normal;word-spacing:normal;text-anchor:start;fill:none;fill-opacity:1;fill-rule:evenodd;stroke:#000000;stroke-linecap:butt;stroke-linejoin:miter;stroke-miterlimit:10.43299961;stroke-dasharray:none;stroke-dashoffset:0;stroke-opacity:1"><path
           id="path1032"
           d="m 1218.7,340.36 -0.1,-0.15 v -0.15 -0.14 l -0.1,-0.13 v -0.12 -0.12 l -0.1,-0.11 v -0.11 -0.1 l -0.1,-0.09 v -0.09 l -0.1,-0.08 v -0.07 l -0.1,-0.07 v -0.06 l -0.1,-0.06 -0.1,-0.06 v -0.05 l -0.1,-0.04 -0.1,-0.04 -0.1,-0.04 -0.1,-0.03 -0.1,-0.03 -0.1,-0.02 -0.1,-0.02 -0.1,-0.01 -0.1,-0.01 v -0.01 h -0.1 l -0.1,-0.01 -0.1,-0.01 h -0.1 v 0 l -0.1,-0.01 h -0.1 -0.1 -0.1 -0.1 -0.1 c -0.6,0 -1.2,0 -1.2,-0.94 0,-0.41 0.3,-0.61 0.7,-0.61 1.3,0 2.8,0.16 4.2,0.16 1.6,0 3.3,-0.16 4.9,-0.16 0.3,0 0.9,0 0.9,1 0,0.55 -0.5,0.55 -1.2,0.55 -2.5,0 -2.5,0.36 -2.5,0.79 0,0.61 2.1,8.72 2.5,9.97 0.6,-1.44 2,-3.19 4.5,-3.19 v 1.1 c -3.3,0 -3.9,4.14 -3.9,4.44 0,0.09 0,0.2 0.1,0.79 l 2.5,9.77 c 0.3,1.34 1.6,2.73 2.5,3.48 1.8,1.55 3.2,1.89 4.1,1.89 2,0 3.2,-1.73 3.2,-4.68 0,-2.94 -1.7,-8.66 -2.6,-10.57 -1.7,-3.48 -4.1,-5.12 -5.9,-5.12 v -1.1 c 5.8,0 12,7.27 12,14.6 0,4.69 -2.8,7.97 -6.6,7.97 -2.5,0 -4.9,-1.78 -6.5,-3.74 -0.5,2.69 -2.6,3.74 -4.5,3.74 -2.3,0 -3.2,-1.94 -3.7,-2.83 -0.9,-1.7 -1.5,-4.69 -1.5,-4.84 0,-0.5 0.5,-0.5 0.6,-0.5 0.5,0 0.5,0.06 0.8,1.15 0.9,3.53 1.9,5.92 3.7,5.92 0.8,0 1.5,-0.39 1.5,-2.28 0,-1.15 -0.1,-1.7 -0.3,-2.54 z"
           inkscape:connector-curvature="0"
           style="fill:#000000;stroke-width:0" /><path
           id="path1034"
           d="m 1251,350.52 0.3,-0.01 0.2,-0.01 0.3,-0.03 0.2,-0.04 0.3,-0.05 0.2,-0.06 0.2,-0.07 0.2,-0.08 0.2,-0.1 0.2,-0.1 0.2,-0.12 0.2,-0.12 0.2,-0.14 0.2,-0.15 0.1,-0.16 0.2,-0.17 0.1,-0.18 0.2,-0.19 0.1,-0.21 0.1,-0.21 0.2,-0.23 0.1,-0.23 0.1,-0.25 0.1,-0.25 v -0.27 l 0.1,-0.28 0.1,-0.29 v -0.3 l 0.1,-0.31 v -0.32 -0.34 -0.34 c 0,-4.33 -2.5,-5.61 -4.5,-5.61 -1.4,0 -4.5,0.38 -6,2.44 1.7,0.06 2.1,1.22 2.1,1.95 0,1.11 -0.9,1.91 -2,1.91 -0.9,0 -1.9,-0.6 -1.9,-2.02 0,-3.28 3.6,-5.4 7.8,-5.4 4.9,0 8.2,3.25 8.2,6.73 0,2.72 -2.2,5.44 -6,6.23 3.6,1.33 4.9,3.94 4.9,6.07 0,2.75 -3.1,4.81 -7,4.81 -3.9,0 -6.8,-1.89 -6.8,-4.67 0,-1.19 0.7,-1.85 1.8,-1.85 1.1,0 1.8,0.8 1.8,1.77 0,1.02 -0.7,1.75 -1.8,1.81 1.2,1.55 3.6,1.92 4.9,1.92 1.6,0 3.8,-0.76 3.8,-3.79 0,-1.47 -0.5,-3.07 -1.4,-4.14 -1.2,-1.33 -2.1,-1.41 -3.9,-1.5 -0.9,-0.08 -0.9,-0.08 -1.1,-0.11 -0.1,0 -0.4,-0.07 -0.4,-0.46 0,-0.48 0.4,-0.48 0.9,-0.48 z"
           inkscape:connector-curvature="0"
           style="fill:#000000;stroke-width:0" /></g>    </g>
    <g
       id="g1106"
       transform="matrix(1.1533089,0,0,1.1533089,-302.01218,-119.63465)">
      <g
         id="g1104"
         transform="matrix(0.3,0,0,-0.3,-52.5,222.75)"
         xml:space="preserve"
         stroke-miterlimit="10.433"
         font-style="normal"
         font-variant="normal"
         font-weight="normal"
         font-stretch="normal"
         font-size-adjust="none"
         letter-spacing="normal"
         word-spacing="normal"
         style="font-style:normal;font-variant:normal;font-weight:normal;font-stretch:normal;letter-spacing:normal;word-spacing:normal;text-anchor:start;fill:none;fill-opacity:1;fill-rule:evenodd;stroke:#000000;stroke-linecap:butt;stroke-linejoin:miter;stroke-miterlimit:10.43299961;stroke-dasharray:none;stroke-dashoffset:0;stroke-opacity:1"><path
           d="m 1218.7,340.36 -0.1,-0.15 v -0.15 -0.14 l -0.1,-0.13 v -0.12 -0.12 l -0.1,-0.11 v -0.11 -0.1 l -0.1,-0.09 v -0.09 l -0.1,-0.08 v -0.07 l -0.1,-0.07 v -0.06 l -0.1,-0.06 -0.1,-0.06 v -0.05 l -0.1,-0.04 -0.1,-0.04 -0.1,-0.04 -0.1,-0.03 -0.1,-0.03 -0.1,-0.02 -0.1,-0.02 -0.1,-0.01 -0.1,-0.01 v -0.01 h -0.1 l -0.1,-0.01 -0.1,-0.01 h -0.1 v 0 l -0.1,-0.01 h -0.1 -0.1 -0.1 -0.1 -0.1 c -0.6,0 -1.2,0 -1.2,-0.94 0,-0.41 0.3,-0.61 0.7,-0.61 1.3,0 2.8,0.16 4.2,0.16 1.6,0 3.3,-0.16 4.9,-0.16 0.3,0 0.9,0 0.9,1 0,0.55 -0.5,0.55 -1.2,0.55 -2.5,0 -2.5,0.36 -2.5,0.79 0,0.61 2.1,8.72 2.5,9.97 0.6,-1.44 2,-3.19 4.5,-3.19 v 1.1 c -3.3,0 -3.9,4.14 -3.9,4.44 0,0.09 0,0.2 0.1,0.79 l 2.5,9.77 c 0.3,1.34 1.6,2.73 2.5,3.48 1.8,1.55 3.2,1.89 4.1,1.89 2,0 3.2,-1.73 3.2,-4.68 0,-2.94 -1.7,-8.66 -2.6,-10.57 -1.7,-3.48 -4.1,-5.12 -5.9,-5.12 v -1.1 c 5.8,0 12,7.27 12,14.6 0,4.69 -2.8,7.97 -6.6,7.97 -2.5,0 -4.9,-1.78 -6.5,-3.74 -0.5,2.69 -2.6,3.74 -4.5,3.74 -2.3,0 -3.2,-1.94 -3.7,-2.83 -0.9,-1.7 -1.5,-4.69 -1.5,-4.84 0,-0.5 0.5,-0.5 0.6,-0.5 0.5,0 0.5,0.06 0.8,1.15 0.9,3.53 1.9,5.92 3.7,5.92 0.8,0 1.5,-0.39 1.5,-2.28 0,-1.15 -0.1,-1.7 -0.3,-2.54 z"
           id="path1100"
           inkscape:connector-curvature="0"
           style="fill:#000000;stroke-width:0" /><path
           d="m 1260,344.6 v 1.25 h -3.9 v 15.54 c 0,0.72 0,0.97 -0.8,0.97 -0.4,0 -0.5,0 -0.9,-0.48 l -11.5,-16.03 v -1.25 h 10.2 l 0.3,1.25 h -9.2 l 9.2,12.75 v -12.75 l -0.3,-1.25 v -2.86 c 0,-1.19 0,-1.61 -2.8,-1.61 h -0.9 v -1.25 c 1.7,0.06 3.9,0.14 5.2,0.14 1.3,0 3.5,-0.08 5.2,-0.14 v 1.25 h -0.9 c -2.8,0 -2.8,0.42 -2.8,1.61 v 2.86 z"
           id="path1102"
           inkscape:connector-curvature="0"
           style="fill:#000000;stroke-width:0" /></g>    </g>
    <g
       id="g1182"
       transform="matrix(1.1533089,0,0,1.1533089,-233.03152,-109.61828)">
      <g
         word-spacing="normal"
         letter-spacing="normal"
         font-size-adjust="none"
         font-stretch="normal"
         font-weight="normal"
         font-variant="normal"
         font-style="normal"
         stroke-miterlimit="10.433"
         xml:space="preserve"
         transform="matrix(0.3,0,0,-0.3,-52.5,222.75)"
         id="g1180"
         style="font-style:normal;font-variant:normal;font-weight:normal;font-stretch:normal;letter-spacing:normal;word-spacing:normal;text-anchor:start;fill:none;fill-opacity:1;fill-rule:evenodd;stroke:#000000;stroke-linecap:butt;stroke-linejoin:miter;stroke-miterlimit:10.43299961;stroke-dasharray:none;stroke-dashoffset:0;stroke-opacity:1"><path
           id="path1176"
           d="m 1218.7,340.36 -0.1,-0.15 v -0.15 -0.14 l -0.1,-0.13 v -0.12 -0.12 l -0.1,-0.11 v -0.11 -0.1 l -0.1,-0.09 v -0.09 l -0.1,-0.08 v -0.07 l -0.1,-0.07 v -0.06 l -0.1,-0.06 -0.1,-0.06 v -0.05 l -0.1,-0.04 -0.1,-0.04 -0.1,-0.04 -0.1,-0.03 -0.1,-0.03 -0.1,-0.02 -0.1,-0.02 -0.1,-0.01 -0.1,-0.01 v -0.01 h -0.1 l -0.1,-0.01 -0.1,-0.01 h -0.1 v 0 l -0.1,-0.01 h -0.1 -0.1 -0.1 -0.1 -0.1 c -0.6,0 -1.2,0 -1.2,-0.94 0,-0.41 0.3,-0.61 0.7,-0.61 1.3,0 2.8,0.16 4.2,0.16 1.6,0 3.3,-0.16 4.9,-0.16 0.3,0 0.9,0 0.9,1 0,0.55 -0.5,0.55 -1.2,0.55 -2.5,0 -2.5,0.36 -2.5,0.79 0,0.61 2.1,8.72 2.5,9.97 0.6,-1.44 2,-3.19 4.5,-3.19 v 1.1 c -3.3,0 -3.9,4.14 -3.9,4.44 0,0.09 0,0.2 0.1,0.79 l 2.5,9.77 c 0.3,1.34 1.6,2.73 2.5,3.48 1.8,1.55 3.2,1.89 4.1,1.89 2,0 3.2,-1.73 3.2,-4.68 0,-2.94 -1.7,-8.66 -2.6,-10.57 -1.7,-3.48 -4.1,-5.12 -5.9,-5.12 v -1.1 c 5.8,0 12,7.27 12,14.6 0,4.69 -2.8,7.97 -6.6,7.97 -2.5,0 -4.9,-1.78 -6.5,-3.74 -0.5,2.69 -2.6,3.74 -4.5,3.74 -2.3,0 -3.2,-1.94 -3.7,-2.83 -0.9,-1.7 -1.5,-4.69 -1.5,-4.84 0,-0.5 0.5,-0.5 0.6,-0.5 0.5,0 0.5,0.06 0.8,1.15 0.9,3.53 1.9,5.92 3.7,5.92 0.8,0 1.5,-0.39 1.5,-2.28 0,-1.15 -0.1,-1.7 -0.3,-2.54 z"
           inkscape:connector-curvature="0"
           style="fill:#000000;stroke-width:0" /><path
           id="path1178"
           d="m 1246.9,358.32 0.2,-0.05 0.2,-0.03 0.1,-0.04 0.2,-0.03 0.1,-0.03 0.1,-0.03 0.2,-0.03 0.1,-0.03 0.2,-0.02 0.1,-0.02 0.1,-0.02 0.1,-0.02 0.1,-0.01 0.2,-0.02 0.1,-0.01 0.1,-0.01 0.1,-0.01 0.1,-0.01 0.1,-0.01 h 0.1 v -0.01 h 0.1 l 0.1,-0.01 h 0.1 0.1 v 0 l 0.1,-0.01 h 0.1 v 0 h 0.1 v 0 h 0.1 c 4.6,0 7.3,3.14 7.3,3.68 0,0.37 -0.2,0.48 -0.4,0.48 -0.1,0 -0.1,0 -0.3,-0.11 -0.8,-0.31 -2.7,-1.02 -5.2,-1.02 -1,0 -2.9,0.08 -5.1,0.96 -0.4,0.17 -0.4,0.17 -0.5,0.17 -0.4,0 -0.4,-0.39 -0.4,-0.94 V 350.8 c 0,-0.59 0,-1.01 0.5,-1.01 0.3,0 0.4,0.06 0.7,0.48 1.5,1.92 3.7,2.2 4.9,2.2 2,0 3,-1.67 3.2,-1.95 0.6,-1.16 0.8,-2.47 0.8,-4.5 0,-1.05 0,-3.09 -1,-4.63 -0.9,-1.26 -2.4,-2.09 -4.1,-2.09 -2.3,0 -4.6,1.25 -5.5,3.55 1.3,-0.1 2,0.76 2,1.7 0,1.5 -1.3,1.78 -1.7,1.78 -0.1,0 -1.8,0 -1.8,-1.87 0,-3.14 2.9,-6.28 7.1,-6.28 4.4,0 8.3,3.31 8.3,7.7 0,3.94 -3,7.56 -7.3,7.56 -1.5,0 -3.3,-0.37 -4.9,-1.7 z"
           inkscape:connector-curvature="0"
           style="fill:#000000;stroke-width:0" /></g>    </g>
    <path
       style="fill:none;stroke:#000000;stroke-width:1;stroke-linecap:butt;stroke-linejoin:miter;stroke-miterlimit:4;stroke-dasharray:none;stroke-opacity:1"
       d="M 55.562497,24.479165 120.95238,66.434522"
       id="path1223"
       inkscape:connector-curvature="0" />
    <circle
       style="opacity:1;fill:#e6e6e6;fill-opacity:1;stroke:#000000;stroke-width:1;stroke-miterlimit:4;stroke-dasharray:none;stroke-dashoffset:0"
       id="path815-6"
       cx="121.14138"
       cy="66.623512"
       r="3.2072344" />
    <path
       style="fill:none;stroke:#0000ff;stroke-width:0.60000002;stroke-linecap:butt;stroke-linejoin:miter;stroke-miterlimit:4;stroke-dasharray:none;stroke-opacity:1;marker-end:url(#TriangleOutM)"
       d="M 55.562497,24.479165 39.120534,18.242551"
       id="path1225"
       inkscape:connector-curvature="0" />
    <circle
       style="opacity:1;fill:#00ffff;fill-opacity:1;stroke:#000000;stroke-width:1;stroke-miterlimit:4;stroke-dasharray:none;stroke-dashoffset:0"
       id="path815-3"
       cx="55.940479"
       cy="24.668148"
       r="3.2072344" />
    <circle
       style="opacity:1;fill:#ff0000;fill-opacity:1;stroke:#000000;stroke-width:1;stroke-miterlimit:4;stroke-dasharray:none;stroke-dashoffset:0"
       id="path815-62"
       cx="34.017853"
       cy="16.352682"
       r="3.2072344" />
    <g
       id="g1590"
       transform="translate(-295.10491,-108.19568)"
       style="fill:#ff0000">
      <g
         id="g1588"
         transform="matrix(0.3,0,0,-0.3,-52.5,222.75)"
         xml:space="preserve"
         stroke-miterlimit="10.433"
         font-style="normal"
         font-variant="normal"
         font-weight="normal"
         font-stretch="normal"
         font-size-adjust="none"
         letter-spacing="normal"
         word-spacing="normal"
         style="font-style:normal;font-variant:normal;font-weight:normal;font-stretch:normal;letter-spacing:normal;word-spacing:normal;text-anchor:start;fill:#ff0000;fill-opacity:1;fill-rule:evenodd;stroke:#000000;stroke-linecap:butt;stroke-linejoin:miter;stroke-miterlimit:10.43299961;stroke-dasharray:none;stroke-dashoffset:0;stroke-opacity:1"><path
           d="m 1237.9,365.38 h -0.2 -0.1 l -0.2,-0.01 h -0.1 l -0.2,-0.01 -0.1,-0.02 -0.1,-0.01 v -0.01 l -0.1,-0.01 -0.1,-0.02 v -0.02 l -0.1,-0.02 -0.1,-0.02 v -0.02 l -0.1,-0.03 -0.1,-0.03 -0.1,-0.03 v -0.04 l -0.1,-0.04 -0.1,-0.04 v -0.04 l -0.1,-0.05 -0.1,-0.05 v -0.06 l -0.1,-0.06 v -0.06 c -0.8,-0.75 -0.9,-1.6 -0.9,-1.94 0,-1.2 0.9,-1.75 1.8,-1.75 1.4,0 2.8,1.2 2.8,3.19 0,2.43 -2.3,4.28 -5.9,4.28 -6.7,0 -13.3,-7.13 -13.3,-14.14 0,-4.49 2.9,-8.43 8,-8.43 7.2,0 11.3,5.29 11.3,5.88 0,0.3 -0.3,0.66 -0.6,0.66 -0.2,0 -0.3,-0.11 -0.6,-0.5 -3.9,-4.94 -9.4,-4.94 -10,-4.94 -3.1,0 -4.4,2.44 -4.4,5.44 0,2.03 0.9,6.87 2.6,9.95 1.6,2.84 4.3,4.98 7.1,4.98 1.7,0 3.6,-0.64 4.3,-1.98 z"
           id="path1584"
           inkscape:connector-curvature="0"
           style="fill:#ff0000;stroke-width:0" /><path
           d="m 1258.2,344.6 v 1.25 h -3.9 v 15.54 c 0,0.72 0,0.97 -0.8,0.97 -0.4,0 -0.6,0 -0.9,-0.48 l -11.5,-16.03 v -1.25 h 10.2 l 0.3,1.25 h -9.2 l 9.2,12.75 v -12.75 l -0.3,-1.25 v -2.86 c 0,-1.19 0,-1.61 -2.8,-1.61 h -0.9 v -1.25 c 1.7,0.06 3.9,0.14 5.2,0.14 1.3,0 3.5,-0.08 5.3,-0.14 v 1.25 h -1 c -2.8,0 -2.8,0.42 -2.8,1.61 v 2.86 z"
           id="path1586"
           inkscape:connector-curvature="0"
           style="fill:#ff0000;stroke-width:0" /></g>    </g>
    <g
       id="g1692"
       transform="translate(-254.18899,7.9375)"
       style="fill:#ff0000">
      <g
         word-spacing="normal"
         letter-spacing="normal"
         font-size-adjust="none"
         font-stretch="normal"
         font-weight="normal"
         font-variant="normal"
         font-style="normal"
         stroke-miterlimit="10.433"
         xml:space="preserve"
         transform="matrix(0.3,0,0,-0.3,-52.5,222.75)"
         id="g1690"
         style="font-style:normal;font-variant:normal;font-weight:normal;font-stretch:normal;letter-spacing:normal;word-spacing:normal;text-anchor:start;fill:#ff0000;fill-opacity:1;fill-rule:evenodd;stroke:#000000;stroke-linecap:butt;stroke-linejoin:miter;stroke-miterlimit:10.43299961;stroke-dasharray:none;stroke-dashoffset:0;stroke-opacity:1"><path
           id="path1686"
           d="m 1237.9,365.38 h -0.2 -0.1 l -0.2,-0.01 h -0.1 l -0.2,-0.01 -0.1,-0.02 -0.1,-0.01 v -0.01 l -0.1,-0.01 -0.1,-0.02 v -0.02 l -0.1,-0.02 -0.1,-0.02 v -0.02 l -0.1,-0.03 -0.1,-0.03 -0.1,-0.03 v -0.04 l -0.1,-0.04 -0.1,-0.04 v -0.04 l -0.1,-0.05 -0.1,-0.05 v -0.06 l -0.1,-0.06 v -0.06 c -0.8,-0.75 -0.9,-1.6 -0.9,-1.94 0,-1.2 0.9,-1.75 1.8,-1.75 1.4,0 2.8,1.2 2.8,3.19 0,2.43 -2.3,4.28 -5.9,4.28 -6.7,0 -13.3,-7.13 -13.3,-14.14 0,-4.49 2.9,-8.43 8,-8.43 7.2,0 11.3,5.29 11.3,5.88 0,0.3 -0.3,0.66 -0.6,0.66 -0.2,0 -0.3,-0.11 -0.6,-0.5 -3.9,-4.94 -9.4,-4.94 -10,-4.94 -3.1,0 -4.4,2.44 -4.4,5.44 0,2.03 0.9,6.87 2.6,9.95 1.6,2.84 4.3,4.98 7.1,4.98 1.7,0 3.6,-0.64 4.3,-1.98 z"
           inkscape:connector-curvature="0"
           style="fill:#ff0000;stroke-width:0" /><path
           id="path1688"
           d="m 1251.4,361.04 v 0.04 0.04 0.04 0.04 0.04 0.04 0.04 0.03 0.03 0.04 0.03 0.03 0.03 0.03 0.02 0.03 0.03 0.02 l -0.1,0.05 v 0.04 0.04 0.03 0.03 0.03 l -0.1,0.02 v 0.03 0.02 l -0.1,0.01 v 0.02 0.01 l -0.1,0.01 v 0.01 0 l -0.1,0.01 v 0 0 0.01 h -0.1 v 0 0 h -0.1 v 0.01 0 h -0.1 v 0 0 h -0.1 v 0 h -0.1 v 0 h -0.1 c -2.2,-2.2 -5.4,-2.23 -6.8,-2.23 v -1.25 c 0.9,0 3.2,0 5.1,0.96 v -17.76 c 0,-1.16 0,-1.61 -3.5,-1.61 h -1.3 v -1.25 c 0.6,0.03 4.9,0.14 6.2,0.14 1.1,0 5.4,-0.11 6.2,-0.14 v 1.25 h -1.3 c -3.5,0 -3.5,0.45 -3.5,1.61 z"
           inkscape:connector-curvature="0"
           style="fill:#ff0000;stroke-width:0" /></g>    </g>
    <path
       style="fill:none;stroke:#0000ff;stroke-width:0.60000002;stroke-linecap:butt;stroke-linejoin:miter;stroke-miterlimit:4;stroke-dasharray:none;stroke-opacity:1;marker-end:url(#TriangleOutM-9)"
       d="m 92.415173,113.11459 -11.339288,8.88244"
       id="path1225-2"
       inkscape:connector-curvature="0"
       sodipodi:nodetypes="cc" />
    <circle
       style="opacity:1;fill:#00ffff;fill-opacity:1;stroke:#000000;stroke-width:1;stroke-miterlimit:4;stroke-dasharray:none;stroke-dashoffset:0"
       id="path815-7"
       cx="92.415184"
       cy="113.11459"
       r="3.2072344" />
    <circle
       style="opacity:1;fill:#ff0000;fill-opacity:1;stroke:#000000;stroke-width:1;stroke-miterlimit:4;stroke-dasharray:none;stroke-dashoffset:0"
       id="path815-62-7"
       cx="76.918159"
       cy="125.77679"
       r="3.2072344" />
  </g>
</svg>
