<?xml version="1.0" encoding="UTF-8" standalone="no"?>
<!-- Created with Inkscape (http://www.inkscape.org/) -->

<svg
   xmlns:dc="http://purl.org/dc/elements/1.1/"
   xmlns:cc="http://creativecommons.org/ns#"
   xmlns:rdf="http://www.w3.org/1999/02/22-rdf-syntax-ns#"
   xmlns:svg="http://www.w3.org/2000/svg"
   xmlns="http://www.w3.org/2000/svg"
   xmlns:sodipodi="http://sodipodi.sourceforge.net/DTD/sodipodi-0.dtd"
   xmlns:inkscape="http://www.inkscape.org/namespaces/inkscape"
   width="30.130058mm"
   height="37.411781mm"
   viewBox="0 0 30.130059 37.411781"
   version="1.1"
   id="svg8"
   inkscape:version="0.92.3 (2405546, 2018-03-11)"
   sodipodi:docname="orientation.svg">
  <sodipodi:namedview
     id="base"
     pagecolor="#ffffff"
     bordercolor="#666666"
     borderopacity="1.0"
     inkscape:pageopacity="0.0"
     inkscape:pageshadow="2"
     inkscape:zoom="3.959798"
     inkscape:cx="83.727768"
     inkscape:cy="93.745837"
     inkscape:document-units="mm"
     inkscape:current-layer="layer1"
     showgrid="false"
     inkscape:window-width="1439"
     inkscape:window-height="1019"
     inkscape:window-x="764"
     inkscape:window-y="143"
     inkscape:window-maximized="0"
     inkscape:snap-global="false"
     fit-margin-top="0"
     fit-margin-left="0"
     fit-margin-right="0"
     fit-margin-bottom="0" />
  <defs
     id="defs2">
    <marker
       inkscape:stockid="TriangleOutM"
       orient="auto"
       refY="0"
       refX="0"
       id="marker1713"
       style="overflow:visible"
       inkscape:isstock="true">
      <path
         id="path1595"
         d="M 5.77,0 -2.88,5 V -5 Z"
         style="fill:#666666;fill-opacity:1;fill-rule:evenodd;stroke:#666666;stroke-width:1.00000003pt;stroke-opacity:1"
         transform="scale(0.4)"
         inkscape:connector-curvature="0" />
    </marker>
    <marker
       inkscape:isstock="true"
       style="overflow:visible"
       id="marker3663"
       refX="0"
       refY="0"
       orient="auto"
       inkscape:stockid="TriangleOutM">
      <path
         inkscape:connector-curvature="0"
         transform="scale(0.4)"
         style="fill:#0000ff;fill-opacity:1;fill-rule:evenodd;stroke:#0000ff;stroke-width:1.00000003pt;stroke-opacity:1"
         d="M 5.77,0 -2.88,5 V -5 Z"
         id="path3661" />
    </marker>
    <marker
       inkscape:isstock="true"
       style="overflow:visible"
       id="marker3613"
       refX="0"
       refY="0"
       orient="auto"
       inkscape:stockid="TriangleOutL">
      <path
         inkscape:connector-curvature="0"
         transform="scale(0.8)"
         style="fill:#000000;fill-opacity:1;fill-rule:evenodd;stroke:#000000;stroke-width:1.00000003pt;stroke-opacity:1"
         d="M 5.77,0 -2.88,5 V -5 Z"
         id="path1546" />
    </marker>
    <marker
       inkscape:isstock="true"
       style="overflow:visible"
       id="TriangleOutM"
       refX="0"
       refY="0"
       orient="auto"
       inkscape:stockid="TriangleOutM">
      <path
         inkscape:connector-curvature="0"
         transform="scale(0.4)"
         style="fill:#000000;fill-opacity:1;fill-rule:evenodd;stroke:#000000;stroke-width:1.00000003pt;stroke-opacity:1"
         d="M 5.77,0 -2.88,5 V -5 Z"
         id="path1549" />
    </marker>
    <marker
       inkscape:isstock="true"
       style="overflow:visible"
       id="marker3566"
       refX="0"
       refY="0"
       orient="auto"
       inkscape:stockid="Arrow2Lend">
      <path
         inkscape:connector-curvature="0"
         transform="matrix(-1.1,0,0,-1.1,-1.1,0)"
         d="M 8.7185878,4.0337352 -2.2072895,0.01601326 8.7185884,-4.0017078 c -1.7454984,2.3720609 -1.7354408,5.6174519 -6e-7,8.035443 z"
         style="fill:#000000;fill-opacity:1;fill-rule:evenodd;stroke:#000000;stroke-width:0.625;stroke-linejoin:round;stroke-opacity:1"
         id="path3564" />
    </marker>
    <marker
       inkscape:isstock="true"
       style="overflow:visible"
       id="marker1667"
       refX="0"
       refY="0"
       orient="auto"
       inkscape:stockid="Arrow2Lend">
      <path
         inkscape:connector-curvature="0"
         transform="matrix(-1.1,0,0,-1.1,-1.1,0)"
         d="M 8.7185878,4.0337352 -2.2072895,0.01601326 8.7185884,-4.0017078 c -1.7454984,2.3720609 -1.7354408,5.6174519 -6e-7,8.035443 z"
         style="fill:#ff6600;fill-opacity:1;fill-rule:evenodd;stroke:#ff6600;stroke-width:0.625;stroke-linejoin:round;stroke-opacity:1"
         id="path1425" />
    </marker>
    <marker
       inkscape:stockid="Arrow2Lend"
       orient="auto"
       refY="0"
       refX="0"
       id="marker3632"
       style="overflow:visible"
       inkscape:isstock="true">
      <path
         inkscape:connector-curvature="0"
         id="path3630"
         style="fill:#ff6600;fill-opacity:1;fill-rule:evenodd;stroke:#ff6600;stroke-width:0.625;stroke-linejoin:round;stroke-opacity:1"
         d="M 8.7185878,4.0337352 -2.2072895,0.01601326 8.7185884,-4.0017078 c -1.7454984,2.3720609 -1.7354408,5.6174519 -6e-7,8.035443 z"
         transform="matrix(-1.1,0,0,-1.1,-1.1,0)" />
    </marker>
    <marker
       inkscape:isstock="true"
       style="overflow:visible"
       id="Arrow2Lstart"
       refX="0"
       refY="0"
       orient="auto"
       inkscape:stockid="Arrow2Lstart">
      <path
         inkscape:connector-curvature="0"
         transform="matrix(1.1,0,0,1.1,1.1,0)"
         d="M 8.7185878,4.0337352 -2.2072895,0.01601326 8.7185884,-4.0017078 c -1.7454984,2.3720609 -1.7354408,5.6174519 -6e-7,8.035443 z"
         style="fill:#000000;fill-opacity:1;fill-rule:evenodd;stroke:#000000;stroke-width:0.625;stroke-linejoin:round;stroke-opacity:1"
         id="path953" />
    </marker>
    <marker
       inkscape:isstock="true"
       style="overflow:visible"
       id="Arrow2Lend"
       refX="0"
       refY="0"
       orient="auto"
       inkscape:stockid="Arrow2Lend">
      <path
         inkscape:connector-curvature="0"
         transform="matrix(-1.1,0,0,-1.1,-1.1,0)"
         d="M 8.7185878,4.0337352 -2.2072895,0.01601326 8.7185884,-4.0017078 c -1.7454984,2.3720609 -1.7354408,5.6174519 -6e-7,8.035443 z"
         style="fill:#000000;fill-opacity:1;fill-rule:evenodd;stroke:#000000;stroke-width:0.625;stroke-linejoin:round;stroke-opacity:1"
         id="path956" />
    </marker>
    <marker
       inkscape:stockid="TriangleOutL"
       orient="auto"
       refY="0"
       refX="0"
       id="TriangleOutL"
       style="overflow:visible"
       inkscape:isstock="true">
      <path
         inkscape:connector-curvature="0"
         id="path1077"
         d="M 5.77,0 -2.88,5 V -5 Z"
         style="fill:#0000ff;fill-opacity:1;fill-rule:evenodd;stroke:#0000ff;stroke-width:1.00000003pt;stroke-opacity:1"
         transform="scale(0.8)" />
    </marker>
    <marker
       inkscape:isstock="true"
       style="overflow:visible"
       id="Arrow2Lstart-3"
       refX="0"
       refY="0"
       orient="auto"
       inkscape:stockid="Arrow2Lstart">
      <path
         transform="matrix(1.1,0,0,1.1,1.1,0)"
         d="M 8.7185878,4.0337352 -2.2072895,0.01601326 8.7185884,-4.0017078 c -1.7454984,2.3720609 -1.7354408,5.6174519 -6e-7,8.035443 z"
         style="fill:#800080;fill-opacity:1;fill-rule:evenodd;stroke:#800080;stroke-width:0.625;stroke-linejoin:round;stroke-opacity:1"
         id="path953-6"
         inkscape:connector-curvature="0" />
    </marker>
    <marker
       inkscape:isstock="true"
       style="overflow:visible"
       id="Arrow2Lend-7"
       refX="0"
       refY="0"
       orient="auto"
       inkscape:stockid="Arrow2Lend">
      <path
         transform="matrix(-1.1,0,0,-1.1,-1.1,0)"
         d="M 8.7185878,4.0337352 -2.2072895,0.01601326 8.7185884,-4.0017078 c -1.7454984,2.3720609 -1.7354408,5.6174519 -6e-7,8.035443 z"
         style="fill:#800080;fill-opacity:1;fill-rule:evenodd;stroke:#800080;stroke-width:0.625;stroke-linejoin:round;stroke-opacity:1"
         id="path956-5"
         inkscape:connector-curvature="0" />
    </marker>
    <marker
       inkscape:stockid="Arrow2Lend"
       orient="auto"
       refY="0"
       refX="0"
       id="marker3632-5"
       style="overflow:visible"
       inkscape:isstock="true">
      <path
         id="path3630-6"
         style="fill:#ff6600;fill-opacity:1;fill-rule:evenodd;stroke:#ff6600;stroke-width:0.625;stroke-linejoin:round;stroke-opacity:1"
         d="M 8.7185878,4.0337352 -2.2072895,0.01601326 8.7185884,-4.0017078 c -1.7454984,2.3720609 -1.7354408,5.6174519 -6e-7,8.035443 z"
         transform="matrix(-1.1,0,0,-1.1,-1.1,0)"
         inkscape:connector-curvature="0" />
    </marker>
  </defs>
  <metadata
     id="metadata5">
    <rdf:RDF>
      <cc:Work
         rdf:about="">
        <dc:format>image/svg+xml</dc:format>
        <dc:type
           rdf:resource="http://purl.org/dc/dcmitype/StillImage" />
        <dc:title></dc:title>
      </cc:Work>
    </rdf:RDF>
  </metadata>
  <g
     transform="translate(-33.419494,-35.441227)"
     inkscape:label="Layer 1"
     inkscape:groupmode="layer"
     id="layer1">
    <path
       style="fill:#f2f2f2;stroke:#000000;stroke-width:0.11128149px;stroke-linecap:butt;stroke-linejoin:miter;stroke-opacity:1"
       d="m 50.379376,45.035625 c 4.698111,-1.035308 14.06916,1.112815 13.035832,7.153811 -1.033329,6.040995 -8.90252,4.769206 -10.889689,7.471757 -1.98717,2.702551 3.179471,8.584572 -1.192303,12.240964 C 46.961443,75.55855 38.961993,67.44111 39.88712,58.071457 40.812247,48.701805 45.681265,46.070933 50.379376,45.035625 Z"
       id="path815"
       inkscape:connector-curvature="0"
       sodipodi:nodetypes="zzzzzz" />
    <path
       style="fill:none;stroke:#ff6600;stroke-width:0.26458332px;stroke-linecap:butt;stroke-linejoin:miter;stroke-opacity:1;marker-end:url(#marker3632)"
       d="m 39.499046,47.561948 c -6.291959,1.687465 -8.354615,8.052142 -2.207416,13.38573"
       id="path3628"
       inkscape:connector-curvature="0"
       sodipodi:nodetypes="cc" />
    <g
       style="fill:#ff6600"
       transform="matrix(0.58535314,0,0,0.58535314,4.735403,-19.749964)"
       id="g3833">
      <g
         style="font-style:normal;font-variant:normal;font-weight:normal;font-stretch:normal;letter-spacing:normal;word-spacing:normal;text-anchor:start;fill:#ff6600;fill-opacity:1;fill-rule:evenodd;stroke:#000000;stroke-linecap:butt;stroke-linejoin:miter;stroke-miterlimit:10.43299961;stroke-dasharray:none;stroke-dashoffset:0;stroke-opacity:1"
         id="g3831"
         transform="matrix(0.3,0,0,-0.3,-52.5,222.75)"
         xml:space="preserve"
         stroke-miterlimit="10.433"
         font-style="normal"
         font-variant="normal"
         font-weight="normal"
         font-stretch="normal"
         font-size-adjust="none"
         letter-spacing="normal"
         word-spacing="normal"><path
           style="fill:#ff6600;stroke-width:0"
           inkscape:connector-curvature="0"
           d="m 485.66,424.73 v 0.21 l -0.01,0.2 -0.01,0.2 -0.02,0.19 -0.02,0.18 -0.03,0.18 -0.03,0.17 -0.04,0.16 -0.04,0.16 -0.04,0.16 -0.05,0.14 -0.05,0.14 -0.05,0.13 -0.06,0.13 -0.07,0.12 -0.06,0.12 -0.07,0.1 -0.07,0.1 -0.08,0.1 -0.08,0.09 -0.08,0.08 -0.08,0.07 -0.08,0.07 -0.09,0.06 -0.09,0.05 -0.09,0.05 -0.1,0.04 -0.09,0.03 -0.1,0.02 -0.1,0.02 -0.1,0.01 h -0.1 c -1.3,0 -2.64,-1.18 -2.64,-2.34 0,-0.48 0.23,-1.03 0.73,-1.48 0.86,-0.75 1.75,-2.1 1.75,-4.19 0,-2 -0.95,-4.83 -2.48,-7.13 -1.5,-2.14 -3.35,-3.82 -5.69,-3.82 -2.85,0 -4.39,1.78 -4.83,4.46 0.55,1.3 1.69,4.49 1.69,5.9 0,0.59 -0.25,1.09 -0.89,1.09 -0.41,0 -0.96,-0.11 -1.35,-0.84 -0.54,-1 -1.15,-4.24 -1.15,-6.04 -1.64,-2.34 -3.63,-4.57 -6.77,-4.57 -3.3,0 -4.34,2.93 -4.34,5.71 0,6.24 5.09,11.47 5.09,12.11 0,0.55 -0.41,0.96 -0.95,0.96 -0.66,0 -1,-0.66 -1.3,-1.11 -2.55,-3.69 -4.44,-9.61 -4.44,-14.14 0,-3.44 1.16,-7.13 5.24,-7.13 3.53,0 5.87,2.49 7.67,5.24 0.45,-2.89 2.39,-5.24 5.48,-5.24 3.89,0 6.29,3.03 8.07,6.78 1.2,2.44 3.09,9.21 3.09,12.3 z"
           id="path3829" /></g>    </g>
    <path
       d="m 72.725992,44.009674 a 11.925776,7.242888 0 0 1 -9.29817,7.064897 11.925776,7.242888 0 0 1 -13.395501,-3.951681 11.925776,7.242888 0 0 1 3.395311,-8.806243"
       sodipodi:open="true"
       sodipodi:end="4.0459309"
       sodipodi:start="0"
       sodipodi:ry="7.242888"
       sodipodi:rx="11.925776"
       sodipodi:cy="44.009674"
       sodipodi:cx="60.800217"
       sodipodi:type="arc"
       transform="rotate(12.962398)"
       id="path1993"
       style="opacity:1;fill:none;fill-opacity:0.99470903;stroke:#d45500;stroke-width:0.40000001;stroke-miterlimit:4;stroke-dasharray:2.39999999, 2.39999999;stroke-dashoffset:0" />
    <path
       sodipodi:nodetypes="cc"
       inkscape:connector-curvature="0"
       id="path3562"
       d="m 40.136084,59.743231 6.003084,5.07812"
       style="fill:#0000ff;stroke:#0000ff;stroke-width:0.60000002;stroke-linecap:butt;stroke-linejoin:miter;stroke-miterlimit:4;stroke-dasharray:none;stroke-opacity:1;marker-end:url(#marker3663)" />
    <circle
       r="1.1386771"
       cy="59.689568"
       cx="40.075474"
       id="path1288"
       style="opacity:1;fill:#0000ff;fill-opacity:0.99470903;stroke:none;stroke-width:0.4820101;stroke-miterlimit:4;stroke-dasharray:none;stroke-dashoffset:0" />
    <path
       inkscape:connector-curvature="0"
       id="path1402"
       d="m 49.230538,55.507913 3.49628,-18.804314"
       style="fill:none;stroke:#ff6600;stroke-width:0.40000001;stroke-linecap:butt;stroke-linejoin:miter;stroke-miterlimit:4;stroke-dasharray:none;stroke-opacity:1;marker-end:url(#marker1667)" />
    <circle
       r="1.1386772"
       cy="55.382397"
       cx="49.132286"
       id="path1288-3"
       style="opacity:1;fill:#000000;fill-opacity:0.99470903;stroke:none;stroke-width:0.4820101;stroke-miterlimit:4;stroke-dasharray:none;stroke-dashoffset:0" />
    <path
       sodipodi:open="true"
       d="m 53.531271,38.170038 a 11.925776,7.242888 0 0 1 9.894504,-1.298963 11.925776,7.242888 0 0 1 7.973768,3.787655"
       sodipodi:end="5.8144604"
       sodipodi:start="4.0611842"
       sodipodi:ry="7.242888"
       sodipodi:rx="11.925776"
       sodipodi:cy="43.930698"
       sodipodi:cx="60.760021"
       sodipodi:type="arc"
       transform="rotate(12.962398)"
       id="path1993-3"
       style="opacity:0.38000022;fill:none;fill-opacity:0.99470903;stroke:#d45500;stroke-width:0.40000001;stroke-miterlimit:4;stroke-dasharray:2.39999999, 2.39999999;stroke-dashoffset:0" />
    <g
       id="g1000"
       transform="matrix(2.2416012,0,0,2.2416012,-61.914388,30.8069)">
      <g
         id="g998"
         transform="matrix(0.04754919,0,0,-0.04754919,-8.3211078,28.710305)"
         xml:space="preserve"
         stroke-miterlimit="10.433"
         font-style="normal"
         font-variant="normal"
         font-weight="normal"
         font-stretch="normal"
         font-size-adjust="none"
         letter-spacing="normal"
         word-spacing="normal"
         style="font-style:normal;font-variant:normal;font-weight:normal;font-stretch:normal;letter-spacing:normal;word-spacing:normal;text-anchor:start;fill:none;fill-opacity:1;fill-rule:evenodd;stroke:#000000;stroke-linecap:butt;stroke-linejoin:miter;stroke-miterlimit:10.43299961;stroke-dasharray:none;stroke-dashoffset:0;stroke-opacity:1"><path
           d="m 1229.8,340.36 v -0.15 -0.15 l -0.1,-0.14 v -0.13 -0.12 l -0.1,-0.12 v -0.11 -0.11 l -0.1,-0.1 v -0.09 l -0.1,-0.09 v -0.08 l -0.1,-0.07 v -0.07 l -0.1,-0.06 v -0.06 l -0.1,-0.06 -0.1,-0.05 v -0.04 l -0.1,-0.04 -0.1,-0.04 -0.1,-0.03 -0.1,-0.03 -0.2,-0.02 -0.1,-0.02 v -0.01 l -0.1,-0.01 -0.1,-0.01 h -0.1 v -0.01 l -0.1,-0.01 h -0.1 -0.1 l -0.1,-0.01 h -0.1 -0.1 v 0 h -0.1 -0.1 c -0.6,0 -1.2,0 -1.2,-0.94 0,-0.41 0.3,-0.61 0.7,-0.61 1.3,0 2.7,0.16 4.1,0.16 1.7,0 3.4,-0.16 5,-0.16 0.2,0 0.9,0 0.9,1 0,0.55 -0.5,0.55 -1.2,0.55 -2.5,0 -2.5,0.36 -2.5,0.79 0,0.61 2.1,8.72 2.4,9.97 0.7,-1.44 2.1,-3.19 4.6,-3.19 v 1.1 c -3.3,0 -4,4.14 -4,4.44 0,0.09 0,0.2 0.2,0.79 l 2.4,9.77 c 0.4,1.34 1.7,2.73 2.6,3.48 1.7,1.55 3.2,1.89 4,1.89 2,0 3.2,-1.73 3.2,-4.68 0,-2.94 -1.6,-8.66 -2.5,-10.57 -1.7,-3.48 -4.1,-5.12 -5.9,-5.12 v -1.1 c 5.8,0 12,7.27 12,14.6 0,4.69 -2.8,7.97 -6.6,7.97 -2.5,0 -4.9,-1.78 -6.5,-3.74 -0.5,2.69 -2.7,3.74 -4.5,3.74 -2.3,0 -3.3,-1.94 -3.7,-2.83 -0.9,-1.7 -1.5,-4.69 -1.5,-4.84 0,-0.5 0.5,-0.5 0.5,-0.5 0.5,0 0.6,0.06 0.9,1.15 0.8,3.53 1.8,5.92 3.6,5.92 0.9,0 1.6,-0.39 1.6,-2.28 0,-1.15 -0.2,-1.7 -0.4,-2.54 z"
           id="path996"
           inkscape:connector-curvature="0"
           style="fill:#000000;stroke-width:0" /></g>    </g>
    <g
       id="g1130"
       transform="matrix(1.86336,0,0,1.86336,-46.782849,45.641914)"
       style="fill:#0000ff">
      <g
         word-spacing="normal"
         letter-spacing="normal"
         font-size-adjust="none"
         font-stretch="normal"
         font-weight="normal"
         font-variant="normal"
         font-style="normal"
         stroke-miterlimit="10.433"
         xml:space="preserve"
         transform="matrix(0.04754919,0,0,-0.04754919,-8.3211078,28.710305)"
         id="g1128"
         style="font-style:normal;font-variant:normal;font-weight:normal;font-stretch:normal;letter-spacing:normal;word-spacing:normal;text-anchor:start;fill:#0000ff;fill-opacity:1;fill-rule:evenodd;stroke:#000000;stroke-linecap:butt;stroke-linejoin:miter;stroke-miterlimit:10.43299961;stroke-dasharray:none;stroke-dashoffset:0;stroke-opacity:1"><path
           id="path1122"
           d="m 1211.5,364.97 v 0.21 0.2 0.2 0.19 0.18 0.18 l -0.1,0.17 v 0.17 l -0.1,0.16 v 0.15 0.14 l -0.1,0.14 -0.1,0.14 v 0.12 l -0.1,0.12 v 0.12 l -0.1,0.11 -0.1,0.1 -0.1,0.09 v 0.09 l -0.1,0.08 -0.1,0.07 -0.1,0.07 -0.1,0.06 -0.1,0.05 -0.1,0.05 -0.1,0.04 v 0.03 l -0.1,0.02 -0.1,0.02 -0.1,0.01 -0.1,0.01 c -1.3,0 -2.7,-1.19 -2.7,-2.35 0,-0.48 0.3,-1.03 0.8,-1.48 0.8,-0.75 1.7,-2.09 1.7,-4.19 0,-2 -1,-4.83 -2.5,-7.12 -1.5,-2.14 -3.3,-3.83 -5.7,-3.83 -2.8,0 -4.4,1.78 -4.8,4.47 0.5,1.29 1.7,4.48 1.7,5.89 0,0.59 -0.3,1.09 -0.9,1.09 -0.4,0 -1,-0.11 -1.4,-0.84 -0.5,-1 -1.1,-4.24 -1.1,-6.03 -1.6,-2.35 -3.6,-4.58 -6.8,-4.58 -3.3,0 -4.3,2.94 -4.3,5.72 0,6.23 5.1,11.47 5.1,12.11 0,0.54 -0.4,0.95 -1,0.95 -0.6,0 -1,-0.66 -1.3,-1.11 -2.5,-3.69 -4.4,-9.61 -4.4,-14.14 0,-3.44 1.2,-7.13 5.2,-7.13 3.6,0 5.9,2.49 7.7,5.24 0.4,-2.89 2.4,-5.24 5.5,-5.24 3.9,0 6.3,3.04 8,6.79 1.3,2.43 3.1,9.2 3.1,12.29 z"
           inkscape:connector-curvature="0"
           style="fill:#0000ff;stroke-width:0" /><path
           id="path1124"
           d="m 1244.6,360.29 -10,9.92 c -0.6,0.59 -0.7,0.7 -1.1,0.7 -0.5,0 -1,-0.45 -1,-1 0,-0.36 0.1,-0.45 0.7,-1 l 9.9,-10.02 -9.9,-10.01 c -0.6,-0.55 -0.7,-0.64 -0.7,-1 0,-0.55 0.5,-0.99 1,-0.99 0.4,0 0.5,0.1 1.1,0.69 l 9.9,9.92 10.3,-10.31 c 0.1,-0.05 0.5,-0.3 0.8,-0.3 0.6,0 1,0.44 1,0.99 0,0.11 0,0.31 -0.2,0.56 0,0.1 -7.9,7.92 -10.4,10.45 l 9.1,9.13 c 0.2,0.3 1,0.94 1.2,1.23 0.1,0.11 0.3,0.3 0.3,0.66 0,0.55 -0.4,1 -1,1 -0.4,0 -0.6,-0.2 -1.2,-0.75 z"
           inkscape:connector-curvature="0"
           style="fill:#0000ff;stroke-width:0" /><path
           id="path1126"
           d="m 1279.4,349.38 v -0.07 -0.08 l -0.1,-0.07 v -0.08 -0.16 -0.16 l -0.1,-0.16 v -0.16 l -0.1,-0.16 v -0.16 -0.08 -0.07 l -0.1,-0.07 v -0.07 -0.07 -0.07 -0.06 -0.06 -0.05 -0.06 -0.04 l -0.1,-0.05 v -0.04 -0.03 -0.04 -0.02 c 0,-0.89 0.7,-1.35 1.5,-1.35 0.6,0 1.5,0.4 1.8,1.4 0.1,0.2 1.8,6.98 2,7.87 0.4,1.64 1.3,5.13 1.6,6.48 0.2,0.65 1.6,2.99 2.8,4.08 0.4,0.35 1.8,1.64 4,1.64 1.3,0 2,-0.59 2.1,-0.59 -1.5,-0.25 -2.6,-1.45 -2.6,-2.73 0,-0.8 0.5,-1.75 1.9,-1.75 1.3,0 2.7,1.14 2.7,2.93 0,1.75 -1.6,3.24 -4.1,3.24 -3.3,0 -5.4,-2.44 -6.4,-3.83 -0.4,2.23 -2.2,3.83 -4.5,3.83 -2.3,0 -3.3,-1.94 -3.7,-2.83 -0.9,-1.7 -1.6,-4.69 -1.6,-4.84 0,-0.5 0.5,-0.5 0.6,-0.5 0.5,0 0.6,0.06 0.9,1.15 0.8,3.53 1.8,5.92 3.6,5.92 0.9,0 1.6,-0.39 1.6,-2.28 0,-1.04 -0.2,-1.61 -0.8,-4.19 z"
           inkscape:connector-curvature="0"
           style="fill:#0000ff;stroke-width:0" /></g>    </g>
    <g
       id="g1252"
       transform="matrix(2.1710742,0,0,2.1710742,-71.65319,37.515505)"
       style="fill:#0000ff">
      <g
         id="content"
         transform="matrix(0.04754919,0,0,-0.04754919,-8.3211078,28.710305)"
         xml:space="preserve"
         stroke-miterlimit="10.433"
         font-style="normal"
         font-variant="normal"
         font-weight="normal"
         font-stretch="normal"
         font-size-adjust="none"
         letter-spacing="normal"
         word-spacing="normal"
         style="font-style:normal;font-variant:normal;font-weight:normal;font-stretch:normal;letter-spacing:normal;word-spacing:normal;text-anchor:start;fill:#0000ff;fill-opacity:1;fill-rule:evenodd;stroke:#000000;stroke-linecap:butt;stroke-linejoin:miter;stroke-miterlimit:10.43299961;stroke-dasharray:none;stroke-dashoffset:0;stroke-opacity:1"><path
           d="m 1221.6,340.36 -0.1,-0.15 v -0.15 l -0.1,-0.14 v -0.13 -0.12 l -0.1,-0.12 v -0.11 -0.11 l -0.1,-0.1 v -0.09 -0.09 l -0.1,-0.08 v -0.07 l -0.1,-0.07 v -0.06 l -0.1,-0.06 -0.1,-0.06 -0.1,-0.05 v -0.04 l -0.1,-0.04 -0.1,-0.04 -0.1,-0.03 -0.1,-0.03 -0.1,-0.02 -0.2,-0.02 v -0.01 l -0.1,-0.01 -0.1,-0.01 v 0 l -0.1,-0.01 -0.1,-0.01 h -0.1 -0.1 l -0.1,-0.01 v 0 h -0.1 -0.1 -0.1 -0.1 c -0.6,0 -1.2,0 -1.2,-0.94 0,-0.41 0.3,-0.61 0.7,-0.61 1.3,0 2.8,0.16 4.2,0.16 1.6,0 3.3,-0.16 4.9,-0.16 0.2,0 0.9,0 0.9,1 0,0.55 -0.5,0.55 -1.2,0.55 -2.5,0 -2.5,0.36 -2.5,0.79 0,0.61 2.1,8.72 2.5,9.97 0.6,-1.44 2,-3.19 4.5,-3.19 v 1.1 c -3.3,0 -4,4.14 -4,4.44 0,0.09 0,0.2 0.2,0.79 l 2.4,9.77 c 0.4,1.34 1.7,2.73 2.6,3.48 1.8,1.55 3.2,1.89 4.1,1.89 1.9,0 3.2,-1.73 3.2,-4.68 0,-2.94 -1.7,-8.66 -2.6,-10.57 -1.7,-3.48 -4.1,-5.12 -5.9,-5.12 v -1.1 c 5.8,0 12,7.27 12,14.6 0,4.69 -2.8,7.97 -6.6,7.97 -2.5,0 -4.9,-1.78 -6.5,-3.74 -0.5,2.69 -2.7,3.74 -4.5,3.74 -2.3,0 -3.3,-1.94 -3.7,-2.83 -0.9,-1.7 -1.5,-4.69 -1.5,-4.84 0,-0.5 0.5,-0.5 0.6,-0.5 0.5,0 0.5,0.06 0.8,1.15 0.9,3.53 1.9,5.92 3.6,5.92 0.9,0 1.6,-0.39 1.6,-2.28 0,-1.15 -0.2,-1.7 -0.3,-2.54 z"
           id="path1245"
           inkscape:connector-curvature="0"
           style="fill:#0000ff;stroke-width:0" /><path
           d="m 1255.7,360.66 v 0.05 0.06 0.05 0.05 0.06 0.06 l -0.1,0.05 v 0.06 0.05 0.06 l -0.1,0.06 v 0.05 0.05 l -0.1,0.06 v 0.05 0.05 l -0.1,0.05 v 0.04 l -0.1,0.05 v 0.04 l -0.1,0.04 v 0.04 l -0.1,0.04 -0.1,0.03 v 0.03 l -0.1,0.02 -0.1,0.02 -0.1,0.02 v 0.02 l -0.1,0.01 -0.1,0.01 h -0.1 c -1,0 -2,-0.91 -2,-1.92 0,-0.6 0.5,-1.33 1.4,-1.33 1,0 2,0.98 2,1.92 z"
           id="path1247"
           inkscape:connector-curvature="0"
           style="fill:#0000ff;stroke-width:0" /><path
           d="m 1248.6,342.96 v -0.09 l -0.1,-0.08 v -0.17 -0.08 l -0.1,-0.09 v -0.09 -0.08 -0.09 l -0.1,-0.1 v -0.09 -0.1 -0.04 -0.05 -0.06 -0.05 -0.05 -0.05 -0.06 -0.05 c 0,-1.64 1.4,-2.95 3.3,-2.95 3.5,0 5,4.79 5,5.32 0,0.46 -0.4,0.46 -0.6,0.46 -0.4,0 -0.5,-0.21 -0.6,-0.6 -0.8,-2.78 -2.4,-4.22 -3.7,-4.22 -0.7,0 -0.9,0.46 -0.9,1.22 0,0.8 0.3,1.47 0.6,2.24 0.3,0.93 0.7,1.87 1.1,2.78 0.3,0.84 1.6,4.01 1.7,4.44 0.1,0.34 0.2,0.76 0.2,1.11 0,1.64 -1.4,2.95 -3.3,2.95 -3.5,0 -5.1,-4.74 -5.1,-5.33 0,-0.45 0.5,-0.45 0.6,-0.45 0.5,0 0.6,0.17 0.7,0.56 0.9,3 2.4,4.25 3.7,4.25 0.5,0 0.8,-0.28 0.8,-1.22 0,-0.8 -0.1,-1.33 -1,-3.48 z"
           id="path1249"
           inkscape:connector-curvature="0"
           style="fill:#0000ff;stroke-width:0" /></g>    </g>
    <path
       style="fill:none;stroke:#666666;stroke-width:0.26499999;stroke-linecap:butt;stroke-linejoin:miter;stroke-miterlimit:4;stroke-dasharray:none;stroke-opacity:1;marker-end:url(#marker1713)"
       d="m 47.795941,55.847985 -5.779704,2.973373"
       id="path1448"
       inkscape:connector-curvature="0"
       sodipodi:nodetypes="cc" />
    <g
       style="fill:#666666"
       transform="matrix(2.1804746,0,0,2.1804746,-65.882475,30.28168)"
       id="g1926">
      <g
         style="font-style:normal;font-variant:normal;font-weight:normal;font-stretch:normal;letter-spacing:normal;word-spacing:normal;text-anchor:start;fill:#666666;fill-opacity:1;fill-rule:evenodd;stroke:#000000;stroke-linecap:butt;stroke-linejoin:miter;stroke-miterlimit:10.43299961;stroke-dasharray:none;stroke-dashoffset:0;stroke-opacity:1"
         id="g1924"
         transform="matrix(0.04754919,0,0,-0.04754919,-8.3211078,28.710305)"
         xml:space="preserve"
         stroke-miterlimit="10.433"
         font-style="normal"
         font-variant="normal"
         font-weight="normal"
         font-stretch="normal"
         font-size-adjust="none"
         letter-spacing="normal"
         word-spacing="normal"><path
           style="fill:#666666;stroke-width:0"
           inkscape:connector-curvature="0"
           d="m 1232.6,349.38 v -0.07 -0.08 l -0.1,-0.07 v -0.08 -0.16 -0.16 l -0.1,-0.16 v -0.16 l -0.1,-0.16 v -0.16 -0.08 -0.07 -0.07 l -0.1,-0.07 v -0.07 -0.07 -0.06 -0.06 -0.05 -0.06 -0.04 -0.05 l -0.1,-0.04 v -0.03 -0.04 -0.02 c 0,-0.89 0.7,-1.35 1.5,-1.35 0.6,0 1.5,0.4 1.8,1.4 0.1,0.2 1.8,6.98 2,7.87 0.4,1.64 1.3,5.13 1.6,6.48 0.2,0.65 1.6,2.99 2.8,4.08 0.4,0.35 1.8,1.64 4,1.64 1.3,0 2,-0.59 2.1,-0.59 -1.5,-0.25 -2.6,-1.45 -2.6,-2.73 0,-0.8 0.5,-1.75 1.9,-1.75 1.3,0 2.7,1.14 2.7,2.93 0,1.75 -1.6,3.24 -4.1,3.24 -3.3,0 -5.4,-2.44 -6.4,-3.83 -0.4,2.23 -2.2,3.83 -4.5,3.83 -2.3,0 -3.3,-1.94 -3.7,-2.83 -0.9,-1.7 -1.6,-4.69 -1.6,-4.84 0,-0.5 0.5,-0.5 0.6,-0.5 0.6,0 0.6,0.06 0.9,1.15 0.8,3.53 1.8,5.92 3.6,5.92 0.9,0 1.6,-0.39 1.6,-2.28 0,-1.04 -0.2,-1.61 -0.8,-4.19 z"
           id="path1922" /></g>    </g>
    <g
       id="g2053"
       transform="matrix(1.9231415,0,0,1.9231415,-61.819246,24.870357)"
       style="fill:#ff6600">
      <g
         word-spacing="normal"
         letter-spacing="normal"
         font-size-adjust="none"
         font-stretch="normal"
         font-weight="normal"
         font-variant="normal"
         font-style="normal"
         stroke-miterlimit="10.433"
         xml:space="preserve"
         transform="matrix(0.04754919,0,0,-0.04754919,-8.3211078,28.710305)"
         id="g2051"
         style="font-style:normal;font-variant:normal;font-weight:normal;font-stretch:normal;letter-spacing:normal;word-spacing:normal;text-anchor:start;fill:#ff6600;fill-opacity:1;fill-rule:evenodd;stroke:#000000;stroke-linecap:butt;stroke-linejoin:miter;stroke-miterlimit:10.43299961;stroke-dasharray:none;stroke-dashoffset:0;stroke-opacity:1"><path
           id="path2047"
           d="m 1236.4,363.38 0.5,0.12 0.4,0.13 0.5,0.13 0.4,0.15 0.4,0.16 0.4,0.17 0.4,0.18 0.4,0.19 0.4,0.2 0.4,0.2 0.4,0.22 0.3,0.22 0.4,0.24 0.3,0.24 0.3,0.25 0.3,0.25 0.3,0.27 0.3,0.27 0.2,0.28 0.3,0.29 0.2,0.3 0.2,0.3 0.2,0.31 0.2,0.31 0.1,0.32 0.2,0.33 0.1,0.34 0.1,0.34 v 0.34 l 0.1,0.35 v 0.36 l 0.1,0.36 c 0,4.79 -5.7,8.97 -13,8.97 h -15.7 v -1.54 h 1.2 c 3.8,0 3.9,-0.55 3.9,-2.35 v -26.25 c 0,-1.79 -0.1,-2.34 -3.9,-2.34 h -1.2 v -1.55 c 1.8,0.16 5.3,0.16 7.3,0.16 1.9,0 5.5,0 7.3,-0.16 v 1.55 h -1.2 c -3.9,0 -4,0.55 -4,2.34 v 12.6 1.11 12.89 c 0,1.15 0,1.75 1.1,1.9 0.5,0.1 2,0.1 3,0.1 4.4,0 10,-0.21 10,-7.43 0,-3.43 -1.2,-7.46 -8.6,-7.46 h -5.5 v -1.11 h 5.8 c 0.7,0 2.8,0 4.6,-1.69 1.9,-1.8 1.9,-3.35 1.9,-6.67 0,-3.25 0,-5.24 2,-7.13 2.1,-1.8 4.8,-2.09 6.3,-2.09 3.9,0 4.7,4.08 4.7,5.48 0,0.3 0,0.85 -0.6,0.85 -0.6,0 -0.6,-0.46 -0.6,-0.8 -0.3,-3.55 -2.1,-4.44 -3.3,-4.44 -2.4,0 -2.8,2.55 -3.5,7.17 l -0.7,3.99 c -0.9,3.19 -3.3,4.84 -6.1,5.78 z"
           inkscape:connector-curvature="0"
           style="fill:#ff6600;stroke-width:0" /><path
           id="path2049"
           d="m 1261.6,383.41 v 0.06 0.05 l 0.1,0.05 v 0.05 0.04 0.05 0.04 l 0.1,0.05 v 0.04 0.04 0.04 0.03 0.04 0.03 0.04 l 0.1,0.03 v 0.03 0.03 0.04 0.02 0.03 0.03 0.03 0.03 0.05 0.05 0.05 0.04 c 0,1.08 -1,1.93 -2.1,1.93 -1.3,0 -1.7,-1.1 -1.9,-1.65 l -4.6,-15.09 c 0,-0.06 -0.1,-0.51 -0.1,-0.56 0,-0.41 1,-0.77 1.3,-0.77 0.3,0 0.3,0.08 0.5,0.6 z"
           inkscape:connector-curvature="0"
           style="fill:#ff6600;stroke-width:0" /></g>    </g>
  </g>
</svg>
