<?xml version="1.0" encoding="UTF-8" standalone="no"?>
<svg
   xmlns:rendltx="http://NOTSET"
   xmlns:dc="http://purl.org/dc/elements/1.1/"
   xmlns:cc="http://creativecommons.org/ns#"
   xmlns:rdf="http://www.w3.org/1999/02/22-rdf-syntax-ns#"
   xmlns:svg="http://www.w3.org/2000/svg"
   xmlns="http://www.w3.org/2000/svg"
   xmlns:xlink="http://www.w3.org/1999/xlink"
   id="svg8"
   version="1.1"
   viewBox="0 0 121.3103 81.110649"
   height="81.110649mm"
   width="121.3103mm">
  <defs
     id="defs2">
    <marker
       orient="auto"
       refY="0"
       refX="0"
       id="marker5329"
       style="overflow:visible">
      <path
         id="path5327"
         style="fill:#000000;fill-opacity:1;fill-rule:evenodd;stroke:#000000;stroke-width:0.625;stroke-linejoin:round;stroke-opacity:1"
         d="M 8.7185878,4.0337352 -2.2072895,0.01601326 8.7185884,-4.0017078 c -1.7454984,2.3720609 -1.7354408,5.6174519 -6e-7,8.035443 z"
         transform="matrix(-1.1,0,0,-1.1,-1.1,0)" />
    </marker>
    <marker
       orient="auto"
       refY="0"
       refX="0"
       id="marker4447"
       style="overflow:visible">
      <path
         id="path4445"
         style="fill:#008000;fill-opacity:1;fill-rule:evenodd;stroke:#008000;stroke-width:0.625;stroke-linejoin:round;stroke-opacity:1"
         d="M 8.7185878,4.0337352 -2.2072895,0.01601326 8.7185884,-4.0017078 c -1.7454984,2.3720609 -1.7354408,5.6174519 -6e-7,8.035443 z"
         transform="matrix(-1.1,0,0,-1.1,-1.1,0)" />
    </marker>
    <marker
       orient="auto"
       refY="0"
       refX="0"
       id="marker1176"
       style="overflow:visible">
      <path
         id="path1174"
         style="fill:#0000ff;fill-opacity:1;fill-rule:evenodd;stroke:#0000ff;stroke-width:0.625;stroke-linejoin:round;stroke-opacity:1"
         d="M 8.7185878,4.0337352 -2.2072895,0.01601326 8.7185884,-4.0017078 c -1.7454984,2.3720609 -1.7354408,5.6174519 -6e-7,8.035443 z"
         transform="matrix(-1.1,0,0,-1.1,-1.1,0)" />
    </marker>
    <marker
       orient="auto"
       refY="0"
       refX="0"
       id="Arrow2Mend"
       style="overflow:visible">
      <path
         id="path844"
         style="fill:#000000;fill-opacity:1;fill-rule:evenodd;stroke:#000000;stroke-width:0.625;stroke-linejoin:round;stroke-opacity:1"
         d="M 8.7185878,4.0337352 -2.2072895,0.01601326 8.7185884,-4.0017078 c -1.7454984,2.3720609 -1.7354408,5.6174519 -6e-7,8.035443 z"
         transform="scale(-0.6)" />
    </marker>
    <marker
       orient="auto"
       refY="0"
       refX="0"
       id="Arrow2Lend"
       style="overflow:visible">
      <path
         id="path838"
         style="fill:#800000;fill-opacity:1;fill-rule:evenodd;stroke:#800000;stroke-width:0.625;stroke-linejoin:round;stroke-opacity:1"
         d="M 8.7185878,4.0337352 -2.2072895,0.01601326 8.7185884,-4.0017078 c -1.7454984,2.3720609 -1.7354408,5.6174519 -6e-7,8.035443 z"
         transform="matrix(-1.1,0,0,-1.1,-1.1,0)" />
    </marker>
    <marker
       orient="auto"
       refY="0"
       refX="0"
       id="marker1176-6"
       style="overflow:visible">
      <path
         id="path1174-7"
         style="fill:#0000ff;fill-opacity:1;fill-rule:evenodd;stroke:#0000ff;stroke-width:0.625;stroke-linejoin:round;stroke-opacity:1"
         d="M 8.7185878,4.0337352 -2.2072895,0.01601326 8.7185884,-4.0017078 c -1.7454984,2.3720609 -1.7354408,5.6174519 -6e-7,8.035443 z"
         transform="matrix(-1.1,0,0,-1.1,-1.1,0)" />
    </marker>
    <marker
       orient="auto"
       refY="0"
       refX="0"
       id="marker1176-6-5"
       style="overflow:visible">
      <path
         id="path1174-7-6"
         style="fill:#0000ff;fill-opacity:1;fill-rule:evenodd;stroke:#0000ff;stroke-width:0.625;stroke-linejoin:round;stroke-opacity:1"
         d="M 8.7185878,4.0337352 -2.2072895,0.01601326 8.7185884,-4.0017078 c -1.7454984,2.3720609 -1.7354408,5.6174519 -6e-7,8.035443 z"
         transform="matrix(-1.1,0,0,-1.1,-1.1,0)" />
    </marker>
    <marker
       orient="auto"
       refY="0"
       refX="0"
       id="marker1176-6-9"
       style="overflow:visible">
      <path
         id="path1174-7-1"
         style="fill:#008000;fill-opacity:1;fill-rule:evenodd;stroke:#008000;stroke-width:0.625;stroke-linejoin:round;stroke-opacity:1"
         d="M 8.7185878,4.0337352 -2.2072895,0.01601326 8.7185884,-4.0017078 c -1.7454984,2.3720609 -1.7354408,5.6174519 -6e-7,8.035443 z"
         transform="matrix(-1.1,0,0,-1.1,-1.1,0)" />
    </marker>
  </defs>
  <metadata
     id="metadata5">
    <rdf:RDF>
      <cc:Work
         rdf:about="">
        <dc:format>image/svg+xml</dc:format>
        <dc:type
           rdf:resource="http://purl.org/dc/dcmitype/StillImage" />
        <dc:title></dc:title>
      </cc:Work>
    </rdf:RDF>
  </metadata>
  <g
     transform="translate(-24.643321,-32.164938)"
     id="layer1">
    <path
       style="fill:none;stroke:#cccccc;stroke-width:0.69999999;stroke-linecap:butt;stroke-linejoin:miter;stroke-miterlimit:4;stroke-dasharray:none;stroke-opacity:1"
       d="m 24.94643,112.92559 h 92.60416 l 28.09992,-48.670483"
       id="path1099" />
    <path
       style="fill:none;stroke:#cccccc;stroke-width:0.69999999;stroke-linecap:butt;stroke-linejoin:miter;stroke-miterlimit:4;stroke-dasharray:none;stroke-opacity:1"
       d="M 145.65052,64.255109 H 53.04635 L 24.94643,112.92559"
       id="path1099-3" />
    <path
       style="fill:none;stroke:#800000;stroke-width:0.80000001;stroke-linecap:butt;stroke-linejoin:miter;stroke-miterlimit:4;stroke-dasharray:none;stroke-opacity:1;marker-end:url(#Arrow2Lend)"
       d="M 87.501488,87.034226 V 34.684522"
       id="path815" />
    <path
       style="fill:none;stroke:#808080;stroke-width:0.26458332px;stroke-linecap:butt;stroke-linejoin:miter;stroke-opacity:1"
       d="m 55.324792,60.600102 0.267269,31.537804"
       id="path1220" />
    <path
       style="fill:none;stroke:#808080;stroke-width:0.26458332px;stroke-linecap:butt;stroke-linejoin:miter;stroke-opacity:1"
       d="M 55.324792,60.600102 87.79678,58.315956"
       id="path1220-3" />
    <path
       style="fill:none;stroke:#0000ff;stroke-width:0.60000002;stroke-linecap:butt;stroke-linejoin:miter;stroke-miterlimit:4;stroke-dasharray:none;stroke-opacity:1;marker-end:url(#marker1176)"
       d="M 87.501488,87.034226 56.080744,61.26156"
       id="path1146" />
    <path
       style="fill:none;stroke:#0000ff;stroke-width:0.30000001;stroke-linecap:butt;stroke-linejoin:miter;stroke-miterlimit:4;stroke-dasharray:none;stroke-opacity:1;marker-end:url(#marker1176-6-5)"
       d="M 85.84506,86.050144 86.140352,58.796532"
       id="path1146-5-2" />
    <path
       style="fill:none;stroke:#808080;stroke-width:0.26458332px;stroke-linecap:butt;stroke-linejoin:miter;stroke-opacity:1"
       d="m 111.18412,70.221806 0.26727,31.537804"
       id="path1220-0" />
    <path
       style="fill:none;stroke:#808080;stroke-width:0.26458332px;stroke-linecap:butt;stroke-linejoin:miter;stroke-opacity:1"
       d="M 87.691732,58.320901 111.05049,70.221805"
       id="path4423" />
    <path
       style="fill:none;stroke:#008000;stroke-width:0.60000002;stroke-linecap:butt;stroke-linejoin:miter;stroke-miterlimit:4;stroke-dasharray:none;stroke-opacity:1;marker-end:url(#marker4447)"
       d="M 87.595981,86.845237 110.45173,70.734001"
       id="path4443" />
    <path
       style="fill:none;stroke:#000000;stroke-width:0.26458332px;stroke-linecap:butt;stroke-linejoin:miter;stroke-opacity:1;marker-end:url(#marker5329)"
       d="m 77.04044,88.863854 c 3.875407,8.418991 11.492591,8.352174 17.84024,3.274052"
       id="path5325" />
    <path
       style="fill:none;stroke:#0000ff;stroke-width:0.30000001;stroke-linecap:butt;stroke-linejoin:miter;stroke-miterlimit:4;stroke-dasharray:none;stroke-opacity:1;marker-end:url(#marker1176-6)"
       d="M 87.649706,87.00357 55.940508,92.067035"
       id="path1146-5" />
    <path
       style="fill:none;stroke:#008000;stroke-width:0.30000001;stroke-linecap:butt;stroke-linejoin:miter;stroke-miterlimit:4;stroke-dasharray:none;stroke-opacity:1;marker-end:url(#marker1176-6-9)"
       d="M 87.149147,86.901683 111.09454,101.59081"
       id="path1146-5-27" />
  </g>
  <g
     transform="translate(-24.643321,-32.164938)"
     id="ltx-render-layer"
     rendltx:preamble=""
     rendltx:packages="amsmath,amssymb"
     rendltx:scale="1.0"
     rendltx:depth="0.0"
     rendltx:fontsize="10.0"
     rendltx:newline="False"
     rendltx:math="False">
    <g
       transform="matrix(1.1156916,0,0,1.1156916,77.403268,37.080954)"
       id="lx-text6696"
       style="fill:#800000">
      <defs
         id="defs6801">
        <g
           id="g6799">
          <symbol
             overflow="visible"
             id="lx-text6696-glyph0-0"
             style="overflow:visible">
            <path
               style="stroke:none"
               d=""
               id="path6793" />
          </symbol>
          <symbol
             overflow="visible"
             id="lx-text6696-glyph0-1"
             style="overflow:visible">
            <path
               style="stroke:none"
               d="m 0.875,-0.59375 c -0.03125,0.15625 -0.09375,0.390625 -0.09375,0.4375 0,0.171875 0.140625,0.265625 0.296875,0.265625 0.125,0 0.296875,-0.078125 0.375,-0.28125 0,-0.015625 0.125,-0.484375 0.1875,-0.734375 l 0.21875,-0.890625 C 1.90625,-2.03125 1.96875,-2.25 2.03125,-2.46875 c 0.03125,-0.171875 0.109375,-0.46875 0.125,-0.5 0.140625,-0.3125 0.671875,-1.21875 1.625,-1.21875 0.453125,0 0.53125,0.375 0.53125,0.703125 0,0.609375 -0.484375,1.890625 -0.640625,2.3125 C 3.578125,-0.9375 3.5625,-0.8125 3.5625,-0.703125 c 0,0.46875 0.359375,0.8125 0.828125,0.8125 0.9375,0 1.296875,-1.453125 1.296875,-1.53125 0,-0.109375 -0.078125,-0.109375 -0.109375,-0.109375 -0.109375,0 -0.109375,0.03125 -0.15625,0.1875 -0.203125,0.671875 -0.53125,1.234375 -1.015625,1.234375 -0.171875,0 -0.234375,-0.09375 -0.234375,-0.328125 0,-0.25 0.078125,-0.484375 0.171875,-0.703125 0.1875,-0.53125 0.609375,-1.625 0.609375,-2.203125 0,-0.65625 -0.421875,-1.0625 -1.140625,-1.0625 -0.90625,0 -1.390625,0.640625 -1.5625,0.875 -0.046875,-0.5625 -0.453125,-0.875 -0.921875,-0.875 -0.453125,0 -0.640625,0.390625 -0.734375,0.5625 C 0.421875,-3.5 0.296875,-2.90625 0.296875,-2.875 c 0,0.109375 0.09375,0.109375 0.109375,0.109375 0.109375,0 0.109375,-0.015625 0.171875,-0.234375 0.171875,-0.703125 0.375,-1.1875 0.734375,-1.1875 0.1875,0 0.296875,0.125 0.296875,0.453125 0,0.21875 -0.03125,0.328125 -0.15625,0.84375 z m 0,0"
               id="path6796" />
          </symbol>
        </g>
      </defs>
      <g
         id="lx-text6696-surface1"
         style="fill:#800000">
        <g
           style="fill:#800000;fill-opacity:1"
           id="g6805">
          <use
             xlink:href="#lx-text6696-glyph0-1"
             x="0"
             y="0"
             id="use6803"
             width="100%"
             height="100%"
             style="fill:#800000" />
        </g>
      </g>
    </g>
    <g
       transform="matrix(0.60734106,0,0,0.60734106,50.700623,59.592993)"
       id="lx-text6696-9"
       style="fill:#0000ff">
      <defs
         id="defs6817">
        <g
           id="g6815">
          <symbol
             overflow="visible"
             id="lx-text6696-9-glyph0-0"
             style="overflow:visible">
            <path
               style="stroke:none"
               d=""
               id="path6809" />
          </symbol>
          <symbol
             overflow="visible"
             id="lx-text6696-9-glyph0-1"
             style="overflow:visible">
            <path
               style="stroke:none"
               d="m 4.671875,-3.703125 c 0,-0.546875 -0.265625,-0.703125 -0.4375,-0.703125 -0.25,0 -0.5,0.265625 -0.5,0.484375 0,0.125 0.046875,0.1875 0.15625,0.296875 0.21875,0.203125 0.34375,0.453125 0.34375,0.8125 0,0.421875 -0.609375,2.703125 -1.765625,2.703125 -0.515625,0 -0.75,-0.34375 -0.75,-0.875 0,-0.546875 0.28125,-1.28125 0.578125,-2.109375 0.078125,-0.171875 0.125,-0.3125 0.125,-0.5 0,-0.4375 -0.3125,-0.8125 -0.8125,-0.8125 -0.9375,0 -1.3125,1.453125 -1.3125,1.53125 0,0.109375 0.09375,0.109375 0.109375,0.109375 0.109375,0 0.109375,-0.03125 0.15625,-0.1875 0.296875,-1 0.71875,-1.234375 1.015625,-1.234375 0.078125,0 0.25,0 0.25,0.3125 0,0.25 -0.109375,0.53125 -0.171875,0.703125 -0.4375,1.15625 -0.5625,1.609375 -0.5625,2.046875 0,1.078125 0.875,1.234375 1.328125,1.234375 1.671875,0 2.25,-3.296875 2.25,-3.8125 z m 0,0"
               id="path6812" />
          </symbol>
        </g>
      </defs>
      <g
         id="lx-text6696-9-surface1"
         style="fill:#0000ff">
        <g
           style="fill:#0000ff;fill-opacity:1"
           id="g6821">
          <use
             xlink:href="#lx-text6696-9-glyph0-1"
             x="0"
             y="0"
             id="use6819"
             width="100%"
             height="100%"
             style="fill:#0000ff" />
        </g>
      </g>
    </g>
    <g
       transform="matrix(0.60734106,0,0,0.60734106,99.203677,104.81123)"
       id="lx-text6696-9-6"
       style="fill:#008000">
      <defs
         id="defs7404">
        <g
           id="g7402">
          <symbol
             overflow="visible"
             id="lx-text6696-9-6-glyph0-0"
             style="overflow:visible">
            <path
               style="stroke:none"
               d=""
               id="path7387" />
          </symbol>
          <symbol
             overflow="visible"
             id="lx-text6696-9-6-glyph0-1"
             style="overflow:visible">
            <path
               style="stroke:none"
               d="m 4.671875,-3.703125 c 0,-0.546875 -0.265625,-0.703125 -0.4375,-0.703125 -0.25,0 -0.5,0.265625 -0.5,0.484375 0,0.125 0.046875,0.1875 0.15625,0.296875 0.21875,0.203125 0.34375,0.453125 0.34375,0.8125 0,0.421875 -0.609375,2.703125 -1.765625,2.703125 -0.515625,0 -0.75,-0.34375 -0.75,-0.875 0,-0.546875 0.28125,-1.28125 0.578125,-2.109375 0.078125,-0.171875 0.125,-0.3125 0.125,-0.5 0,-0.4375 -0.3125,-0.8125 -0.8125,-0.8125 -0.9375,0 -1.3125,1.453125 -1.3125,1.53125 0,0.109375 0.09375,0.109375 0.109375,0.109375 0.109375,0 0.109375,-0.03125 0.15625,-0.1875 0.296875,-1 0.71875,-1.234375 1.015625,-1.234375 0.078125,0 0.25,0 0.25,0.3125 0,0.25 -0.109375,0.53125 -0.171875,0.703125 -0.4375,1.15625 -0.5625,1.609375 -0.5625,2.046875 0,1.078125 0.875,1.234375 1.328125,1.234375 1.671875,0 2.25,-3.296875 2.25,-3.8125 z m 0,0"
               id="path7390" />
          </symbol>
          <symbol
             overflow="visible"
             id="lx-text6696-9-6-glyph1-0"
             style="overflow:visible">
            <path
               style="stroke:none"
               d=""
               id="path7393" />
          </symbol>
          <symbol
             overflow="visible"
             id="lx-text6696-9-6-glyph1-1"
             style="overflow:visible">
            <path
               style="stroke:none"
               d="m 2.015625,-3.296875 c 0.0625,-0.109375 0.0625,-0.171875 0.0625,-0.21875 0,-0.21875 -0.1875,-0.375 -0.40625,-0.375 -0.265625,0 -0.34375,0.21875 -0.375,0.328125 L 0.375,-0.546875 c -0.015625,0.015625 -0.046875,0.09375 -0.046875,0.109375 0,0.078125 0.21875,0.15625 0.28125,0.15625 0.046875,0 0.046875,-0.015625 0.09375,-0.125 z m 0,0"
               id="path7396" />
          </symbol>
          <symbol
             overflow="visible"
             id="lx-text6696-9-6-glyph1-2"
             style="overflow:visible">
            <path
               style="stroke:none"
               d="m 3.28125,-4.5625 c 0,-0.109375 0,-0.28125 -0.171875,-0.28125 -0.171875,0 -0.171875,0.171875 -0.171875,0.28125 v 4.21875 h -2.125 c -0.109375,0 -0.28125,0 -0.28125,0.171875 C 0.53125,0 0.703125,0 0.8125,0 H 5.40625 C 5.515625,0 5.6875,0 5.6875,-0.171875 5.6875,-0.34375 5.53125,-0.34375 5.40625,-0.34375 h -2.125 z m 0,0"
               id="path7399" />
          </symbol>
        </g>
      </defs>
      <g
         id="lx-text6696-9-6-surface1"
         style="fill:#008000">
        <g
           style="fill:#008000;fill-opacity:1"
           id="g7408">
          <use
             xlink:href="#lx-text6696-9-6-glyph0-1"
             x="0"
             y="0"
             id="use7406"
             width="100%"
             height="100%"
             style="fill:#008000" />
        </g>
        <g
           style="fill:#008000;fill-opacity:1"
           id="g7412">
          <use
             xlink:href="#lx-text6696-9-6-glyph1-1"
             x="5.1869998"
             y="-3.615"
             id="use7410"
             width="100%"
             height="100%"
             style="fill:#008000" />
        </g>
        <g
           style="fill:#008000;fill-opacity:1"
           id="g7416">
          <use
             xlink:href="#lx-text6696-9-6-glyph1-2"
             x="4.829"
             y="2.822"
             id="use7414"
             width="100%"
             height="100%"
             style="fill:#008000" />
        </g>
      </g>
    </g>
    <g
       transform="matrix(0.60734106,0,0,0.60734106,89.425441,70.664448)"
       id="lx-text6696-9-6-6"
       style="fill:#008000">
      <defs
         id="defs7437">
        <g
           id="g7435">
          <symbol
             overflow="visible"
             id="lx-text6696-9-6-6-glyph0-0"
             style="overflow:visible">
            <path
               style="stroke:none"
               d=""
               id="path7420" />
          </symbol>
          <symbol
             overflow="visible"
             id="lx-text6696-9-6-6-glyph0-1"
             style="overflow:visible">
            <path
               style="stroke:none"
               d="m 4.671875,-3.703125 c 0,-0.546875 -0.265625,-0.703125 -0.4375,-0.703125 -0.25,0 -0.5,0.265625 -0.5,0.484375 0,0.125 0.046875,0.1875 0.15625,0.296875 0.21875,0.203125 0.34375,0.453125 0.34375,0.8125 0,0.421875 -0.609375,2.703125 -1.765625,2.703125 -0.515625,0 -0.75,-0.34375 -0.75,-0.875 0,-0.546875 0.28125,-1.28125 0.578125,-2.109375 0.078125,-0.171875 0.125,-0.3125 0.125,-0.5 0,-0.4375 -0.3125,-0.8125 -0.8125,-0.8125 -0.9375,0 -1.3125,1.453125 -1.3125,1.53125 0,0.109375 0.09375,0.109375 0.109375,0.109375 0.109375,0 0.109375,-0.03125 0.15625,-0.1875 0.296875,-1 0.71875,-1.234375 1.015625,-1.234375 0.078125,0 0.25,0 0.25,0.3125 0,0.25 -0.109375,0.53125 -0.171875,0.703125 -0.4375,1.15625 -0.5625,1.609375 -0.5625,2.046875 0,1.078125 0.875,1.234375 1.328125,1.234375 1.671875,0 2.25,-3.296875 2.25,-3.8125 z m 0,0"
               id="path7423" />
          </symbol>
          <symbol
             overflow="visible"
             id="lx-text6696-9-6-6-glyph1-0"
             style="overflow:visible">
            <path
               style="stroke:none"
               d=""
               id="path7426" />
          </symbol>
          <symbol
             overflow="visible"
             id="lx-text6696-9-6-6-glyph1-1"
             style="overflow:visible">
            <path
               style="stroke:none"
               d="m 2.015625,-3.296875 c 0.0625,-0.109375 0.0625,-0.171875 0.0625,-0.21875 0,-0.21875 -0.1875,-0.375 -0.40625,-0.375 -0.265625,0 -0.34375,0.21875 -0.375,0.328125 L 0.375,-0.546875 c -0.015625,0.015625 -0.046875,0.09375 -0.046875,0.109375 0,0.078125 0.21875,0.15625 0.28125,0.15625 0.046875,0 0.046875,-0.015625 0.09375,-0.125 z m 0,0"
               id="path7429" />
          </symbol>
          <symbol
             overflow="visible"
             id="lx-text6696-9-6-6-glyph1-2"
             style="overflow:visible">
            <path
               style="stroke:none"
               d="m 1.4375,-4.96875 c 0,-0.09375 0,-0.25 -0.171875,-0.25 -0.171875,0 -0.171875,0.171875 -0.171875,0.296875 V 1.4375 c 0,0.125 0,0.296875 0.171875,0.296875 0.171875,0 0.171875,-0.15625 0.171875,-0.265625 z m 1.53125,0.046875 c 0,-0.125 0,-0.296875 -0.171875,-0.296875 -0.15625,0 -0.15625,0.15625 -0.15625,0.25 v 6.4375 c 0,0.109375 0,0.265625 0.15625,0.265625 0.171875,0 0.171875,-0.171875 0.171875,-0.296875 z m 0,0"
               id="path7432" />
          </symbol>
        </g>
      </defs>
      <g
         id="lx-text6696-9-6-6-surface1"
         style="fill:#008000">
        <g
           style="fill:#008000;fill-opacity:1"
           id="g7441">
          <use
             xlink:href="#lx-text6696-9-6-6-glyph0-1"
             x="0"
             y="0"
             id="use7439"
             width="100%"
             height="100%"
             style="fill:#008000" />
        </g>
        <g
           style="fill:#008000;fill-opacity:1"
           id="g7445">
          <use
             xlink:href="#lx-text6696-9-6-6-glyph1-1"
             x="5.1869998"
             y="-3.615"
             id="use7443"
             width="100%"
             height="100%"
             style="fill:#008000" />
        </g>
        <g
           style="fill:#008000;fill-opacity:1"
           id="g7449">
          <use
             xlink:href="#lx-text6696-9-6-6-glyph1-2"
             x="4.829"
             y="3.2090001"
             id="use7447"
             width="100%"
             height="100%"
             style="fill:#008000" />
        </g>
      </g>
    </g>
    <g
       transform="matrix(0.60734106,0,0,0.60734106,113.39687,71.74215)"
       id="lx-text7326"
       style="fill:#008000">
      <defs
         id="defs7467">
        <g
           id="g7465">
          <symbol
             overflow="visible"
             id="lx-text7326-glyph0-0"
             style="overflow:visible">
            <path
               style="stroke:none"
               d=""
               id="path7453" />
          </symbol>
          <symbol
             overflow="visible"
             id="lx-text7326-glyph0-1"
             style="overflow:visible">
            <path
               style="stroke:none"
               d="m 4.671875,-3.703125 c 0,-0.546875 -0.265625,-0.703125 -0.4375,-0.703125 -0.25,0 -0.5,0.265625 -0.5,0.484375 0,0.125 0.046875,0.1875 0.15625,0.296875 0.21875,0.203125 0.34375,0.453125 0.34375,0.8125 0,0.421875 -0.609375,2.703125 -1.765625,2.703125 -0.515625,0 -0.75,-0.34375 -0.75,-0.875 0,-0.546875 0.28125,-1.28125 0.578125,-2.109375 0.078125,-0.171875 0.125,-0.3125 0.125,-0.5 0,-0.4375 -0.3125,-0.8125 -0.8125,-0.8125 -0.9375,0 -1.3125,1.453125 -1.3125,1.53125 0,0.109375 0.09375,0.109375 0.109375,0.109375 0.109375,0 0.109375,-0.03125 0.15625,-0.1875 0.296875,-1 0.71875,-1.234375 1.015625,-1.234375 0.078125,0 0.25,0 0.25,0.3125 0,0.25 -0.109375,0.53125 -0.171875,0.703125 -0.4375,1.15625 -0.5625,1.609375 -0.5625,2.046875 0,1.078125 0.875,1.234375 1.328125,1.234375 1.671875,0 2.25,-3.296875 2.25,-3.8125 z m 0,0"
               id="path7456" />
          </symbol>
          <symbol
             overflow="visible"
             id="lx-text7326-glyph1-0"
             style="overflow:visible">
            <path
               style="stroke:none"
               d=""
               id="path7459" />
          </symbol>
          <symbol
             overflow="visible"
             id="lx-text7326-glyph1-1"
             style="overflow:visible">
            <path
               style="stroke:none"
               d="m 2.015625,-3.296875 c 0.0625,-0.109375 0.0625,-0.171875 0.0625,-0.21875 0,-0.21875 -0.1875,-0.375 -0.40625,-0.375 -0.265625,0 -0.34375,0.21875 -0.375,0.328125 L 0.375,-0.546875 c -0.015625,0.015625 -0.046875,0.09375 -0.046875,0.109375 0,0.078125 0.21875,0.15625 0.28125,0.15625 0.046875,0 0.046875,-0.015625 0.09375,-0.125 z m 0,0"
               id="path7462" />
          </symbol>
        </g>
      </defs>
      <g
         id="lx-text7326-surface1"
         style="fill:#008000">
        <g
           style="fill:#008000;fill-opacity:1"
           id="g7471">
          <use
             xlink:href="#lx-text7326-glyph0-1"
             x="0"
             y="0"
             id="use7469"
             width="100%"
             height="100%"
             style="fill:#008000" />
        </g>
        <g
           style="fill:#008000;fill-opacity:1"
           id="g7475">
          <use
             xlink:href="#lx-text7326-glyph1-1"
             x="5.1869998"
             y="-3.615"
             id="use7473"
             width="100%"
             height="100%"
             style="fill:#008000" />
        </g>
      </g>
    </g>
    <g
       transform="matrix(0.60734106,0,0,0.60734106,58.699723,96.989221)"
       id="lx-text7598"
       style="fill:#0000ff">
      <defs
         id="defs8049">
        <g
           id="g8047">
          <symbol
             style="overflow:visible"
             overflow="visible"
             id="lx-text7598-glyph0-0">
            <path
               style="stroke:none"
               d=""
               id="path8035" />
          </symbol>
          <symbol
             style="overflow:visible"
             overflow="visible"
             id="lx-text7598-glyph0-1">
            <path
               style="stroke:none"
               d="m 4.671875,-3.703125 c 0,-0.546875 -0.265625,-0.703125 -0.4375,-0.703125 -0.25,0 -0.5,0.265625 -0.5,0.484375 0,0.125 0.046875,0.1875 0.15625,0.296875 0.21875,0.203125 0.34375,0.453125 0.34375,0.8125 0,0.421875 -0.609375,2.703125 -1.765625,2.703125 -0.515625,0 -0.75,-0.34375 -0.75,-0.875 0,-0.546875 0.28125,-1.28125 0.578125,-2.109375 0.078125,-0.171875 0.125,-0.3125 0.125,-0.5 0,-0.4375 -0.3125,-0.8125 -0.8125,-0.8125 -0.9375,0 -1.3125,1.453125 -1.3125,1.53125 0,0.109375 0.09375,0.109375 0.109375,0.109375 0.109375,0 0.109375,-0.03125 0.15625,-0.1875 0.296875,-1 0.71875,-1.234375 1.015625,-1.234375 0.078125,0 0.25,0 0.25,0.3125 0,0.25 -0.109375,0.53125 -0.171875,0.703125 -0.4375,1.15625 -0.5625,1.609375 -0.5625,2.046875 0,1.078125 0.875,1.234375 1.328125,1.234375 1.671875,0 2.25,-3.296875 2.25,-3.8125 z m 0,0"
               id="path8038" />
          </symbol>
          <symbol
             style="overflow:visible"
             overflow="visible"
             id="lx-text7598-glyph1-0">
            <path
               style="stroke:none"
               d=""
               id="path8041" />
          </symbol>
          <symbol
             style="overflow:visible"
             overflow="visible"
             id="lx-text7598-glyph1-1">
            <path
               style="stroke:none"
               d="m 3.28125,-4.5625 c 0,-0.109375 0,-0.28125 -0.171875,-0.28125 -0.171875,0 -0.171875,0.171875 -0.171875,0.28125 v 4.21875 h -2.125 c -0.109375,0 -0.28125,0 -0.28125,0.171875 C 0.53125,0 0.703125,0 0.8125,0 H 5.40625 C 5.515625,0 5.6875,0 5.6875,-0.171875 5.6875,-0.34375 5.53125,-0.34375 5.40625,-0.34375 h -2.125 z m 0,0"
               id="path8044" />
          </symbol>
        </g>
      </defs>
      <g
         id="lx-text7598-surface1">
        <g
           id="g8053">
          <use
             height="100%"
             width="100%"
             xlink:href="#lx-text7598-glyph0-1"
             x="0"
             y="0"
             id="use8051" />
        </g>
        <g
           id="g8057">
          <use
             height="100%"
             width="100%"
             xlink:href="#lx-text7598-glyph1-1"
             x="4.829"
             y="1.495"
             id="use8055" />
        </g>
      </g>
    </g>
    <g
       transform="matrix(0.60734106,0,0,0.60734106,79.478743,68.744108)"
       id="lx-text7602"
       style="fill:#0000ff">
      <defs
         id="defs8075">
        <g
           id="g8073">
          <symbol
             style="overflow:visible"
             overflow="visible"
             id="lx-text7602-glyph0-0">
            <path
               style="stroke:none"
               d=""
               id="path8061" />
          </symbol>
          <symbol
             style="overflow:visible"
             overflow="visible"
             id="lx-text7602-glyph0-1">
            <path
               style="stroke:none"
               d="m 4.671875,-3.703125 c 0,-0.546875 -0.265625,-0.703125 -0.4375,-0.703125 -0.25,0 -0.5,0.265625 -0.5,0.484375 0,0.125 0.046875,0.1875 0.15625,0.296875 0.21875,0.203125 0.34375,0.453125 0.34375,0.8125 0,0.421875 -0.609375,2.703125 -1.765625,2.703125 -0.515625,0 -0.75,-0.34375 -0.75,-0.875 0,-0.546875 0.28125,-1.28125 0.578125,-2.109375 0.078125,-0.171875 0.125,-0.3125 0.125,-0.5 0,-0.4375 -0.3125,-0.8125 -0.8125,-0.8125 -0.9375,0 -1.3125,1.453125 -1.3125,1.53125 0,0.109375 0.09375,0.109375 0.109375,0.109375 0.109375,0 0.109375,-0.03125 0.15625,-0.1875 0.296875,-1 0.71875,-1.234375 1.015625,-1.234375 0.078125,0 0.25,0 0.25,0.3125 0,0.25 -0.109375,0.53125 -0.171875,0.703125 -0.4375,1.15625 -0.5625,1.609375 -0.5625,2.046875 0,1.078125 0.875,1.234375 1.328125,1.234375 1.671875,0 2.25,-3.296875 2.25,-3.8125 z m 0,0"
               id="path8064" />
          </symbol>
          <symbol
             style="overflow:visible"
             overflow="visible"
             id="lx-text7602-glyph1-0">
            <path
               style="stroke:none"
               d=""
               id="path8067" />
          </symbol>
          <symbol
             style="overflow:visible"
             overflow="visible"
             id="lx-text7602-glyph1-1">
            <path
               style="stroke:none"
               d="m 1.4375,-4.96875 c 0,-0.09375 0,-0.25 -0.171875,-0.25 -0.171875,0 -0.171875,0.171875 -0.171875,0.296875 V 1.4375 c 0,0.125 0,0.296875 0.171875,0.296875 0.171875,0 0.171875,-0.15625 0.171875,-0.265625 z m 1.53125,0.046875 c 0,-0.125 0,-0.296875 -0.171875,-0.296875 -0.15625,0 -0.15625,0.15625 -0.15625,0.25 v 6.4375 c 0,0.109375 0,0.265625 0.15625,0.265625 0.171875,0 0.171875,-0.171875 0.171875,-0.296875 z m 0,0"
               id="path8070" />
          </symbol>
        </g>
      </defs>
      <g
         id="lx-text7602-surface1">
        <g
           id="g8079">
          <use
             height="100%"
             width="100%"
             xlink:href="#lx-text7602-glyph0-1"
             x="0"
             y="0"
             id="use8077" />
        </g>
        <g
           id="g8083">
          <use
             height="100%"
             width="100%"
             xlink:href="#lx-text7602-glyph1-1"
             x="4.829"
             y="1.799"
             id="use8081" />
        </g>
      </g>
    </g>
    <g
       transform="matrix(0.69684385,0,0,0.69684385,81.025235,101.35969)"
       id="lx-text7918">
      <defs
         id="defs8095">
        <g
           id="g8093">
          <symbol
             style="overflow:visible"
             overflow="visible"
             id="lx-text7918-glyph0-0">
            <path
               style="stroke:none"
               d=""
               id="path8087" />
          </symbol>
          <symbol
             style="overflow:visible"
             overflow="visible"
             id="lx-text7918-glyph0-1">
            <path
               style="stroke:none"
               d="m 4.53125,-4.984375 c 0,-0.65625 -0.171875,-2.046875 -1.1875,-2.046875 -1.390625,0 -2.921875,2.8125 -2.921875,5.09375 0,0.9375 0.28125,2.046875 1.1875,2.046875 1.40625,0 2.921875,-2.859375 2.921875,-5.09375 z M 1.46875,-3.625 C 1.640625,-4.25 1.84375,-5.046875 2.25,-5.765625 2.515625,-6.25 2.875,-6.8125 3.328125,-6.8125 c 0.484375,0 0.546875,0.640625 0.546875,1.203125 0,0.5 -0.078125,1 -0.3125,1.984375 z m 2,0.328125 C 3.359375,-2.84375 3.15625,-2 2.765625,-1.28125 c -0.34375,0.6875 -0.71875,1.171875 -1.15625,1.171875 -0.328125,0 -0.53125,-0.296875 -0.53125,-1.21875 0,-0.421875 0.0625,-1 0.3125,-1.96875 z m 0,0"
               id="path8090" />
          </symbol>
        </g>
      </defs>
      <g
         id="lx-text7918-surface1">
        <g
           style="fill:#000000;fill-opacity:1"
           id="g8099">
          <use
             height="100%"
             width="100%"
             xlink:href="#lx-text7918-glyph0-1"
             x="0"
             y="0"
             id="use8097" />
        </g>
      </g>
    </g>
  </g>
</svg>
