<?xml version="1.0" encoding="UTF-8" standalone="no"?>
<svg
   xmlns:dc="http://purl.org/dc/elements/1.1/"
   xmlns:cc="http://creativecommons.org/ns#"
   xmlns:rdf="http://www.w3.org/1999/02/22-rdf-syntax-ns#"
   xmlns:svg="http://www.w3.org/2000/svg"
   xmlns="http://www.w3.org/2000/svg"
   xmlns:xlink="http://www.w3.org/1999/xlink"
   xmlns:sodipodi="http://sodipodi.sourceforge.net/DTD/sodipodi-0.dtd"
   xmlns:inkscape="http://www.inkscape.org/namespaces/inkscape"
   id="svg8"
   version="1.1"
   viewBox="0 0 117.79488 63.135979"
   height="63.135979mm"
   width="117.79488mm"
   sodipodi:docname="slerp.svg"
   inkscape:version="0.92.3 (2405546, 2018-03-11)">
  <sodipodi:namedview
     pagecolor="#ffffff"
     bordercolor="#666666"
     borderopacity="1"
     objecttolerance="10"
     gridtolerance="10"
     guidetolerance="10"
     inkscape:pageopacity="0"
     inkscape:pageshadow="2"
     inkscape:window-width="1610"
     inkscape:window-height="1019"
     id="namedview113"
     showgrid="false"
     inkscape:zoom="1.5992489"
     inkscape:cx="187.49143"
     inkscape:cy="144.94757"
     inkscape:window-x="129"
     inkscape:window-y="94"
     inkscape:window-maximized="0"
     inkscape:current-layer="svg8" />
  <defs
     id="defs2">
    <marker
       style="overflow:visible"
       id="marker3007"
       refX="0"
       refY="0"
       orient="auto">
      <path
         transform="scale(-0.6)"
         d="M 8.7185878,4.0337352 -2.2072895,0.01601326 8.7185884,-4.0017078 c -1.7454984,2.3720609 -1.7354408,5.6174519 -6e-7,8.035443 z"
         style="fill:#666666;fill-opacity:1;fill-rule:evenodd;stroke:#666666;stroke-width:0.625;stroke-linejoin:round;stroke-opacity:1"
         id="path3005" />
    </marker>
    <marker
       orient="auto"
       refY="0"
       refX="0"
       id="marker2260"
       style="overflow:visible">
      <path
         id="path2258"
         style="fill:#ff0000;fill-opacity:1;fill-rule:evenodd;stroke:#ff0000;stroke-width:0.625;stroke-linejoin:round;stroke-opacity:1"
         d="M 8.7185878,4.0337352 -2.2072895,0.01601326 8.7185884,-4.0017078 c -1.7454984,2.3720609 -1.7354408,5.6174519 -6e-7,8.035443 z"
         transform="scale(-0.6)" />
    </marker>
    <marker
       orient="auto"
       refY="0"
       refX="0"
       id="marker1960"
       style="overflow:visible">
      <path
         id="path1958"
         style="fill:#0000ff;fill-opacity:1;fill-rule:evenodd;stroke:#0000ff;stroke-width:0.625;stroke-linejoin:round;stroke-opacity:1"
         d="M 8.7185878,4.0337352 -2.2072895,0.01601326 8.7185884,-4.0017078 c -1.7454984,2.3720609 -1.7354408,5.6174519 -6e-7,8.035443 z"
         transform="scale(-0.6)" />
    </marker>
    <marker
       orient="auto"
       refY="0"
       refX="0"
       id="marker1405"
       style="overflow:visible">
      <path
         id="path1403"
         style="fill:#0000ff;fill-opacity:1;fill-rule:evenodd;stroke:#0000ff;stroke-width:0.625;stroke-linejoin:round;stroke-opacity:1"
         d="M 8.7185878,4.0337352 -2.2072895,0.01601326 8.7185884,-4.0017078 c -1.7454984,2.3720609 -1.7354408,5.6174519 -6e-7,8.035443 z"
         transform="scale(-0.6)" />
    </marker>
    <marker
       orient="auto"
       refY="0"
       refX="0"
       id="Arrow2Mend"
       style="overflow:visible">
      <path
         id="path846"
         style="fill:#0000ff;fill-opacity:1;fill-rule:evenodd;stroke:#0000ff;stroke-width:0.625;stroke-linejoin:round;stroke-opacity:1"
         d="M 8.7185878,4.0337352 -2.2072895,0.01601326 8.7185884,-4.0017078 c -1.7454984,2.3720609 -1.7354408,5.6174519 -6e-7,8.035443 z"
         transform="scale(-0.6)" />
    </marker>
    <marker
       orient="auto"
       refY="0"
       refX="0"
       id="Arrow2Mend-3"
       style="overflow:visible">
      <path
         id="path846-6"
         style="fill:#ff0000;fill-opacity:1;fill-rule:evenodd;stroke:#ff0000;stroke-width:0.625;stroke-linejoin:round;stroke-opacity:1"
         d="M 8.7185878,4.0337352 -2.2072895,0.01601326 8.7185884,-4.0017078 c -1.7454984,2.3720609 -1.7354408,5.6174519 -6e-7,8.035443 z"
         transform="scale(-0.6)" />
    </marker>
  </defs>
  <metadata
     id="metadata5">
    <rdf:RDF>
      <cc:Work
         rdf:about="">
        <dc:format>image/svg+xml</dc:format>
        <dc:type
           rdf:resource="http://purl.org/dc/dcmitype/StillImage" />
        <dc:title />
      </cc:Work>
    </rdf:RDF>
  </metadata>
  <path
     inkscape:connector-curvature="0"
     d="M 0.300001,62.046818 A 53.721176,53.721176 0 0 1 53.822214,8.326011 53.721176,53.721176 0 0 1 107.74088,61.648896"
     id="path815"
     style="opacity:1;fill:none;stroke:#000000;stroke-width:0.60000002;stroke-miterlimit:4;stroke-dasharray:none;stroke-dashoffset:0" />
  <path
     inkscape:connector-curvature="0"
     id="path1956"
     d="m 68.853153,58.405949 c -0.0148,-8.63762 -3.69986,-13.676603 -11.8935,-15.367997"
     style="fill:none;stroke:#0000ff;stroke-width:0.26458332px;stroke-linecap:butt;stroke-linejoin:miter;stroke-opacity:1;marker-end:url(#marker1960)" />
  <path
     inkscape:connector-curvature="0"
     id="path2256"
     d="m 81.306423,55.704434 c -0.23623,-5.102677 -1.51191,-8.079239 -5.85863,-11.244791"
     style="fill:none;stroke:#ff0000;stroke-width:0.26458332px;stroke-linecap:butt;stroke-linejoin:miter;stroke-opacity:1;marker-end:url(#marker2260)" />
  <path
     inkscape:connector-curvature="0"
     id="path1113"
     d="M 54.153333,61.746819 106.00361,49.986958"
     style="fill:none;stroke:#0000ff;stroke-width:0.5;stroke-linecap:butt;stroke-linejoin:miter;stroke-miterlimit:4;stroke-dasharray:none;stroke-opacity:1;marker-end:url(#marker1405)" />
  <path
     inkscape:connector-curvature="0"
     id="path817"
     d="M 54.153333,61.746819 60.968693,9.228357"
     style="fill:none;stroke:#0000ff;stroke-width:0.5;stroke-linecap:butt;stroke-linejoin:miter;stroke-miterlimit:4;stroke-dasharray:none;stroke-opacity:1;marker-end:url(#Arrow2Mend)" />
  <path
     inkscape:connector-curvature="0"
     id="path817-7"
     d="M 54.153333,61.746819 95.297043,28.229836"
     style="fill:none;stroke:#ff0000;stroke-width:0.5;stroke-linecap:butt;stroke-linejoin:miter;stroke-miterlimit:4;stroke-dasharray:none;stroke-opacity:1;marker-end:url(#Arrow2Mend-3)" />
  <circle
     r="1.1391648"
     cy="61.746815"
     cx="54.153332"
     id="path2618"
     style="opacity:1;fill:#000000;stroke:#000000;stroke-width:0.5;stroke-miterlimit:4;stroke-dasharray:none;stroke-dashoffset:0" />
  <g
     id="lx-text2637-2"
     transform="matrix(0.70432362,0,0,0.70432362,61.458894,43.038538)"
     style="fill:#0000ff">
    <defs
       id="defs2821">
      <g
         id="g2819">
        <symbol
           id="lx-text2637-2-glyph0-0"
           overflow="visible"
           style="overflow:visible">
          <path
             inkscape:connector-curvature="0"
             id="path2813"
             d=""
             style="stroke:none" />
        </symbol>
        <symbol
           id="lx-text2637-2-glyph0-1"
           overflow="visible"
           style="overflow:visible">
          <path
             inkscape:connector-curvature="0"
             id="path2816"
             d="M 6.75,-1.609375 H 6.5 c -0.046875,0.25 -0.09375,0.484375 -0.1875,0.71875 -0.046875,0.15625 -0.078125,0.25 -0.65625,0.25 H 4.859375 C 5,-1.203125 5.296875,-1.6875 5.75,-2.34375 c 0.46875,-0.703125 0.875,-1.390625 0.875,-2.1875 0,-1.375 -1.34375,-2.5 -3.03125,-2.5 -1.703125,0 -3.03125,1.140625 -3.03125,2.5 0,0.796875 0.40625,1.484375 0.875,2.1875 0.4375,0.65625 0.75,1.140625 0.890625,1.703125 H 1.53125 C 0.953125,-0.640625 0.921875,-0.734375 0.875,-0.875 0.78125,-1.109375 0.734375,-1.359375 0.6875,-1.609375 h -0.25 L 0.765625,0 h 1.59375 c 0.21875,0 0.25,0 0.25,-0.203125 0,-0.703125 -0.3125,-1.578125 -0.53125,-2.21875 -0.21875,-0.578125 -0.5,-1.359375 -0.5,-2.109375 0,-1.59375 1.109375,-2.28125 2.015625,-2.28125 0.953125,0 2.015625,0.71875 2.015625,2.28125 0,0.75 -0.28125,1.5 -0.5625,2.3125 -0.15625,0.421875 -0.46875,1.328125 -0.46875,2.015625 C 4.578125,0 4.609375,0 4.828125,0 h 1.59375 z m 0,0"
             style="stroke:none" />
        </symbol>
      </g>
    </defs>
    <g
       id="lx-text2637-2-surface1"
       style="fill:#0000ff">
      <g
         id="g2825"
         style="fill:#0000ff;fill-opacity:1">
        <use
           id="use2823"
           y="0"
           x="0"
           xlink:href="#lx-text2637-2-glyph0-1"
           width="100%"
           height="100%"
           style="fill:#0000ff" />
      </g>
    </g>
  </g>
  <g
     id="g1820"
     transform="matrix(1.4623489,0,0,1.4623489,43.141645,-26.577729)"
     style="fill:#ff0000">
    <g
       word-spacing="normal"
       letter-spacing="normal"
       font-size-adjust="none"
       font-stretch="normal"
       font-weight="normal"
       font-variant="normal"
       font-style="normal"
       stroke-miterlimit="10.433"
       xml:space="preserve"
       transform="matrix(0.09019426,0,0,-0.09019426,-15.783995,88.34616)"
       id="g1818"
       style="font-style:normal;font-variant:normal;font-weight:normal;font-stretch:normal;letter-spacing:normal;word-spacing:normal;text-anchor:start;fill:#ff0000;fill-opacity:1;fill-rule:evenodd;stroke:#000000;stroke-linecap:butt;stroke-linejoin:miter;stroke-miterlimit:10.43299961;stroke-dasharray:none;stroke-dashoffset:0;stroke-opacity:1"><path
         id="path1808"
         d="m 478.19,431.11 v 0.31 l -0.01,0.34 -0.02,0.36 -0.02,0.37 -0.03,0.39 -0.04,0.39 -0.04,0.41 -0.06,0.41 -0.07,0.42 -0.07,0.43 -0.09,0.42 -0.1,0.43 -0.12,0.42 -0.12,0.42 -0.14,0.41 -0.16,0.41 -0.17,0.4 -0.18,0.38 -0.2,0.37 -0.22,0.36 -0.23,0.34 -0.25,0.32 -0.28,0.3 -0.29,0.27 -0.31,0.25 -0.16,0.12 -0.17,0.1 -0.17,0.1 -0.18,0.1 -0.18,0.08 -0.19,0.08 -0.19,0.07 -0.2,0.06 -0.21,0.05 -0.21,0.05 -0.22,0.03 -0.22,0.02 -0.23,0.02 h -0.23 l -0.05,-1.09 c 2.44,0 2.73,-3.19 2.73,-6.03 0,-2.44 -0.39,-4.99 -1.59,-9.92 h -10.41 c 0.85,3.2 1.85,7.18 3.83,10.72 1.36,2.43 3.19,5.23 5.44,5.23 l 0.05,1.09 c -6.92,0 -14.6,-14.04 -14.6,-25.45 0,-4.69 1.44,-10.22 5.99,-10.22 v 1.1 c -1.66,0 -2.71,1.45 -2.71,6.07 0,2.1 0.3,4.99 1.6,9.86 h 10.37 c -0.54,-2.28 -1.59,-6.51 -3.5,-10.11 -1.73,-3.39 -3.62,-5.82 -5.76,-5.82 v -1.1 c 7.01,0 14.59,14.3 14.59,25.46 z"
         inkscape:connector-curvature="0"
         style="fill:#ff0000;stroke-width:0" /><path
         id="path1810"
         d="m 528.4,422.5 h 0.13 0.15 0.14 l 0.08,0.01 h 0.07 l 0.07,0.01 0.07,0.01 0.07,0.01 0.07,0.01 0.07,0.01 0.07,0.02 0.06,0.02 0.06,0.02 0.06,0.02 0.06,0.03 0.06,0.03 0.05,0.04 0.05,0.03 0.05,0.05 0.04,0.04 0.04,0.05 0.02,0.03 0.02,0.03 0.01,0.02 0.02,0.03 0.01,0.03 0.02,0.04 0.01,0.03 0.01,0.04 0.01,0.03 0.01,0.04 0.01,0.04 v 0.04 l 0.01,0.04 v 0.04 0.04 0.05 c 0,1 -0.95,1 -1.64,1 H 498.6 c -0.71,0 -1.64,0 -1.64,-1 0,-0.98 0.93,-0.98 1.68,-0.98 z"
         inkscape:connector-curvature="0"
         style="fill:#ff0000;stroke-width:0" /><path
         id="path1812"
         d="m 528.44,412.82 h 0.07 0.06 l 0.14,0.01 h 0.14 0.07 l 0.07,0.01 0.07,0.01 h 0.07 l 0.06,0.01 0.07,0.02 0.07,0.01 0.06,0.02 0.07,0.02 0.06,0.02 0.06,0.02 0.06,0.03 0.05,0.03 0.05,0.04 0.05,0.04 0.05,0.04 0.04,0.05 0.02,0.02 0.02,0.03 0.02,0.02 0.02,0.03 0.01,0.03 0.02,0.03 0.01,0.03 0.02,0.03 0.01,0.04 0.01,0.03 0.01,0.04 0.01,0.04 0.01,0.04 v 0.04 l 0.01,0.04 v 0.04 0.05 0.04 c 0,1 -0.95,1 -1.68,1 h -29.76 c -0.75,0 -1.68,0 -1.68,-1 0,-1 0.93,-1 1.64,-1 z"
         inkscape:connector-curvature="0"
         style="fill:#ff0000;stroke-width:0" /><path
         id="path1814"
         d="m 556.98,426.12 h 4.69 c 0.98,0 1.48,0 1.48,1 0,0.55 -0.5,0.55 -1.39,0.55 h -4.39 c 1.8,7.08 2.05,8.08 2.05,8.37 0,0.85 -0.6,1.35 -1.44,1.35 -0.16,0 -1.55,-0.05 -2,-1.8 l -1.94,-7.92 h -4.69 c -1,0 -1.5,0 -1.5,-0.94 0,-0.61 0.41,-0.61 1.41,-0.61 h 4.38 c -3.58,-14.14 -3.79,-14.98 -3.79,-15.89 0,-2.69 1.9,-4.58 4.58,-4.58 5.08,0 7.92,7.27 7.92,7.67 0,0.5 -0.38,0.5 -0.59,0.5 -0.45,0 -0.5,-0.15 -0.75,-0.7 -2.14,-5.17 -4.78,-6.37 -6.47,-6.37 -1.04,0 -1.54,0.65 -1.54,2.29 0,1.19 0.09,1.55 0.29,2.39 z"
         inkscape:connector-curvature="0"
         style="fill:#ff0000;stroke-width:0" /><path
         id="path1816"
         d="m 598.45,414.28 h -1.25 c -0.25,-1.3 -0.45,-2.46 -0.89,-3.64 -0.25,-0.8 -0.41,-1.21 -3.3,-1.21 h -3.98 c 0.64,2.8 2.19,5.19 4.44,8.47 2.34,3.55 4.37,6.99 4.37,10.92 0,6.93 -6.72,12.5 -15.14,12.5 -8.56,0 -15.19,-5.68 -15.19,-12.5 0,-3.93 2.03,-7.37 4.38,-10.92 2.18,-3.28 3.78,-5.67 4.43,-8.47 h -3.98 c -2.89,0 -3.05,0.41 -3.3,1.16 -0.39,1.14 -0.64,2.44 -0.89,3.69 h -1.25 l 1.66,-8.08 h 7.97 c 1.09,0 1.23,0 1.23,1.05 0,3.48 -1.53,7.87 -2.69,11.06 -1.04,2.89 -2.43,6.83 -2.43,10.56 0,7.97 5.48,11.36 10.01,11.36 4.78,0 10.07,-3.59 10.07,-11.36 0,-3.73 -1.35,-7.53 -2.8,-11.61 -0.74,-2.09 -2.33,-6.58 -2.33,-10.01 0,-1.05 0.14,-1.05 1.28,-1.05 h 7.92 z"
         inkscape:connector-curvature="0"
         style="fill:#ff0000;stroke-width:0" /></g>  </g>
  <g
     id="g1084"
     transform="matrix(1.5906647,0,0,1.5906647,68.315118,-32.417601)"
     style="fill:#0000ff">
    <g
       word-spacing="normal"
       letter-spacing="normal"
       font-size-adjust="none"
       font-stretch="normal"
       font-weight="normal"
       font-variant="normal"
       font-style="normal"
       stroke-miterlimit="10.433"
       xml:space="preserve"
       transform="matrix(0.09019426,0,0,-0.09019426,-15.783995,88.34616)"
       id="content-3"
       style="font-style:normal;font-variant:normal;font-weight:normal;font-stretch:normal;letter-spacing:normal;word-spacing:normal;text-anchor:start;fill:#0000ff;fill-opacity:1;fill-rule:evenodd;stroke:#000000;stroke-linecap:butt;stroke-linejoin:miter;stroke-miterlimit:10.43299961;stroke-dasharray:none;stroke-dashoffset:0;stroke-opacity:1"><path
         id="path1079"
         d="m 478.04,427.67 -0.01,0.02 v 0.02 0.02 0.02 l -0.01,0.02 v 0.02 l -0.01,0.02 v 0.02 l -0.01,0.02 -0.01,0.02 -0.01,0.02 -0.01,0.03 -0.01,0.02 -0.01,0.02 -0.02,0.02 -0.01,0.01 -0.02,0.02 -0.01,0.02 -0.02,0.02 -0.02,0.01 -0.02,0.02 -0.02,0.01 -0.02,0.02 -0.03,0.01 -0.02,0.01 -0.03,0.01 -0.02,0.01 h -0.03 l -0.03,0.01 h -0.03 l -0.03,0.01 h -0.02 -0.01 c -0.55,0 -2.54,-1.99 -3.38,-3.44 -1.11,2.69 -3.05,3.48 -4.64,3.48 v -1.09 c 3.23,0 3.94,-4.03 3.94,-4.37 0,-0.32 -2.74,-11.22 -2.89,-11.43 -0.75,-1.39 -3.53,-4.57 -6.33,-4.57 v 0 c -2.99,0 -3.19,3.84 -3.19,4.68 0,2.39 1.44,7.82 2.3,9.91 1.53,3.69 4.12,5.78 6.17,5.78 v 1.09 c -5.88,0 -12,-7.37 -12,-14.59 0,-4.87 2.94,-7.97 6.56,-7.97 2.16,0 4.1,1.19 5.89,2.99 -0.45,-1.74 -2.09,-8.47 -2.25,-8.93 -0.39,-1.39 -0.79,-1.59 -3.58,-1.64 -0.65,0 -1.15,0 -1.15,-1 0,-0.04 0,-0.54 0.65,-0.54 1.6,0 3.33,0.15 4.99,0.15 1.69,0 3.48,-0.15 5.12,-0.15 0.25,0 0.89,0 0.89,1 0,0.54 -0.48,0.54 -1.28,0.54 -2.4,0 -2.4,0.36 -2.4,0.8 0,0.36 0.11,0.66 0.2,1.09 z"
         inkscape:connector-curvature="0"
         style="fill:#0000ff;stroke-width:0" /><path
         id="path1081"
         d="m 489.39,420.92 v 0.04 0.04 0.05 0.04 0.03 0.04 0.04 0.03 l -0.01,0.04 v 0.03 0.03 0.03 0.03 l -0.01,0.03 v 0.03 0.02 l -0.01,0.03 v 0.02 l -0.01,0.03 v 0.02 l -0.02,0.04 -0.01,0.04 -0.02,0.03 -0.02,0.03 -0.02,0.03 -0.02,0.03 -0.03,0.02 -0.03,0.02 -0.04,0.02 -0.03,0.01 -0.04,0.01 -0.05,0.02 H 489 488.97 l -0.02,0.01 h -0.03 l -0.02,0.01 h -0.03 -0.03 -0.03 -0.04 l -0.03,0.01 h -0.03 -0.04 -0.04 -0.03 -0.04 -0.04 -0.04 -0.05 -0.04 -0.05 c -2.23,-2.2 -5.39,-2.23 -6.82,-2.23 v -1.25 c 0.84,0 3.14,0 5.04,0.97 v -17.77 c 0,-1.16 0,-1.61 -3.48,-1.61 h -1.31 v -1.25 c 0.62,0.03 4.9,0.14 6.2,0.14 1.08,0 5.47,-0.11 6.23,-0.14 v 1.25 h -1.32 c -3.49,0 -3.49,0.45 -3.49,1.61 z"
         inkscape:connector-curvature="0"
         style="fill:#0000ff;stroke-width:0" /></g>  </g>
  <g
     id="g1150"
     transform="matrix(1.5750197,0,0,1.5750197,18.642623,-76.763731)"
     style="fill:#0000ff">
    <g
       id="g1148"
       transform="matrix(0.09019426,0,0,-0.09019426,-15.783995,88.34616)"
       xml:space="preserve"
       stroke-miterlimit="10.433"
       font-style="normal"
       font-variant="normal"
       font-weight="normal"
       font-stretch="normal"
       font-size-adjust="none"
       letter-spacing="normal"
       word-spacing="normal"
       style="font-style:normal;font-variant:normal;font-weight:normal;font-stretch:normal;letter-spacing:normal;word-spacing:normal;text-anchor:start;fill:#0000ff;fill-opacity:1;fill-rule:evenodd;stroke:#000000;stroke-linecap:butt;stroke-linejoin:miter;stroke-miterlimit:10.43299961;stroke-dasharray:none;stroke-dashoffset:0;stroke-opacity:1"><path
         d="m 478.04,427.67 -0.01,0.02 v 0.02 0.02 0.02 l -0.01,0.02 v 0.02 l -0.01,0.02 v 0.02 l -0.01,0.02 -0.01,0.02 -0.01,0.02 -0.01,0.03 -0.01,0.02 -0.01,0.02 -0.02,0.02 -0.01,0.01 -0.02,0.02 -0.01,0.02 -0.02,0.02 -0.02,0.01 -0.02,0.02 -0.02,0.01 -0.02,0.02 -0.03,0.01 -0.02,0.01 -0.03,0.01 -0.02,0.01 h -0.03 l -0.03,0.01 h -0.03 l -0.03,0.01 h -0.02 -0.01 c -0.55,0 -2.54,-1.99 -3.38,-3.44 -1.11,2.69 -3.05,3.48 -4.64,3.48 v -1.09 c 3.23,0 3.94,-4.03 3.94,-4.37 0,-0.32 -2.74,-11.22 -2.89,-11.43 -0.75,-1.39 -3.53,-4.57 -6.33,-4.57 v 0 c -2.99,0 -3.19,3.84 -3.19,4.68 0,2.39 1.44,7.82 2.3,9.91 1.53,3.69 4.12,5.78 6.17,5.78 v 1.09 c -5.88,0 -12,-7.37 -12,-14.59 0,-4.87 2.94,-7.97 6.56,-7.97 2.16,0 4.1,1.19 5.89,2.99 -0.45,-1.74 -2.09,-8.47 -2.25,-8.93 -0.39,-1.39 -0.79,-1.59 -3.58,-1.64 -0.65,0 -1.15,0 -1.15,-1 0,-0.04 0,-0.54 0.65,-0.54 1.6,0 3.33,0.15 4.99,0.15 1.69,0 3.48,-0.15 5.12,-0.15 0.25,0 0.89,0 0.89,1 0,0.54 -0.48,0.54 -1.28,0.54 -2.4,0 -2.4,0.36 -2.4,0.8 0,0.36 0.11,0.66 0.2,1.09 z"
         id="path1144"
         inkscape:connector-curvature="0"
         style="fill:#0000ff;stroke-width:0" /><path
         d="m 495.31,405.11 h -1.19 c -0.09,-0.77 -0.45,-2.83 -0.9,-3.18 -0.27,-0.2 -2.95,-0.2 -3.44,-0.2 h -6.42 c 3.66,3.23 4.87,4.2 6.97,5.84 2.58,2.07 4.98,4.22 4.98,7.54 0,4.21 -3.69,6.79 -8.15,6.79 -4.32,0 -7.25,-3.03 -7.25,-6.23 0,-1.78 1.5,-1.96 1.86,-1.96 0.82,0 1.84,0.6 1.84,1.85 0,0.62 -0.25,1.84 -2.06,1.84 1.07,2.47 3.45,3.24 5.09,3.24 3.48,0 5.3,-2.71 5.3,-5.53 0,-3.04 -2.16,-5.44 -3.28,-6.69 l -8.39,-8.3 c -0.36,-0.31 -0.36,-0.39 -0.36,-1.36 h 14.36 z"
         id="path1146"
         inkscape:connector-curvature="0"
         style="fill:#0000ff;stroke-width:0" /></g>  </g>
  <g
     id="g1228"
     transform="matrix(1.5842999,0,0,1.5842999,55.723607,-56.793802)"
     style="fill:#ff0000">
    <g
       word-spacing="normal"
       letter-spacing="normal"
       font-size-adjust="none"
       font-stretch="normal"
       font-weight="normal"
       font-variant="normal"
       font-style="normal"
       stroke-miterlimit="10.433"
       xml:space="preserve"
       transform="matrix(0.09019426,0,0,-0.09019426,-15.783995,88.34616)"
       id="g1226"
       style="font-style:normal;font-variant:normal;font-weight:normal;font-stretch:normal;letter-spacing:normal;word-spacing:normal;text-anchor:start;fill:#ff0000;fill-opacity:1;fill-rule:evenodd;stroke:#000000;stroke-linecap:butt;stroke-linejoin:miter;stroke-miterlimit:10.43299961;stroke-dasharray:none;stroke-dashoffset:0;stroke-opacity:1"><path
         id="path1218"
         d="m 478.04,427.67 -0.01,0.02 v 0.02 0.02 0.02 l -0.01,0.02 v 0.02 l -0.01,0.02 v 0.02 l -0.01,0.02 -0.01,0.02 -0.01,0.02 -0.01,0.03 -0.01,0.02 -0.01,0.02 -0.02,0.02 -0.01,0.01 -0.02,0.02 -0.01,0.02 -0.02,0.02 -0.02,0.01 -0.02,0.02 -0.02,0.01 -0.02,0.02 -0.03,0.01 -0.02,0.01 -0.03,0.01 -0.02,0.01 h -0.03 l -0.03,0.01 h -0.03 l -0.03,0.01 h -0.02 -0.01 c -0.55,0 -2.54,-1.99 -3.38,-3.44 -1.11,2.69 -3.05,3.48 -4.64,3.48 v -1.09 c 3.23,0 3.94,-4.03 3.94,-4.37 0,-0.32 -2.74,-11.22 -2.89,-11.43 -0.75,-1.39 -3.53,-4.57 -6.33,-4.57 v 0 c -2.99,0 -3.19,3.84 -3.19,4.68 0,2.39 1.44,7.82 2.3,9.91 1.53,3.69 4.12,5.78 6.17,5.78 v 1.09 c -5.88,0 -12,-7.37 -12,-14.59 0,-4.87 2.94,-7.97 6.56,-7.97 2.16,0 4.1,1.19 5.89,2.99 -0.45,-1.74 -2.09,-8.47 -2.25,-8.93 -0.39,-1.39 -0.79,-1.59 -3.58,-1.64 -0.65,0 -1.15,0 -1.15,-1 0,-0.04 0,-0.54 0.65,-0.54 1.6,0 3.33,0.15 4.99,0.15 1.69,0 3.48,-0.15 5.12,-0.15 0.25,0 0.89,0 0.89,1 0,0.54 -0.48,0.54 -1.28,0.54 -2.4,0 -2.4,0.36 -2.4,0.8 0,0.36 0.11,0.66 0.2,1.09 z"
         inkscape:connector-curvature="0"
         style="fill:#ff0000;stroke-width:0" /><path
         id="path1220"
         d="m 496,394.25 v 0.02 0.03 0.01 0.02 0.01 l -0.01,0.02 v 0.01 l -0.01,0.02 -0.01,0.02 -0.01,0.02 -0.01,0.02 -0.02,0.03 -0.01,0.02 -0.02,0.03 -0.02,0.03 -0.03,0.03 -0.02,0.03 -0.03,0.04 -0.02,0.02 -0.01,0.02 -0.02,0.02 -0.02,0.02 -0.02,0.02 -0.02,0.03 -0.02,0.02 -0.02,0.02 -0.02,0.03 -0.03,0.02 -0.02,0.03 -0.03,0.03 -0.03,0.03 -0.02,0.03 -0.03,0.03 -0.03,0.03 -0.03,0.03 -0.03,0.03 -0.04,0.04 -0.03,0.03 -0.04,0.04 -0.03,0.03 -0.04,0.04 -0.04,0.04 c -6.22,6.28 -7.81,15.69 -7.81,23.31 0,8.67 1.89,17.35 8.01,23.56 0.64,0.61 0.64,0.71 0.64,0.86 0,0.35 -0.18,0.49 -0.48,0.49 -0.5,0 -4.98,-3.38 -7.92,-9.7 -2.55,-5.49 -3.14,-11.02 -3.14,-15.21 0,-3.89 0.54,-9.9 3.28,-15.54 2.98,-6.13 7.28,-9.36 7.78,-9.36 0.3,0 0.48,0.14 0.48,0.5 z"
         inkscape:connector-curvature="0"
         style="fill:#ff0000;stroke-width:0" /><path
         id="path1222"
         d="m 509.1,426.12 h 4.69 c 0.98,0 1.48,0 1.48,1 0,0.55 -0.5,0.55 -1.39,0.55 h -4.39 c 1.8,7.08 2.05,8.08 2.05,8.37 0,0.85 -0.59,1.35 -1.44,1.35 -0.15,0 -1.55,-0.05 -2,-1.8 l -1.94,-7.92 h -4.68 c -1,0 -1.5,0 -1.5,-0.94 0,-0.61 0.4,-0.61 1.4,-0.61 h 4.38 c -3.58,-14.14 -3.78,-14.98 -3.78,-15.89 0,-2.69 1.89,-4.58 4.57,-4.58 5.08,0 7.93,7.27 7.93,7.67 0,0.5 -0.39,0.5 -0.6,0.5 -0.45,0 -0.5,-0.15 -0.75,-0.7 -2.14,-5.17 -4.78,-6.37 -6.47,-6.37 -1.04,0 -1.54,0.65 -1.54,2.29 0,1.19 0.09,1.55 0.29,2.39 z"
         inkscape:connector-curvature="0"
         style="fill:#ff0000;stroke-width:0" /><path
         id="path1224"
         d="m 531.23,418.65 v 0.37 l -0.01,0.39 -0.01,0.39 -0.01,0.41 -0.04,0.84 -0.06,0.88 -0.08,0.92 -0.11,0.95 -0.13,0.97 -0.17,1.01 -0.19,1.02 -0.23,1.03 -0.27,1.05 -0.31,1.06 -0.35,1.07 -0.39,1.07 -0.21,0.53 -0.23,0.53 -0.23,0.53 -0.25,0.53 c -2.99,6.12 -7.27,9.36 -7.77,9.36 -0.3,0 -0.5,-0.19 -0.5,-0.49 0,-0.15 0,-0.25 0.94,-1.15 4.89,-4.92 7.73,-12.85 7.73,-23.27 0,-8.51 -1.84,-17.28 -8.03,-23.56 -0.64,-0.59 -0.64,-0.7 -0.64,-0.84 0,-0.3 0.2,-0.5 0.5,-0.5 0.5,0 4.97,3.39 7.92,9.71 2.53,5.47 3.13,11 3.13,15.19 z"
         inkscape:connector-curvature="0"
         style="fill:#ff0000;stroke-width:0" /></g>  </g>
</svg>
