<?xml version="1.0" encoding="UTF-8" standalone="no"?>
<!-- Created with Inkscape (http://www.inkscape.org/) -->
<svg xmlns:dc="http://purl.org/dc/elements/1.1/" xmlns:cc="http://creativecommons.org/ns#" xmlns:rdf="http://www.w3.org/1999/02/22-rdf-syntax-ns#" xmlns:svg="http://www.w3.org/2000/svg" xmlns="http://www.w3.org/2000/svg" xmlns:sodipodi="http://sodipodi.sourceforge.net/DTD/sodipodi-0.dtd" xmlns:inkscape="http://www.inkscape.org/namespaces/inkscape" width="36.336109mm" height="10.93611mm" viewBox="0 0 36.336109 10.936109" version="1.1" id="svg8" inkscape:version="0.92.1 r15371" sodipodi:docname="drawing.svg">
  <defs id="defs2"/>
  <sodipodi:namedview id="base" pagecolor="#ffffff" bordercolor="#666666" borderopacity="1.0" inkscape:pageopacity="0.0" inkscape:pageshadow="2" inkscape:zoom="7.9195959" inkscape:cx="63.067899" inkscape:cy="-0.63198452" inkscape:document-units="mm" inkscape:current-layer="layer1" showgrid="false" scale-x="1" fit-margin-top="0" fit-margin-left="0" fit-margin-right="0" fit-margin-bottom="0" showguides="true" inkscape:guide-bbox="true" inkscape:measure-start="46.5142,17.1073" inkscape:measure-end="53.9867,17.1094" inkscape:snap-global="true" inkscape:snap-to-guides="false" inkscape:object-paths="true" inkscape:window-width="1920" inkscape:window-height="1021" inkscape:window-x="0" inkscape:window-y="0" inkscape:window-maximized="1"/>
  <metadata id="metadata5">
    <rdf:RDF>
      <cc:Work rdf:about="">
        <dc:format>image/svg+xml</dc:format>
        <dc:type rdf:resource="http://purl.org/dc/dcmitype/StillImage"/>
        <dc:title/>
      </cc:Work>
    </rdf:RDF>
  </metadata>
  <g inkscape:label="Layer 1" inkscape:groupmode="layer" id="layer1" transform="translate(-80.861702,-149.4129)">
    <path style="display:inline;fill:none;stroke:#000000;stroke-width:0.26458332px;stroke-linecap:butt;stroke-linejoin:miter;stroke-opacity:1" d="m 83.507535,154.82111 h 6.803572 c 0.506385,-4.21073 4.834594,-4.54482 4.834594,0.98573 0,3.0346 -1.960633,3.03671 -1.960633,-0.0408 0,-5.48975 4.830256,-5.50645 4.830256,-0.0278 0,3.10738 -1.937857,3.12408 -1.937857,0.0574 0,-5.51935 4.824853,-5.53605 4.824853,-0.0305 0,3.08048 -1.9472,3.09759 -1.9472,0.01 0,-5.49855 4.926,-5.49855 4.926,0.0202 0,3.06728 -1.94725,3.06728 -1.94725,-0.0236 0,-5.49515 4.17528,-5.16106 4.69413,-0.84985 l 7.89721,-0.006" id="path4550-3" inkscape:connector-curvature="0" sodipodi:nodetypes="ccsssssssscc"/>
  </g>
</svg>