<?xml version="1.0" encoding="UTF-8" standalone="no"?>
<svg
   xmlns:dc="http://purl.org/dc/elements/1.1/"
   xmlns:cc="http://creativecommons.org/ns#"
   xmlns:rdf="http://www.w3.org/1999/02/22-rdf-syntax-ns#"
   xmlns:svg="http://www.w3.org/2000/svg"
   xmlns="http://www.w3.org/2000/svg"
   id="svg4275"
   height="123.07715"
   width="555.96979"
   version="1.0">
  <metadata
     id="metadata16">
    <rdf:RDF>
      <cc:Work
         rdf:about="">
        <dc:format>image/svg+xml</dc:format>
        <dc:type
           rdf:resource="http://purl.org/dc/dcmitype/StillImage" />
        <dc:title></dc:title>
      </cc:Work>
    </rdf:RDF>
  </metadata>
  <defs
     id="defs4277" />
  <g
     transform="translate(-49.633975,-29.39337)"
     id="layer1">
    <path
       id="path4352"
       style="opacity:1;fill:none;fill-opacity:1;stroke:#000000;stroke-width:1;stroke-miterlimit:4;stroke-dasharray:none;stroke-opacity:1"
       transform="rotate(180,99.330755,72.980945)"
       d="M 97.000002,113.07622 71.419245,68.769055 45.838491,24.461891 l 51.16151,-2e-6 51.161509,-1e-6 -25.58076,44.307168 z" />
    <path
       id="path4358"
       style="fill:none;fill-rule:evenodd;stroke:#08ff00;stroke-width:1px;stroke-linecap:butt;stroke-linejoin:miter;stroke-opacity:1"
       d="M 217.04036,91.999996 233.52018,62.280262" />
    <path
       id="path4360"
       style="fill:none;fill-rule:evenodd;stroke:#08ff00;stroke-width:1px;stroke-linecap:butt;stroke-linejoin:miter;stroke-opacity:1"
       d="m 266.47982,62.280262 16.47983,29.719734" />
    <path
       id="path4362"
       style="fill:none;fill-rule:evenodd;stroke:#08ff00;stroke-width:1px;stroke-linecap:butt;stroke-linejoin:miter;stroke-opacity:1"
       d="m 233.52018,121.71972 h 32.95964" />
    <path
       id="path4338"
       style="fill:none;fill-opacity:1;stroke:#000000;stroke-width:1;stroke-linecap:butt;stroke-linejoin:miter;stroke-miterlimit:4;stroke-dasharray:none;stroke-opacity:1"
       d="m 200.56053,62.280262 h 32.95965 L 250,32.560528 266.47982,62.280262 h 32.95965 l -16.47982,29.719734 16.47982,29.719724 H 266.47982 L 250,151.43947 233.52018,121.71972 H 200.56053 L 217.04036,91.999996 200.56053,62.280262" />
    <path
       id="path4385"
       style="fill:none;fill-opacity:1;stroke:#04ff00;stroke-width:1;stroke-linecap:butt;stroke-linejoin:miter;stroke-miterlimit:4;stroke-dasharray:none;stroke-opacity:1"
       d="m 355.79113,60.14415 h 32.95965 l 16.47982,-29.71973 16.47982,29.71973 h 32.95964 l -16.47982,29.71974 16.47982,29.71972 H 421.71042 L 405.2306,149.30336 388.75078,119.58361 H 355.79113 L 372.27096,89.86389 355.79113,60.14415" />
    <path
       id="path4374"
       style="fill:none;fill-opacity:1;stroke:#000000;stroke-width:0.9990893;stroke-linecap:butt;stroke-linejoin:miter;stroke-miterlimit:4;stroke-dasharray:none;stroke-opacity:1"
       d="m 355.75422,119.58665 5.49779,-9.90332 -5.49779,-9.90332 h 10.99558 l 5.49779,-9.90332 -5.49779,-9.90333 h -10.99558 l 5.49779,-9.90331 -5.49779,-9.90332 h 10.99558 l 5.49779,-9.90332 5.49779,9.90332 h 10.99558 l 5.49779,-9.90332 -5.49779,-9.90332 h 10.99559 l 5.49779,-9.90333 5.49779,9.90333 h 10.99558 l -5.49779,9.90332 5.49779,9.90332 h 10.99559 l 5.49779,-9.90332 5.49778,9.90332 h 10.99559 l -5.49781,9.90332 5.49781,9.90331 h -10.9956 l -5.49778,9.90333 5.49778,9.90332 h 10.9956 l -5.4978,9.90332 5.4978,9.90332 h -10.99559 l -5.49778,9.90331 -5.49779,-9.90331 h -10.99559 l -5.4978,9.90331 5.4978,9.90333 h -10.99559 l -5.49779,9.90333 -5.49778,-9.90333 h -10.99559 l 5.4978,-9.90333 -5.4978,-9.90331 h -10.99558 l -5.49779,9.90331 -5.49779,-9.90331 h -10.99558" />
    <path
       id="path4412"
       style="fill:none;fill-opacity:1;stroke:#00ff00;stroke-width:1;stroke-linecap:butt;stroke-linejoin:miter;stroke-miterlimit:4;stroke-dasharray:none;stroke-opacity:1"
       d="m 505.79573,119.72329 5.49774,-9.92147 -5.49774,-9.92147 h 10.99548 l 5.49774,-9.92148 -5.49774,-9.92148 h -10.99548 l 5.49774,-9.92146 -5.49774,-9.92147 h 10.99548 l 5.49774,-9.92148 5.49774,9.92148 h 10.99548 l 5.49774,-9.92148 -5.49774,-9.92147 h 10.99548 l 5.49774,-9.92148 5.49774,9.92148 h 10.99548 l -5.49774,9.92147 5.49774,9.92148 h 10.99549 l 5.49774,-9.92148 5.49773,9.92148 h 10.99548 l -5.49775,9.92147 5.49775,9.92146 h -10.99549 l -5.49773,9.92148 5.49773,9.92148 h 10.99549 l -5.49774,9.92147 5.49774,9.92147 h -10.99548 l -5.49773,9.92147 -5.49774,-9.92147 h -10.99549 l -5.49774,9.92147 5.49774,9.92148 h -10.99548 l -5.49774,9.92148 -5.49774,-9.92148 h -10.99548 l 5.49774,-9.92148 -5.49774,-9.92147 h -10.99548 l -5.49774,9.92147 -5.49774,-9.92147 h -10.99548" />
    <path
       id="path4399"
       style="fill:none;fill-opacity:1;stroke:#000000;stroke-width:1.03345299;stroke-linecap:butt;stroke-linejoin:miter;stroke-miterlimit:4;stroke-dasharray:none;stroke-opacity:1"
       d="m 505.85463,119.69805 1.83064,-3.30364 -1.83064,-3.30362 h 3.66128 l 1.83065,-3.30364 -1.83065,-3.30363 h -3.66129 l 1.83065,-3.30362 -1.83064,-3.30364 h 3.66128 l 1.83065,-3.30362 1.83066,3.30362 h 3.66128 l 1.83065,-3.30362 -1.83065,-3.30363 h 3.66129 l 1.83066,-3.30363 -1.83066,-3.30362 h -3.66129 l 1.83065,-3.30364 -1.83065,-3.30362 h -3.66129 l -1.83065,3.30362 -1.83065,-3.30362 h -3.66128 l 1.83064,-3.30363 -1.83065,-3.30363 h 3.66129 l 1.83065,-3.30362 -1.83065,-3.30364 h -3.66128 l 1.83064,-3.30362 -1.83065,-3.30364 3.66129,10e-6 1.83065,-3.30363 1.83065,3.30362 3.66129,10e-6 1.83065,-3.30363 -1.83065,-3.30362 h 3.66129 l 1.83066,-3.30364 1.83064,3.30364 h 3.66129 l -1.83064,3.30362 1.83064,3.30363 3.6613,-10e-6 1.83063,-3.30362 1.83068,3.30363 3.66127,-10e-6 1.83065,-3.30362 -1.83065,-3.30362 h 3.66129 l 1.83067,-3.30364 -1.83067,-3.30363 h -3.66129 l 1.83065,-3.30363 -1.83065,-3.30363 h 3.66129 l 1.83066,-3.30361 1.83065,3.30361 h 3.66129 l 1.83063,-3.30361 -1.83063,-3.30364 h 3.6613 l 1.83064,-3.30362 1.83063,3.30362 h 3.6613 l -1.83063,3.30364 1.83063,3.30361 h 3.6613 l 1.83064,-3.30361 1.83066,3.30361 h 3.66129 l -1.83065,3.30363 1.83065,3.30363 h -3.66129 l -1.83067,3.30363 1.83067,3.30364 h 3.66129 l -1.83065,3.30362 1.83065,3.30363 3.66128,-10e-6 1.83067,-3.30362 1.83063,3.30362 3.6613,10e-6 1.83064,-3.30363 -1.83064,-3.30362 h 3.6613 l 1.83063,-3.30364 1.83066,3.30364 h 3.66129 l -1.83065,3.30362 1.83065,3.30362 h 3.66128 l 1.83066,-3.30362 1.83065,3.30363 3.66128,-10e-6 -1.83064,3.30364 1.83065,3.30362 h -3.66129 l -1.83065,3.30364 1.83065,3.30362 h 3.66129 l -1.83065,3.30363 1.83064,3.30363 h -3.66128 l -1.83065,3.30362 -1.83065,-3.30362 h -3.66129 l -1.83065,3.30362 1.83065,3.30364 h -3.66129 l -1.83066,3.30362 1.83066,3.30363 h 3.66129 l -1.83065,3.30363 1.83065,3.30362 h 3.66129 l 1.83065,-3.30362 1.83065,3.30362 h 3.66129 l -1.83065,3.30364 1.83065,3.30362 h -3.66129 l -1.83065,3.30364 1.83065,3.30363 h 3.66128 l -1.83064,3.30362 1.83065,3.30364 h -3.66129 l -1.83065,3.30362 -1.83065,-3.30362 h -3.66129 l -1.83065,3.30362 1.83065,3.30362 -3.66129,1e-5 -1.83066,3.30363 -1.83064,-3.30364 -3.66129,1e-5 1.83064,-3.30363 -1.83064,-3.30362 h -3.6613 l -1.83063,3.30362 -1.83067,-3.30362 h -3.66128 l -1.83065,3.30362 1.83065,3.30363 -3.66129,-1e-5 -1.83067,3.30364 1.83067,3.30362 h 3.66129 l -1.83065,3.30363 1.83065,3.30363 h -3.66129 l -1.83066,3.30361 -1.83064,-3.30361 h -3.6613 l -1.83063,3.30361 1.83063,3.30364 h -3.6613 l -1.83064,3.30362 -1.83063,-3.30362 h -3.6613 l 1.83063,-3.30364 -1.83063,-3.30361 h -3.66129 l -1.83064,3.30361 -1.83067,-3.30361 h -3.66129 l 1.83065,-3.30363 -1.83065,-3.30363 h 3.66129 l 1.83067,-3.30362 -1.83067,-3.30364 h -3.66129 l 1.83065,-3.30362 -1.83065,-3.30362 h -3.66128 l -1.83067,3.30362 -1.83063,-3.30362 h -3.6613 l -1.83064,3.30362 1.83064,3.30363 -3.6613,-1e-5 -1.83063,3.30364 -1.83066,-3.30364 -3.66129,1e-5 1.83065,-3.30363 -1.83065,-3.30362 h -3.66128 l -1.83066,3.30362 -1.83065,-3.30362 h -3.66128" />
  </g>
</svg>
